<?xml version="1.0" encoding="UTF-8"?>
<svg id="Layer_2" data-name="Layer 2" xmlns="http://www.w3.org/2000/svg" viewBox="0 0 82.23 83.59">
  <defs>
    <style>
      .cls-1 {
        fill: #32C2FB;
      }
    </style>
  </defs>
  <g id="Capa_1" data-name="Capa 1">
    <path class="cls-1" d="M82.15,83.33c-.46,.15-.63,.26-.81,.26-7.65-.2-7.75-.18-9.52-7.25-2.28-9.14-4.39-18.33-6.59-27.5-.16-.65-.02-1.5-1.35-1.89-3.19,3.2-5.14,7.47-7.6,11.34-3.87,6.1-7.34,12.46-11.04,18.66-2.8,4.69-5.28,5.39-11.45,3.35-.04-2.73,1.94-4.55,3.15-6.69,7.23-12.78,14.5-25.54,21.83-38.26,.86-1.49,1.5-2.85,1.13-4.58-1.65-7.8-3.22-15.61-6.11-23.08-.11-.28-.55-.43-1.06-.81-4.12,7.02-8.15,14.06-12.36,21-8.17,13.48-16.45,26.9-24.66,40.36-1.6,2.62-3.4,5.18-4.61,7.98-1.55,3.59-4.08,4.74-7.71,4.3-1.05-.13-2.17,.22-3.39-.69,.53-2.94,2.08-5.57,3.59-8.2,10.4-18.07,20.81-36.13,31.23-54.2,2.54-4.4,5.12-8.77,7.68-13.16C44.19,1.37,46.51,.02,50.06,0c10.3-.04,10.28-.17,13.46,9.49,1.13,3.42,1.61,7.04,3.38,10.4,4.03-.37,8.09-.74,12.69-1.15-1.61,4.5-3.82,8.02-6.11,11.42-2.54,3.79-2.71,7.46-1.49,11.79,3.58,12.73,6.81,25.56,10.13,38.37,.22,.84,.03,1.78,.03,3.01Z"/>
  </g>
</svg>
