<?xml version="1.0" encoding="UTF-8"?>
<svg id="Layer_2" data-name="Layer 2" xmlns="http://www.w3.org/2000/svg" viewBox="0 0 100.26 66.59">
  <defs>
    <style>
      .cls-1 {
        fill: #D8FF7A;
      }
    </style>
  </defs>
  <g id="Capa_1" data-name="Capa 1">
    <g>
      <path class="cls-1" d="M55.45,53.81c-3.44,0-6.23-1.88-6.5-5.92-.31-4.73-2.63-8.63-4.16-12.85-2.66-7.34-6.11-6.58-10.25-1.3-3.48,4.43-7.23,8.61-11.02,12.76-.97,1.07-2.16,1.96-3.02,3.11-1.63,2.2-3.2,1.91-4.97,.24-2.4-2.28-2.81-3.97-1.02-5.96,5.05-5.64,10.21-11.18,15.3-16.78,1.8-1.98,3.72-3.73,4.19-6.76,.59-3.76,3.36-5.75,6.8-5.82,3.44-.07,6.34,1.84,6.64,5.81,.44,5.73,3.85,10.1,5.8,15.11,1.76,4.51,3.57,4.57,6.86,1.07,2.36-2.51,4.96-4.77,6.96-7.62,1.12-1.6,2.55-2.48,4.5-.69,2.53,2.33,3.16,3.9,1.61,5.86-1.68,2.14-3.58,4.1-5.28,6.22-2.48,3.07-5.42,5.79-6.34,9.97-.57,2.57-2.81,3.63-6.12,3.56Z"/>
      <path class="cls-1" d="M92.72,.03c3.63-.09,6.4,1.85,7.24,4.88,.9,3.24-.21,6.72-3.42,7.63-5.29,1.5-8.47,5.27-11.79,9.08-.36,.41-.69,.88-1.13,1.17-1.31,.86-1.97,3.15-3.78,2.65-2.17-.6-3.25-2.8-4.4-4.62-.72-1.13,.37-2.01,1.09-2.78,1.99-2.11,4.01-4.19,6.04-6.25,2.15-2.18,4.31-4.22,4.93-7.55,.5-2.67,2.37-4.48,5.2-4.21Z"/>
      <path class="cls-1" d="M0,58.84c.02-3.67,2.52-6.2,6.04-6.13,3.92,.08,7.33,3.48,7.27,7.26-.06,3.46-3.7,6.8-7.23,6.62C2.8,66.42-.02,62.82,0,58.84Z"/>
    </g>
  </g>
</svg>
