<svg id="Analytics_Button" data-name="Analytics Button" xmlns="http://www.w3.org/2000/svg" width="41.927" height="41.927" viewBox="0 0 41.927 41.927">
  <path id="Icon_metro-chart-dots" data-name="Icon metro-chart-dots" d="M7.812,38.614H44.5v5.241H2.571V1.928H7.812Zm6.551-2.62a3.931,3.931,0,0,1,0-7.861c.116,0,.23.006.343.016l4.225-7.042a3.931,3.931,0,1,1,6.586,0l4.225,7.042q.171-.015.343-.016c.087,0,.174,0,.26.009l6.975-12.207a3.931,3.931,0,1,1,3.247,1.715c-.088,0-.174,0-.26-.009L33.332,29.848a3.931,3.931,0,1,1-6.54.07l-4.225-7.042c-.113.01-.228.016-.343.016s-.23-.006-.343-.016l-4.225,7.042a3.93,3.93,0,0,1-3.293,6.076Z" transform="translate(-2.571 -1.928)" fill="#d8ff7a"/>
</svg>
