<?xml version="1.0" encoding="UTF-8"?>
<svg id="Layer_2" data-name="Layer 2" xmlns="http://www.w3.org/2000/svg" viewBox="0 0 58.08 39.45">
  <defs>
    <style>
      .cls-1 {
        fill: #FD8BB6;
      }
    </style>
  </defs>
  <g id="Capa_1" data-name="Capa 1">
    <path class="cls-1" d="M13.76,39.38c-2.82,.29-4.14-.94-5.02-2.61C5.94,31.48,3.26,26.14,.49,20.84c-1.04-1.99-.34-3.36,1.16-4.77,1.7-1.6,3.2-1.13,4.88-.07,1.9,1.19,3.19,2.89,4.49,4.67,2.66,3.63,4.17,3.94,7.51,.91,2.56-2.33,5.46-4.2,8.03-6.45,6.63-5.82,14.65-9.32,22.11-13.74,1.84-1.09,3.72-1,5.66-1.2,1.3-.13,2.52-.63,3.19,1,.64,1.58,.9,3.21-.15,4.66-.51,.7-1.35,1.21-2.11,1.68-12.16,7.37-23.25,16-32.4,27.01-2.47,2.97-5.45,5.4-9.09,4.85Z"/>
  </g>
</svg>
