<?xml version="1.0" encoding="UTF-8"?>
<svg id="Layer_2" data-name="Layer 2" xmlns="http://www.w3.org/2000/svg" viewBox="0 0 67.28 47.43">
  <defs>
    <style>
      .cls-1 {
        fill: #1a1a1a;
      }
    </style>
  </defs>
  <g id="Capa_1" data-name="Capa 1">
    <path class="cls-1" d="M49.37,12.45c-11.14-.75-21.88-1.51-32.81-1.15,.02,2.43,1.56,3.59,2.57,5.01,5.66,7.98,11.61,15.75,17.75,23.37,2.11,2.62,2.16,4.66,.47,6.22-2.17,2.02-5.93,2.1-7.86-.1-2.39-2.72-4.57-5.64-6.75-8.53C16.2,28.58,9.62,19.91,3.21,11.11,1.49,8.74-1.13,6.45,.53,2.84,2.28-.97,5.84,.2,8.67,.09c7.25-.28,14.48,.62,21.72,.91,9.94,.4,19.89-.39,29.81,.57,1.25,.12,2.47,0,3.7,.56,3.46,1.53,4.28,3.54,2.34,6.83-2.22,3.76-5.16,7.01-7.86,10.42-3.37,4.25-6.55,8.65-9.92,12.91-2.19,2.77-3.1,2.76-5.61,.38-3.87-3.66-3.96-5.74-.6-10.2,2.36-3.13,5.56-5.69,7.12-10Z"/>
  </g>
</svg>