<?xml version="1.0" encoding="UTF-8"?>
<svg id="Layer_2" data-name="Layer 2" xmlns="http://www.w3.org/2000/svg" viewBox="0 0 69.37 70.35">
  <defs>
    <style>
      .cls-1 {
        fill: #1a1a1a;
      }
    </style>
  </defs>
  <g id="Capa_1" data-name="Capa 1">
    <g>
      <path class="cls-1" d="M3.98,61.2c.23-1.72,.92-3.58,1.93-5.32,7.14-12.31,15.17-24.09,26.15-33.16,5.2-4.29,10.42-8.99,16.77-11.86,1.14-.51,2.21-1.3,3.12-2.17,3.42-3.31,7.91-4.33,12.21-5.61,3.27-.98,6.14,2.27,4.92,5.54-1.21,3.24-3.11,6.11-5.69,8.54-4.62,4.36-9.13,8.83-13.66,13.27-2.81,2.76-2.99,3.38-.6,6.35,6.27,7.74,10.41,16.53,13.27,26,.67,2.23,1.85,4.51-1.14,6.14-2.91,1.6-4.63,1.48-7.29-1.11-4.57-4.45-8.03-9.84-12.18-14.64-1.78-2.05-3.65-4.04-5.57-5.96-1.7-1.7-3.24-1.87-4.87,.41-4.11,5.75-8.41,11.37-12.62,17.04-.43,.58-.77,1.24-1.22,1.81-2.26,2.88-6.02,4.48-8.49,3.65-3.25-1.09-5.19-4.4-5.06-8.93Z"/>
      <path class="cls-1" d="M0,6.84C.03,2.55,5.64-1.38,9.86,.47c5.78,2.53,10.77,6.46,15.71,10.36,1.26,1,.85,2.22,.3,3.44-1.87,4.1-5.65,6.53-8.57,9.7-.85,.92-2.32,1.11-3.51,.18-4.58-3.57-9.13-7.18-12.36-12.12C.41,10.47,.16,8.66,0,6.84Z"/>
    </g>
  </g>
</svg>