<?xml version="1.0" encoding="UTF-8"?>
<svg id="Layer_2" data-name="Layer 2" xmlns="http://www.w3.org/2000/svg" viewBox="0 0 68.06 84.5">
  <defs>
    <style>
      .cls-1 {
        fill: #1a1a1a;
      }
    </style>
  </defs>
  <g id="Capa_1" data-name="Capa 1">
    <g>
      <path class="cls-1" d="M21.14,50.3c.34-7.98,.32-15.95-.3-23.92-.17-2.12,.47-4.31,1.83-6.13,1.55-2.08,3.69-.65,5.52-.97,9.01-1.59,18.04-.47,27.06-.5,4.26-.02,5.82,1.3,6.63,4.31,.64,2.37-.16,3.91-2.54,4.55-1.03,.28-2.16,.28-3.24,.32-7.07,.24-14.13,.46-21.2,.66-3.99,.11-4.21,.31-4.44,4.33-.68,11.79,.06,23.6-.14,35.39-.06,3.43,.83,4.08,4.31,3.73,1.98-.2,3.89-.64,5.53-2,8.78-7.3,12.81-16.86,13.55-28.03,.06-.9,0-1.81,.04-2.72,.17-3.56,3.03-5.67,6.42-4.68,1.59,.46,2.21,1.63,2.33,3.26,.33,4.37,.3,8.71-.81,12.98-2.27,8.76-6.28,16.58-12.35,23.33-6.51,7.24-14.81,8.59-23.85,7.21-2.88-.44-4.15-2.68-4.18-5.58-.06-6.16-.14-12.32-.2-18.48-.02-2.36,0-4.71,0-7.07Z"/>
      <path class="cls-1" d="M6.38,34.17c.7-7.79-.05-15.56-.23-23.34-.05-2.09,.59-3.95,1.4-5.75,.51-1.14,1.47-1.9,2.98-1.98,10.12-.53,20.24-.53,30.36-.24,3.95,.11,5.9,1.98,6.5,5.29,.67,3.71-.15,4.82-4,5.14-7.24,.61-14.48,.49-21.7-.39-5.32-.64-5.47-.4-5.84,4.77-.75,10.31-.04,20.6-.11,30.9-.03,4.33-1.03,8.63-.18,13,.24,1.25,.8,3.3-.91,3.87-1.8,.6-3.87,.85-5.7-.53-2.14-1.61-2.52-3.89-2.54-6.29-.05-7.24-.02-14.49-.03-21.73,0-.91,0-1.81,0-2.72Z"/>
      <path class="cls-1" d="M4,83.77c2.53-3.05,.17-4.78-1.59-6.85-1.15-1.36-3.68-2.76-1.66-4.91,2.27-2.43,3.83,.23,5.44,1.43,.86,.64,1.61,1.45,1.91,2.57,.29,1.08,.96,1.45,1.97,.74,1.73-1.2,2.14-.18,2.41,1.34,1.18,6.63,.3,7.27-8.48,5.67Z"/>
      <path class="cls-1" d="M55.33,.52c2.99-.89,5.63-.47,8.94,.06-1.83,2.53-1.47,4.51,.65,6.17,.7,.55,1.29,1.29,1.79,2.04,.66,.98,2.07,1.95,.9,3.29-1.26,1.45-2.87,1.3-4.43,.31-.79-.51-1.23-1.27-1.69-2.07-.54-.93-1.16-1.94-2.02-2.53-3.96-2.74-4-2.69-4.14-7.27Z"/>
    </g>
  </g>
</svg>