<?xml version="1.0" encoding="UTF-8"?>
<svg id="Layer_2" data-name="Layer 2" xmlns="http://www.w3.org/2000/svg" viewBox="0 0 101.61 69.09">
  <defs>
    <style>
      .cls-1 {
        fill: #FD8BB6;
      }
    </style>
  </defs>
  <g id="Capa_1" data-name="Capa 1">
    <path class="cls-1" d="M24.79,54.47c3.87,4.5,9.02,5.7,14.25,7.79-2.95,1.77-4.47,5.03-8.26,3.98-.42-.12-1.12,.15-1.47,.48-4.32,3.97-8.14,1.89-12.23-.64-6.15-3.8-10.48-9.37-15.11-14.67-1.57-1.8-2.27-3.85-1.85-6.49,.94-5.9,1.68-11.75,4.71-17.13,3.02-5.37,5.76-10.91,8.32-16.51C15.53,6.07,19.76,2.91,24.89,1.7,31.21,.21,37.77-.64,44.34,.59c1.4,.26,2.89,.48,3.19,2.69-5.47,.48-11.22-.47-15.92,3.52,12.79-1.71,25.53-1.95,38.62,.62-.9-2.42-2.72-2.81-4.34-3.14-2.83-.57-5.69-1.04-8.61-.96-1.06,.03-2.76,1.39-2.95-.84-.1-1.21,1.31-1.65,2.39-1.79,7.82-1,15.51-.77,22.97,2.2,3.32,1.32,5.58,3.49,7.53,6.54,2.91,4.57,6.11,8.91,8.29,13.93,2.98,6.85,5.21,13.84,6.03,21.34,.29,2.65-.15,4.81-1.64,6.57-5.38,6.36-10.81,12.7-18.42,16.63-1.32,.68-2.57,1.08-4.1,1.17-2.93,.18-4.3-3.14-7.37-2.84-2.42,.24-2.46-.15-6.93-4.02,4.82-2.11,9.95-3.45,14.12-7.79-17.71,5.68-34.78,5.64-52.41,.03Zm9.77-7.66c7.37-.43,10.5-3.07,10.04-8.48-.44-5.2-4.13-8.3-9.62-8.09-4.68,.19-7.33,4.45-6.85,11.03,.28,3.9,2.46,5.77,6.43,5.54Zm39.32-7.79c0-4.88-3.8-9.1-8.21-9.13-3.86-.03-7.39,3.64-7.46,7.77-.07,3.96,3.45,8.42,6.72,8.52,5.58,.17,8.95-2.53,8.94-7.15Z"/>
  </g>
</svg>
