<?xml version="1.0" encoding="UTF-8"?>
<svg id="Layer_2" data-name="Layer 2" xmlns="http://www.w3.org/2000/svg" viewBox="0 0 43.98 153.59">
  <defs>
    <style>
      .cls-1 {
        fill: #1a1a1a;
      }
    </style>
  </defs>
  <g id="Capa_1" data-name="Capa 1">
    <g>
      <path class="cls-1" d="M43.98,98.67c-1.75,4.09-3.14,7.6-4.75,11.01-2.9,6.13-5.94,12.19-8.9,18.28-3.27,6.74-5.67,13.8-7.9,20.94-.34,1.07-.66,2.17-1.17,3.16-1,1.94-3.09,2.06-4.33,.23-.55-.8-.91-1.75-1.26-2.68-2.38-6.45-4.23-13.17-7.27-19.29-2.23-4.47-4.04-9.26-7.17-13.29-.59-.76-1.45-1.39-1.18-2.87,1.85,.19,3.27,1.12,4.6,2.35,1.77,1.64,3.38,3.41,4.81,5.36,.61,.83,1.36,1.56,2.44,1.42,1.33-.18,1.16-1.44,1.31-2.35,.18-1.11,.31-2.26,.21-3.37-.7-7.85-.41-15.63,1.28-23.34,.35-1.61-.83-2.83-.78-4.46,.09-2.82,1.09-5.49,.85-8.37-.25-2.93,.1-5.92,.25-8.89,.15-2.95,.38-5.89,.58-8.83,.34-5.16,.21-10.37,1.23-15.46,.81-4.06,.26-8.14,.39-12.2,.03-.97-.35-1.99,.35-2.86,1.13-1.42,2.05-3.37,4.14-3.22,2.32,.17,3.08,2.12,3.53,4.15,.31,1.38,.62,2.75,.55,4.18-.46,9.27-.7,18.56-1.48,27.8-.26,3.11-.21,6.18-.06,9.22,.3,6.22-.53,12.36-.93,18.52-.17,2.63,1.01,5.14-.08,7.93-.86,2.19-.5,4.85-.7,7.3-.34,4.25,.22,8.47,.57,12.69,.07,.86,.4,1.75,1.33,1.93,.78,.15,1.21-.63,1.63-1.17,.34-.44,.62-.95,.84-1.47,2.99-7.13,8-12.94,12.41-19.14,.97-1.36,1.93-2.82,4.68-3.2Z"/>
      <path class="cls-1" d="M25.21,6.69c.42,2.99,.57,6.36,.55,9.74,0,2.02-.78,3.25-2.77,3.56-1.73,.27-4-1.22-3.85-3.09,.4-5.12,0-10.37,1.87-15.31,.35-.92,1.12-1.71,2.26-1.58,1.25,.14,1.33,1.19,1.58,2.17,.36,1.37,.76,2.71,.35,4.51Z"/>
    </g>
  </g>
</svg>