<svg xmlns="http://www.w3.org/2000/svg" width="43.963" height="44.634" viewBox="0 0 43.963 44.634">
  <g id="Group_120" data-name="Group 120" transform="translate(-11849.061 -3945.106)">
    <path id="Path_322" data-name="Path 322" d="M11851.643,4028.591l40.672-.445a.716.716,0,0,0,.709-.715v-4.553a.716.716,0,0,0-.707-.716l-42.531-.51a.716.716,0,0,0-.725.715v6.3h0v3.256a.715.715,0,0,0,.717.715h.443a.715.715,0,0,0,.715-.715v-2.613A.715.715,0,0,1,11851.643,4028.591Z" transform="translate(0 -42.895)" fill="#f9f9f9"/>
    <g id="Group_117" data-name="Group 117" transform="translate(11849.061 3945.106)">
      <path id="Path_323" data-name="Path 323" d="M11889.763,3945.106h-4.7a.659.659,0,0,0-.658.636l-.421,11.977a.494.494,0,0,1-.493.476h0a.493.493,0,0,1-.493-.476l-.422-11.977a.658.658,0,0,0-.658-.636h-4.7a.658.658,0,0,0-.658.636l-.48,13.646a.658.658,0,0,0,.658.681h13.5a.658.658,0,0,0,.658-.681l-.479-13.646A.66.66,0,0,0,11889.763,3945.106Z" transform="translate(-11864.206 -3945.106)" fill="#f9f9f9"/>
      <path id="Path_324" data-name="Path 324" d="M11859.57,3946.322v-.557a.658.658,0,0,0-.658-.659h-8.712a.657.657,0,0,0-.657.636l-.48,13.646a.657.657,0,0,0,.657.681h5.658a.657.657,0,0,0,.657-.681l-.215-6.1a.66.66,0,0,1,.659-.682h.794a.659.659,0,0,0,.659-.658v-.558a.659.659,0,0,0-.659-.659h-.906a.657.657,0,0,1-.658-.635l-.086-2.432a.659.659,0,0,1,.658-.682h2.631A.658.658,0,0,0,11859.57,3946.322Z" transform="translate(-11849.063 -3945.106)" fill="#f9f9f9"/>
      <path id="Path_325" data-name="Path 325" d="M11922.537,3945.8l.115,2.487a.2.2,0,0,1-.373.1l-1.467-2.912a.656.656,0,0,0-.588-.362h-4.926a.658.658,0,0,0-.658.636l-.48,13.646a.658.658,0,0,0,.658.681h5.648a.658.658,0,0,0,.658-.689l-.115-2.487a.2.2,0,0,1,.375-.1l1.465,2.912a.657.657,0,0,0,.588.362h4.926a.657.657,0,0,0,.658-.635l.482-13.646a.661.661,0,0,0-.658-.682h-5.652A.659.659,0,0,0,11922.537,3945.8Z" transform="translate(-11885.541 -3945.106)" fill="#f9f9f9"/>
    </g>
    <g id="Group_119" data-name="Group 119" transform="translate(11850.811 3961.894)">
      <g id="Group_118" data-name="Group 118">
        <path id="Path_326" data-name="Path 326" d="M11867.51,3987.729a.719.719,0,0,0-.69-.693l-4.437-.177a6.353,6.353,0,0,0-1.6.032,2.256,2.256,0,0,0-1.648,2.069v.057l-.03.687a.506.506,0,0,1-1.012,0,9.9,9.9,0,0,1-.015-1.219,3.48,3.48,0,0,1,2.288-2.89,6.669,6.669,0,0,1,2.019-.243l1.824-.072,2.5-.1a.721.721,0,0,0,.69-.744l-.019-.507a.659.659,0,0,0-.658-.636h-12.538a.658.658,0,0,0-.658.636l-.48,13.646a.658.658,0,0,0,.658.682h13.5a.658.658,0,0,0,.658-.682Z" transform="translate(-11853.041 -3983.294)" fill="#f9f9f9"/>
      </g>
      <path id="Path_327" data-name="Path 327" d="M11897.445,3998.257h-5.658a.658.658,0,0,1-.656-.682l.479-13.646a.66.66,0,0,1,.658-.636h4.7a.658.658,0,0,1,.658.636l.48,13.646A.658.658,0,0,1,11897.445,3998.257Z" transform="translate(-11874.386 -3983.294)" fill="#f9f9f9"/>
      <path id="Path_328" data-name="Path 328" d="M11925.9,3989.553a.657.657,0,0,0-.658-.635h-6.57a.659.659,0,0,1-.658-.635l-.154-4.353a.656.656,0,0,0-.658-.636h-4.7a.66.66,0,0,0-.658.636l-.48,13.646a.658.658,0,0,0,.658.682h13.5a.658.658,0,0,0,.658-.682Zm-4.74,5.767a1.062,1.062,0,0,1-1.062,1.063h-1.59a1.062,1.062,0,0,1-1.062-1.063v-1.59a1.062,1.062,0,0,1,1.063-1.063h1.59a1.062,1.062,0,0,1,1.063,1.063Z" transform="translate(-11885.724 -3983.294)" fill="#f9f9f9"/>
      <rect id="Rectangle_73" data-name="Rectangle 73" width="5.032" height="5.032" rx="2" transform="translate(2.376 8.201)" fill="#f9f9f9" stroke="#1c1a32" stroke-width="0.5"/>
      <path id="Path_1180" data-name="Path 1180" d="M1.41,0H2.782a1.41,1.41,0,0,1,1.41,1.41V2.782a1.41,1.41,0,0,1-1.41,1.41H1.41A1.41,1.41,0,0,1,0,2.782V1.41A1.41,1.41,0,0,1,1.41,0Z" transform="translate(8.262 9.118)" fill="#f9f9f9" stroke="#1c1a32" stroke-width="0.5"/>
      <path id="Path_329" data-name="Path 329" d="M11863.466,4007.417h-.981a.448.448,0,0,1-.447-.447v-.981a.447.447,0,0,1,.447-.447h.981a.446.446,0,0,1,.445.447v.208a.079.079,0,0,1-.079.08h-.777a.081.081,0,0,0-.08.081v.241a.08.08,0,0,0,.08.08h.777a.079.079,0,0,1,.079.08v.211A.446.446,0,0,1,11863.466,4007.417Z" transform="translate(-11858.082 -3995.762)" fill="#1d1934"/>
      <path id="Path_330" data-name="Path 330" d="M11875.895,4008.544h-.979a.446.446,0,0,1-.447-.447v-.981a.446.446,0,0,1,.447-.447h.979a.448.448,0,0,1,.449.447v.208a.081.081,0,0,1-.082.08h-.775a.082.082,0,0,0-.082.081v.241a.081.081,0,0,0,.082.08h.775a.082.082,0,0,1,.082.08v.211A.448.448,0,0,1,11875.895,4008.544Z" transform="translate(-11865.049 -3996.393)" fill="#1d1934"/>
    </g>
  </g>
</svg>
