<svg xmlns="http://www.w3.org/2000/svg" width="26.34" height="35.451" viewBox="0 0 26.34 35.451">
  <g id="Group_625" data-name="Group 625" transform="translate(-11005.858 -1023.205)">
    <g id="Group_624" data-name="Group 624" transform="translate(11005.858 1023.205)">
      <g id="Capa_1" data-name="Capa 1" transform="translate(0 7.953) rotate(-20)">
        <path id="Path_449" data-name="Path 449" d="M.519.173A17.809,17.809,0,0,0,0,3.974a9.58,9.58,0,0,1,2.91.345A10.564,10.564,0,0,1,6.625,7.051a7.62,7.62,0,0,0,3.906,2.384,9.032,9.032,0,0,0,1.911,0,8.776,8.776,0,0,1,5.44.978,9.772,9.772,0,0,1,2.438,2.713,16.475,16.475,0,0,0,2.622-2.65.991.991,0,0,0,.3-.775.972.972,0,0,0-.329-.468,10.988,10.988,0,0,0-6.846-2.884,21.194,21.194,0,0,1-4.09-.214C9.892,5.615,8.343,3.929,6.818,2.418A9.782,9.782,0,0,0,5.41,1.206,8.855,8.855,0,0,0,.578,0C.551.091.523.181.5.273" transform="translate(0 0)" fill="#1d1934"/>
      </g>
      <g id="Capa_1-2" data-name="Capa 1" transform="translate(0 15.506) rotate(-20)">
        <path id="Path_449-2" data-name="Path 449" d="M.519.173A17.809,17.809,0,0,0,0,3.974a9.58,9.58,0,0,1,2.91.345A10.564,10.564,0,0,1,6.625,7.051a7.62,7.62,0,0,0,3.906,2.384,9.032,9.032,0,0,0,1.911,0,8.776,8.776,0,0,1,5.44.978,9.772,9.772,0,0,1,2.438,2.713,16.475,16.475,0,0,0,2.622-2.65.991.991,0,0,0,.3-.775.972.972,0,0,0-.329-.468,10.988,10.988,0,0,0-6.846-2.884,21.194,21.194,0,0,1-4.09-.214C9.892,5.615,8.343,3.929,6.818,2.418A9.782,9.782,0,0,0,5.41,1.206,8.855,8.855,0,0,0,.578,0C.551.091.523.181.5.273" transform="translate(0 0)" fill="#1d1934"/>
      </g>
      <g id="Capa_1-3" data-name="Capa 1" transform="translate(0 23.115) rotate(-20)">
        <path id="Path_449-3" data-name="Path 449" d="M.519.173A17.809,17.809,0,0,0,0,3.974a9.58,9.58,0,0,1,2.91.345A10.564,10.564,0,0,1,6.625,7.051a7.62,7.62,0,0,0,3.906,2.384,9.032,9.032,0,0,0,1.911,0,8.776,8.776,0,0,1,5.44.978,9.772,9.772,0,0,1,2.438,2.713,16.475,16.475,0,0,0,2.622-2.65.991.991,0,0,0,.3-.775.972.972,0,0,0-.329-.468,10.988,10.988,0,0,0-6.846-2.884,21.194,21.194,0,0,1-4.09-.214C9.892,5.615,8.343,3.929,6.818,2.418A9.782,9.782,0,0,0,5.41,1.206,8.855,8.855,0,0,0,.578,0C.551.091.523.181.5.273" transform="translate(0 0)" fill="#1d1934"/>
      </g>
    </g>
  </g>
</svg>
