<?xml version="1.0" encoding="UTF-8"?>
<svg id="Layer_2" data-name="Layer 2" xmlns="http://www.w3.org/2000/svg" viewBox="0 0 233.42 170.58">
  <defs>
    <style>
      .cls-1 {
        fill: #ec7547;
      }

      .cls-2 {
        fill: #dffd8b;
      }

      .cls-3 {
        fill: none;
        stroke: #1a1a1a;
        stroke-miterlimit: 10;
      }
    </style>
  </defs>
  <g id="Capa_1" data-name="Capa 1">
    <g>
      <g>
        <path class="cls-2" d="M223.32,111.26c1.66-3.96,1.92-8.13,1.96-12.34,.19-5.26-.55-10.39-2.51-15.29-2.17-5.42-5.32-10.33-8.21-15.37-1.76-3.08-3.72-5.96-6.36-8.34-.37-.34-.92-.67-1.01-1.09-.7-3.17-3.11-4.22-5.85-4.94-1.88-.49-3.61-1.3-5.34-2.22-1.59-.84-3.05-2.12-4.82-2.46-5.31-1.01-10.64-1.91-16.07-1.97-.61,0-1.23-.05-1.82,.05-3,.53-5.97,.56-8.99-.06-4.1-.85-6.76-3.39-8.33-6.99-2.73-6.26-5.14-12.66-7.75-18.97-1.72-4.16-4.51-7.1-8.99-8.55-3.24-1.05-6.33-1.14-9.62-.64-4.52,.69-8.35,2.42-11.3,6.05-1.23,1.52-2.39,3.05-3.34,4.74-.76,1.35-1.62,2.6-2.87,3.54-1.07,.81-2.13,1-3.42,.39-2.05-.97-3.97-2.13-5.41-3.88-4.35-5.3-9.96-9.1-16.09-11.66-4.32-1.8-9.31-2.44-14.15-2.11-4.06,.27-8.12,.85-12.14,1.5-1.9,.31-3.82,.94-5.38,2.12-3.89,2.95-8.22,5.31-11.87,8.59-3.69,3.33-6.58,7.18-8.33,11.91-1.14,3.07-1.45,6.33-2.67,9.37-.9,2.25-1.85,4.55-1.85,7.02,0,2.36-2.04,4.54-.6,7.02,.08,.15-.19,.59-.39,.79-.65,.66-.53,1.47-.64,2.28-.65,4.87,.13,9.72,.16,14.58,.02,2.63,.52,5.26,.27,7.92-.18,1.96,0,3.89,.66,5.73,.73,2.05,.95,4.15,1.14,6.29,.2,2.28,1.26,4.37,2.05,6.44,.83,2.17,1.9,4.23,1.96,6.57,.04,1.38,.29,2.64,.92,3.83,3.15,5.9,5.35,12.27,9.64,17.61,2.14,2.67,4.37,5.34,6.54,7.94,2.54,3.03,6.21,5.17,9.44,7.57,3.52,2.6,7.1,5.22,10.84,7.52,3.97,2.44,7.53,5.54,11.91,7.32,1.95,.79,3.97,1.58,5.67,2.78,2.82,1.99,6.17,2.39,9.27,3.49,4.36,1.55,9.27,1.24,13.41,3.71,.34,.2,.78,.23,1.18,.32,3,.72,6.07,.6,9.12,.7,3.22,.1,6.46,.03,9.66,.29,6.78,.56,13.46,.04,20.03-1.6,2.78-.69,5.56-1.33,8.36-1.88,6.35-1.24,12.45-3.17,18.02-6.56,.69-.42,1.41-.81,2.15-1.16,7.19-3.4,13.3-8.21,18.76-13.99,1.46-1.55,2.51-3.57,4.31-4.67,1.66-1.01,2.79-2.54,4.29-3.7,1.12-.87,2.51-1.79,3.2-3.21,1.34-2.74,3.23-5.16,4.26-8.1,1.08-3.09,3.25-5.66,4.41-8.79,.68-1.82,1.78-3.59,2.56-5.45Z"/>
        <path class="cls-2" d="M160.84,20.58c.56,2.07,1.49,4,1.99,6.07,.32,1.32,1.1,2.32,1.98,3.38,1.61,1.95,3.67,3.24,5.57,4.81,2.79,2.3,5.93,2.85,9.35,2.85,2.85,0,5.25-1.3,7.84-2.19,2.14-.73,3.93-1.78,5.37-3.31,1.52-1.63,3-3.45,3.91-5.46,.89-1.97,2.42-3.82,2.13-6.25-.6-5.02-2.59-9.29-6.1-13-1.28-1.36-2.92-1.91-4.28-3.03-4.85-3.97-10.19-5.89-16.5-3.15-2.52,1.09-4.83,2.6-7.43,3.51-1.76,.61-2.7,2.04-3.17,3.85-.59,2.26-1.32,4.48-1.04,6.87-.06,1.7-.08,3.34,.39,5.07Z"/>
        <path class="cls-2" d="M51.66,151.58c-2.97-1.78-5.87-3.58-7.83-6.58-.48-.74-1.29-1.38-2.09-1.77-1.15-.55-1.85-1.53-2.69-2.37-5-5-8.91-10.86-12.83-16.68-3.33-4.94-9.33-5.21-12.82-.41-1.64,2.25-2.59,4.76-1.77,7.52,1.83,6.12,5.25,11.46,8.71,16.74,.85,1.3,1.69,2.72,3.33,3.25,.43,.14,.7,.37,.78,.82,.32,1.77,1.72,2.68,2.97,3.7,3.12,2.55,6.18,5.2,9.6,7.34,1.55,.97,3.08,2.01,4.67,2.88,1.44,.79,2.97,1.86,4.9,1.3,1.7,.36,3.28-.1,4.43-1.39,1.66-1.88,3.99-3.3,4.57-5.97,.17-.78,.12-1.64-.01-2.44-.42-2.55-1.72-4.59-3.94-5.92Z"/>
        <path class="cls-2" d="M16.81,92.06c.11-4.33-4.21-6.94-8.16-7.24C4.13,84.47,.18,90.04,0,93.22c-.24,4.31,4.17,8.15,8.85,7.68,4.68-.05,7.82-3.69,7.94-8.84Z"/>
        <path class="cls-2" d="M227.51,136.22c-6.44,.28-8.88,1.8-9.43,8.55-.3,3.58,3.56,7.86,6.91,7.99,4.4,.17,8.29-3.85,8.43-8.73,.09-3.17-3.36-7.92-5.91-7.81Z"/>
      </g>
      <g>
        <path class="cls-1" d="M125.37,58.1c-15.55-.64-27.15,4.63-36.67,14.88-1.77,1.91-3.26,4.52-6.73,2.27-4.58-2.96-5.04-5.38-1.36-9.53,12.07-13.6,27.79-19.4,45.36-19.73,12.2-.23,23.71,4,32.9,12.09,8,7.04,13.13,16.48,14.45,27.22,1.13,9.2,.14,18.35-3.4,27.18-3.35,8.36-8.94,14.74-16.34,19.39-8.77,5.51-18.08,9.67-28.97,8.92-3.68-.25-7.11-1.04-10.3-2.5-10.43-4.77-20.06-10.39-24.5-22.06-4.64-12.18-4.1-23.73,2.88-34.81,2.81-4.47,7.01-4.93,10.45-1.41,2.09,2.13,2.3,4,.48,6.61-5.02,7.16-5.83,15.06-3.47,23.42,2.43,8.62,8.57,13.31,16.45,16.66,22.73,9.65,45.83-11.47,45.36-34.52-.44-21.74-14.79-32.43-31.76-33.66-2.09-.15-4.18-.35-4.82-.41Z"/>
        <path class="cls-1" d="M134.28,107.78c.41,3.42,.3,6.67-2.06,9.51-3.14,3.79-6.98,3.74-9.76-.31-.7-1.02-1.49-2.14-1.72-3.31-1.41-7.14-.78-14.11,2.31-20.77,.94-2.03,2.42-3.46,4.81-3.38,2.29,.07,2.93,1.92,3.78,3.64,2.3,4.64,2.39,9.65,2.63,14.62Z"/>
        <path class="cls-1" d="M134.52,75.39c-.06,4.49-3.72,8.61-7.43,8.39-4.86-.28-7.36-3.42-7.19-9.03,.13-4.18,3.35-7.01,7.91-6.94,3.61,.05,6.77,3.62,6.71,7.58Z"/>
      </g>
      <g>
        <path class="cls-3" d="M125.37,58.1c-15.55-.64-27.15,4.63-36.67,14.88-1.77,1.91-3.26,4.52-6.73,2.27-4.58-2.96-5.04-5.38-1.36-9.53,12.07-13.6,27.79-19.4,45.36-19.73,12.2-.23,23.71,4,32.9,12.09,8,7.04,13.13,16.48,14.45,27.22,1.13,9.2,.14,18.35-3.4,27.18-3.35,8.36-8.94,14.74-16.34,19.39-8.77,5.51-18.08,9.67-28.97,8.92-3.68-.25-7.11-1.04-10.3-2.5-10.43-4.77-20.06-10.39-24.5-22.06-4.64-12.18-4.1-23.73,2.88-34.81,2.81-4.47,7.01-4.93,10.45-1.41,2.09,2.13,2.3,4,.48,6.61-5.02,7.16-5.83,15.06-3.47,23.42,2.43,8.62,8.57,13.31,16.45,16.66,22.73,9.65,45.83-11.47,45.36-34.52-.44-21.74-14.79-32.43-31.76-33.66-2.09-.15-4.18-.35-4.82-.41Z"/>
        <path class="cls-3" d="M134.28,107.78c.41,3.42,.3,6.67-2.06,9.51-3.14,3.79-6.98,3.74-9.76-.31-.7-1.02-1.49-2.14-1.72-3.31-1.41-7.14-.78-14.11,2.31-20.77,.94-2.03,2.42-3.46,4.81-3.38,2.29,.07,2.93,1.92,3.78,3.64,2.3,4.64,2.39,9.65,2.63,14.62Z"/>
        <path class="cls-3" d="M134.52,75.39c-.06,4.49-3.72,8.61-7.43,8.39-4.86-.28-7.36-3.42-7.19-9.03,.13-4.18,3.35-7.01,7.91-6.94,3.61,.05,6.77,3.62,6.71,7.58Z"/>
      </g>
    </g>
  </g>
</svg>