<?xml version="1.0" encoding="UTF-8"?>
<svg id="Layer_2" data-name="Layer 2" xmlns="http://www.w3.org/2000/svg" viewBox="0 0 82.69 82.06">
  <defs>
    <style>
      .cls-1 {
        fill: #1a1a1a;
      }
    </style>
  </defs>
  <g id="Capa_1" data-name="Capa 1">
    <g>
      <path class="cls-1" d="M40.83,10.48c-13.45-.55-23.48,4.01-31.71,12.87-1.53,1.65-2.82,3.91-5.82,1.97-3.96-2.56-4.36-4.65-1.18-8.24C12.56,5.31,26.15,.29,41.35,0c10.55-.2,20.5,3.46,28.45,10.45,6.92,6.09,11.36,14.26,12.5,23.54,.98,7.96,.12,15.87-2.94,23.51-2.9,7.23-7.73,12.75-14.13,16.77-7.58,4.77-15.63,8.36-25.05,7.71-3.18-.22-6.15-.9-8.91-2.16-9.02-4.13-17.35-8.98-21.19-19.08-4.02-10.54-3.54-20.52,2.49-30.1,2.43-3.87,6.06-4.26,9.03-1.22,1.81,1.85,1.99,3.46,.41,5.71-4.34,6.19-5.04,13.02-3,20.25,2.11,7.45,7.41,11.51,14.23,14.4,19.66,8.35,39.63-9.92,39.23-29.85-.38-18.8-12.79-28.05-27.47-29.11-1.81-.13-3.62-.3-4.17-.35Z"/>
      <path class="cls-1" d="M48.54,53.44c.35,2.96,.26,5.77-1.78,8.23-2.71,3.28-6.03,3.24-8.44-.27-.61-.88-1.28-1.85-1.49-2.86-1.22-6.18-.68-12.2,1.99-17.96,.81-1.75,2.09-2.99,4.16-2.92,1.98,.06,2.54,1.66,3.27,3.15,1.99,4.01,2.07,8.34,2.27,12.64Z"/>
      <path class="cls-1" d="M48.75,25.43c-.06,3.88-3.21,7.44-6.43,7.26-4.21-.24-6.37-2.96-6.22-7.81,.11-3.62,2.89-6.06,6.84-6,3.12,.04,5.85,3.13,5.81,6.55Z"/>
    </g>
  </g>
</svg>