<?xml version="1.0" encoding="UTF-8"?>
<svg id="Layer_2" data-name="Layer 2" xmlns="http://www.w3.org/2000/svg" viewBox="0 0 75.74 77.98">
  <defs>
    <style>
      .cls-1 {
        fill: #FD8BB6;
      }
    </style>
  </defs>
  <g id="Capa_1" data-name="Capa 1">
    <g>
      <path class="cls-1" d="M30.09,11.13c-5.62,0-11.25,.08-16.87-.02-4.49-.08-6.68-3.52-4.86-7.31,.8-1.68,2.26-2.4,3.88-2.66,2.86-.47,5.76-.99,8.64-.99,10.15,0,20.31-.6,30.42,.7,3.6,.46,7.26,.77,10.73,1.75,6.7,1.89,10.67,6.48,12.08,13.37,1.13,5.53,1.44,11.11,1.58,16.72,.25,9.85-.44,19.53-4.41,28.74-2.88,6.66-7.45,11.64-14.45,13.76-10.97,3.32-22.15,3.75-33.29,.93-4.03-1.02-8.29-1.08-12.14-2.93-4.7-2.25-7.48-5.91-9.12-10.84C.55,57.08,.08,51.7,0,46.27c-.06-4.71,.3-9.43,.46-14.15,.06-1.9,.63-3.46,2.21-4.74,1.64-1.33,3.25-2.52,5.38-1.47,1.96,.97,1.91,2.99,1.82,4.77-.38,7.25-.36,14.52,.33,21.73,.9,9.43,1.32,11.41,11.51,13.26,9.97,1.82,19.83,1.93,29.78,.83,5.08-.56,8.53-3.52,10.85-8.05,3.16-6.14,4.04-12.85,4.34-19.5,.18-4.11,.1-8.32-.13-12.48-.14-2.56-.56-5.04-1.14-7.52-.84-3.57-2.88-5.56-6.6-6.26-7.53-1.42-15.07-2.27-22.74-1.92-1.99,.09-3.99,.01-5.99,.01,0,.12,0,.25,0,.37Z"/>
      <path class="cls-1" d="M51.56,39.08c-.06,8.08-6.9,15.22-14.68,15.33-7.21,.1-14.76-7.62-14.54-14.92,.29-9.52,7.71-15.54,15.89-15.07,8.01,.46,13.02,4.36,13.33,14.67Zm-7.57-.02c-.07-3.84-3.52-7.06-7.46-6.97-4.39,.1-7.1,3.22-6.89,7.91,.15,3.35,3.36,6.31,6.84,6.31,4.89,0,7.6-2.61,7.51-7.26Z"/>
      <path class="cls-1" d="M59.94,21.13c-.08,2.26-2.48,4.51-4.69,4.4-2.17-.11-4.4-3.04-4.21-5.53,.15-2.03,1.88-3.37,4.23-3.3,2.36,.08,4.74,2.33,4.67,4.43Z"/>
    </g>
  </g>
</svg>
