<?xml version="1.0" encoding="UTF-8"?>
<svg id="Layer_2" data-name="Layer 2" xmlns="http://www.w3.org/2000/svg" viewBox="0 0 120.48 171.31">
  <defs>
    <style>
      .cls-1 {
        fill: #1a1a1a;
      }
    </style>
  </defs>
  <g id="Capa_1" data-name="Capa 1">
    <g>
      <path class="cls-1" d="M11.53,101.44c-1.4,3.18-1.58,6.24-1.29,9.39,.5,5.36,1.33,10.63,2.77,15.83,.75,2.71,.79,5.57,3.04,7.78,1.32,1.29,.86,2.85-.75,3.93-1.31,.87-2.68,1.6-4.25,1.83-1.98,.3-3.49-.08-4.46-2.19C-.84,121.78-2.24,105.38,3.68,88.23c3.09-8.96,8.89-15.39,15.65-21.46,6.07-5.45,12.67-9.99,20.6-12.05,12.25-3.17,24.04,1.28,30.43,13.2,.85,1.58,1.3,3.45,1.58,5.25,1.69,11.11,.09,21.35-7.88,29.97-1.58,1.71-3.37,3.08-5.35,4.1-7.15,3.68-14.58,6.2-22.8,4.32-.41-.09-.83-.23-1.25-.23-7.67,.09-13.7-3.83-19.63-8-1.01-.71-1.92-1.65-3.51-1.9Zm33.57-33.6c-6.01,.07-8.34,.75-12.3,2.98-5.75,3.23-10.17,7.86-14.1,13.05-2.95,3.89-2.65,5.61,1.6,8.43,.7,.47,1.35,1.04,2.08,1.45,6.91,3.8,14.06,6.3,22.17,4.73,3.61-.7,6.39-2.85,9.41-4.61,5.33-3.11,7.12-8.02,7.11-13.91,0-2.11-.73-3.8-2.07-5.37-4.05-4.72-9.36-6.52-13.89-6.75Z"/>
      <path class="cls-1" d="M91.51,11.45c-2.22-3.59-6.25-6.36-6.6-11.12,.95-.68,1.48-.16,1.93,.35,2.54,2.89,5.95,4.7,8.82,7.14,3.26,2.77,6.76,5.06,10.48,6.96,3.9,1.99,7.21,4.93,11.28,6.6,.51,.21,.92,.65,1.4,.94,1.17,.72,1.91,1.62,1.59,3.13-.29,1.41-1.38,1.57-2.51,1.85-3.97,.99-8.05,1.28-12.07,1.95-7.56,1.26-14.87,3.4-22.15,5.66-6.85,2.12-13.78,3.85-21.1,5.49,.12-2.2,1.52-2.92,2.82-3.53,6.88-3.25,13.38-7.35,20.9-9.17,1.42-.35,3.67-.55,3.62-2.22-.04-1.61-2.08-2.49-3.6-3.17-6.65-2.98-13.59-3.65-20.65-1.93-9.3,2.26-17.52,6.61-24.98,12.7-8,6.52-14.24,14.35-19.6,23.07-2.18,3.54-5.96,5.56-9.11,8.14-1.82,1.49-3.62,3.15-6.36,3.65-.5-3.96,1.11-7.37,2.27-10.69,1.98-5.68,4.02-11.54,7.92-16.19,2.57-3.07,5.04-6.28,7.87-9.21,3.75-3.87,8.27-6.53,12.12-9.99,7.74-6.94,17.09-10.02,26.6-11.94,9.13-1.84,18.78-2.26,27.79,1.93,.37,.17,.82,.23,1.32-.39Z"/>
      <path class="cls-1" d="M35.79,168.59c.09,2.09-1.28,3.23-3.18,2.48-.89-.35-1.72-.97-2.46-1.6-3.3-2.84-6.57-5.71-9.81-8.62-1.93-1.73-2.96-4.07-4.05-6.35-.86-1.79-.19-3.36,.86-4.71,1.09-1.41,2.49-.5,3.85-.24,1.47,.29,2.66,.83,3.53,2,3.1,4.16,6.66,7.97,9.49,12.35,.94,1.45,1.53,3,1.76,4.7Z"/>
    </g>
  </g>
</svg>