<?xml version="1.0" encoding="UTF-8"?>
<svg id="Layer_2" data-name="Layer 2" xmlns="http://www.w3.org/2000/svg" viewBox="0 0 120.58 171.31">
  <defs>
    <style>
      .cls-1 {
        fill: #1a1a1a;
      }
    </style>
  </defs>
  <g id="Capa_1" data-name="Capa 1">
    <g>
      <path class="cls-1" d="M109.04,69.67c2.39-5.14,1.21-10.24,.61-15.23-.42-3.48-1.31-6.92-2.15-10.36-.61-2.48-1.08-4.77-2.69-6.91-1.7-2.27-1.25-3.34,1.2-4.75,1.09-.63,2.3-1.1,3.51-1.42,2.03-.53,3.46,.17,4.44,2.18,3.07,6.28,4.93,12.91,6,19.78,1.64,10.56-.18,20.57-3.48,30.72-2.79,8.58-8.51,14.32-14.63,20.16-4.75,4.54-10.09,8.14-16.01,10.88-9.72,4.51-22.16,3.66-30.07-4.04-4.5-4.38-7.46-9.52-7.55-16.01-.06-4.09-.45-8.14,.51-12.23,1.31-5.55,4.23-10.1,7.78-14.39,1.3-1.57,2.88-2.69,4.62-3.65,7.33-4.04,14.87-6.01,23.51-4.97,8.36,1,15.37,4.17,21.86,9.14,.65,.5,1.33,1.08,2.54,1.1Zm-31.98,33.64c4.08,.08,7.71-1.08,11.21-3.19,5.77-3.48,10.28-8.19,14.12-13.62,2.38-3.38,2.04-4.88-1.5-7.22-.82-.54-1.62-1.12-2.45-1.66-5.08-3.32-10.79-4.83-16.71-5.39-6.45-.61-11.69,2.54-16.64,6.18-7.83,5.76-7.43,16.73,.74,21.86,3.46,2.17,7.24,3,11.23,3.04Z"/>
      <path class="cls-1" d="M115.01,103.27c.33,4.23-1.25,7.68-2.49,11.02-1.84,4.95-3.36,10.19-6.83,14.37-2.93,3.53-4.85,7.93-8.93,10.47-3.23,6.15-9.84,8.48-14.76,12.7-3.7,3.18-8.7,5.14-13.62,6.58-2.3,.68-4.59,1.41-6.88,2.13-5.46,1.71-11.1,1.73-16.72,1.71-5.32-.02-10.56-.73-15.58-3.11,1.89,4.22,6.14,6.98,6.49,11.73-.56,.47-.99,.59-1.32,.25-2.96-3.04-6.59-5.27-9.78-7.96-3.29-2.78-6.86-4.96-10.53-6.91-3.87-2.06-7.22-4.93-11.28-6.65-.76-.32-1.48-.89-2.04-1.5-1.33-1.43-.85-3.47,1.06-4.02,1.89-.54,3.87-.8,5.82-1.03,10.43-1.22,20.48-3.97,30.46-7.15,6.42-2.04,12.96-3.73,19.86-4.98-.28,2.34-1.91,3.08-3.34,3.75-6.89,3.23-13.43,7.29-20.97,9.02-.55,.13-1.1,.3-1.6,.54-1.95,.93-2.09,1.65-.43,2.93,3.33,2.56,7.27,3.71,11.33,4.28,8.43,1.18,16.29-1.1,23.72-4.75,13.95-6.85,24.4-17.55,32.26-30.81,1.59-2.69,3.95-4.42,6.24-6.23,2.95-2.32,5.55-5.28,9.85-6.37Z"/>
      <path class="cls-1" d="M87.13,0c1.22,.04,2.14,.75,2.98,1.48,3.53,3.04,7.03,6.11,10.47,9.24,1.82,1.65,2.64,3.97,3.73,6.1,.95,1.87-.04,3.32-1.03,4.66-.95,1.28-2.21,.57-3.45,.2-1.52-.45-2.99-.83-3.97-2.19-2.96-4.12-6.5-7.79-9.26-12.08-.94-1.46-1.58-3.02-1.85-4.7-.26-1.62,.82-2.75,2.39-2.71Z"/>
    </g>
  </g>
</svg>