<?xml version="1.0" encoding="UTF-8"?>
<svg id="Layer_2" data-name="Layer 2" xmlns="http://www.w3.org/2000/svg" viewBox="0 0 77 76.95">
  <defs>
    <style>
      .cls-1 {
        fill: #1a1a1a;
      }
    </style>
  </defs>
  <g id="Capa_1" data-name="Capa 1">
    <g>
      <path class="cls-1" d="M46.2,40.04c.61,9.75-2,19.05-3.97,28.45-.52,2.49-1.38,4.82-3.55,6.54-2.16,1.71-4.28,2.6-6.94,1.3-2.33-1.14-3.76-3.66-3.37-6.87,.59-4.86,1.26-9.72,2.19-14.52,1.99-10.31,1.4-9.72-8.03-9.13-4.52,.28-9,1.06-13.51,1.53-1.62,.17-3.27,.21-4.89,.07-2.32-.19-3.38-1.82-3.97-3.89-.68-2.39,1.02-3.23,2.63-4.11,7.38-4.05,15.22-6.74,23.57-7.94,4.4-.63,4.42-.64,4.38-4.95-.05-5.07-.07-10.14-.25-15.2-.1-2.97,.49-5.78,1.45-8.53,.49-1.42,1.24-2.67,2.97-2.78,1.74-.11,3.15,.29,4,2.08,1.53,3.26,2.95,6.46,3.81,10.07,1.52,6.35,1.93,12.86,3.37,19.21,.63,2.75,.1,5.77,.1,8.66Z"/>
      <path class="cls-1" d="M54.51,38.02c-.03-.54-.09-1.08-.08-1.62,.15-5.94,1.15-6.83,7.17-5.92,3.35,.51,6.69,1.21,9.98,2.01,3.15,.77,5.11,3.31,5.39,6.61,.23,2.64-1.26,4.9-4.5,5.95-5.29,1.73-10.7,.88-16.05,.15-1.43-.2-1.93-1.56-2.03-2.86-.11-1.43-.03-2.88-.03-4.32,.05,0,.09,0,.14,0Z"/>
    </g>
  </g>
</svg>