<?xml version="1.0" encoding="UTF-8"?>
<svg id="Layer_2" data-name="Layer 2" xmlns="http://www.w3.org/2000/svg" viewBox="0 0 122.52 110.01">
  <defs>
    <style>
      .cls-1 {
        fill: #D8FF7A;
      }
    </style>
  </defs>
  <g id="Capa_1" data-name="Capa 1">
    <g>
      <path class="cls-1" d="M62.22,13.92c-3.45,4.65-6.77,8.95-9.91,13.38-3.1,4.37-6.32,8.65-9.54,12.93-1.16,1.55-2.34,3.09-3.41,4.71-.96,1.45-2.05,2.19-3.91,1.86-1.24-.22-2.56,.13-3.85-.16-1.69-.39-2.08-.89-1.56-2.46,.49-1.48,.99-2.96,1.98-4.25,4.42-5.78,8.21-11.97,11.83-18.28,1.35-2.36,3.39-4.33,4.97-6.61,2.35-3.41,4.8-6.75,6.82-10.37,.77-1.38,1.71-2.63,2.98-3.61,1.91-1.49,3.39-1.45,5.05,.37,1.87,2.04,3.72,4.11,5.43,6.28,2.8,3.56,5.95,6.85,8.58,10.5,3.24,4.5,6.9,8.63,10.25,13.02,1.95,2.56,4.27,4.85,5.88,7.68,.41,.72,1,1.36,1.31,2.12,1.82,4.51,.55,7.86-4.8,8.47-4.38,.5-8.84,.58-13.27,.04-1.55-.19-3.12-.21-4.68-.23-2.03-.03-2.31,.29-2.4,2.34-.31,7.37-.09,14.74,.36,22.09,.24,3.87-.07,7.73-.23,11.59-.06,1.29,0,2.8-1.45,3.69-1.73,1.06-3.42,.49-5.04-.09-1.54-.56-2.25-1.93-2.22-3.52,.21-10.31-.47-20.63,.3-30.94,.16-2.1-.2-4.24-.31-6.36-.04-.83-.06-1.66-.02-2.49,.1-1.92,.85-3.26,2.9-3.86,1.43-.42,2.85-.84,4.32-.81,3.96,.06,7.92-.23,11.87,.23,.36,.04,.75,.07,1.1,0,.88-.18,1.35-.61,.75-1.53-.1-.15-.18-.34-.32-.45-2.66-1.98-4.1-4.92-5.98-7.52-1.62-2.24-3.27-4.45-5.14-6.52-2.09-2.31-3.76-5-5.65-7.5-.89-1.17-1.84-2.3-3.01-3.75Z"/>
      <path class="cls-1" d="M51.87,96.82c-3.43,.07-6.23,.96-8.9,2.66-3.8,2.44-7.3,5.32-11.11,7.7-5.55,3.48-11.32,3.88-17.25,.41-2.66-1.56-5.06-3.34-7.22-5.49-.75-.75-1.72-1.06-2.52-1.67-1.69-1.29-3.31-2.7-3.46-5.02-.15-2.17,1.17-3.61,3.28-3.52,2.65,.12,5.12,.94,6.95,2.95,1.51,1.66,3.28,3.15,5.16,4.11,2.62,1.33,5.56,2.41,8.68,.9,3.56-1.73,7.09-3.45,10.16-6.04,4.72-3.96,10.35-5.38,16.31-4.55,4.45,.62,8.69,2.22,12.41,4.98,1.98,1.47,4.15,2.7,6.6,3.28,.45,.11,.9,.24,1.3,.46,4.85,2.57,9.28,1.18,13.55-1.45,4.22-2.6,8.41-5.22,12.83-7.48,.4-.21,.87-.42,1.3-.42,5.11,.03,10.34-.97,15.12,1.92,.98,.59,2.29,.64,3.42,1.01,3.67,1.19,5.08,4.88,3.2,8.25-.59,1.05-2.12,1.66-3.3,1.27-.88-.29-1.7-.69-2.41-1.32-2.66-2.34-5.83-3.46-9.29-3.86-1.29-.15-2.53-.03-3.81,.36-4.15,1.26-7.51,3.83-10.94,6.31-3.17,2.3-6.5,4.17-10.58,4.06-1.43-.04-2.51,1.01-3.98,1.02-2.79,.02-5.31-.92-7.64-2.16-2.27-1.2-4.49-2.51-6.84-3.56-2.2-.99-4.18-2.34-6.17-3.68-1.58-1.07-3.21-1.81-4.87-1.44Z"/>
      <path class="cls-1" d="M51.86,69.98c0,.18,0,.37,0,.55,.14,3.01,.14,2.97-2.93,3.44-2.36,.36-4.49,1.16-6.57,2.49-3.88,2.48-7.4,5.5-11.32,7.87-5.43,3.29-11.09,3.63-16.85,.32-2.84-1.63-5.23-3.69-7.68-5.78-1.65-1.41-3.69-2.33-4.94-4.26-.83-1.28-.99-2.57-.45-3.92,.54-1.35,1.79-1.99,3.4-1.81,2.72,.31,5,1.37,7.03,3.39,2.74,2.74,5.85,5.02,10.05,5.24,2.59,.13,4.53-1.28,6.68-2.25,3.72-1.68,6.69-4.53,10.13-6.65,3.72-2.29,7.84-2.4,11.97-2.57,1.12-.05,1.69,.59,1.6,1.75-.06,.73-.11,1.47-.16,2.2,.02,0,.03,0,.05,0Z"/>
      <path class="cls-1" d="M104.04,65.6c3.65-.44,7.15,.03,10.37,1.92,.98,.58,2.09,.66,3.14,.96,3.98,1.14,5.51,4.56,3.63,8.21-.59,1.14-1.99,1.79-3.27,1.41-.98-.29-1.85-.79-2.64-1.47-2.67-2.31-5.85-3.42-9.33-3.73-1.38-.12-2.71,0-4.06,.51-2.85,1.09-5.51,2.46-7.96,4.31-2.7,2.05-5.45,4.03-8.7,5.22-1.53,.56-3.08,.46-4.62,.68-.96,.14-1.31-.46-1.36-1.31-.06-1.01-.15-2.02-.17-3.04-.03-1.97,.63-3.26,2.72-4.09,3.4-1.35,6.4-3.53,9.52-5.46,2.41-1.5,4.96-2.79,7.53-3.98,1.63-.76,3.46,0,5.19-.15Z"/>
      <path class="cls-1" d="M23.08,64.08c-6.94,.75-11.87-3.06-16.59-7.26-.9-.8-1.86-1.45-2.86-2.11C1.79,53.49,.17,51.97,0,49.53c-.13-2.08,1.3-3.59,3.34-3.47,2.45,.14,4.86,.81,6.53,2.62,1.47,1.59,3.15,2.91,4.88,4.04,2.81,1.84,6.04,2.9,9.36,1.27,2.33-1.14,4.7-.48,7.05-.59,1.55-.07,3.12,.24,4.68,.44,.78,.1,1.36,.5,1.53,1.36,.14,.74-.13,1.28-.72,1.66-2.42,1.52-4.34,3.74-6.88,5.07-2.09,1.1-4.32,1.83-6.7,2.16Z"/>
      <path class="cls-1" d="M121.09,50.07c-.17,1.13-.24,2.15-.49,3.12-.5,1.94-2.12,2.66-4.06,1.95-.7-.26-1.32-.64-1.89-1.12-2.3-1.93-4.87-3.27-7.88-3.62-1.3-.15-1.95-.49-1.58-2.11,1.5-6.48,1.88-6.32,7.53-3.99,1.45,.6,2.88,1.1,4.38,1.5,2.21,.61,4.02,2.66,3.99,4.26Z"/>
    </g>
  </g>
</svg>
