<?xml version="1.0" encoding="UTF-8"?>
<svg id="Layer_2" data-name="Layer 2" xmlns="http://www.w3.org/2000/svg" viewBox="0 0 197.3 142.93">
  <defs>
    <style>
      .cls-1 {
        fill: #1a1a1a;
      }
    </style>
  </defs>
  <g id="Capa_1" data-name="Capa 1">
    <g>
      <path class="cls-1" d="M12.61,4.74c-.77-.8-1.86-.72-2.81-1-.72-.21-1.43-.38-1.92-1.01-.6-.79-.42-1.73,.54-1.98,1.95-.5,3.9-.99,5.98-.64,3.18,.53,6.19,1.53,9.26,2.48,3.54,1.1,6.17,3.24,8.25,6.05,2.58,3.49,3.19,7.54,2.31,11.79-1.97,1.86-1.5,4.74-3,6.93-1.44,2.1-2.89,4.25-4.24,6.43-1.4,2.25-3.31,4.19-4.97,6.29-1.2,1.51-2.42,3.02-3.53,4.6-1.05,1.5-.93,2,.77,2.2,1.88,.22,3.21,1.26,4.6,2.28,2.89,2.11,3.74,5.09,3.63,8.51-.1,2.9,.36,5.78-.32,8.72-.39,1.69-1.06,3.31-1.31,5.06-.37,2.57-.41,5.14-.45,7.72,0,.65-.02,1.3-.14,1.93-.34,1.75-1.72,3.06-3.08,3.01-1.78-.07-3.52-1.36-3.56-3.14-.04-1.78-.65-3.53,0-5.4,.53-1.52-.29-3.3,.3-4.93,1.18-3.24,1.36-6.64,1.66-10.02,.23-2.51,.26-4.96-1.41-7.1-1.26-1.62-5.17-2-6.54-.61-.43,.44-.28,1.05-.44,1.56-.85,2.86-.13,5.9-1.03,8.76-.53,1.69-.73,3.46-.63,5.2,.13,2.37-1.1,4.42-1.36,6.72-.47,4.1-1.54,8.12-2.28,12.19-.26,1.4-1,2.34-2.17,3.02-1.07,.62-2.14,1.11-3.36,.33-1.17-.75-1.52-1.92-1.34-3.13,.38-2.45,.83-4.91,1.48-7.3,.6-2.21,1.22-4.4,1.5-6.68,.21-1.71,1.09-3.22,1.28-5.02,.5-4.82,1.37-9.6,2.1-14.39,.07-.45,.29-.96,.17-1.36-1.05-3.55,.49-6.68,1.52-9.9,.11-.35,.26-.72,.22-1.07-.45-3.75,.85-7.23,1.49-10.83,.42-2.37,.32-4.9,.54-7.35,.34-3.74,.78-7.48,1.17-11.21,.05-.46,.08-.92,.04-1.38-.27-3.1-.15-3.87,1.05-6.33Zm2.32,.68c-.23,.84-.56,1.53-.42,2.57,.45,3.19,.38,6.42,.38,9.65,0,2.27-.56,4.45-.57,6.69-.02,3.69,.22,7.41-.58,11.07-.14,.63-.4,1.35,.43,1.66,.73,.28,1.19-.31,1.61-.79,1.68-1.94,3.39-3.85,5-5.85,.63-.78,1.37-1.43,1.88-2.36,1.29-2.32,2.23-4.85,3.96-6.92,.39-.46,.47-1,.49-1.55,.07-1.47,.31-2.98,.09-4.41-.33-2.06-.77-4.42-2.72-5.45-2.98-1.59-5.68-3.86-9.55-4.31Z"/>
      <path class="cls-1" d="M89.59,66.12c-1.95,2.88-4.16,5.05-6.87,6.59-2.92,1.65-6,2.27-9.21,.7-1.61-.79-2.13-2.47-3.24-3.94-1.95,1.25-3.83,2.5-5.75,3.69-5.06,3.14-10.52,4.55-16.5,3.94-7.69-.77-13.24-8.07-10.95-16.1,1.25-4.38,3.23-8.34,6.09-11.8,1.86-2.24,3.99-4.32,6.49-5.95,.96-.62,2.02-.97,3.1-1.1,2.71-.34,4.59,.96,5.22,4.05,.59,2.88,.73,5.8-.84,8.62-1.17,2.1-3,3.35-4.98,4.19-2.68,1.15-5.42,2.32-8.4,2.6-1.23,.12-1.71,.63-1.69,1.95,.08,4.87,3.95,7.36,7.64,7.28,3.72-.08,7.08-1.21,10.39-2.56,2.81-1.14,5.53-2.55,8.45-3.42,.89-.27,1.48-.76,1.5-1.73,.06-3.55,2.54-6,4.13-8.83,1.12-1.99,2.75-3.69,4.16-5.52,.22-.29,.45-.58,.68-.87,1.38-1.72,3.63-2.15,5.26-3.63,1.57-1.44,3.79-2.23,5.94-2.83,3.04-.85,4.62,.09,5.02,3.2,.24,1.83,.44,3.69,.37,5.53-.17,4.61,.46,9.18,.65,13.77,.12,3.03-.2,6.05,.12,9.1,.23,2.13-1.3,3.54-3.06,3.38-.88-.07-1.52-.4-2.03-1.2-1.11-1.71-1.46-3.55-1.37-5.55,.05-1.05,.22-2.15-.3-3.58Zm-.46-21.29c-1.11,.26-1.74,.85-2.43,1.51-2.74,2.61-5.29,5.37-6.89,8.82-1.01,2.18-2.26,4.21-3.33,6.35-.52,1.04-.55,2.15-.53,3.24,.02,.94,.48,1.85,1.27,2.34,.68,.42,1-.63,1.62-.75,.27-.05,.52-.2,.78-.28,2.26-.67,3.79-2.16,4.76-4.26,1.44-3.14,3.42-5.98,4.04-9.57,.41-2.4,1.35-4.68,.72-7.39Zm-45.97,13.51c.14,.19,.28,.38,.42,.58,2.25-1.13,4.45-2.38,6.76-3.37,3.16-1.35,3.85-3.89,3.79-6.95-.02-.77-.03-1.57-.81-1.88-.73-.29-1.37,.16-1.99,.62-3.85,2.85-6.56,6.51-8.16,11Z"/>
      <path class="cls-1" d="M150.05,63.27c-1.76,.82-2.96,2.13-4.52,2.96-3.53,1.88-8.47,1.08-11.18-3.09-1.07-1.64-1.58-3.82-1.23-5.84,.87-4.95,2.32-9.67,5.89-13.51,.86-.92,1.85-1.48,2.87-2.09,.52-.31,1-.43,1.5,.05,.48,.46,.48,.93,.19,1.49-.58,1.15-1.06,2.35-1.71,3.46-1.86,3.19-2.33,6.75-2.84,10.29-.08,.53,.07,1.11,.18,1.65,.43,2.19,2.38,3.19,4.35,2.17,1.84-.95,2.96-2.7,4.4-4.1,1.87-1.81,2.2-3.88,2.39-6.21,.19-2.37,.59-4.73,.93-7.09,.25-1.73,1.38-2.78,2.87-2.76,1.18,.02,2.02,.97,2.31,2.66,.46,2.74,.41,5.51,.59,8.27,.23,3.56-.25,7.09,.08,10.65,.16,1.78-.28,3.68-.75,5.45-1.11,4.17-2.27,8.34-4.38,12.16-.98,1.77-2.13,3.42-3.68,4.79-1.45,1.28-2.73,2.75-4.11,4.11-2.04,2.01-4.62,2.86-7.29,3.73-6.29,2.04-12.39,1.67-18.3-1.14-1.63-.77-3.25-1.73-4.57-3.04-.87-.86-.71-3.47,.2-4.19,.32-.25,.69-.22,1.04-.07,1.44,.63,3,.87,4.44,1.52,3.4,1.54,6.98,2.24,10.73,2.06,2.18-.11,4.22-.85,6.04-1.85,2.94-1.61,5.92-3.28,8.26-5.74,1.63-1.71,2.47-3.99,3.68-5.99,1.51-2.52,1.09-5.3,1.9-7.86,.29-.92,.25-1.81-.3-2.89Z"/>
      <path class="cls-1" d="M11.65,102.18c-2.29,0-4.59,.03-6.88-.01-1.22-.03-2.24-.55-2.31-1.9-.07-1.38,.97-1.77,2.14-2.08,4.31-1.13,8.7-1.62,13.14-1.67,3.26-.04,3.23-.08,4.18-3.31,.25-.86,.74-1.65,1.06-2.51,.51-1.41,1.57-1.96,2.79-1.69,1.1,.23,2.34,1.6,2.38,2.75,.02,.64-.14,1.28-.22,1.92-.26,2,.21,2.68,2.18,2.41,3.68-.51,7.37-.22,11.05-.38,4.87-.21,9.75,.02,14.62,.18,2.37,.08,3.23,.58,3.36,1.71,.16,1.41-1.28,2.86-3.33,3.09-2.38,.26-4.78,.36-7.17,.46-3.67,.15-7.34,.14-11.02,.25-2.73,.08-5.49,.09-8.24,.07-2.2-.02-2.28,.04-2.26,2.07,.04,3.6-.83,7.12-.7,10.74,.14,4.06,.58,8.1,.7,12.15,.07,2.32,.74,4.28,1.8,6.26,1.05,1.95,2.47,3.44,4.48,4.33,1.7,.75,2.46,2.19,2.92,3.83,.36,1.27-.2,2.16-1.42,2.09-4.73-.26-8.75-1.42-11.45-6.09-2.5-4.31-3.29-8.85-3.98-13.58-.49-3.39-.31-6.78-.51-10.17-.16-2.72,.47-5.49,.78-8.23,.25-2.19-.06-2.57-2.28-2.66-1.01-.04-2.03-.1-3.04-.1-.92,0-1.85,.07-2.77,.12,0-.01,0-.02,0-.04Z"/>
      <path class="cls-1" d="M119.99,63.47c-.91,.69-1.61,1.35-1.74,2.1-.48,2.76-2.78,4.01-4.55,5.63-2.2,2.01-6.23,1.81-8.54-.17-5.11-4.4-6.07-10.55-2.6-16.65,2.31-4.05,5.39-7.21,9.65-9.16,.68-.31,1.4-.77,1.9,.18,.41,.79,.01,1.38-.65,1.89-2.51,1.94-4.38,4.43-6.18,7.02-2.17,3.12-1.95,7.69,.29,11.22,.67,1.05,1.31,.93,2.46,.08,3.28-2.42,4.58-5.95,5.32-9.69,.55-2.76,1.44-5.48,1.44-8.34,0-.93,.48-2.1-1.36-1.95-.88,.07-.49-1.02-.15-1.16,2.23-.9,1.74-2.84,1.72-4.5-.07-4.52-.62-9.02-.39-13.54,.08-1.57-.02-3.15,.13-4.71,.18-1.86,1.35-2.97,2.77-2.84,1.6,.15,2.54,1.43,2.25,3.37-.37,2.43,.21,4.79,.5,7.13,.54,4.41,.85,8.81,1.07,13.24,.11,2.27,.62,4.51,.86,6.77,.17,1.64,.27,3.34,.56,4.9,.7,3.74,.76,7.57,1.93,11.26,.71,2.24,1.54,4.57,1.51,7.03-.02,1.52-.8,2.07-2.11,1.28-2.42-1.46-3.5-3.93-4.61-6.35-.57-1.24-.6-2.68-1.46-4.03Z"/>
      <path class="cls-1" d="M83.79,111.98c1.34-1.73,2.29-3.21,3.5-4.44,.88-.9,1.71-2.35,3.44-1.52,.28,.14,.58,.1,.68-.2,.62-1.91,2.02-.74,2.98-.62,1.19,.14,2.23,.91,2.78,2.07,.5,1.07-.15,2.86-1.48,3.16-3.94,.88-5.46,3.83-7.03,7.09-1.36,2.82-1.82,5.76-2.39,8.73-.71,3.73-.87,7.48-.42,11.25,.27,2.25-.63,3.62-2.52,3.85-1.85,.23-3.61-1.15-3.89-3.12-.14-1-.12-2.03-.17-3.05-.44-8.1-.88-16.21-1.33-24.31-.04-.74-.11-1.47-.22-2.2-.11-.75-.01-1.48,.23-2.18,.47-1.4,1.65-2.09,3.22-2.05,1.54,.04,1.64,1.2,1.93,2.27,.43,1.58-.08,3.29,.69,5.28Z"/>
      <path class="cls-1" d="M106.88,139.37c-4.88-.05-7.89-2.85-10.21-6.81-1.9-3.22-1.67-6.63-.74-9.92,.92-3.28,2.63-6.18,5.58-8.29,5.3-3.79,10.53-2.54,14.61,1.71,4.07,4.23,4.6,11.58,1.54,16.67-.43,.71-.72,1.52-1.68,1.69-.38,.07-.64,.3-.83,.65-1.78,3.32-4.76,4.31-8.28,4.29Zm2.1-3.31c1.36,.71,2.3-.38,3.33-1.28,1.63-1.41,2.23-3.32,2.72-5.31,1.11-4.46-.78-11.12-7.54-11.74-2.74-.25-6.39,1.7-6.83,4.39-.36,2.18-.99,4.32-.33,6.73,1.24,4.53,3.66,6.9,8.64,7.21Z"/>
      <path class="cls-1" d="M46.25,132.16c-4.82-.19-7.84-2.96-10.11-6.95-1.85-3.25-1.57-6.67-.62-9.94,1.01-3.46,3-6.34,6.12-8.56,5.04-3.59,12.54-1.16,15.27,4.13,1.72,3.34,2.75,6.51,1.94,10.22-.56,2.54-1.25,4.79-3.65,6.42-1.05,.71-1.6,2.24-2.91,3.07-1.89,1.21-3.84,1.69-6.04,1.6Zm2.31-3.3c1.22,.59,2.16-.28,3.16-1.13,1.73-1.47,2.39-3.45,2.89-5.55,1.39-5.8-1.65-10.53-7.48-11.59-2.75-.5-6.43,1.55-6.9,4.28-.37,2.18-1.03,4.32-.37,6.76,1.25,4.55,3.7,6.95,8.68,7.23Z"/>
      <path class="cls-1" d="M157.95,120.61c-.14-6.29-.22-6.48,5.08-8.84,2.78-1.24,3.98-3.46,4.99-5.89,1.11-2.68-.43-7.16-2.77-8.95-2.88-2.19-6.27-1.47-8.16,1.69-.47,.78-1.07,1.5-1.71,2.16-.69,.71-1.57,1.03-2.52,.51-1.03-.56-1.32-1.53-1.2-2.6,.27-2.54,3.09-5.53,5.69-6.15,1.08-.26,2.18-.48,3.2-.88,3.43-1.36,7.1,.3,9.28,3.58,2.61,3.93,3.5,8.08,1.16,12.49-.27,.5-.34,1.02-.42,1.58-.24,1.65-1.14,2.89-2.6,3.7-.08,.05-.18,.06-.25,.12-1.33,1.13-3.78,1.44-4.13,3.01-.49,2.16-.36,4.58,.12,6.87,.26,1.26,.67,2.51,.83,3.78,.25,1.95-.6,3.11-2.35,3.49-1.77,.39-2.8-.26-3.56-2.2-.98-2.49-.52-5.11-.66-7.47Z"/>
      <path class="cls-1" d="M182.98,118.19c0-1.57,0-3.13,0-4.7,0-1.27,.57-1.9,1.83-2.36,2.39-.87,4.8-1.92,6.39-4.05,3.14-4.18,2.76-9.47-1.15-12.49-2.73-2.11-6.15-1.28-7.94,1.74-.47,.78-1.06,1.51-1.69,2.17-.67,.7-1.53,1.08-2.5,.61-1.05-.51-1.37-1.47-1.29-2.54,.18-2.37,3-5.62,5.31-6.19,1.25-.31,2.51-.6,3.75-.97,3.52-1.05,6.23,.03,8.47,2.9,3.13,4.02,4.24,8.27,1.89,13.04-.29,.59-.42,1.18-.51,1.83-.22,1.55-1.16,2.67-2.42,3.53-.07,.05-.18,.05-.25,.11-1.4,1.18-4.01,1.44-4.33,3.13-.43,2.25-.36,4.77,.21,7.13,.22,.89,.46,1.78,.62,2.69,.46,2.59-.21,3.85-2.21,4.28-1.96,.42-3.17-.48-3.82-2.99-.59-2.26-.3-4.58-.33-6.88Z"/>
      <path class="cls-1" d="M129.6,106.63c0,3.8-.1,8.11,.04,12.4,.08,2.5,.15,5.01,.76,7.49,.41,1.7,.02,3.48,.21,5.24,.26,2.52,1.33,4.39,4.39,4.85,.64,.1,1.26,.29,1.9,.39,.96,.15,1.85,.43,2.06,1.53,.18,.98-.82,2.36-2.03,2.69-1.53,.42-3.12,.37-4.68,.15-6.24-.9-8.09-5.66-7.51-10.18,.12-.97-.29-1.79-.33-2.71-.28-7.65-.63-15.3-.98-22.95-.06-1.38,.34-2.54,1.08-3.72,.8-1.28,1.82-1.13,3.06-1.1,1.48,.04,1.27,1.16,1.47,1.93,.29,1.14,.36,2.34,.59,4Z"/>
      <path class="cls-1" d="M140.51,121.15c0,1.2-.11,2.4,.02,3.58,.26,2.36,1.36,3.2,3.72,3.02,.46-.03,.91-.16,1.37-.17,.9-.02,1.95-.24,2.37,.88,.32,.86-.69,2.57-1.69,2.9-.6,.2-1.27,.27-1.9,.28-1.84,.03-3.68,.07-5.51-.04-1.94-.12-3.42-1.95-3.57-4.23-.38-5.79-.71-11.59-1.14-17.38-.17-2.3-.34-4.6-.21-6.89,.06-1.06,.19-2.24,1.52-2.68,1.96-.66,3.84,.59,3.98,2.74,.25,3.87,.53,7.74,.62,11.61,.05,2.12,.52,4.22,.41,6.36Z"/>
      <path class="cls-1" d="M192.03,136.33c.02,2.41-1.63,3.75-4.68,3.81-1.96,.04-3.57-1.32-3.63-3.05-.08-2.81,1.67-4.93,4.1-4.95,2.39-.02,4.19,1.77,4.21,4.18Z"/>
      <path class="cls-1" d="M162.82,134.37c2.39-.03,4.2,1.76,4.23,4.17,.02,2.4-1.63,3.76-4.66,3.83-1.95,.05-3.58-1.31-3.64-3.03-.1-2.8,1.66-4.94,4.08-4.97Z"/>
    </g>
  </g>
</svg>