<?xml version="1.0" encoding="UTF-8"?>
<svg id="Layer_2" data-name="Layer 2" xmlns="http://www.w3.org/2000/svg" viewBox="0 0 85.5 81.29">
  <defs>
    <style>
      .cls-1 {
        fill: #1a1a1a;
      }
    </style>
  </defs>
  <g id="Capa_1" data-name="Capa 1">
    <path class="cls-1" d="M70.64,25.95c1.65-4.35,1.83-4.74-1.65-7.2-5.62-3.98-11.62-7.35-18.71-8.09-5.64-.59-11.35-.64-16.81,.64-13.68,3.21-22.68,11.1-23.04,28.05-.32,14.76,7.72,25.5,19.1,30.2,8.25,3.41,15.96,1.3,22.55-3.68,9.48-7.16,10.95-15.23,6.15-26.51-.75-1.76-2.12-3.48-1.08-5.66,1.85-3.87,6.83-4.29,9.23-.49,4.09,6.47,5.95,13.38,4.54,21.24-2.67,14.95-12.95,22.35-26.22,25.92-10.18,2.74-19.7-.98-28.22-6.81C6.54,66.74,1.89,56.93,.34,45.18-1.33,32.54,3.29,22.05,10.66,12.39c1.17-1.54,2.96-2.67,4.6-3.78C33.18-3.49,51.39-1.92,69.7,7.64c2.93,1.53,5.25,3.86,7.57,6.16,1.62,1.61,3.05,2.95,5.57,1.29,1.69-1.11,2.73-.12,2.65,1.85-.12,3.09-.28,6.17-.44,9.25-.11,2.2-.86,3.34-3.43,2.62-3.63-1.03-7.48-1.27-10.98-2.86Z"/>
  </g>
</svg>