<?xml version="1.0" encoding="UTF-8"?>
<svg id="Layer_2" data-name="Layer 2" xmlns="http://www.w3.org/2000/svg" viewBox="0 0 68.06 76.06">
  <defs>
    <style>
      .cls-1 {
        fill: #1a1a1a;
      }
    </style>
  </defs>
  <g id="Capa_1" data-name="Capa 1">
    <g>
      <path class="cls-1" d="M36.56,47.65c13.27-.42,22.29-10.38,24.3-23,.98-6.15-1.58-11.45-6.51-15.32-4.51-3.53-10.2-3.23-15.57,.58-3.48,2.47-5.76,5.95-7.98,9.52-1,1.6-1.14,4.81-4.37,3.57-2.45-.94-3.11-4.12-1.23-7.07,3.22-5.05,6.7-9.79,11.94-13.19,7.9-5.13,20.53-2.88,26.21,5.31,4.11,5.93,5.77,12.73,4,19.71-2.73,10.82-8.54,19.28-19.51,23.71-6.3,2.54-12.53,3.89-18.97,1.76-3.61-1.19-5.4,.18-7.2,2.8-3.81,5.53-7.73,10.99-11.59,16.48-.62,.89-1.1,1.91-1.85,2.67-.93,.94-1.93,1.2-3.37,.41-5.4-2.99-6.22-5.16-2.89-10.35,3.92-6.09,8.1-12.03,12.33-17.92,1.27-1.76,1.4-3.16,.14-4.85-6.2-8.35-4.33-17.14-1.28-25.93,1.57-4.54,4.63-8.18,7.65-11.82,.46-.55,.99-1.09,1.6-1.45,1.67-.99,3.44-1.41,4.98,.15,1.62,1.64,.19,3.16-.65,4.36-1.43,2.05-3.36,3.75-4.86,5.75-5.63,7.48-5.59,15.41-2.51,24,2.24,6.22,11.59,10.83,17.18,10.12Z"/>
      <path class="cls-1" d="M39,42.07c-1.21-.26-2.5-.12-2.75-1.55-.22-1.3,.54-2.05,1.73-2.34,3.91-.95,7.78-1.95,10.28-5.55,.23-.33,1.01-.5,1.46-.4,.83,.18,.91,1.01,.95,1.72,.08,1.4-.77,2.43-1.62,3.34-2.76,2.93-6.59,3.64-10.04,4.78Z"/>
      <path class="cls-1" d="M55.13,27.47c-.77-.12-1.31-.5-1.22-1.34,.07-.72,.41-1.43,1.21-1.47,1.02-.05,1.6,.54,1.49,1.6-.09,.85-.79,1.05-1.48,1.21Z"/>
    </g>
  </g>
</svg>