<?xml version="1.0" encoding="UTF-8"?>
<svg id="Layer_2" data-name="Layer 2" xmlns="http://www.w3.org/2000/svg" viewBox="0 0 122.73 111.8">
  <defs>
    <style>
      .cls-1 {
        fill: #D8FF7A;
      }
    </style>
  </defs>
  <g id="Capa_1" data-name="Capa 1">
    <g>
      <path class="cls-1" d="M62.27,75.59c2.35-2.42,4.2-4.95,5.92-7.56,.82-1.24,1.65-2.5,2.69-3.5,3.02-2.93,5.1-6.55,7.52-9.91,1.03-1.43,2.02-2.85,3.42-3.93,.54-.41,1.05-.98,.86-1.62-.27-.92-1.2-.69-1.89-.65-3.87,.26-7.75,.13-11.62,.15-1.67,0-3.29-.22-4.89-.76-1.84-.63-2.67-1.9-2.74-3.72-.05-1.29,0-2.58,.04-3.87,.27-8.76-.25-17.51-.16-26.27,.03-3.22,.24-6.43,.13-9.65-.06-1.59,.59-2.97,2.11-3.59,1.72-.7,3.53-1.15,5.3-.02,1.3,.83,1.25,2.28,1.29,3.48,.14,3.77,.5,7.54,.25,11.32-.4,5.88-.53,11.77-.53,17.66,0,1.84,.14,3.69,.13,5.53,0,1.11,.57,1.51,1.53,1.49,2.21-.05,4.44,0,6.64-.25,4.25-.48,8.5-.31,12.69,.27,5.38,.75,6.17,4.73,4.04,8.76-1.29,2.44-2.91,4.7-4.69,6.84-3.3,3.97-6.8,7.8-9.82,11.96-4.29,5.9-9.23,11.25-13.65,17.03-.95,1.24-2.03,2.4-3.13,3.51-1.65,1.67-3.23,1.67-5.09,.12-2.13-1.76-3.16-4.29-4.62-6.51-2.83-4.3-5.58-8.66-9-12.54-.3-.35-.68-.67-.87-1.08-1.7-3.8-4.16-7.17-6.26-10.72-1.57-2.65-3.45-5.21-5.44-7.61-1.17-1.4-1.7-3.06-2.27-4.7-.48-1.37,0-2.14,1.49-2.29,1.82-.18,3.67-.16,5.51-.2,.96-.02,1.46,.69,1.96,1.36,4.22,5.72,8.45,11.43,12.66,17.15,3.49,4.73,6.96,9.47,10.51,14.3Z"/>
      <path class="cls-1" d="M24.94,111.59c-1.78,.41-3.46,.16-5.16-.22-4.66-1.06-8.32-3.79-11.71-6.94-.82-.76-1.58-1.55-2.62-1.98-1.75-.72-2.77-2.25-3.51-3.77-1.4-2.84,.43-5.29,3.23-5.02,2.62,.25,4.93,1.2,6.86,3.16,2.88,2.93,6.12,5.29,10.49,5.48,2.46,.11,4.35-1.28,6.4-2.24,3.87-1.8,6.9-4.92,10.64-6.89,4.74-2.49,9.76-3,14.99-1.59,3.95,1.07,7.52,2.71,10.91,5.08,2.99,2.1,6.56,3.29,10.12,4.17,3.87,.96,7.23-.63,10.42-2.58,4.22-2.58,8.41-5.23,12.84-7.46,.48-.24,1.06-.48,1.58-.45,3.67,.21,7.38-.6,11,.45,2.82,.82,5.52,2.02,8.25,3.07,3.1,1.2,4.03,5.42,1.98,7.97-.72,.89-1.8,1.59-3.16,1-.85-.37-1.68-.72-2.4-1.35-2.66-2.33-5.85-3.43-9.31-3.83-1.29-.15-2.53,0-3.81,.38-4.15,1.26-7.45,3.91-10.95,6.3-1.96,1.33-3.84,2.82-6.25,3.42-.89,.22-1.74,.49-2.67,.53-1.1,.05-2.26-.01-3.26,.5-1.98,1-3.95,.69-5.9,.07-2.01-.65-3.91-1.52-5.78-2.57-4.09-2.29-8.45-4.08-12.27-6.87-1.05-.77-2.33-.9-3.68-.87-3.42,.08-6.45,1.03-9.38,2.85-3.92,2.44-7.49,5.35-11.3,7.93-2,1.36-4.41,1.53-6.59,2.27Z"/>
      <path class="cls-1" d="M24.31,88.52c-2.18,.48-4.24,.12-6.28-.51-4.15-1.28-7.49-3.82-10.63-6.7-.67-.62-1.21-1.37-2.15-1.69-1.88-.65-2.81-2.33-3.84-3.84-.77-1.14-.7-2.47,0-3.66,.73-1.24,1.88-1.69,3.3-1.51,2.72,.36,4.99,1.42,7.01,3.44,2.74,2.76,5.9,4.97,10.07,5.19,2.49,.14,4.4-1.2,6.43-2.17,1.99-.95,3.83-2.21,5.71-3.36,.41-.25,.93-.61,1.19-.11,1.01,1.96,2.89,3.29,3.76,5.36,.42,.98,.26,1.42-.62,1.97-1.71,1.08-3.3,2.33-4.83,3.67-2.61,2.3-5.87,3.19-9.14,3.9Z"/>
      <path class="cls-1" d="M79.93,85.3c1-3.02,3.12-5.18,4.78-7.59,.4-.59,.86-1.15,1.22-1.79,.41-.73,.87-1.41,1.58-1.9,3.48-2.41,7.2-4.41,10.94-6.38,.4-.21,.89-.39,1.33-.36,3.65,.24,7.35-.6,10.97,.41,2.83,.79,5.49,2.07,8.25,3.04,3.16,1.12,4.09,5.16,2.16,7.95-.72,1.05-1.82,1.56-3.14,1.14-.98-.31-1.84-.81-2.63-1.49-2.68-2.32-5.88-3.38-9.35-3.71-1.39-.13-2.72,.02-4.06,.55-2.85,1.11-5.52,2.44-7.97,4.33-2.53,1.95-5.15,3.82-8.21,4.99-1.88,.71-3.74,.78-5.85,.8Z"/>
      <path class="cls-1" d="M30.08,63.62c-3.72,1.78-7.4,2.86-11.4,2.01-4.84-1.04-8.66-3.86-12.18-7.17-.6-.56-1.07-1.26-1.92-1.53-1.91-.61-2.85-2.28-3.91-3.76-.84-1.18-.91-2.61-.09-3.88,.76-1.19,1.93-1.61,3.36-1.42,2.63,.35,4.85,1.35,6.82,3.25,2.64,2.54,5.39,5.03,9.44,5.23,1.21,.06,2.33,.29,3.49-.28,.93-.46,1.82-.38,2.29,.73,1.01,2.38,2.69,4.37,4.1,6.84Z"/>
      <path class="cls-1" d="M104.35,51.27c.96-1.86,1.98-3.79,2.97-5.73,.34-.66,.78-.99,1.55-.78,.8,.22,1.65,.28,2.41,.6,2.12,.89,4.23,1.71,6.44,2.39,3.41,1.04,4.65,5.26,2.59,8.21-.72,1.03-1.83,1.57-3.14,1.1-.69-.24-1.43-.52-1.96-.99-2.8-2.46-6.06-3.8-9.74-4.19-.27-.03-.53-.15-.79-.24-.07-.03-.12-.12-.33-.36Z"/>
    </g>
  </g>
</svg>
