<?xml version="1.0" encoding="UTF-8"?>
<svg id="Layer_2" data-name="Layer 2" xmlns="http://www.w3.org/2000/svg" viewBox="0 0 60.89 86.51">
  <defs>
    <style>
      .cls-1 {
        fill: #1a1a1a;
      }
    </style>
  </defs>
  <g id="Capa_1" data-name="Capa 1">
    <g>
      <path class="cls-1" d="M55.16,16.24c3.74-.62,4.96-1.91,4.52-4.72-.56-3.58-1.71-4.49-5.41-4.16-2.52,.22-5.04,.64-7.56,.73-2.07,.08-6.59,.98-9.12,.43-2.89-.63-1.18-2.65-1.98-4.93-1.51-4.27-6.46-4.81-8.72-1.24-1.04,1.65,.39,4.6-1.41,6.1-1.98,1.66-9.09,.77-10.42,.74-4.33-.11-7.98-.16-10.65,.79-2.36,.84-4.07,2.5-2.91,4.67,.62,1.17,0,2.46,4.98,2.9,13.9,1.24,43.32-.43,48.68-1.31Z"/>
      <path class="cls-1" d="M56.44,23.91c-7.08-.04-14.16,.11-21.24,.17,0,.04,0,.08,0,.11-7.26,.07-14.52,.17-21.78,.19-.98,0-5.89-.23-7.45-.22-1.01,0-2.01,.06-3,.27-.36,.08-.53,.11-.99,.32-.04,.02-.28,.14-.37,.18-.08,.06-.28,.19-.31,.22-.13,.1-.25,.22-.37,.34-.03,.04-.13,.15-.17,.22-.1,.14-.19,.28-.29,.42-.03,.04-.04,.06-.05,.07,0,.02-.02,.04-.03,.08-.14,.3-.26,.6-.37,.9,.02,2.05-.02,4.11,.21,6.15,1.1,10.07,2.57,20.09,2.95,30.25,.22,6.1,1.16,12.18,2.04,18.23,.51,3.55,1.36,4.17,4.59,3.96,12.69-.82,25.35-.55,38.01,.67,3.31,.32,4.56-.91,5.02-4.26,.41-2.93-.39-4.15-3.69-4.92-1.91-.44-3.85-.68-5.88-.66-8.14,.08-16.27-.1-24.41-.22-4.17-.06-4.06-.12-4.79-4.55-1.63-9.87-1.54-19.9-2.87-29.8-1.11-8.25-.93-8.27,7.8-8.08,5.35,.12,6.5,1.14,6.02,6.3-.72,7.8-.32,15.6-.46,23.4-.09,4.72,0,4.72,4.97,4.27q3.96-.37,4.14-4.57c.14-3.25,.36-6.5,.42-9.75,.09-4.9,0-9.81,.14-14.71,.05-1.73-.32-4.02,1.75-4.81,4.31-1.64,8.85-1.62,13.38-.96,1.3,2.85-.17,5.56-.55,8.28-1.09,7.71-1.82,15.48-3.51,23.12-.76,3.42,.81,5.02,4.74,5.72,3.57,.63,4.29,.2,4.92-3.75,1.58-9.84,3.78-19.59,4.8-29.52,.26-2.52,.55-5.04,.97-7.53,.68-4.04-.29-5.51-4.26-5.53Z"/>
    </g>
  </g>
</svg>