<?xml version="1.0" encoding="UTF-8"?>
<svg id="Layer_2" data-name="Layer 2" xmlns="http://www.w3.org/2000/svg" viewBox="0 0 78.9 61.68">
  <defs>
    <style>
      .cls-1 {
        fill: #FD8BB6;
      }
    </style>
  </defs>
  <g id="Capa_1" data-name="Capa 1">
    <path class="cls-1" d="M0,41.82c8.24,1.94,16.07,4.64,24.42,1.86-.61-2.52-3.4-3.54-3.62-6.2,.05-.1,.14-.56,.38-.65,3.83-1.46,3.9-1.55,.93-4.17-2.07-1.82-3.85-3.84-5.15-6.27-.51-.96-.96-1.95-1.35-2.97-.86-2.25-.31-3.52,2.35-3.32,.89,.07,1.82,.08,2.86-.69-1.88-3.9-4.85-7.44-5.38-11.98,2.09-1.32,3.65,.01,5.27,.62,5.44,2.03,10.79,4.34,16.64,4.98,1.98,.21,3.98,.23,5.97,.28,2.08,.05,3.21-.68,3.58-3.06,.76-4.84,3.42-8.22,8.4-9.64C60-.73,64.1,0,66.84,4.11c2.27,3.42,4.94,5.04,8.9,4.84,.36-.02,.72,.08,1.08,.13,.92,.14,1.91,.33,2.07,1.4,.11,.73-.47,1.33-1.14,1.71-1.68,.95-3.68,1.69-2.12,4.32,.15,.25-.63,1.36-1.2,1.66-4.21,2.2-3.89,6.06-3.88,9.91,.04,8.85-2.56,16.74-8.88,23.16-8.06,8.19-17.87,11.69-29.19,10.06-11.39-1.65-21.53-6.26-29.9-14.4-1.2-1.17-2.27-2.33-2.59-5.06Z"/>
  </g>
</svg>
