<?xml version="1.0" encoding="UTF-8"?>
<svg id="Layer_2" data-name="Layer 2" xmlns="http://www.w3.org/2000/svg" viewBox="0 0 75.64 81.15">
  <defs>
    <style>
      .cls-1 {
        fill: #32C2FB;
      }
    </style>
  </defs>
  <g id="Capa_1" data-name="Capa 1">
    <path class="cls-1" d="M14.64,43.84c.34,6.88-.01,13.41,.87,19.91,.52,3.87,.35,4.02,4.09,3.99,5.78-.05,11.56-.28,17.34-.49,7.78-.28,15.56-.66,23.34-.88,2.48-.07,3.49-.85,3.38-3.55-.56-14.68-.8-29.36-2.08-44.01-.06-.72-.16-1.44-.28-2.16-.75-4.43-1.18-4.86-5.58-4.7-5.97,.22-11.94,.55-17.91,.83-8.15,.38-16.31,.8-24.47,1.12-2.55,.1-5.03,.47-7.53,.95-2.98,.57-4.75-.88-5.46-3.91-.92-3.91-.09-5.75,3.16-6.79,1.2-.38,2.45-.72,3.69-.81C24.56,2.2,41.89,.41,59.32,.54c2.35,.02,4.7-.56,7.04-.54,3.51,.03,4.56,.9,4.81,4.51,.82,12.11,2.64,24.13,2.5,36.35-.1,8.86,1.03,17.74,1.77,26.6,.8,9.55-.44,11.42-9.9,12.01-12.84,.79-25.7,1.47-38.56,1.18-6.13-.14-12.21,1.2-18.38,0-4.06-.79-4.5-.6-4.87-4.92-.6-7.03-.97-14.09-1.24-21.15-.29-7.42-.3-14.85-.54-22.27-.07-2.2-.67-4.8,1.7-5.81,2.6-1.1,5.53-1.91,8.48-.94,1.91,.63,2.08,2.23,2.13,3.97,.13,4.89,.87,9.77,.38,14.32Z"/>
  </g>
</svg>
