<?xml version="1.0" encoding="UTF-8"?>
<svg id="Layer_2" data-name="Layer 2" xmlns="http://www.w3.org/2000/svg" viewBox="0 0 44.05 153.6">
  <defs>
    <style>
      .cls-1 {
        fill: #1a1a1a;
      }
    </style>
  </defs>
  <g id="Capa_1" data-name="Capa 1">
    <g>
      <path class="cls-1" d="M0,55.05c1.75-4.11,3.17-7.73,4.81-11.25,2.32-4.98,4.74-9.93,7.24-14.83,3.93-7.69,6.9-15.74,9.43-23.97,.37-1.21,.76-2.44,1.36-3.55,1.03-1.9,3.16-1.93,4.33-.1,.45,.71,.73,1.53,1.03,2.32,2.19,5.78,4.15,11.66,6.61,17.33,2.44,5.63,4.86,11.32,8.64,16.27,.43,.56,.93,1.08,.31,2.08-3.1-.43-4.92-2.81-6.91-4.88-1.07-1.12-1.89-2.5-3.02-3.54-1.44-1.33-2.6-.9-2.96,.99-.18,.96-.31,1.99-.19,2.96,.8,6.77,.14,13.54-.41,20.25-.33,3.96-.03,7.92-.48,11.81-.51,4.4-.43,8.78-.71,13.17-.29,4.51-.99,9.02-.91,13.51,.1,5.38-.97,10.57-1.53,15.85-.28,2.61-.29,5.36,.22,7.92,.62,3.08-1.44,4.39-3.14,5.95-1.17,1.08-2.35,.33-3.32-.65-1.97-1.97-2.25-4.53-2.14-7.05,.43-9.85,.87-19.7,1.62-29.52,.2-2.56-.04-5.04-.13-7.55-.21-5.52,.9-10.99,.77-16.44-.15-6.45,.93-12.77,.95-19.17,.01-3.53-.22-7.06-.42-10.59-.05-.98-.31-2.14-1.42-2.35-1.17-.22-1.72,.91-2.08,1.76-3.03,7.26-8.07,13.23-12.54,19.56-1.1,1.55-2.21,3.19-5.02,3.72Z"/>
      <path class="cls-1" d="M18.82,146.75c-.25-3.24-.87-6.42-.59-9.67,.21-2.38,1.27-3.63,3.16-3.61,1.71,.01,3.6,1.54,3.48,3.51-.3,4.83-.17,9.74-1.61,14.45-.37,1.22-1.13,2.42-2.68,2.14-1.36-.24-1.41-1.57-1.64-2.66-.29-1.38-.42-2.77-.13-4.15Z"/>
    </g>
  </g>
</svg>