<?xml version="1.0" encoding="UTF-8"?>
<svg id="Layer_2" data-name="Layer 2" xmlns="http://www.w3.org/2000/svg" viewBox="0 0 71.71 76.17">
  <defs>
    <style>
      .cls-1 {
        fill: #10CFC9;
      }
    </style>
  </defs>
  <g id="Capa_1" data-name="Capa 1">
    <g>
      <path class="cls-1" d="M38.83,27.86c-8.33,.32-16.64-.04-24.98,.48-3.15,.2-3.77,1.49-3.52,3.94,.48,4.74-.84,9.37-.69,14.11,.1,3.13-3.11,5.55-6.22,5.14-2.34-.31-3.45-1.55-3.28-4.06,.44-6.84-.18-13.71,.72-20.54,.24-1.79,.36-3.66,.09-5.43-.59-3.82,1.44-5.78,4.59-6.9,8.68-3.09,17.37-6.15,26.1-9.07,5.32-1.78,10.72-3.34,16.12-4.86,4.75-1.34,5.67-.97,6.14,3.81,.86,8.76,5.59,13.92,13.82,16.07,3.11,.81,3.96,2.8,3.95,5.61-.01,3.98,.16,7.97-.06,11.94-.58,10.65-.01,21.33-.84,31.98-.22,2.82-1.39,3.67-3.84,4.21-12.69,2.81-25.25,2.66-37.56-1.7-8.04-2.85-16.27-3.26-24.65-3.02-3.95,.11-4.95-1.19-4.66-4.8,.15-1.88,.87-2.87,2.85-3.3,8.79-1.87,17.47-2.81,26.25,.34,8.61,3.09,17.67,3.86,26.77,3.92,1.42,.01,2.88-.41,4.25-.86,1.82-.6,2.95-1.63,2.99-3.92,.15-9.98,.48-19.95,.81-29.93,.09-2.52-.57-3.37-3.41-3.25-7.23,.32-14.48,.11-21.73,.11Zm-21.24-7.34c10.12-.72,20.22,.83,30.68-.68-.79-2.37-1.52-4.2-2-6.08-.46-1.82-1.4-2.32-3.15-1.76-2.59,.82-5.24,1.45-7.82,2.3-5.91,1.94-11.7,4.23-17.71,6.23Z"/>
      <path class="cls-1" d="M45.7,46.91c0,4.61-3.97,8.54-8.69,8.62-5.17,.09-10.53-4.92-10.47-9.78,.06-4.36,5.54-8.92,10.77-8.96,4.8-.03,8.39,4.3,8.38,10.12Z"/>
    </g>
  </g>
</svg>
