<?xml version="1.0" encoding="UTF-8"?>
<svg id="Layer_2" data-name="Layer 2" xmlns="http://www.w3.org/2000/svg" xmlns:xlink="http://www.w3.org/1999/xlink" viewBox="0 0 602.39 710.66">
  <defs>
    <style>
      .cls-1 {
        fill: #fff;
      }

      .cls-2 {
        fill: #fc8ab5;
      }

      .cls-3 {
        fill: url(#Degradado_sin_nombre_23);
      }

      .cls-4 {
        fill: url(#Degradado_sin_nombre_23-3);
      }

      .cls-5 {
        fill: url(#Degradado_sin_nombre_23-2);
      }
    </style>
    <linearGradient id="Degradado_sin_nombre_23" data-name="Degradado sin nombre 23" x1="519.37" y1="426.16" x2="537.61" y2="228.78" gradientUnits="userSpaceOnUse">
      <stop offset="0" stop-color="#00b1e2"/>
      <stop offset=".11" stop-color="#13a2e5"/>
      <stop offset=".31" stop-color="#3489ea"/>
      <stop offset=".51" stop-color="#4c77ed"/>
      <stop offset=".69" stop-color="#5b6cf0"/>
      <stop offset=".85" stop-color="#6069f1"/>
    </linearGradient>
    <linearGradient id="Degradado_sin_nombre_23-2" data-name="Degradado sin nombre 23" x1="311.53" y1="371.49" x2="309.87" y2="51.35" xlink:href="#Degradado_sin_nombre_23"/>
    <linearGradient id="Degradado_sin_nombre_23-3" data-name="Degradado sin nombre 23" x1="225.14" y1="525.82" x2="305.45" y2="-48.17" xlink:href="#Degradado_sin_nombre_23"/>
  </defs>
  <g id="Capa_1" data-name="Capa 1">
    <g>
      <path class="cls-2" d="M491.32,103.05c-10.81-1.82-21.92-.98-32.48,1.51-30.56-4.31-36.55,17.44-32.25,41.06,2.48,23.38,40.48-1.28,29.01,25.95-1.05,3.19-5.06,12.29,1.13,10.58,34.12,9.1-59.05,104.61-13.19,128.58,27.28,29.32,75.62,25.95,111.84,16.81,38.83-5.85,59.74-55.9,33.34-86.15-19.56-29.4-56.76-35.41-38.61-78.86,9.01-48.01-14.64-59.79-58.8-59.48Z"/>
      <path class="cls-3" d="M448.02,592.79c15.43,7.9,34.43,4.89,51.08,3.59,12.63,1.46,24.95-4.84,37.29-6.13,103.29-16.23,53.58-161.54,56.97-234.63-2.03-58.81-11.6,10.49-112.67-8.37-8.49-2.8-17.09-5.39-25.3-8.99-3.5-.03-.91,7.23-2.48,9.88-1.63,31.15-26.13,52.67-22.95,83.76,3.12,15.71-1.02,46.05,11.7,54.3,3.48-1.75,8.93-2.53,12.04-.32,7.73,13.31,2.29,31.07,8.39,45.79,6.73,22.28,27.64,67.4-14.08,61.12Z"/>
      <path class="cls-5" d="M257.26,594.59c32.95,9.51,72.92,4.43,104.32-9.11,71.75-10.97,45.22-139.98,43.4-193-7.13-69.26-6.02-145.61-45.96-204.37-46.49-64.68-135.86-3.15-136.72,61.32-7.02,32.22-5.05,66.76-9.96,99.33,4.95,16.11-10.39,46.92,17.24,45.64,21.75,13.98,3.45,66.18,17.73,91.57,26.32-.68,17.68,8.69,20.64,30.47,2.06,25.88,39.17,82.42-10.69,78.16Z"/>
      <path class="cls-4" d="M.04,433.81c1.31,33.26-.37,67.89,11.34,100.21,3.02,7.27,7.06,13.42,11.58,19.35-.37,7.73,10.87,7.11,11.29,14.81,9.92,2.94,22.19,19.54,36.45,11.25,11.63-6.09,17.54-18.4,29.55-24.67,11.64-2.23,13.81,1.62,12.01,7.26,3.71,9.96,1.4,31.47,6.02,44.27,3.21,8.88,12.63,10.96,22.82,8.3,12.61-.16,58.34,3.32,65.3-6.05-56.08-10.59,18.05-67.83-14.29-138.51-16.78-38.33-73.65-5.79-101.58-3.21-5.8,3.99-75.19,31.32-44.42,4.96,29.72-23.42,119.43-58.78,148.41-25.08,20.44,18.14,26.5,51.12,24.48,77.06,7.63-.12,27.89-14.76,26.02-20.77-28.22-4.48-14-88.72-24.03-94.14-41.57,1.74-15.17-84.3-16.93-110.53-1.49-67.15,25.93-161.42,107.65-155.67,128.14,1.23,98.97,293.99,118.08,223.87,26.04-64.39-26.78-35.96-10.55-97.13,2.21-27.5,20.05-50.37,33.1-73.69-7.01,1.61-13.54-1.06-12.33-8.94,9.03-25.91-4.96-2.34-21.13-13.94-40.98-73.48,18.64-99.21,85.42-86.49-49.26-65.62-6.22-16.96,27.08-32.53-7.7-10.96-37.48-2.25-32.42-22.46,3.76-12.15,24.91-3.78,29.39-13.68-75.45-33.65-166.86-12.38-241.28,7.36-57.35,22.3-125.3,46.85-163.64,98.45-8.65,4.87-2.09,7.48,1.33,13.41-8.55,36.38-56.3,49.3-76.38,80.54-29.69,24.15,5.06,11.2-8.28,38.25-8.21,11.26-17.22,24.31-18.17,39.15-1.04,1.34,.06,3.08,1.8,2.88,3.98-.89,2.04,4.82,4.29,6.91C17.38,347.31-.96,388.98,.04,433.81Z"/>
      <path d="M511.21,219.34c-10.59,27.19-35-28.88-7.85-16.4,2.91,5.43,7.2,10.27,7.85,16.4Z"/>
      <path d="M515.1,289.38c-21.17,8.95,20.17,15.88,27.75,10.67,14.55-4.43,40.82-20.81,30.76-38.16-15.84-7.38-21.7,29.54-58.51,27.49Z"/>
      <path d="M552.67,499.39c25.57-2.05,5.81-75.97-4.53-28.03,.24,7.35,.21,16.76-6.03,5.39-13.23-7.31-1.41,26.83,10.57,22.64Z"/>
      <path d="M496.5,158.73c-8.3,1.13-4.25-4,1.59-4.27,11.54-9.1-9.67-14.15-15.83-8.5-20.96,40.55,45.79,23.5,14.24,12.77Z"/>
      <path d="M535.52,154.14c9.22-8.11-7.03-13.38-13.59-11.27-13.99,3.88-10.1,33.26,7.3,27.56,9.75,2.42,12.46-11.24,2.14-11.79-1.92,.17-4.25,.65-4.77-1.55-.16-6.06,6.34-2.19,8.93-2.95Z"/>
      <path d="M508.29,195.95c3.87-4.16-4.13-10.2-7.69-9.68-7.6-1.92-23.21,16.65-11.33,15.96,6.04-4.23,12-8.65,19.02-6.27Z"/>
      <path d="M489.34,429.23c20.68,3.41,24.15-34.9,3.33-18.5-3.02,6.33-8.02,3.92-13.45,3.96-6.91-28.99-14.9,21.72,10.12,14.54Z"/>
      <path d="M256.05,337.58c-8.39-30.13-17.5,11.41,.81,15.87,11.93,4.14,21.34-12.02,20.98-22.38-5.43-13.01-17.13,14.04-21.79,6.51Z"/>
      <path d="M510.8,705.05c-23.05,3.06-46.1,7.58-69.18,4.67-50.4-3.35-40.09-36.07-.37-48.79,64.89-34.47,212,4.35,69.56,44.12Z"/>
      <path class="cls-1" d="M442.13,676.02c-58.78,28.01,50.43,18.48,67.85,14.3,112.88-27.51-37.26-37.07-67.85-14.3Z"/>
      <path d="M291.14,430.35c13.89,6.44,39.85-17.95,17.37-22.42-8.1,3.71-16.75,17.03-21.8,1.21-7.61-10.25-7.12,21.57,4.43,21.2Z"/>
      <path d="M428.5,498.44c-.81,3.09-2.12,7.43,2.38,6.04,3.62-1.79,10.48,2.87,12.08-.93-1.27-5.52-11.04,1.3-14.46-5.11Z"/>
      <path d="M489.84,132.82c16.39-2.95,37,8.46,50.84,1.13-5.75-16.57-34.2-12.33-48-12.59-31.41,.99-41.2,17.5-2.85,11.46Z"/>
      <path d="M85.76,320.65c22.75,7.18,29.4-46.04,4.88-14.56-.13-42.2-19.59,2.27-4.88,14.56Z"/>
      <path d="M532.95,202.08c-10.12,1.31-15.6,28.45,.18,23.6,9.68-3.8,12.12-23.85-.18-23.6Z"/>
      <path d="M373.48,136.73c9.93-7.13-6.2-10.92-5.09-15.69,3.04-3.26,12.79,5.48,14.1-4.73-15.78-38.26-53.04,24.35-9.02,20.42Z"/>
    </g>
  </g>
</svg>