<?xml version="1.0" encoding="UTF-8"?>
<svg id="Layer_2" data-name="Layer 2" xmlns="http://www.w3.org/2000/svg" xmlns:xlink="http://www.w3.org/1999/xlink" viewBox="0 0 712.47 760.47">
  <defs>
    <style>
      .cls-1 {
        fill: #f6f6f6;
      }

      .cls-2 {
        fill: url(#Degradado_sin_nombre_30);
      }

      .cls-3 {
        fill: url(#Degradado_sin_nombre_36);
      }

      .cls-4 {
        fill: url(#Degradado_sin_nombre_34);
      }

      .cls-5 {
        fill: url(#Degradado_sin_nombre_23);
      }

      .cls-6 {
        fill: url(#Degradado_sin_nombre_17);
      }

      .cls-7 {
        fill: url(#Degradado_sin_nombre_34-10);
      }

      .cls-8 {
        fill: url(#Degradado_sin_nombre_34-11);
      }

      .cls-9 {
        fill: url(#Degradado_sin_nombre_34-12);
      }

      .cls-10 {
        fill: url(#Degradado_sin_nombre_30-10);
      }

      .cls-11 {
        fill: url(#Degradado_sin_nombre_30-11);
      }

      .cls-12 {
        fill: url(#Degradado_sin_nombre_36-2);
      }

      .cls-13 {
        fill: url(#Degradado_sin_nombre_36-4);
      }

      .cls-14 {
        fill: url(#Degradado_sin_nombre_36-3);
      }

      .cls-15 {
        fill: url(#Degradado_sin_nombre_36-6);
      }

      .cls-16 {
        fill: url(#Degradado_sin_nombre_36-5);
      }

      .cls-17 {
        fill: url(#Degradado_sin_nombre_36-8);
      }

      .cls-18 {
        fill: url(#Degradado_sin_nombre_36-7);
      }

      .cls-19 {
        fill: url(#Degradado_sin_nombre_17-2);
      }

      .cls-20 {
        fill: url(#Degradado_sin_nombre_34-6);
      }

      .cls-21 {
        fill: url(#Degradado_sin_nombre_34-7);
      }

      .cls-22 {
        fill: url(#Degradado_sin_nombre_34-2);
      }

      .cls-23 {
        fill: url(#Degradado_sin_nombre_34-3);
      }

      .cls-24 {
        fill: url(#Degradado_sin_nombre_34-4);
      }

      .cls-25 {
        fill: url(#Degradado_sin_nombre_34-5);
      }

      .cls-26 {
        fill: url(#Degradado_sin_nombre_34-9);
      }

      .cls-27 {
        fill: url(#Degradado_sin_nombre_34-8);
      }

      .cls-28 {
        fill: url(#Degradado_sin_nombre_30-9);
      }

      .cls-29 {
        fill: url(#Degradado_sin_nombre_30-4);
      }

      .cls-30 {
        fill: url(#Degradado_sin_nombre_30-3);
      }

      .cls-31 {
        fill: url(#Degradado_sin_nombre_30-8);
      }

      .cls-32 {
        fill: url(#Degradado_sin_nombre_30-7);
      }

      .cls-33 {
        fill: url(#Degradado_sin_nombre_30-6);
      }

      .cls-34 {
        fill: url(#Degradado_sin_nombre_30-5);
      }

      .cls-35 {
        fill: url(#Degradado_sin_nombre_30-2);
      }
    </style>
    <linearGradient id="Degradado_sin_nombre_36" data-name="Degradado sin nombre 36" x1="7.69" y1="687.12" x2="702.77" y2="687.12" gradientUnits="userSpaceOnUse">
      <stop offset="0" stop-color="#50afe0"/>
      <stop offset=".05" stop-color="#5db6d5"/>
      <stop offset=".23" stop-color="#88cfb5"/>
      <stop offset=".41" stop-color="#a9e39b"/>
      <stop offset=".58" stop-color="#c1f188"/>
      <stop offset=".73" stop-color="#d0fa7d"/>
      <stop offset=".86" stop-color="#d5fd7a"/>
    </linearGradient>
    <linearGradient id="Degradado_sin_nombre_17" data-name="Degradado sin nombre 17" x1="388.66" y1="212.94" x2="704.37" y2="212.94" gradientUnits="userSpaceOnUse">
      <stop offset="0" stop-color="#ee87b3"/>
      <stop offset=".08" stop-color="#d782bc"/>
      <stop offset=".25" stop-color="#ac79ce"/>
      <stop offset=".42" stop-color="#8b72dc"/>
      <stop offset=".58" stop-color="#736de6"/>
      <stop offset=".72" stop-color="#646aec"/>
      <stop offset=".85" stop-color="#6069ef"/>
    </linearGradient>
    <linearGradient id="Degradado_sin_nombre_36-2" data-name="Degradado sin nombre 36" x1="208.43" y1="164.21" x2="65.88" y2="353.02" xlink:href="#Degradado_sin_nombre_36"/>
    <linearGradient id="Degradado_sin_nombre_17-2" data-name="Degradado sin nombre 17" x1="287.78" y1="475.08" x2="112.82" y2="406.57" xlink:href="#Degradado_sin_nombre_17"/>
    <linearGradient id="Degradado_sin_nombre_23" data-name="Degradado sin nombre 23" x1="234.82" y1="183.29" x2="381.72" y2="183.29" gradientUnits="userSpaceOnUse">
      <stop offset="0" stop-color="#50afe0"/>
      <stop offset=".21" stop-color="#5694e5"/>
      <stop offset=".44" stop-color="#5b7cea"/>
      <stop offset=".66" stop-color="#5e6ded"/>
      <stop offset=".85" stop-color="#6069ef"/>
    </linearGradient>
    <linearGradient id="Degradado_sin_nombre_36-3" data-name="Degradado sin nombre 36" x1="534.12" y1="367.54" x2="656.8" y2="367.54" xlink:href="#Degradado_sin_nombre_36"/>
    <linearGradient id="Degradado_sin_nombre_36-4" data-name="Degradado sin nombre 36" x1="343.25" y1="266" x2="200.7" y2="454.82" xlink:href="#Degradado_sin_nombre_36"/>
    <linearGradient id="Degradado_sin_nombre_30" data-name="Degradado sin nombre 30" x1="570.7" y1="537.78" x2="428.16" y2="539.06" gradientUnits="userSpaceOnUse">
      <stop offset="0" stop-color="#ee87b3"/>
      <stop offset=".03" stop-color="#ed85ab"/>
      <stop offset=".22" stop-color="#ec7b80"/>
      <stop offset=".39" stop-color="#ec735f"/>
      <stop offset=".56" stop-color="#eb6e47"/>
      <stop offset=".72" stop-color="#eb6b38"/>
      <stop offset=".85" stop-color="#eb6a34"/>
    </linearGradient>
    <linearGradient id="Degradado_sin_nombre_30-2" data-name="Degradado sin nombre 30" x1="569.99" y1="458.7" x2="427.45" y2="459.98" xlink:href="#Degradado_sin_nombre_30"/>
    <linearGradient id="Degradado_sin_nombre_36-5" data-name="Degradado sin nombre 36" x1="326.31" y1="253.21" x2="183.75" y2="442.02" xlink:href="#Degradado_sin_nombre_36"/>
    <linearGradient id="Degradado_sin_nombre_36-6" data-name="Degradado sin nombre 36" x1="172.25" y1="356.8" x2="285.27" y2="81.16" xlink:href="#Degradado_sin_nombre_36"/>
    <linearGradient id="Degradado_sin_nombre_36-7" data-name="Degradado sin nombre 36" x1="221.72" y1="377.09" x2="334.75" y2="101.44" xlink:href="#Degradado_sin_nombre_36"/>
    <linearGradient id="Degradado_sin_nombre_36-8" data-name="Degradado sin nombre 36" x1="235.51" y1="184.65" x2="92.95" y2="373.47" xlink:href="#Degradado_sin_nombre_36"/>
    <linearGradient id="Degradado_sin_nombre_34" data-name="Degradado sin nombre 34" x1="187.99" y1="590.57" x2="628.56" y2="635.55" gradientUnits="userSpaceOnUse">
      <stop offset="0" stop-color="#eb6a34"/>
      <stop offset=".15" stop-color="#ee8739"/>
      <stop offset=".34" stop-color="#f2a83f"/>
      <stop offset=".53" stop-color="#f4c044"/>
      <stop offset=".71" stop-color="#f6cf47"/>
      <stop offset=".85" stop-color="#f7d448"/>
    </linearGradient>
    <linearGradient id="Degradado_sin_nombre_34-2" data-name="Degradado sin nombre 34" x1="191.72" y1="554.05" x2="632.29" y2="599.03" xlink:href="#Degradado_sin_nombre_34"/>
    <linearGradient id="Degradado_sin_nombre_34-3" data-name="Degradado sin nombre 34" x1="237.05" y1="110.02" x2="677.62" y2="155" xlink:href="#Degradado_sin_nombre_34"/>
    <linearGradient id="Degradado_sin_nombre_34-4" data-name="Degradado sin nombre 34" x1="220.77" y1="269.45" x2="661.34" y2="314.43" xlink:href="#Degradado_sin_nombre_34"/>
    <linearGradient id="Degradado_sin_nombre_34-5" data-name="Degradado sin nombre 34" x1="222.3" y1="254.45" x2="662.87" y2="299.43" xlink:href="#Degradado_sin_nombre_34"/>
    <linearGradient id="Degradado_sin_nombre_34-6" data-name="Degradado sin nombre 34" x1="244.48" y1="37.24" x2="685.05" y2="82.22" xlink:href="#Degradado_sin_nombre_34"/>
    <linearGradient id="Degradado_sin_nombre_34-7" data-name="Degradado sin nombre 34" x1="242.97" y1="51.97" x2="683.55" y2="96.95" xlink:href="#Degradado_sin_nombre_34"/>
    <linearGradient id="Degradado_sin_nombre_34-8" data-name="Degradado sin nombre 34" x1="225.87" y1="219.55" x2="666.44" y2="264.53" xlink:href="#Degradado_sin_nombre_34"/>
    <linearGradient id="Degradado_sin_nombre_34-9" data-name="Degradado sin nombre 34" x1="226.87" y1="209.71" x2="667.44" y2="254.69" xlink:href="#Degradado_sin_nombre_34"/>
    <linearGradient id="Degradado_sin_nombre_34-10" data-name="Degradado sin nombre 34" x1="245.44" y1="27.79" x2="686.01" y2="72.77" xlink:href="#Degradado_sin_nombre_34"/>
    <linearGradient id="Degradado_sin_nombre_34-11" data-name="Degradado sin nombre 34" x1="227.78" y1="200.83" x2="668.35" y2="245.81" xlink:href="#Degradado_sin_nombre_34"/>
    <linearGradient id="Degradado_sin_nombre_34-12" data-name="Degradado sin nombre 34" x1="227.83" y1="200.36" x2="668.4" y2="245.34" xlink:href="#Degradado_sin_nombre_34"/>
    <linearGradient id="Degradado_sin_nombre_30-3" data-name="Degradado sin nombre 30" x1="652.64" y1="141.14" x2="626.5" y2="-43.7" xlink:href="#Degradado_sin_nombre_30"/>
    <linearGradient id="Degradado_sin_nombre_30-4" data-name="Degradado sin nombre 30" x1="382.18" y1="179.38" x2="356.04" y2="-5.46" xlink:href="#Degradado_sin_nombre_30"/>
    <linearGradient id="Degradado_sin_nombre_30-5" data-name="Degradado sin nombre 30" x1="653.51" y1="141.02" x2="627.37" y2="-43.83" xlink:href="#Degradado_sin_nombre_30"/>
    <linearGradient id="Degradado_sin_nombre_30-6" data-name="Degradado sin nombre 30" x1="660.62" y1="140.01" x2="634.48" y2="-44.83" xlink:href="#Degradado_sin_nombre_30"/>
    <linearGradient id="Degradado_sin_nombre_30-7" data-name="Degradado sin nombre 30" x1="647.3" y1="141.89" x2="621.16" y2="-42.95" xlink:href="#Degradado_sin_nombre_30"/>
    <linearGradient id="Degradado_sin_nombre_30-8" data-name="Degradado sin nombre 30" x1="357.74" y1="182.84" x2="331.6" y2="-2.01" xlink:href="#Degradado_sin_nombre_30"/>
    <linearGradient id="Degradado_sin_nombre_30-9" data-name="Degradado sin nombre 30" x1="361.34" y1="182.33" x2="335.2" y2="-2.51" xlink:href="#Degradado_sin_nombre_30"/>
    <linearGradient id="Degradado_sin_nombre_30-10" data-name="Degradado sin nombre 30" x1="367.54" y1="181.45" x2="341.4" y2="-3.39" xlink:href="#Degradado_sin_nombre_30"/>
    <linearGradient id="Degradado_sin_nombre_30-11" data-name="Degradado sin nombre 30" x1="561.65" y1="154.01" x2="535.51" y2="-30.84" xlink:href="#Degradado_sin_nombre_30"/>
  </defs>
  <g id="Capa_1" data-name="Capa 1">
    <path d="M638.14,638.54c-32.67-8.94-60.43-2.41-73.77-39.53-12.07-23.08-4.43-50.13-15.29-73.54-7.49-23.73-19.18-11.68-2.86-34.25,28.45,4.54,63.08-1.22,91.88-13.8,3.73-.7,9.65-6.59,12.3-1.89,2.81,8.28,11.79,14.08,13.35,22.48-4.82,10.3-7.57,22.56,8.2,18.27,17.31,2.56,20.61-20.41,16.96-33.33-7.46-67.27-25.43-27.8-72.36-33.88-22.71-4.32-8.12-4.7,2.65-14.08,34.51,19.39,45.29-74.29,42.09-97.33,1.39-15.45-14.29-17.14-21.06-26.46-.42-2.55-4.75-4.39-2.15-7.03,8.09-11.71-8.75-20.33-10.12-31.21-10.75-58.28,7.5-12.36,60.31-41.31,43.9-24.46,10.55-50.23,10.71-87.41-2.86-15.82-20.27-24.33-32.19-29.77-5.8-1.43,.94-12.09,.43-16.1,.73-1.93-7.5-32.25-11.63-27.9-3.93-1.35-1.73-12.23-8.71-8.05-9.55-7.03-15.8,6.71-16.71,15.86-.43,2.11,.14,7.47-2.61,3.35-14.15-2.44,.48,26.93,6.2,31.83,3.48,4.38,16.1,7.52,14.92,12.59-3.42,2.83-2.17,7.92-.3,11.27,3.03,10.33-.49,21.88,4.27,32.32,8.35,24.67,5.4,17.61-15.68,14.23-65.14-23.19-78.8,50.53-140.39-19.89-18.53-16.43-42.51-23.59-56.41-45.79-11.06-16.21-27.84-22.17-44.8-28.46-3.26-3.06-5.07,2.89-7.21-3.6-6.7-9.07-20.07-25.42-32.27-16.48-4.74,5.13-32.14,17.04-17.19,22.53,5.93,1.39,11.38,7.28,18,4.75,7.21-.89,12.96,6.17,20.21,6.51,2.04,.25,2.16,.57,1.19,2.28-4.15,6.75,5.06,14.72,5.67,22.28,20.32,40.78,68.77,59.07,92.8,98.34,37.03,20.55,39.07,59.48,43.78,96.91,1.3,11.01,12.62,13.89,20.64,7.26,6.19-2.54,3.79,13.05,4.88,17.29,3.08,19.42-13.05,33.55-19.34,50.73,.78,36.07-41.06,63.89-39.44,103.36,52.11,147.66,100.12,115.82-71.94,113.44-26.63-3.17-58.88,5.42-82.85-2.76-2.45-16.57-21.5-22.38-24.39-38.44-12.6-38.05-30.71-75.98-36.42-114.59,12.31-3.1,1.37-15.7,10.24-10.12,21.51-5.15-33.11-42.71-37.02-52.61-8.45-8.16-13.35-21.23-25.4-24.64-3.21-.6-1.44-4.57-3.18-6.37-3.65-12.9,5.67-.04,9.9,3.36,18.66,16.16,40.25,28.22,56.35,47.28,11.43,5.22,20.38-14.14,31.12-17.8,35.47-14.51,44.56-31.96,8.46-55.35,14.84,8.69,24.53,4.28,31.29-8.84,14.59,1.16,30.27,5.46,43.92-1.6,22.48-11.5,20.1-41.96,28.51-62.94,2.02-12.09,20.42-14.29,18.58-27.21-1.53-5.67,5.42-9.19,2.94-14.99-.64-2.01,1.25-3.48,1.98-5.14,4.09-15.27-18.92-4.15-22.57-11.18-10.96-21.13-14.76,9.98-19.44,18-3.54,6-.83,12.92,1.23,18.81-3.12,10.36-9.09,20.99-17.51,28.18-5.01,6.17-11.2,10.89-15.34,17.79-2.15,5.76-4.64,9.34-11.05,6.42-6.14,.01-11.38-.85-11.65-8.38-6.94-12.43-33.24,4.16-52.04-22.34-9.42-7.59,10.62-5.54,13.94-11.39,37.22-29.51,102.73-62.13,64.91-117.65-53.61-83.26-95.47-20.5-141.49,28.75-17.97,10.93-5.24,35.25-19.67,26.39-37.26-4.16-55.89-40.75-84.98-57.06-6.29,5.44-6.35-.55-11.43-4.16-3.66-3.23,.62-10.32-.17-14.91,2.87-23.44-6.41-50.46,19.03-62.99,5.23-13.09-10.47-68.06-30.44-54.82-8.96,.26-12.49,7.38-17.52,12.59-17.11,8.16-6.34,32.38-2.72,46.45,3.85,20.35-6.41,40.46-10.01,60.34-7.19,20.31,5.52,38.56,22.71,48.63-.46,6.95-11.91,13.17-6.35,22.76,11,18.31,23.05,46.2,46.68,48.61-14.07,32.65-86.06,41.76-84.69,65.03,17.92,30.21-.71,75.15,16.56,65.58,5.83-5.18,13.45-8,21.24-5.94,6.13,3.48-6.85,25.53-3.64,35.78,1.72,12.68-7.27,115.03,18.19,75.93,2.37,14.22,8.27,8.92,17.33,12.35,10.5,18.93-10.2,35.81-8.62,55.9-5.52,30.96,6.17,60.54,8.67,91.02-38.07,18.1-95.3,23.53-124.83,60.61-44.53,82.5,347.15,3.92,397.19,24.8,68.34,9.43-34,25.12,16.82,37.79,66.7,3.74,454.81-49.9,220.61-121.74Zm-401.48-18.33c-24.55,.03-53.53,8.02-75.36,7.24-6.49-23.81,5.66-43.39,12.71-64.73,2.83-22.96-.76-44.67,4.71-67.41,21.25-4.8,7.89-29.33,8.04-45.17,16.66,11.6,7.71,35.71,18.12,48.95,5.35,3.59,9.2-5.62,12.91-3.26,19.22,16.97,27.03,40.15,37.36,62.88,28.89,57.33,75.01,57.61-18.49,61.48Z"/>
    <path class="cls-3" d="M413.71,751.41c42.39,.91,307.92-20.05,287.99-76.21-33.47-26.67-83-36.79-124.25-38.7-16.89,11.15-11.19,45.16-37.71,44.26-28.27-12.32,3.7-11.62-.11-48.93-56.87-12.53-124.77-7.48-184.84-8.83-14.68-.44-18.7-1.63-12.51,13.72,6.52,22.83-34.53,50.37-37.22,15.71-5.2-7.35-2.28-22.69-9.36-26.54-43,1-86.25,3.03-128.63,11.16-13.26,8.4,9.86,47.49-10.17,53.97-13.47-.88-43.48-5.41-39.7-23.47,1.54-4.96,16.32-19.27,8.63-21.29-26.54,5.75-177.33,58.23-92.53,78.98,30.95,19.44,491.42-55.86,380.42,26.16Z"/>
    <path class="cls-6" d="M523.39,291.03c1.54,18.25-.83,46.22,23.98,27.33,25.18-9.17,52.65-10.72,79.09-16.32,17.54-4.52-8.39-19.87-6.04-31.03-6-9.14,3.96-30.81-6.64-32.32-8.44-15.99,35.86,3.02,44.83-4.81,18.64-5.14,49.5-14.69,45.38-39.05-2.46-9.65-11.25-17.25-9.96-28.42,3.57-28.54-20.1-54.08-40.57-26.41,.82,17.21,11.69,35.67,8.99,52.32-35.81,1.51-61.03-16.69-97.24,9.58-41.23,13.54-64.09-30.97-95.22-46.86-27.57-9.59-36.77-46.11-65.38-53.82-44.69,22.35,16.61,57.86,37.11,76.77,15.47,12.25,25.5,29.58,40.08,42.38,23.91,15.87,41.4,41.12,41.59,70.67Z"/>
    <path class="cls-12" d="M221.2,205.51c-36.58-7.28-58.87-31.92-85.07-56.37-8.6-1.18-9.91,15.32-16.8,19.27-7.63,6.09-21.21,14.92-14.2,25.86,10.57,18.07,22.9,33.18,39.88,44.3,5.01-6.53,8.73-14.52,15.95-19.01,14.48,2.34-31,49.48-39.36,53.86-15.73,8.42-31.18,17.19-47.66,23.9-13.95,3.2-4.22,15.15-2.87,24.3,13.99,60.67-14.52,42.07,57.77,12.41,2.54-1.7,7.55-1.75,9.4,.24,9.86,5.57,21.13-5.76,29.33-10.67,19.45-14.33,37.92-34.08,50.92-54.06-22.14,4.2-9.72-55.51,2.71-64.02Z"/>
    <path class="cls-19" d="M164.68,450.45c4.07-47.5,9.22,17.54,7.84,32.31,.17,2.38,.19,2.42,2.48,2.43,14.51,3.08,5.45-16.49,5.55-25.09-1.73-5.81-6.66-55.78,5.49-42.06,3.2,7.77-1.98,16.84,4.35,23.4,15.47,12.08,14.66,32.01,18.2,48.99,17.12-8.16,.62-19.12,5.55-30.52,19.28,26.3-2.91,18.1,39.27,.52,4.49-2.21-4.13-7.54-3.05-11.48,1.86-3.85,7.42,3.64,8.67,5.82,3.15,4.15,7.04-2.27,10.43-3.05,2.9-1.64-1.21-5.71-1.43-8.13-2.5-8.63,11.17-4.4-2.2-15.03-19.39-11.47-35.67-49.91-55.05-49-6.93-2.34,8.33-11.84-2.27-10.93-30.8,4.87-61.99-2.86-91.11-12.22-12.25,10.02,18.1,10.1,20.05,17.06-4.91,5.86-18.52-3.37-22.08,.64-2.11,5.93,1.52,24.23-5.23,23.94-6.88-6.51,7.15-41.63-6.21-23.41-3.44,8.5-10.25,117.32,1.38,103.32,8.65-29.5,9.62-3.18,15.09,5.19,36.01-12.44,51.77,22.67,44.27-32.71Z"/>
    <path class="cls-5" d="M356.83,215.97c-5.44-2.19-23.71-.22-18.66-9.94,9.49-1.41,20.98,6.66,31.03,0,43.05-30.59-36.1-132.96-69.64-85.11-5.8,12.03-3.78,26.55,.72,38.59,9.83,19.97-8.06,15.13-9.76-1.27-8.07-34.4,2.12-29.12-25.05-6.24-9.88,10.31-19.49,20.87-28.59,31.83-10.45,30.55,20.59,63.48,47.94,73.14,29.83,8.28,48.37-28.08,72-41.01Z"/>
    <path class="cls-14" d="M656.58,341.85c2.51-17.24-17.32-15.92-22.25-27.46-19.02-15.15-61.63,8.05-84.67,11.89,11.59,54.22-10.04,44.7-15.54,78.77,39.86-14.66,29.14,2.12,49.27-37.62-7.27,52.71-22.27,18.43,32.07,42.11,8.17,.57,19.27,20.1,22.74,15.55,11.82-25.91,19.28-54.65,18.39-83.23Z"/>
    <path class="cls-13" d="M288.97,265.85c-23.08,37.49-47.74,8.1-49.13,53.29-5.63,24.35,20.82,32.14,27.19,53.15,12.66,15.59,17.17,46.37,38.61,22.48,76.12-32.71-11.54-37.53-8.37-83.03,8.83-7.77,7.69,16.68,14.81,20.23,44,19.1,27.87,.52,34.6-34.02-.2-3.49-1.6-4.35-4.86-2.98-19.69,2.6-45.64-10.01-52.85-29.12Z"/>
    <path class="cls-2" d="M545.46,671.96c11.48-2.67,11.93-17.26,15.03-26.54,34.94-27.71-10.08-22.13-10.39-78.3-2.61-14.82-4.57-29.81-8.74-44.36-1.03-8.21-15.4-16.15-13.27-22.04,35.52-21.53-22.07-30.04,37.16-94.16-.72-9.82-23.41,2.98-30.5,4.56-4.84,4.19-4.59,13.36-8.65,18.93-15.42,29.29-44.78,62.94-22.85,96.15,17.4,42.97,55.73,88.06,38.89,136.49-1.13,4.6-4.83,7.04-8.5,9.23,4.56,6.36,19.97-15.86,11.82,.05Z"/>
    <path class="cls-35" d="M681.4,506.62c8.26-13.75-1.94-26.99-1.21-40.71,2.68-32.22-32.73-10.49-50.74-12.5-31.45,3.18-26.02-8.42-52.74,13.69,5.2-16.56,26.79-27.1,40.09-38.28,24.85-10.71-30.91-23.35-41.67-23.68-17.43,15.65-46.73,57.82-22.35,78.85,30.98,18.38,93.84-34.63,108.07-4.1,11.48,17.44,10.33,14.23,5.44,31.41,4.95,.86,1-7.09,4.9-7.99,3.86,5.56,3.78-4.43,5.46,7.24,1.35,2.43,2.46-18.23,4.75-3.91Z"/>
    <path class="cls-1" d="M201.29,362.92c14.69,2.87,16.34-39.2,24.28-50.91-3.17-4.79-14.22-7.28-15.2-16.03-1.06-3.97-4.73,1.98-6.16,3.09-11.82,14.49-24.98,26.6-40.33,37.08-10.02,6.32-22.06,9.34-32.49,4.83-41.43,13.15,60.19,22.83,69.9,21.93Z"/>
    <path class="cls-16" d="M232.63,311.95c-24.71,53.27,.65,49.8,37.51,80.99-6.98-12.57-13.97-26.15-23-37.43-15.92-9.74-17.37-26.28-14.51-43.56Z"/>
    <path class="cls-15" d="M219.7,221.51c-3.65,5.83-10.04,48.25,.57,37.99,3.66-10.5-.46-26-.57-37.99Z"/>
    <path class="cls-18" d="M252.64,282.85c6.65,.13,25.05-10.58,20.4-12.74-8.06,3.68-20.32,.93-20.4,12.74Z"/>
    <path d="M651.7,132.59c3.16-1.87,25.82-10.68,13.26-12.18-3.43,4.22-19.08,6.66-13.26,12.18Z"/>
    <path d="M384.48,111.92c2.01-3.9,16.57-15.74,8.3-16.54-1.73,6.29-14,10.24-8.3,16.54Z"/>
    <path class="cls-1" d="M215.77,286.06c-7.4,5.76,5.62,16.95,11.31,15.15-5.32-3.82-8.8-9.03-11.31-15.15Z"/>
    <path class="cls-17" d="M108.55,354.72c-.72-3.89-6.72,2.66-8.92,3.35-.06,2.99,10.06,8.25,8.92-3.35Z"/>
    <g>
      <path class="cls-4" d="M135.08,489.07c8.66,17.73-10.29,34.05-8.27,53.29-6.04,36.36,12.66,71.13,8.07,107.17,1.71,9.96-19.23,21.28-8.52,27.32,10.21-.86,23.67,14.16,31.28,4.32,.55-28.95-9.15-61.01-2.9-90.8,16.84-29.33,11.91-62.25,15.86-94.91-5.7-7.58-25.23-6.56-35.53-6.4Z"/>
      <path class="cls-22" d="M337.04,641.72c1.25-11.92-9.75-17.54-11.65-28.11-1.15-10.62-8.92-14.97-16.23-20.45-10.06-15.65-15.26-34.81-20.99-52.51-7.09-21.81-18.01-41.6-20.85-64.84-1.54-21.72-20.88-1.27-32.18,3.01-21.98,12.64-5.33,15.63,4.13,31.01,13.57,17.56,17.22,41.16,30.17,59.28,10.93,14.1,23.53,27.04,29.85,43.56,14.76,17.63,9.95,82.2,37.75,29.05Z"/>
      <path class="cls-23" d="M97.4,55.42c11.61,31.65-26.07,69.56-3.22,97.64,9.39,9.57,14.3,21.36,24.11,4.57,13.39-18.91-3.01-10.37-7.63-23.62,11.68-14.6-3.13-48.81,8.98-66.37,4.48-8.32,20.69-11.08,15.76-22.72-5.99-28.6-3.95-9.6-9.34,4.22-6.59-8.16-8.5,22.69-15.52,10.7-1.91-4.55,6.94-13.91,2.47-13.6-5.12,3.42-5.53,12.95-15.6,9.16Z"/>
      <path class="cls-24" d="M374.74,328.79c36.59,4.69,33.26-33.59,43.38-57.41-.5-10.42,29.93-25.05,12.89-25.73-17.04-6.08-18.1,16.55-25.76,26.08-12.19,13.66-23.71,28.39-34.7,42.9-5.73,2.27,.16-6.12-4.66-5.99-3.72,.81-11.18-4.79-12.33-.87-4.1,26.56-2.15,20.97,21.18,21.02Z"/>
      <path class="cls-25" d="M274.94,260.31c-21.09-3.8-50.5-59.74-48.12-37.12,11.21,42.25-15.09,53.83,.71,68.45,5.53,3.55,8.28-5.98,11.93-8.74,7.69-13.31,23.06-16.08,35.48-22.59Z"/>
      <path class="cls-20" d="M115.15,28.45c-.57-5.32-1.97-20.44-10.06-17.7-8.99,7.59,11.62,41.06,10.06,17.7Z"/>
      <path class="cls-21" d="M103.38,44.02c-.63-8.12-14.19-29.82-11.53-9.21,.17,4.79,10.21,20.37,11.53,9.21Z"/>
      <path class="cls-27" d="M413.04,243.06c8.1-1.77,16.74-7.9,23.77,1.05,1.38-13.33-18.06-7.72-23.77-1.05Z"/>
      <path class="cls-26" d="M417.27,232.7c7.96-2.88,15.57-3.67,22.66,.93,.48-9.12-18.44-8.19-22.66-.93Z"/>
      <path class="cls-7" d="M125.16,19.45c.68-3.72-5.51-16.96-8.65-10.38,2.65,2.39,7.88,21.71,8.65,10.38Z"/>
      <path class="cls-8" d="M423.85,221.74c5.6-2.05,10.11-.1,14.68,3.24,12.34-4.03-12.74-9.05-14.68-3.24Z"/>
      <path class="cls-9" d="M414.55,227.82c5.36-2.58,2.02-8.24,6.81-11.2,1.7-1.29,1.67-1.47,.55-3.24-5.26-7.69-3.79,11.42-7.36,14.44Z"/>
    </g>
    <path d="M631.64,432.1c.33-2.37-3.33-3.8-3.62-1.14,.54,1.26,2.3,1.28,3.62,1.14Z"/>
    <path d="M515.03,142.16c-1.75-26.3,8.95-58.25,32.8-71.99,49.04-21.5,62.96,53.19,44.39,85.68-18.22,49.13-77.18,38.86-77.2-13.69Z"/>
    <g>
      <path class="cls-30" d="M628.85,89.58c2.37,9.8,5.56,20.56,15.91,25.09,6.35,4.39,8.93,10.68,15.69,2.85-.48-4.14,5.13-30.82-.86-28.32-1.75,9.29-13.08,21.59-14.67,5.46-2.28,2.68-7.25,3.19-8.01-.96-1.81-2.08-5.46-2.23-8.05-4.12Z"/>
      <path class="cls-29" d="M350.83,79.47c9.55-4.73,35.66,10.85,11.66,6-3.06-.98-8.34-4.17-10.75-.99,4.94,5.87,19.58,1.88,23.41,9.12-2.79,5.49-9.99-1.61-13.57-.42,4.7,4,13.31,4.22,19.35,6.18,1.88,.35,7.68-6.39,5.72-8.32-9.57-10.75-22.9-28.39-35.82-11.57Z"/>
      <path class="cls-34" d="M640.85,91.59c5.94-5.21,11.08-17.94,7.12-24.83-6.42,5.88-7.63,16.08-7.12,24.83Z"/>
      <path class="cls-33" d="M649.97,96.44c4.07-5.03,9.44-15.46,4.93-21.12-3.7,5.3-5.58,14.57-4.93,21.12Z"/>
      <path class="cls-32" d="M635.36,84.52c3.34-5.21,4.69-12.52,5.54-18.52-5.93-.28-8.28,13.27-5.54,18.52Z"/>
      <path class="cls-31" d="M347.09,82.02c-1.39,1.47-9,4.49-6.71,5.43,3.28-.57,10.13-.57,6.71-5.43Z"/>
      <path class="cls-28" d="M352.14,89.05c-3.54-2.84-5.38,.62-7.78,1.36,2.54,.28,5.06,.43,7.78-1.36Z"/>
      <path class="cls-10" d="M352.55,93.37c1.78,.39,4.82,.11,4.84-1.71-1.44-1.83-3.22,.9-4.84,1.71Z"/>
      <path class="cls-11" d="M522.16,141.08c15.12,93.96,97.62-1.97,62.86-53.19-29.91-42.66-67.8,20.8-62.86,53.19Z"/>
    </g>
    <path d="M155.41,374.22c7.31,2.38,51.41-2.78,42.89,9.03-4.94,4.02-57.84-3.79-42.89-9.03Z"/>
    <path d="M238.95,427.65c-8.24,5.71-20.17-20.93-27.55-26.75,5.16-9.2,26.66,18.52,27.55,26.75Z"/>
    <path d="M257.48,226.94c-.95-3.94,4.81-16.61,7.89-9.94,1.26,4.93-2.74,11.57,3.82,13.81,22.76,6.78-3.51-9.08-1.21-18.38,1.74-6.28,6.83,3.42,8.8,5.37,3.2,6.7,12.92,7.82,15.41,13.96-5.65,13.28-33.7,11.04-34.7-4.82Z"/>
    <path d="M293.01,186.83c.73,12.19-9.99,15.25-6.77,1.09,.26-8.91-9.41-15.58-8.93-23.42,9.74-3.61,14.49,15.57,15.7,22.32Z"/>
    <path d="M333.6,222.73c-2.86,6.45-13.02-5.64-18.4-5.87-37.76-5.48,14.91-15.15,18.4,5.87Z"/>
    <path d="M329.3,200.53c-3.18,9.57-21.19-7.51-18.75-13.44,4.08-7.79,16.62,9.49,18.75,13.44Z"/>
    <path d="M255.42,267.2c-4.82,.67-17.62-12.66-7.68-9.62,1.22,2.91,12,7.66,7.68,9.62Z"/>
    <path d="M577.45,144.08c-11.44,51.36-49.67,19.14-32.26,14.14,6.92,13.01,17.58,4.51,21.55-6.28,1.55-4.66-33.7,4-30.85-12.83,18.33,10.59,42.86-6.45,41.56,4.97Z"/>
    <path d="M556.41,96.45c9.89-.66,14.25,8.86,20.46,13.03,7.23-2.09,7.54,4.29,2.73,7.48,9.48,2.93,3.98,12.07-4.05,7.2-7.64-4.91-6.82-17.23-16.68-19.78-9.27-2.71-15.04,6.24-21.91,10.72-12.28-2.94,11.26-21.18,19.45-18.65Z"/>
  </g>
</svg>