<?xml version="1.0" encoding="UTF-8"?>
<svg id="Layer_2" data-name="Layer 2" xmlns="http://www.w3.org/2000/svg" xmlns:xlink="http://www.w3.org/1999/xlink" viewBox="0 0 1089.47 796.53">
  <defs>
    <style>
      .cls-1 {
        fill: #00b1e2;
      }

      .cls-2 {
        fill: #ffd600;
      }

      .cls-3 {
        fill: #ff6c37;
      }

      .cls-4 {
        fill: url(#Degradado_sin_nombre_17);
      }

      .cls-5 {
        fill: url(#Degradado_sin_nombre_17-2);
      }
    </style>
    <linearGradient id="Degradado_sin_nombre_17" data-name="Degradado sin nombre 17" x1="947.77" y1="528.49" x2="437.46" y2="418.31" gradientUnits="userSpaceOnUse">
      <stop offset="0" stop-color="#fc8ab5"/>
      <stop offset=".12" stop-color="#d782c3"/>
      <stop offset=".28" stop-color="#ac79d3"/>
      <stop offset=".44" stop-color="#8b72e0"/>
      <stop offset=".59" stop-color="#736de9"/>
      <stop offset=".73" stop-color="#646aef"/>
      <stop offset=".85" stop-color="#6069f1"/>
    </linearGradient>
    <linearGradient id="Degradado_sin_nombre_17-2" data-name="Degradado sin nombre 17" x1="590.13" y1="526.02" x2="82.72" y2="491.23" xlink:href="#Degradado_sin_nombre_17"/>
  </defs>
  <g id="Capa_1" data-name="Capa 1">
    <g>
      <g>
        <path d="M506.1,200.73c10.28-27.2,50.44-99.55,49.88-26.34,1.38,6.56,3.47,14,5.63,20.07,11.12-12.69,21.64-27.85,32.67-41.22,82.87-100.9,78.92-100.83,70.89,23.83,45.29-29.46,97.45-20.88,143.56,1.95,9.76,3.27,19.38,14.29,29.36,13.12,12.73-16.99,25.36-33.86,38.26-50.67,17.54-23.84,36.84-46.99,52.86-71.74,3.6-9.21,13.99,3.01,15.42-3.06,13.42-17.48,17.35,8.24,21.96,5.25,17.8-19.92,18.35,15.93,34.81,18.62,23.82,15.25,44.41,33.18,68.23,48.62,13.87,10.88,30.37,15.54,10.99,33.03-15.48,18.27-95.53-69.72-103.89-57.51-16.41,24.89-11.03-10.84-18.15-4.46-3.42,5.75-10.16,14.17-16.06,6.16-2.54-2.73-2.39-2.61-4.7,.23-16.95,20.12-34.9,39.29-51.79,59.44-33.08,36.31-24.1,20.17,16.9,63.41,20.15,31.09,51.47,59.63,56.67,97.65-6.9,80.09-30.42,157.1-53.33,233.79-19.58,44.28-26.43,93.88-48.97,137.36-18.22,14.69-38.71,27.28-59.21,39.65-33.54,19.05-69.63,38.3-107.62,48.61-61.02-7.23-118.01-35.76-169.84-67.2-141.73,78.59-159.19,88.21-298.36-3.38-33.47-22.92-31.22-71.55-47.42-106.26-26.24-72.34-45.62-147.27-57.43-222.65-5.92-48.3,51.36-104.77,84.58-135.57-16.77-26.27-45.7-51.29-65.53-77.73-1.61-2.21-2.38-2.53-4.11-.32-6.62,11.96-14.04-9.48-17.38-5.08-1.66,4.06-1.28,14.17-8.25,10.5-5.01-.85-5.09-13.64-9.72-8.48-26.01,18.53-50.5,40.18-78.94,55.24-11.47,4.8-27.1-19.12-11.54-23.51,26.62-17.34,50.35-38.56,77.64-54.9,12.42-5.09,10.17-32.08,27.77-12.85,11.34-23.52,16.75-1.08,22.45-4.63,13.4-6.09,62.84,80.52,79.05,94.56,15.42,31.89,27.87,6.32,51.62,.3,24.38-9.44,51.25-19.77,77.48-12.18,8.01-9.65-20.03-73.87,11.32-61.74,2.84,1.83,26.46,34.93,22.33,20.16,8.59-41.96,19.47-85.35,32.87-127.27,9.91-35.43,19.32-89.63,41.53-19.31,21.43,55.14,30.01,113.84,55.52,166.51Z"/>
        <path class="cls-4" d="M692.18,781.39c44.16-22.5,141.79-56.54,161.61-101.56,16.59-59.53,38.52-118.04,57.13-178.2,10.58-56.83,36.76-115.16,29.83-173.16-9.48-26.61-7.66-16.69-26.86-4.53-8.1,3.81-10.64-10-5.68-12.73,5.93-1.96,9.97-6.82,15.39-9.53-.07-11.76-15.34-26.64-22.54-38.18-13.74-17.66-24.79-36.87-45.51-47.13-9.45-5.4-42.55,57.46-51.22,52.37-33.65-16.65,40.68-55.39,14.24-67.08-37.35-18.58-79.39-35.94-120.93-22.63-69.37,28.3-128.64,83.14-149,157-24.01,68.54-45.48,139.41-63.87,210.76-9.11,50.55,4.96,101.56,20.63,149.99,.19,8.61,7.93,12.19,14.79,15.43,53.73,31.13,109.28,62.66,171.99,69.17Z"/>
        <path class="cls-5" d="M501.39,429.69c-15.46-58.32-37.73-121.78-91.26-156.1-55.55-47-112.3-47.57-172.7-9.39,1.47,15.61,29.34,31.24,26.02,48.86-1.96,6.95-13.7,11.28-15.27,2.26-31.56-38.29-34.37-62.99-70.83-9.23-10.91,12.96-20.61,26.44-28.96,41.28,.21,4.19,9.42,8.01,13.43,10.58,5,1.76,5.24,11.87-1.14,12.43-8.07,2.29-16.37-17.72-21.91-9.14-24.05,82.8,54.37,246.86,75.46,334.04,33.34,43.72,94.46,59.37,141.46,85.62,50.84-6.99,113.01-29.8,148.22-61.72-26.47-22.67-26.45-62.11-33.85-94.93-17.07-65.79,14.99-131.31,31.34-194.57Z"/>
        <path class="cls-2" d="M352.6,179.56c7.08,43.09-11.82,40.4,31.95,60.83-1.75-17.02,13.62-12,23.78-6.61,9.95-15.36,9.39-52.44,16.64-73.6,8.06-80.68,28.69,9.66,42.84,34.89,11.4,19.23,16.09,52.59,27.91,65.96,11.85-20.61,33.96-70.24,45.54-19.83,22.2,66.3,10.22,23.67,44.88-6.29,80.96-71.69,58.23-12.37,70.14-132.24-22.61,29.69-49.36,55.95-70.62,87.44-9.92,15.46-25.23,35.18-39.11,10.69-4.7-4.4-5.19-36.76-8.99-29.51-7.53,8.28-26.73,58.33-39.22,44.58-18.94-27.68-23.67-61.21-33.34-93.42-10.16-30.36-18.42-60.39-29.7-90.13-2.98-9.01-2.41,6.75-5.9,8.87-8.34,28.46-16.7,59.41-25.48,88.07-12.79,34.4-3.26,115.1-51.31,50.3Z"/>
        <path class="cls-3" d="M535.27,326.05c1.28-11.59,13.69-22.65,9-33.68-6.94-14.48-9.39-42.98-19.84-50.39-14.23,21.08-36.49,63.15-46.64,14.25-16.09-34.92-26.56-72.7-41.36-107.38-5.17,27.15-8.58,56.32-13.06,83.72-2.11,5.44-.05,20.95-10.02,15.9-46.82-14.23,13.06,16.75,21.57,26.29,6.73-.05,.81-17.37,3.08-22.99-3.87-36.83,12.59-40.33,20.38-4.66,13.33,25.22,29.11,50.57,43.73,75.07,16.8-29.08,25.94-34.56,33.16,3.88Z"/>
        <path class="cls-1" d="M954.03,72.96c-5.16,6.68-9.33,15.83-17.76,7.22-11.54,4.7-18.31,22.77-27.74,32.2-30.41,49.27-77.67,96.06-104.53,143.56,18.79-12.93,33.74-39.07,50.52-56.08,7.27-4.73,9.97-14.94,17.83-17.91,.58,.02,2.58-.52,1.63-2.54,1.68-5.93,8.93-11.27,12.56-16.68,13.97-14.89,24.82-31.53,39.02-46.42,8.25-9.61,16.09-25.73,23.21-5.7,16.59-28.95,17.4,2.61,26.11-7.11,16.31-3.83,63.02,39.38,81.88,48.85,8.33,2.64,15.66,20.58,22.58,7.48-8.6-15.44-35.47-24.4-50.36-37.43-17.78-15.21-46.35-22.77-52.37-46.6-11.67,13.25-16.18,16.36-22.56-2.82Z"/>
        <path class="cls-1" d="M126.41,178.37c6.71-29.87,41.27,35.44,52.22,42.31,25.79,27.87,50.08,63.8,78.05,87.92-35.93-50.48-77.81-110.22-118.94-157.3-6.08,6.01-11.31,1.84-14.29-4.73-9.27,.74-3.4,24.97-21.67-.21-.98,27.51-93.1,59.38-91.08,77.92,5.49,11.84,83.28-64.5,92.85-51.94,7.88,6.31,8.53-19.57,22.86,6.04Z"/>
        <path class="cls-2" d="M520.95,317.17c-4.66,7.43-15.68,33.42-25.49,17.63-10.01-21.82-25.36-40.29-36.47-61.71-12.75-34.62-8.26-6.83-10.88,12.41,4.24,5.26,10.39,9.47,14.06,15.66,23.64,26.67,34.81,75.98,48.32,99.63,8.98-27.99,20.34-54.09,10.45-83.62Z"/>
      </g>
      <path d="M880.93,322.44c-22.32-1.03-45.36,4.02-68.47,1.57-15.26-6.56-33.21-11.38-49.07-18.54-13.73-5.96-3.29-27.69-18.27-31.43-10.11-2.66-21.8,2.39-32.61,3.23-19.57,.94-39.72-10.67-55.21-21.32-26.77-31.51-34.4-22.08-9.09,7.83,15.23,17.3,38.18,27.8,60.76,30.95,9.53,2.03,33.64-13.44,32.26,3.9-6.64,33.98,149.18,60.98,139.7,23.8Z"/>
      <path d="M693.1,696.93c-35.44,13.9-79.27,6.18-100.39-28.6-14.21,5.25,12.39,33.83,21.37,38.47,41.68,27.12,113.37,8.66,136.58-34.79-1.05-23.52-42.83,23.77-57.55,24.92Z"/>
      <path d="M649.65,640.17c10,1.51,10.91-14.19,3.45-17.26-11.96-1.12-14.93-1.81-12.09-14.84,3.45-4.2,10.06,2.56,14.24,2.68,14.32-3.89,4.92-20.53-5.85-20.32-26.79-13.5-26.68,19.98-29.31,37.54-1.64,17.65,19.17,8.37,29.55,12.22Z"/>
      <path d="M618.6,399.77c-5.46,7.69-2.38,5.25-7.82-.28-10.62-2.49-16.27,16.23-21.39,23.74-3.4-7.74,1.02-19.82-6.68-24.52-5.73,4.16-2.12,19.04-3.24,26.3-6.78,59.46,11.41,28.84,23.48-3.87,8.49,27.44,42.9-34.71,15.64-21.38Z"/>
      <path d="M717.35,645.23c-1.79-9.34-16.73-3.6-15.65-12.5,2.92-8.41,3.79-14.31,13.67-10.49,8.12,1.14,11.42-10.18,4.41-13.55-24.54-17.31-30.08,.33-37.78,20.92-8.78,18.9,13.97,23.19,27.01,26.09,6.41,.03,10.64-5.72,8.34-10.47Z"/>
      <path d="M805.95,591.11c-1.8,3.14,.78,6.1-2.12,9.16-1.17,11.78-6.17,25.31-4.37,36.47,4.72,4.6,9.96,5.19,12.37-2.07,2.17-10.3,26.99-42.03,14.94-46.34-7.53,5.72-13.7,14.52-16.06,23.46-4.09-3.84,3.59-20.59-4.77-20.68Z"/>
      <path d="M743.69,219.35c-6.78-11.17-19.35,3.2-16.41,12.19-6.89,21.31,24.07,24.86,27.86,4.24,5.11-11.5-10.49-26.68-10.54-8.12-2.99,23.87-15.63-.58-.91-8.31Z"/>
      <path d="M773.98,208.74c-3.23-3.25,2.16-7.41-.38-10.01-30.62-2.71,5.83,48.33,13.87,9.04-3.2-16.63-11.9,4.77-13.48,.97Z"/>
      <path d="M359.69,339.84c12.06,1.85,68.37-49.61,45.81-48.58-14.54,17.92-34.14,30.54-56.6,36.1-15.06,5.76-41.86-15.36-47.95,7.76,2.59,20.7-22.92,23.83-38.01,28.78-14.67,8.82-32.61,5.62-49.39,6.55-8.34,.41-22.45-7.82-27.74,.53,9.22,29.7,127.2,7.47,127.04-23.5-2.47-16.68,34.35,3.04,46.83-7.64Z"/>
      <g>
        <path d="M319.24,685.17c30.43,2.99,38.07,29.68,78.03,13.57,15.99-8.25,30.78-19.91,37.83-37.08,.97-1.88,4.49-6.14,6.22-3.07,5.44,48.94-64.64,77.2-102.37,50.72-34.26,36.93-58.1-20.94-19.7-24.15Z"/>
        <path d="M316.53,708.91c3.96,.41,5.08-2.78,7.8-4.64,2.38-1.83,2.14-3.67-.6-5.04-6.79-5.54-16.53,8.42-7.2,9.69Z"/>
      </g>
      <path d="M339.21,663.9c7.11,11.36,23.07-3.41,31.31-7.35,2.47-20.7-14.54-7.45-19.37-10.19-12.36-18.68,9.12-5.75,11.85-18.04,.65-7.88-8.18-11.23-14.57-8.77-29.19-1.45-15.82,28.26-9.21,44.35Z"/>
      <path d="M449.27,457.55c-5.25-5.77-14.32-30.7-22.68-15.26-2.17-2.17-5.55-7.59-8.93-6.57-11.2,4.72,1.69,17.38,5.57,23.6,8.47,11.05,12.13-2.67,14.97-.52,23.97,63.2,21.66,21.55,20.11-14.77-4.49-20.35-7.96,8.57-9.04,13.52Z"/>
      <path d="M389.36,642.88c2.84,13.95,22.52,7.98,32.11,5.21,5.03-2.46,5.93-10.75,.21-12.79-5.15-4.58-13.84,4.44-15.89-3.05-1.59-7.19-1.41-12.45,6.95-13.21,9.58-5.16,1.15-16.12-7.6-13.43-23.28-2.26-17.98,22.23-15.78,37.28Z"/>
      <path d="M233.71,615.38c6.47,8.71,14.26,50.9,27.85,34.25-.61-12.31-10.38-67.16-10.25-22.32-3.26-4.95-20.48-33.54-17.6-11.92Z"/>
      <path d="M300.52,291.44c6.66,21.61,31.37,11.36,25.14-8.45,2.76-8.49-18-15.82-13.86-5.14,11.8,5.69,.2,25.13-1.82,6-.7-17.06-14.64-2.51-9.46,7.59Z"/>
      <path d="M283.72,265.42c-3.11,4.24-4.73-8.44-9.91-4.81-12.58,15.08,22.16,28.23,20.46,4.64-.72-11.21-13.19-13.4-10.56,.17Z"/>
    </g>
  </g>
</svg>