<?xml version="1.0" encoding="utf-8"?>
<!-- Generator: Adobe Illustrator 27.0.0, SVG Export Plug-In . SVG Version: 6.00 Build 0)  -->
<svg version="1.1" id="Layer_2_00000104670876870698518720000002557056476825243792_"
	 xmlns="http://www.w3.org/2000/svg" xmlns:xlink="http://www.w3.org/1999/xlink" x="0px" y="0px" viewBox="0 0 630 797.2"
	 style="enable-background:new 0 0 630 797.2;" xml:space="preserve">
<style type="text/css">
	.st0{fill:#F7D448;}
	.st1{fill:url(#SVGID_1_);}
	.st2{fill:#1D1934;}
	.st3{fill:url(#SVGID_00000039120771250108417740000012801413607278763183_);}
	.st4{fill:#EE87B3;}
	.st5{fill:url(#SVGID_00000051362730551167207900000015732921260575859620_);}
	.st6{fill:url(#SVGID_00000158746446720644802810000012952941661861721251_);}
	.st7{fill:url(#SVGID_00000136408323525626092160000011698974224224594059_);}
	.st8{fill:#D5FD7A;}
	.st9{fill:url(#SVGID_00000162330442296996258790000000856088211389862839_);}
	.st10{fill:url(#SVGID_00000181060037514762864050000016257502516084011418_);}
	.st11{fill:url(#SVGID_00000165201250874314454190000011820518667129119648_);}
	.st12{fill:url(#SVGID_00000137124861289211034890000017976831283916059300_);}
	.st13{fill:url(#SVGID_00000003105935369041393770000003015186569081506692_);}
	.st14{fill:url(#SVGID_00000017506979909098861740000008299652143814530235_);}
	.st15{fill:url(#SVGID_00000062872356350306946590000012118803895950044847_);}
	.st16{fill:url(#SVGID_00000154422462513232401100000010684327319801472676_);}
	.st17{fill:url(#SVGID_00000063621096034826559100000002460948473335347368_);}
	.st18{fill:url(#SVGID_00000032630705324439158670000006624734796304850565_);}
	.st19{fill:url(#SVGID_00000092420212660886007350000008969611846761160365_);}
	.st20{fill:url(#SVGID_00000133503124978385076300000014993731683012873119_);}
	.st21{fill:url(#SVGID_00000020363626550509284590000009347153597998008198_);}
	.st22{fill:url(#SVGID_00000093861287103514962020000003331087112288615042_);}
	.st23{fill:url(#SVGID_00000141436586692352961410000008486822752398866869_);}
</style>
<g id="Capa_1">
	<path d="M629.9,742.8C610.6,647,416,628,334.6,632.4c-7.5-35.3-3.1-73.4-10.9-109.1c22-44.4,46.5-97.2,40.1-146.6
		c6-18.3-6.2-37.8,2.3-57.6c12.2,17.1,24.6,43.9,47.7,45.2c74.4-2.5,9.5-181.7-61.6-191c97.7-95.2-31.4-239.5-129.7-139.3
		c-27.1,31.2-31.1,75.1-10.8,110.7c-16.4-1.2-38,4-46.8,18.7c-11.7,15.5-12.1,37.1-18.2,54.7c-15.1,23-35.1,44.9-38.9,73.1
		c-2.3,42.5,26.7,39.8-25.2,57.1C57.6,350,102.7,464.7,102,488.9c2.8,44.4,20.4,24.6,49.6,16.1c19.7-8.2,40.4-13.7,60.8-19.9
		c6.1-1.9,7.8,7.7,10.2,11.5c21.1,20.7-4.3,9.1-12,30.8c-10,6.6-21.6-3.9-25.5,15.6c-7.2,35.2,5.8,70.9-0.8,105.7
		c-7.3,13-31.2,12.7-45,18.7c-41,13.1-82.2,28.6-118,53.1c-97.1,83.8,167.2,50.3,203.8,53.8c18.1,1.5,209.5-16.9,173.4,6.1
		C369.1,814.8,634.2,793.4,629.9,742.8L629.9,742.8z M259.5,639.5c-12.3,2.3-16.6-12.5-17.7-22.2c-4.3-16.3-4.5-37.6-8.3-51.8
		c28.4,6.3,25.4-25.2,28.7,21.9c2.1,16.4-0.1,33.3-0.7,49.7C262,639.7,262,639.8,259.5,639.5L259.5,639.5z"/>
	<path class="st0" d="M192.3,289c-19.4,18-39.7,37,0.8,18C196.5,302.7,192.1,295,192.3,289z"/>
	
		<linearGradient id="SVGID_1_" gradientUnits="userSpaceOnUse" x1="11.0534" y1="88.3277" x2="620.89" y2="88.3277" gradientTransform="matrix(1 0 0 -1 0 800)">
		<stop  offset="0" style="stop-color:#50AFE0"/>
		<stop  offset="0.21" style="stop-color:#5694E5"/>
		<stop  offset="0.44" style="stop-color:#5B7CEA"/>
		<stop  offset="0.66" style="stop-color:#5E6DED"/>
		<stop  offset="0.85" style="stop-color:#6069EF"/>
	</linearGradient>
	<path class="st1" d="M276.2,679.6c-1.3-6.7-8.1-33.7-15.9-30.5c10.1,10.2,5.8,20.8-9.5,20.4c-6.7,2.1-12,7.8-19.8,6
		c-11-2.4-17,13.9-28,6.4c-19.3-10.4-12.1-21.1-37.6-11.4c-172.9,53.3-236.1,110-0.1,96.1c77-1,154.3-9.9,231.2-5.7
		c52.9,6.3-1.8,24.8,20,25.1c58.9-3,168.1,7.6,204.5-45.3c-26.3-88-205.1-99.6-283.6-103.5c-4.6-0.8-2,5.8-2.9,8.4
		c-0.6,10.9-12.3,14.8-11.1,26.2c25,9,52.5,7.8,78.9,8c46.3-0.4-8.5,32.8-18.1,45.5c-8.4,8.8-22.6,0-32.8-0.1
		c-18-1.2-36.5,0.1-54.7,0c-29.4-2.6-33.2-18.3-67.8-1.2c-38.7,17.8-8.1-9.3,9.2-12.3c27.1-13.5,32.5,10.8,35.3-22.4
		c-12.7-18.4-58.6,15.8-89.8,6.7c-42.4-10.3,17-10,28.4-9.8C233.5,685.9,255,664.8,276.2,679.6L276.2,679.6z"/>
	<path class="st2" d="M359.2,80.7c-1.8-61.4-38.6,0.5-94.2-22.3c-29.8-6.3-17.2,32.8-12.5,48.4c-1.5,11.6-8.7,21.3-7.9,33.3
		c3.4,61,85.7,46.4,113.7,10.3C376.6,129.7,360.9,103.4,359.2,80.7z"/>
	
		<linearGradient id="SVGID_00000080178399628337412170000000987603696926206858_" gradientUnits="userSpaceOnUse" x1="306.4442" y1="695.8972" x2="-78.2658" y2="388.2873" gradientTransform="matrix(1 0 0 -1 0 800)">
		<stop  offset="0" style="stop-color:#50AFE0"/>
		<stop  offset="0.21" style="stop-color:#5694E5"/>
		<stop  offset="0.44" style="stop-color:#5B7CEA"/>
		<stop  offset="0.66" style="stop-color:#5E6DED"/>
		<stop  offset="0.85" style="stop-color:#6069EF"/>
	</linearGradient>
	<path style="fill:url(#SVGID_00000080178399628337412170000000987603696926206858_);" d="M343.8,124.6c-0.2-0.6-0.5-1.1-0.7-1.6
		c-0.1-0.1-0.3-0.4-0.5-0.8c-0.2-0.3-0.4-0.5-0.4-0.6c-0.1-0.1-0.3-0.2-0.5-0.4c-0.5-0.3-0.7-0.5-0.8-0.6c-0.3-0.1-0.6-0.3-0.9-0.4
		c-0.5-0.2-0.6-0.2-0.4-0.2c-0.6-0.1-1.1-0.2-1.7-0.2c-1-0.1-2.5,0.1-4.2,0.4c-0.1,0.1-0.2,0.1-0.4,0.2c-1.2,0.7-2.5,1-3.7,1.1
		c-2.6,1-5.1,2.3-7.2,3.7c-8,5.4-14.4,11.3-24.7,10.7c-4.7-0.3-9.1-4.7-9.7-9.3c-1.3-11.3,5.8-18.1,11.3-26.9c0.1-0.1,0.5-1,0.8-1.4
		c0.2-0.5,0.7-1.4,0.7-1.4c0.6-1.4,1.1-2.8,1.6-4.3c0.1-0.2,0.1-0.3,0.1-0.4c0-0.1,0-0.2,0.1-0.4c0.1-0.7,0.2-1.3,0.3-2
		c0.1-0.8,0.2-1.6,0.2-2.4c0-0.1,0-0.1,0-0.2c-0.1-0.8-0.2-1.6-0.4-2.3c0,0-0.1-0.1-0.2-0.1c-0.5-0.3-0.1-0.1,0.2,0.1c0,0,0,0,0,0
		c-0.4-0.3-0.9-0.7-0.2-0.2c0.1,0.1,0.2,0.1,0.2,0.2c0,0,0,0,0.1,0.1c0.2,0.1,0.2,0-0.5-0.4c-0.2-0.1-0.3-0.2-0.4-0.3
		c0,0-0.1,0-0.4-0.1c-0.4-0.1-1.6-0.5-1.5-0.5c-1.4-0.2-3.6,0.6-5.2,1.3c0,0-0.1,0-0.1,0.1c-5.7,4-11.6,7.6-17.1,11.7
		C266,105,252.3,88.6,263,79.7c1-1.6,14.1-12.1,18.8-16.7c-5.4-0.8-11-2.2-16.9-4.6c-29.8-6.3-17.2,32.8-12.5,48.4
		c-1.6,11.6-8.7,21.3-7.9,33.3c2.7,48.6,55.4,49.2,90.9,29.3c-5-6.7-4.7-15.4-1.1-22.7c1.8-3.7,4-7.2,6.1-10.7
		c0.2-0.3,0.4-0.7,0.6-1c0-0.1,0.1-0.2,0.2-0.4c0.5-1,1-2,1.5-3c0.7-1.5,1.3-3,1.9-4.5C344.3,126.1,344.1,125.2,343.8,124.6
		L343.8,124.6z M285.3,150.2c-0.7,6.4-6.2,9.7-12.1,9.7s-10.3-6.7-9.7-12.1c0.7-6.4,6.2-9.7,12.1-9.7S285.9,144.8,285.3,150.2z"/>
	<path class="st4" d="M286,281.8c-38.6,12.6-76.8,29.3-115.9,41.5c-8,9.1-0.6,30.5-0.5,43c8,44,19,23.2,26.4,53.5
		c12.8,3.6,31.6-14.3,46.6-17.2C289.9,384.7,276.2,321.4,286,281.8L286,281.8z"/>
	<path class="st4" d="M177.4,434.2c4,10.1,22.6,28,3.5,34.1c-7.1,0.3-13.2,6.5-20.6,2.4c-4.7-2.5-10.8,1-14.1-4.4
		c-7.9-5.5-8.4-15-12.4-22.6c-16.4-21.6-15.9,8.2-13.6,21.1c7.9,25.4-16.5,52.2,21,33c57.2-20.1,115.9-34.1,174.2-50.8
		c3.6-1.7,15.9-1.5,11.2-7.5c-8.2-14-15.5-28.5-23.9-42.5c-14.5-32.7-26.3-3.8-42.1,7.1c-19.6,8.9-38.9,18.6-58.9,26.8
		C192.8,435.8,187.1,446.3,177.4,434.2L177.4,434.2z"/>
	
		<linearGradient id="SVGID_00000086668840958595445770000012218059441752958338_" gradientUnits="userSpaceOnUse" x1="271.832" y1="652.3608" x2="211.752" y2="804.5708" gradientTransform="matrix(1 0 0 -1 0 800)">
		<stop  offset="0" style="stop-color:#50AFE0"/>
		<stop  offset="0.21" style="stop-color:#5694E5"/>
		<stop  offset="0.44" style="stop-color:#5B7CEA"/>
		<stop  offset="0.66" style="stop-color:#5E6DED"/>
		<stop  offset="0.85" style="stop-color:#6069EF"/>
	</linearGradient>
	<path style="fill:url(#SVGID_00000086668840958595445770000012218059441752958338_);" d="M262.3,17c-28.3,10.1-51.4,35-54.2,76.6
		c-0.5,21.4,10.2,53.5,27.6,62.4c-2.3-17.2,3.1-32.8,6.5-49.2c-6.9-19.8-13.4-60.2,18.2-58.4c7,2.1,14.2,3.6,21.5,4.3
		c-1.9-7.7-3.6-15.4-7.3-22.4C271.9,24.9,267.6,20,262.3,17L262.3,17z"/>
	
		<linearGradient id="SVGID_00000065073351955240191770000013333813826107834539_" gradientUnits="userSpaceOnUse" x1="338.2645" y1="678.5918" x2="278.1845" y2="830.8018" gradientTransform="matrix(1 0 0 -1 0 800)">
		<stop  offset="0" style="stop-color:#50AFE0"/>
		<stop  offset="0.21" style="stop-color:#5694E5"/>
		<stop  offset="0.44" style="stop-color:#5B7CEA"/>
		<stop  offset="0.66" style="stop-color:#5E6DED"/>
		<stop  offset="0.85" style="stop-color:#6069EF"/>
	</linearGradient>
	<path style="fill:url(#SVGID_00000065073351955240191770000013333813826107834539_);" d="M303.4,12.4c-6.6-0.7-13.3-0.8-19.9-0.1
		c0.9,1,1.8,2,2.6,3.1c2.6,3.3,5.1,6.8,7.6,10.3c2,2.9,3.9,5.8,4.9,9.1c1.5,4.8,2,13.2,0.4,18.5c6.4-0.3,12.8-1.2,19-2.7
		C318.6,36.6,313.1,22.5,303.4,12.4L303.4,12.4z"/>
	
		<linearGradient id="SVGID_00000101823290697471655760000004414511613167301762_" gradientUnits="userSpaceOnUse" x1="376.8573" y1="693.8189" x2="316.7773" y2="846.0289" gradientTransform="matrix(1 0 0 -1 0 800)">
		<stop  offset="0" style="stop-color:#50AFE0"/>
		<stop  offset="0.21" style="stop-color:#5694E5"/>
		<stop  offset="0.44" style="stop-color:#5B7CEA"/>
		<stop  offset="0.66" style="stop-color:#5E6DED"/>
		<stop  offset="0.85" style="stop-color:#6069EF"/>
	</linearGradient>
	<path style="fill:url(#SVGID_00000101823290697471655760000004414511613167301762_);" d="M331.4,20c0.5,0.8,1,1.5,1.5,2.3
		c3.7,6.2,6.3,13.6,6,20.7c2-1,3.9-2,5.8-3.2c18.6,0.7,24.4,28.7,24.4,44.6c-1.4,10.7,8.8,18.5,7.1,29.8
		C385.5,66.5,362.9,34.2,331.4,20z"/>
	<path class="st8" d="M298.6,34.8c-1-3.3-2.9-6.3-4.9-9.1c-2.4-3.5-4.9-6.9-7.6-10.3c-0.9-1.1-1.7-2.1-2.6-3.1
		c-7.2,0.7-14.3,2.3-21.2,4.7c5.3,3,9.5,7.9,12.4,13.4c3.6,7,5.4,14.8,7.3,22.4c5.6,0.6,11.3,0.7,17,0.5
		C300.6,48,300.1,39.6,298.6,34.8L298.6,34.8z"/>
	<path class="st8" d="M332.8,22.3c-0.5-0.8-1-1.6-1.5-2.3c-8.8-4-18.3-6.5-28-7.6c9.7,10.1,15.2,24.2,14.6,38.2
		c7.2-1.7,14.2-4.2,20.9-7.6C339.1,35.9,336.6,28.6,332.8,22.3L332.8,22.3z"/>
	<path class="st0" d="M255,658.6c-6.1-4.7-9.9-21.9-19.4-18c-5.8,5.2-24,3.3-10.9-3.9c2.9-1.6,10.6-1.6,9.3-6
		c-6.4-19.7-1.7-44.9-12.4-62c-15.3-3.1-16.4-19.9-21.9-29.8c-9.5,0.8-6.1,16.2-7.2,23c-4.1,29.5,10.5,58.1,0.7,86.9
		c-4.4,12.1,13.2,32.7,23.2,20.4c7.1-5.8,16.7-0.2,23.3-5.5C243.6,659.2,250.1,661.4,255,658.6L255,658.6z"/>
	<path class="st0" d="M346.9,687.8c-12.9-1.2-24.2-6-36.2-8.3c-8.4,4-22.3,0.8-28.3,6.4c-3,25.5-4.5,33.3,24.6,30.3
		c23,0.5,44.9-4,67.3,3c6.5-2.8,13.7-10.1,18.7-15.7c3.5-5.4,12.1-6.6,14.5-13.2C396.2,682.8,308.7,714.5,346.9,687.8L346.9,687.8z"
		/>
	<path class="st4" d="M138.7,404.9c-28.7-55.5-2.5-75.3-50.3-49c-5.7,4.2,6.3,14.1,7.2,20.2c11.8,18.2,21.4,38.8,37.4,53.8
		C135.6,434.9,136.6,407.8,138.7,404.9z"/>
	<path class="st4" d="M292.7,287.5c-12.5,164.5-21.1,19.6,35.8,136.1C318.5,377.8,304.7,332.9,292.7,287.5z"/>
	<path class="st0" d="M161.1,201.1c15.8-23.7,49.9-18.7,69.5-31.9c-6.1-22.4-36.3-17.5-52.4-7.6c-8.7,5.9,2.7,11.7,8.2,14.3
		c8.6,9.5-13.8,6.8-16.8,0.7C163.3,178.6,164.3,193.8,161.1,201.1L161.1,201.1z"/>
	<path class="st0" d="M333.8,207.9c6.1,0.9,27,14.4,15.5,18.7c-8.4-1.6-14.6-13-24.5-9.1c-1.9,0.8-9.7,7.2-5.3,7.3
		c6-6.4,36.9,5.5,22.2,10.9c-8.5-1.1-16.8-7.5-23.8,0.8c-5.9,3.5,25-2.1,24.6,10c-0.8,7.2-24.4-7.5-18.6,0.6
		c14-1.2,19.3,18.7,31.5,18c3.8-6,15.1-10.4,14.7-17.7C362,232.3,354.9,206.6,333.8,207.9L333.8,207.9z"/>
	<path class="st0" d="M167.4,462.7c-4.9-8.2-12.3-20.3-9.6-29.4c2.6,1.9,24.9,40.6,20.8,20.4c-11.2-9.7-12.6-25.1-12.5-38.6
		c1.5-11.5,19,4.2,18.7,11.8c7.6,6.2-1.5-23.2-12.4-23.5c-8.5-3.8-17.8,4.7-27,3.4c-1.6,6.8,0.3,19.2-0.9,28.1
		c0,3.5,0.1,19.9,3.1,15.8c0.3-5.6-3.6-14.1,0.5-18.3C157.3,438.9,153,461.2,167.4,462.7L167.4,462.7z"/>
	
		<linearGradient id="SVGID_00000109027491119289450090000006745929910305665451_" gradientUnits="userSpaceOnUse" x1="238.4829" y1="604.3025" x2="345.2479" y2="604.3025" gradientTransform="matrix(1 0 0 -1 0 800)">
		<stop  offset="0" style="stop-color:#50AFE0"/>
		<stop  offset="0.21" style="stop-color:#5694E5"/>
		<stop  offset="0.44" style="stop-color:#5B7CEA"/>
		<stop  offset="0.66" style="stop-color:#5E6DED"/>
		<stop  offset="0.85" style="stop-color:#6069EF"/>
	</linearGradient>
	<path style="fill:url(#SVGID_00000109027491119289450090000006745929910305665451_);" d="M264.9,185.7c7.3,8.6,19.9,12.1,30.8,14.8
		c17.2,24.8-53.2-11.4-53.6-23.8c-23,2.4,71.2,55.4,76.3,32.2c-0.7-11.6,11.9-7.8,16.8-12.9c0.5-6.6,13.6-11.4,9.2-17
		c-3.9,0.8-5.9,8.5-9.1,11.6c-7.5,8.6-11.6-2.4-5.2-8.2C309.9,194.9,286.8,191.6,264.9,185.7L264.9,185.7z"/>
	<path class="st4" d="M111.3,489.2c5.6-18.2-10.4-43,3.6-59.1c2.8-2.6,3-4.3,0.7-7.3C103.3,412,99,395.4,89,382.8
		C96.4,418.3,103.3,454,111.3,489.2z"/>
	<g>
		
			<linearGradient id="SVGID_00000105394625536745214620000007205246063230489236_" gradientUnits="userSpaceOnUse" x1="363.7892" y1="238.6591" x2="-76.9508" y2="198.0391" gradientTransform="matrix(1 0 0 -1 0 800)">
			<stop  offset="2.000000e-02" style="stop-color:#EB6A34"/>
			<stop  offset="0.16" style="stop-color:#EE8739"/>
			<stop  offset="0.35" style="stop-color:#F2A83F"/>
			<stop  offset="0.54" style="stop-color:#F4C044"/>
			<stop  offset="0.71" style="stop-color:#F6CF47"/>
			<stop  offset="0.85" style="stop-color:#F7D448"/>
		</linearGradient>
		<path style="fill:url(#SVGID_00000105394625536745214620000007205246063230489236_);" d="M271.5,633.5c-1.9,10.3,5.2,18.1,10,26.2
			c2.2,4.3-0.3,15.3,6.6,14.2c34.8-3.8,18.3-2.5,35.2-24c5.5-8.5,1.7-17.8,1-26.9c-4.4-18.5-3.9-37.7-4.7-56.7
			c-4-5.4-16,0.4-22.2-4.9c-18.7-6.5-19.2-37.1-2.8-46.8c24.8-9.8,16.2-1.4,11.2-29.1c-2.8-6.8-4.4-22.6-11.8-23.5
			c-21.8,7.3-44.5,11.9-66.3,19.1c0.7,14.9,21.3,29.1,28.1,44C276.9,556.4,271.5,597.5,271.5,633.5L271.5,633.5z"/>
		
			<linearGradient id="SVGID_00000161609092188656510390000013718389927162867606_" gradientUnits="userSpaceOnUse" x1="336.9203" y1="530.1768" x2="-103.8297" y2="489.5568" gradientTransform="matrix(1 0 0 -1 0 800)">
			<stop  offset="2.000000e-02" style="stop-color:#EB6A34"/>
			<stop  offset="0.16" style="stop-color:#EE8739"/>
			<stop  offset="0.35" style="stop-color:#F2A83F"/>
			<stop  offset="0.54" style="stop-color:#F4C044"/>
			<stop  offset="0.71" style="stop-color:#F6CF47"/>
			<stop  offset="0.85" style="stop-color:#F7D448"/>
		</linearGradient>
		<path style="fill:url(#SVGID_00000161609092188656510390000013718389927162867606_);" d="M203.6,298.8
			c9.8-13.6,26.9-30.4,23.8-48.1c-12.6-17.9-7.1-53.4-31.9-60.5c-31.9,10.1-46.4,44.2-65.4,69.1c-0.9,12.4,11.3,26.3,1.1,39.4
			c-1.9,7-11.4,12.9-10.9,19.2c4.1,11.7,5.7,24.3,10,35.9c4.1,7.8,3.9,22.4,10.6,26.8c6-2.5,20.1-1.6,21.8-7.3
			c-17.6-62.9,7-76.9,48.4-117c11.5,0.8-4.9,17.4-8.3,21.5C196.4,283.2,202.8,291.7,203.6,298.8L203.6,298.8z"/>
		
			<linearGradient id="SVGID_00000056399447397131495750000008294322344211557540_" gradientUnits="userSpaceOnUse" x1="338.61" y1="511.8596" x2="-102.14" y2="471.2297" gradientTransform="matrix(1 0 0 -1 0 800)">
			<stop  offset="2.000000e-02" style="stop-color:#EB6A34"/>
			<stop  offset="0.16" style="stop-color:#EE8739"/>
			<stop  offset="0.35" style="stop-color:#F2A83F"/>
			<stop  offset="0.54" style="stop-color:#F4C044"/>
			<stop  offset="0.71" style="stop-color:#F6CF47"/>
			<stop  offset="0.85" style="stop-color:#F7D448"/>
		</linearGradient>
		<path style="fill:url(#SVGID_00000056399447397131495750000008294322344211557540_);" d="M249.2,201.1
			c0.8,15.7,10.4,34.1-0.5,48.1c-2.9,11,0,24.3-5.4,36.1c20.6,4.5,57.9-40.2,60.4,7.7c9.2,16.4,15.1,94.9,33.5,90.5
			c26-3.8,6.4-2.9,19.7-17.7c-2.5-18.5-5.7-36.8,1.8-55.2c-0.4-8.3-8-15.9-9.5-24.6c-3.2-5.1,2-13-5.2-14.9
			c-7.2-2.1-9.5-9.3-14.9-13.2c-6.4-2-14.9-1.4-15.8-9.9c-0.4-1.8,0.4-3.6-1.4-4.9c-8.4-5.7,2-10.7-1-17.1
			C291.1,220.6,267.1,215.9,249.2,201.1L249.2,201.1z"/>
		
			<linearGradient id="SVGID_00000083801562321820047810000001843808920125875337_" gradientUnits="userSpaceOnUse" x1="337.141" y1="527.7798" x2="-103.5991" y2="487.1499" gradientTransform="matrix(1 0 0 -1 0 800)">
			<stop  offset="2.000000e-02" style="stop-color:#EB6A34"/>
			<stop  offset="0.16" style="stop-color:#EE8739"/>
			<stop  offset="0.35" style="stop-color:#F2A83F"/>
			<stop  offset="0.54" style="stop-color:#F4C044"/>
			<stop  offset="0.71" style="stop-color:#F6CF47"/>
			<stop  offset="0.85" style="stop-color:#F7D448"/>
		</linearGradient>
		<path style="fill:url(#SVGID_00000083801562321820047810000001843808920125875337_);" d="M436,310.1c4.9-29.5-59-162.4-89.3-111.4
			c6.6,5.9,17.5,13.9,21.7,24.4c14.6,29.6,31.7,58.7,52.4,84.9c15.4,18.8-0.5,21.8-9.3,2.9c-10.4-10.9-18.4-33.2-29.2-39
			c-4.1,8.4-22.9,14.4-18,24.9c5.9,13.4,14.8,25.7,23.6,37.4c18.8,21.3,10.1,17.2,29.5,1.3C440.6,331.4,437.1,333.9,436,310.1
			L436,310.1z"/>
		
			<linearGradient id="SVGID_00000158019468492512563850000014207392201805387944_" gradientUnits="userSpaceOnUse" x1="353.14" y1="354.22" x2="-87.61" y2="313.6" gradientTransform="matrix(1 0 0 -1 0 800)">
			<stop  offset="2.000000e-02" style="stop-color:#EB6A34"/>
			<stop  offset="0.16" style="stop-color:#EE8739"/>
			<stop  offset="0.35" style="stop-color:#F2A83F"/>
			<stop  offset="0.54" style="stop-color:#F4C044"/>
			<stop  offset="0.71" style="stop-color:#F6CF47"/>
			<stop  offset="0.85" style="stop-color:#F7D448"/>
		</linearGradient>
		<path style="fill:url(#SVGID_00000158019468492512563850000014207392201805387944_);" d="M320.7,506.3
			c17.4-34.6,39.8-80.8,32.2-118c-6.3,4.6-16.5,2-21.8,5c3,15.4,7.9,30.3,11.8,45.5c4.7,17.2-24.7,13.7-35,19.6
			c-2.4,0.3-1.9,1.6-1.4,3.5C314,475.9,315.8,491.5,320.7,506.3L320.7,506.3z"/>
		
			<linearGradient id="SVGID_00000166677658613429709000000002333440458968674464_" gradientUnits="userSpaceOnUse" x1="360.5399" y1="273.9713" x2="-80.2101" y2="233.3413" gradientTransform="matrix(1 0 0 -1 0 800)">
			<stop  offset="2.000000e-02" style="stop-color:#EB6A34"/>
			<stop  offset="0.16" style="stop-color:#EE8739"/>
			<stop  offset="0.35" style="stop-color:#F2A83F"/>
			<stop  offset="0.54" style="stop-color:#F4C044"/>
			<stop  offset="0.71" style="stop-color:#F6CF47"/>
			<stop  offset="0.85" style="stop-color:#F7D448"/>
		</linearGradient>
		<path style="fill:url(#SVGID_00000166677658613429709000000002333440458968674464_);" d="M240.6,558.1c6-2.2,21.8-5.8,15.1-14.6
			c-6.5-8.4-10.4-22.2-19.7-27c-3.8,4.3-11.4,4.2-13.6,9.2c-8.1,13.7-19.1,17.5-2.2,32.7C231.6,555.1,226.8,553,240.6,558.1
			L240.6,558.1z"/>
		
			<linearGradient id="SVGID_00000015315621283190366150000000209540603362312110_" gradientUnits="userSpaceOnUse" x1="330.9297" y1="595.1832" x2="-109.8203" y2="554.5632" gradientTransform="matrix(1 0 0 -1 0 800)">
			<stop  offset="2.000000e-02" style="stop-color:#EB6A34"/>
			<stop  offset="0.16" style="stop-color:#EE8739"/>
			<stop  offset="0.35" style="stop-color:#F2A83F"/>
			<stop  offset="0.54" style="stop-color:#F4C044"/>
			<stop  offset="0.71" style="stop-color:#F6CF47"/>
			<stop  offset="0.85" style="stop-color:#F7D448"/>
		</linearGradient>
		<path style="fill:url(#SVGID_00000015315621283190366150000000209540603362312110_);" d="M244.9,231.1
			c-2.1-20.1-8.1-63.5-33.9-42.8C225.4,193.8,234.3,278.2,244.9,231.1z"/>
		
			<linearGradient id="SVGID_00000003794592323641775130000002563099826554361502_" gradientUnits="userSpaceOnUse" x1="360.9903" y1="268.9967" x2="-79.7497" y2="228.3666" gradientTransform="matrix(1 0 0 -1 0 800)">
			<stop  offset="2.000000e-02" style="stop-color:#EB6A34"/>
			<stop  offset="0.16" style="stop-color:#EE8739"/>
			<stop  offset="0.35" style="stop-color:#F2A83F"/>
			<stop  offset="0.54" style="stop-color:#F4C044"/>
			<stop  offset="0.71" style="stop-color:#F6CF47"/>
			<stop  offset="0.85" style="stop-color:#F7D448"/>
		</linearGradient>
		<path style="fill:url(#SVGID_00000003794592323641775130000002563099826554361502_);" d="M312.5,555.2c3.2,0.4,7.8,0,6.5-4.4
			c-3.2-10.9-1.4-26.9-7.1-35.3C287,517.6,285,557.2,312.5,555.2L312.5,555.2z"/>
		
			<linearGradient id="SVGID_00000160878556653787433370000016118006582318925193_" gradientUnits="userSpaceOnUse" x1="346.51" y1="426.1795" x2="-94.2399" y2="385.5595" gradientTransform="matrix(1 0 0 -1 0 800)">
			<stop  offset="2.000000e-02" style="stop-color:#EB6A34"/>
			<stop  offset="0.16" style="stop-color:#EE8739"/>
			<stop  offset="0.35" style="stop-color:#F2A83F"/>
			<stop  offset="0.54" style="stop-color:#F4C044"/>
			<stop  offset="0.71" style="stop-color:#F6CF47"/>
			<stop  offset="0.85" style="stop-color:#F7D448"/>
		</linearGradient>
		<path style="fill:url(#SVGID_00000160878556653787433370000016118006582318925193_);" d="M146.3,387.6c-6.6-1.5-4.3,3-2.4,6.8
			c4.6,7.4,15.1-1.5,21.8-1.4C172.6,380.7,153.1,387.3,146.3,387.6L146.3,387.6z"/>
		
			<linearGradient id="SVGID_00000000184435232583877110000014891006105466714035_" gradientUnits="userSpaceOnUse" x1="344.7601" y1="445.0786" x2="-95.9799" y2="404.4486" gradientTransform="matrix(1 0 0 -1 0 800)">
			<stop  offset="2.000000e-02" style="stop-color:#EB6A34"/>
			<stop  offset="0.16" style="stop-color:#EE8739"/>
			<stop  offset="0.35" style="stop-color:#F2A83F"/>
			<stop  offset="0.54" style="stop-color:#F4C044"/>
			<stop  offset="0.71" style="stop-color:#F6CF47"/>
			<stop  offset="0.85" style="stop-color:#F7D448"/>
		</linearGradient>
		<path style="fill:url(#SVGID_00000000184435232583877110000014891006105466714035_);" d="M417.4,355.4c8.8,1.2,15.1-5.9,16.7-14.3
			C430.6,333.4,401.3,356,417.4,355.4z"/>
		
			<linearGradient id="SVGID_00000180329236435482701440000014153450381233676448_" gradientUnits="userSpaceOnUse" x1="336.6604" y1="533.0355" x2="-104.0837" y2="492.4151" gradientTransform="matrix(1 0 0 -1 0 800)">
			<stop  offset="2.000000e-02" style="stop-color:#EB6A34"/>
			<stop  offset="0.16" style="stop-color:#EE8739"/>
			<stop  offset="0.35" style="stop-color:#F2A83F"/>
			<stop  offset="0.54" style="stop-color:#F4C044"/>
			<stop  offset="0.71" style="stop-color:#F6CF47"/>
			<stop  offset="0.85" style="stop-color:#F7D448"/>
		</linearGradient>
		<path style="fill:url(#SVGID_00000180329236435482701440000014153450381233676448_);" d="M124.4,271.2c-5.4,8.4-9.4,21.6-6.9,31.2
			C124.7,295.8,128.8,281,124.4,271.2z"/>
		
			<linearGradient id="SVGID_00000021820295402762535480000000710194326021900218_" gradientUnits="userSpaceOnUse" x1="337.4597" y1="524.3032" x2="-103.2803" y2="483.6733" gradientTransform="matrix(1 0 0 -1 0 800)">
			<stop  offset="2.000000e-02" style="stop-color:#EB6A34"/>
			<stop  offset="0.16" style="stop-color:#EE8739"/>
			<stop  offset="0.35" style="stop-color:#F2A83F"/>
			<stop  offset="0.54" style="stop-color:#F4C044"/>
			<stop  offset="0.71" style="stop-color:#F6CF47"/>
			<stop  offset="0.85" style="stop-color:#F7D448"/>
		</linearGradient>
		<path style="fill:url(#SVGID_00000021820295402762535480000000710194326021900218_);" d="M215.5,297.7c4.9-0.8,14.7-2.6,16.7-9.1
			c0.2-4.2,7.6-12.3,0.7-13.9C226.7,280.1,223,291.6,215.5,297.7L215.5,297.7z"/>
		
			<linearGradient id="SVGID_00000034071999173375273660000001914937036195306429_" gradientUnits="userSpaceOnUse" x1="337.2504" y1="526.5662" x2="-103.4896" y2="485.9361" gradientTransform="matrix(1 0 0 -1 0 800)">
			<stop  offset="2.000000e-02" style="stop-color:#EB6A34"/>
			<stop  offset="0.16" style="stop-color:#EE8739"/>
			<stop  offset="0.35" style="stop-color:#F2A83F"/>
			<stop  offset="0.54" style="stop-color:#F4C044"/>
			<stop  offset="0.71" style="stop-color:#F6CF47"/>
			<stop  offset="0.85" style="stop-color:#F7D448"/>
		</linearGradient>
		<path style="fill:url(#SVGID_00000034071999173375273660000001914937036195306429_);" d="M358.7,281.9
			c3.9-8.5,25.1-13.1,18.5-22.6C371.2,262.7,354.5,272.5,358.7,281.9L358.7,281.9z"/>
		
			<linearGradient id="SVGID_00000164482093976782942280000013318094273203118470_" gradientUnits="userSpaceOnUse" x1="335.3395" y1="547.3156" x2="-105.4005" y2="506.6956" gradientTransform="matrix(1 0 0 -1 0 800)">
			<stop  offset="2.000000e-02" style="stop-color:#EB6A34"/>
			<stop  offset="0.16" style="stop-color:#EE8739"/>
			<stop  offset="0.35" style="stop-color:#F2A83F"/>
			<stop  offset="0.54" style="stop-color:#F4C044"/>
			<stop  offset="0.71" style="stop-color:#F6CF47"/>
			<stop  offset="0.85" style="stop-color:#F7D448"/>
		</linearGradient>
		<path style="fill:url(#SVGID_00000164482093976782942280000013318094273203118470_);" d="M234.5,261.8c-1.8,3.8,2.4,8.7,4.3,3.5
			C240.6,258.7,233.6,250.3,234.5,261.8z"/>
	</g>
	<path d="M228.1,756.8c16.8,0.7,32.3-6.3,46.8-13.9c3.5-2.9,22.5-0.8,13.6-7c-18.2-7.3-34.2,11.1-52.3,10.4
		c-29.4,1.4-58.9-4.5-88.2-6.2C103.1,749.1,218.4,756.3,228.1,756.8L228.1,756.8z"/>
	<path d="M426.3,699c-8.1,14.4,37.8,11.6,48,13.7C524.2,708.7,429.5,696.4,426.3,699z"/>
	<path d="M460.6,722c-13.9,0.1-27.5,0.5-41.2-2.6c-19.2,11.3,16.1,11.4,24,12.7C449.5,732.7,472.3,728.6,460.6,722z"/>
	<path d="M311.3,205.4c3.7-1.2,5.7-8,0.4-8.1C304.7,196.9,303.8,207.4,311.3,205.4z"/>
</g>
</svg>
