<?xml version="1.0" encoding="UTF-8"?>
<svg id="Layer_2" data-name="Layer 2" xmlns="http://www.w3.org/2000/svg" xmlns:xlink="http://www.w3.org/1999/xlink" viewBox="0 0 629.98 797.2">
  <defs>
    <style>
      .cls-1 {
        fill: #f7d448;
      }

      .cls-2 {
        fill: #fff;
      }

      .cls-3 {
        fill: #ee87b3;
      }

      .cls-4 {
        fill: #d5fd7a;
      }

      .cls-5 {
        fill: #1d1934;
      }

      .cls-6 {
        fill: #1c1932;
      }

      .cls-7 {
        fill: url(#Degradado_sin_nombre_38);
      }

      .cls-8 {
        fill: url(#Degradado_sin_nombre_23);
      }

      .cls-9 {
        fill: url(#Degradado_sin_nombre_38-13);
      }

      .cls-10 {
        fill: url(#Degradado_sin_nombre_38-12);
      }

      .cls-11 {
        fill: url(#Degradado_sin_nombre_38-11);
      }

      .cls-12 {
        fill: url(#Degradado_sin_nombre_38-10);
      }

      .cls-13 {
        fill: url(#Degradado_sin_nombre_38-14);
      }

      .cls-14 {
        fill: url(#Degradado_sin_nombre_38-9);
      }

      .cls-15 {
        fill: url(#Degradado_sin_nombre_38-8);
      }

      .cls-16 {
        fill: url(#Degradado_sin_nombre_38-2);
      }

      .cls-17 {
        fill: url(#Degradado_sin_nombre_38-4);
      }

      .cls-18 {
        fill: url(#Degradado_sin_nombre_38-5);
      }

      .cls-19 {
        fill: url(#Degradado_sin_nombre_38-6);
      }

      .cls-20 {
        fill: url(#Degradado_sin_nombre_38-3);
      }

      .cls-21 {
        fill: url(#Degradado_sin_nombre_38-7);
      }

      .cls-22 {
        fill: url(#Degradado_sin_nombre_23-5);
      }

      .cls-23 {
        fill: url(#Degradado_sin_nombre_23-6);
      }

      .cls-24 {
        fill: url(#Degradado_sin_nombre_23-3);
      }

      .cls-25 {
        fill: url(#Degradado_sin_nombre_23-2);
      }

      .cls-26 {
        fill: url(#Degradado_sin_nombre_23-4);
      }
    </style>
    <linearGradient id="Degradado_sin_nombre_23" data-name="Degradado sin nombre 23" x1="11.05" y1="711.66" x2="620.88" y2="711.66" gradientUnits="userSpaceOnUse">
      <stop offset="0" stop-color="#50afe0"/>
      <stop offset=".21" stop-color="#5694e5"/>
      <stop offset=".44" stop-color="#5b7cea"/>
      <stop offset=".66" stop-color="#5e6ded"/>
      <stop offset=".85" stop-color="#6069ef"/>
    </linearGradient>
    <linearGradient id="Degradado_sin_nombre_23-2" data-name="Degradado sin nombre 23" x1="306.45" y1="104.11" x2="-78.26" y2="411.72" xlink:href="#Degradado_sin_nombre_23"/>
    <linearGradient id="Degradado_sin_nombre_23-3" data-name="Degradado sin nombre 23" x1="271.83" y1="147.64" x2="211.75" y2="-4.57" xlink:href="#Degradado_sin_nombre_23"/>
    <linearGradient id="Degradado_sin_nombre_23-4" data-name="Degradado sin nombre 23" x1="338.26" y1="121.41" x2="278.18" y2="-30.8" xlink:href="#Degradado_sin_nombre_23"/>
    <linearGradient id="Degradado_sin_nombre_23-5" data-name="Degradado sin nombre 23" x1="376.86" y1="106.18" x2="316.78" y2="-46.03" xlink:href="#Degradado_sin_nombre_23"/>
    <linearGradient id="Degradado_sin_nombre_23-6" data-name="Degradado sin nombre 23" x1="238.48" y1="195.69" x2="345.24" y2="195.69" xlink:href="#Degradado_sin_nombre_23"/>
    <linearGradient id="Degradado_sin_nombre_38" data-name="Degradado sin nombre 38" x1="363.79" y1="561.35" x2="-76.95" y2="601.97" gradientUnits="userSpaceOnUse">
      <stop offset=".02" stop-color="#eb6a34"/>
      <stop offset=".16" stop-color="#ee8739"/>
      <stop offset=".35" stop-color="#f2a83f"/>
      <stop offset=".54" stop-color="#f4c044"/>
      <stop offset=".71" stop-color="#f6cf47"/>
      <stop offset=".85" stop-color="#f7d448"/>
    </linearGradient>
    <linearGradient id="Degradado_sin_nombre_38-2" data-name="Degradado sin nombre 38" x1="336.92" y1="269.82" x2="-103.83" y2="310.44" xlink:href="#Degradado_sin_nombre_38"/>
    <linearGradient id="Degradado_sin_nombre_38-3" data-name="Degradado sin nombre 38" x1="338.61" y1="288.14" x2="-102.14" y2="328.77" xlink:href="#Degradado_sin_nombre_38"/>
    <linearGradient id="Degradado_sin_nombre_38-4" data-name="Degradado sin nombre 38" x1="337.14" y1="272.21" x2="-103.6" y2="312.84" xlink:href="#Degradado_sin_nombre_38"/>
    <linearGradient id="Degradado_sin_nombre_38-5" data-name="Degradado sin nombre 38" x1="353.14" y1="445.78" x2="-87.61" y2="486.4" xlink:href="#Degradado_sin_nombre_38"/>
    <linearGradient id="Degradado_sin_nombre_38-6" data-name="Degradado sin nombre 38" x1="360.54" y1="526.03" x2="-80.21" y2="566.66" xlink:href="#Degradado_sin_nombre_38"/>
    <linearGradient id="Degradado_sin_nombre_38-7" data-name="Degradado sin nombre 38" x1="330.93" y1="204.82" x2="-109.82" y2="245.44" xlink:href="#Degradado_sin_nombre_38"/>
    <linearGradient id="Degradado_sin_nombre_38-8" data-name="Degradado sin nombre 38" x1="360.99" y1="531" x2="-79.75" y2="571.63" xlink:href="#Degradado_sin_nombre_38"/>
    <linearGradient id="Degradado_sin_nombre_38-9" data-name="Degradado sin nombre 38" x1="346.51" y1="373.82" x2="-94.24" y2="414.44" xlink:href="#Degradado_sin_nombre_38"/>
    <linearGradient id="Degradado_sin_nombre_38-10" data-name="Degradado sin nombre 38" x1="344.76" y1="354.92" x2="-95.98" y2="395.55" xlink:href="#Degradado_sin_nombre_38"/>
    <linearGradient id="Degradado_sin_nombre_38-11" data-name="Degradado sin nombre 38" x1="336.66" y1="266.96" x2="-104.08" y2="307.58" xlink:href="#Degradado_sin_nombre_38"/>
    <linearGradient id="Degradado_sin_nombre_38-12" data-name="Degradado sin nombre 38" x1="337.46" y1="275.7" x2="-103.28" y2="316.33" xlink:href="#Degradado_sin_nombre_38"/>
    <linearGradient id="Degradado_sin_nombre_38-13" data-name="Degradado sin nombre 38" x1="337.25" y1="273.43" x2="-103.49" y2="314.06" xlink:href="#Degradado_sin_nombre_38"/>
    <linearGradient id="Degradado_sin_nombre_38-14" data-name="Degradado sin nombre 38" x1="335.34" y1="252.69" x2="-105.4" y2="293.31" xlink:href="#Degradado_sin_nombre_38"/>
  </defs>
  <g id="Capa_1" data-name="Capa 1">
    <path d="M629.92,742.83c-19.29-95.79-213.93-114.83-295.35-110.46-7.52-35.35-3.15-73.44-10.89-109.11,21.97-44.43,46.49-97.22,40.13-146.59,5.96-18.27-6.24-37.8,2.29-57.59,12.19,17.12,24.65,43.87,47.73,45.21,74.4-2.54,9.47-181.71-61.57-191.02,97.68-95.15-31.4-239.51-129.67-139.33-27.13,31.15-31.11,75.07-10.77,110.68-16.4-1.19-38.04,4-46.82,18.69-11.66,15.52-12.05,37.12-18.2,54.7-15.05,22.98-35.07,44.88-38.88,73.08-2.28,42.49,26.73,39.78-25.17,57.09-25.18,1.85,19.93,116.53,19.22,140.7,2.78,44.38,20.39,24.58,49.59,16.14,19.69-8.18,40.36-13.71,60.75-19.91,6.12-1.89,7.76,7.66,10.25,11.54,21.14,20.71-4.33,9.09-11.99,30.83-9.97,6.64-21.59-3.87-25.48,15.56-7.18,35.17,5.76,70.87-.81,105.7-7.33,13.05-31.23,12.74-44.99,18.7-41.01,13.08-82.18,28.59-117.98,53.09-97.11,83.85,167.18,50.31,203.78,53.82,18.09,1.49,209.55-16.87,173.37,6.08-29.35,34.41,235.76,12.95,231.47-37.6Zm-370.37-103.36c-12.33,2.35-16.64-12.54-17.73-22.19-4.34-16.34-4.48-37.56-8.27-51.77,28.35,6.28,25.41-25.15,28.7,21.94,2.1,16.37-.12,33.26-.72,49.66,.43,2.59,.44,2.67-1.97,2.36Z"/>
    <path class="cls-1" d="M192.32,289c-19.38,17.96-39.73,37.01,.81,18.02,3.35-4.29-1.05-12.02-.81-18.02Z"/>
    <path class="cls-8" d="M276.17,679.59c-1.26-6.74-8.15-33.72-15.9-30.45,10.15,10.24,5.79,20.85-9.51,20.38-6.7,2.09-12,7.78-19.77,6.03-11.02-2.43-17.04,13.93-28.03,6.39-19.31-10.44-12.13-21.14-37.59-11.36-172.92,53.27-236.12,110.04-.14,96.06,77.01-1.02,154.29-9.87,231.16-5.66,52.85,6.26-1.78,24.81,20.05,25.12,58.89-2.95,168.06,7.6,204.45-45.29-26.29-88-205.11-99.58-283.56-103.5-4.62-.79-1.96,5.77-2.85,8.44-.64,10.94-12.27,14.84-11.08,26.22,24.98,8.95,52.55,7.82,78.87,8.01,46.32-.4-8.45,32.75-18.08,45.52-8.36,8.77-22.56,.04-32.84-.07-17.95-1.15-36.48,.13-54.69,.05-29.44-2.63-33.16-18.26-67.83-1.15-38.73,17.8-8.09-9.33,9.18-12.26,27.15-13.45,32.53,10.8,35.29-22.44-12.71-18.44-58.57,15.77-89.83,6.72-42.36-10.26,16.98-10.03,28.37-9.78,21.67-.71,43.18-21.8,64.35-6.97Z"/>
    <path class="cls-5" d="M359.21,80.68c-1.78-61.43-38.63,.46-94.25-22.32-29.78-6.35-17.17,32.81-12.53,48.42-1.54,11.57-8.72,21.3-7.87,33.33,3.41,61.04,85.74,46.39,113.69,10.33,18.31-20.73,2.65-47.06,.96-69.76Z"/>
    <path class="cls-25" d="M343.83,124.55c-.22-.55-.47-1.08-.74-1.6-.11-.14-.28-.38-.55-.75-.25-.32-.38-.5-.44-.6-.12-.08-.29-.2-.55-.4-.46-.29-.72-.46-.82-.55-.29-.13-.59-.27-.89-.37-.46-.15-.6-.21-.43-.19-.56-.1-1.12-.18-1.69-.24-.97-.1-2.52,.08-4.21,.41-.11,.07-.23,.13-.35,.2-1.24,.66-2.49,1-3.71,1.11-2.62,1.01-5.08,2.26-7.18,3.68-8,5.43-14.38,11.33-24.74,10.66-4.7-.3-9.15-4.67-9.67-9.29-1.28-11.31,5.77-18.1,11.28-26.91,.07-.12,.55-.96,.82-1.44,.23-.5,.67-1.43,.66-1.4,.6-1.42,1.12-2.85,1.59-4.32,.07-.21,.11-.33,.14-.39,.02-.12,.04-.25,.07-.4,.12-.68,.24-1.35,.32-2.03,.1-.8,.16-1.6,.19-2.4-.01-.06-.02-.14-.04-.24-.11-.78-.21-1.55-.38-2.32-.05-.03-.12-.07-.2-.12-.55-.33-.09-.07,.17,.06,0,0-.01-.02-.02-.03-.36-.26-.94-.65-.22-.2,.08,.05,.16,.12,.22,.2,.02,.02,.05,.03,.07,.05,.17,.08,.17,.04-.55-.44-.2-.13-.34-.23-.44-.3-.05,0-.15-.03-.35-.1-.36-.13-1.63-.5-1.53-.49-1.39-.17-3.59,.57-5.22,1.3-.04,.02-.07,.03-.11,.05-5.67,3.97-11.6,7.56-17.13,11.74-11.2,8.46-24.87-7.93-14.2-16.8,1.02-1.6,14.13-12.13,18.82-16.71-5.41-.76-11.05-2.21-16.89-4.61-29.78-6.35-17.17,32.81-12.53,48.42-1.55,11.57-8.72,21.3-7.87,33.33,2.71,48.58,55.42,49.22,90.91,29.27-5-6.71-4.71-15.38-1.14-22.69,1.8-3.7,4.02-7.17,6.07-10.73,.19-.33,.38-.67,.56-1,.05-.1,.11-.21,.17-.35,.5-1,.99-2,1.46-3.02,.68-1.48,1.29-2.99,1.86-4.51-.16-1.02-.36-1.9-.62-2.54Zm-58.55,25.6c-.7,6.36-6.21,9.73-12.14,9.73s-10.32-6.74-9.73-12.14c.7-6.36,6.21-9.73,12.14-9.73s10.32,6.74,9.73,12.14Z"/>
    <path class="cls-3" d="M286.03,281.84c-38.62,12.65-76.8,29.32-115.89,41.49-8,9.15-.6,30.45-.47,42.97,7.96,43.98,19,23.18,26.35,53.55,12.83,3.64,31.62-14.27,46.61-17.17,47.24-17.94,33.58-81.3,43.4-120.84Z"/>
    <path class="cls-3" d="M177.4,434.19c4.04,10.11,22.55,28.04,3.52,34.14-7.08,.34-13.19,6.45-20.55,2.38-4.74-2.54-10.84,1.04-14.12-4.4-7.95-5.52-8.35-14.96-12.38-22.57-16.37-21.58-15.92,8.21-13.6,21.15,7.88,25.41-16.46,52.19,20.99,33.01,57.2-20.06,115.88-34.1,174.17-50.83,3.56-1.74,15.94-1.51,11.18-7.48-8.21-14.01-15.48-28.54-23.85-42.51-14.47-32.67-26.3-3.8-42.08,7.08-19.65,8.94-38.94,18.62-58.91,26.78-8.99,4.91-14.7,15.34-24.39,3.26Z"/>
    <path class="cls-24" d="M262.34,17c-28.33,10.06-51.43,35.02-54.19,76.6-.53,21.42,10.24,53.51,27.61,62.4-2.33-17.21,3.11-32.85,6.52-49.15-6.95-19.76-13.42-60.25,18.16-58.36,6.95,2.12,14.19,3.58,21.53,4.33-1.9-7.65-3.63-15.43-7.26-22.42-2.84-5.46-7.07-10.45-12.37-13.41Z"/>
    <path class="cls-26" d="M303.41,12.43c-6.61-.73-13.3-.79-19.91-.13,.92,.98,1.79,2.03,2.65,3.12,2.62,3.34,5.14,6.77,7.56,10.26,1.97,2.85,3.89,5.8,4.9,9.1,1.47,4.79,1.95,13.25,.38,18.49,6.4-.32,12.77-1.2,18.98-2.67,.66-14-4.86-28.11-14.56-38.18Z"/>
    <path class="cls-22" d="M331.36,20c.52,.76,1.01,1.54,1.48,2.32,3.72,6.24,6.29,13.56,5.97,20.7,1.95-.99,3.88-2.05,5.75-3.19,18.56,.65,24.37,28.71,24.36,44.56-1.41,10.72,8.8,18.47,7.1,29.84,9.51-47.77-13.16-80.06-44.66-94.23Z"/>
    <path class="cls-4" d="M298.61,34.79c-1.01-3.31-2.94-6.26-4.9-9.1-2.42-3.5-4.94-6.92-7.56-10.26-.85-1.09-1.73-2.14-2.65-3.12-7.22,.72-14.34,2.28-21.16,4.7,5.3,2.96,9.54,7.95,12.37,13.41,3.64,6.99,5.37,14.77,7.26,22.42,5.64,.58,11.34,.73,17.01,.45,1.57-5.25,1.09-13.71-.38-18.49Z"/>
    <path class="cls-4" d="M332.84,22.32c-.47-.79-.97-1.56-1.48-2.32-8.8-3.96-18.29-6.5-27.95-7.58,9.7,10.07,15.22,24.19,14.56,38.18,7.23-1.71,14.24-4.22,20.85-7.58,.32-7.15-2.25-14.46-5.97-20.7Z"/>
    <path class="cls-1" d="M254.99,658.6c-6.05-4.7-9.9-21.87-19.35-17.96-5.75,5.2-24,3.27-10.86-3.91,2.85-1.59,10.57-1.62,9.28-6.04-6.45-19.74-1.73-44.86-12.45-61.98-15.34-3.12-16.35-19.87-21.88-29.84-9.46,.76-6.05,16.21-7.22,23.05-4.15,29.51,10.47,58.11,.67,86.94-4.45,12.14,13.23,32.67,23.25,20.41,7.13-5.78,16.72-.22,23.32-5.46,3.86-4.65,10.35-2.36,15.23-5.22Z"/>
    <path class="cls-1" d="M346.86,687.79c-12.87-1.15-24.21-6.02-36.16-8.31-8.41,4.03-22.31,.79-28.32,6.39-2.98,25.48-4.53,33.31,24.58,30.27,22.95,.52,44.89-3.97,67.32,3.05,6.52-2.8,13.68-10.11,18.68-15.73,3.55-5.36,12.08-6.63,14.46-13.2-11.18-7.43-98.74,24.28-60.54-2.48Z"/>
    <path class="cls-3" d="M138.7,404.88c-28.74-55.55-2.47-75.29-50.28-49.05-5.74,4.23,6.34,14.07,7.2,20.21,11.79,18.23,21.42,38.84,37.36,53.82,2.58,5.02,3.66-22.06,5.72-24.98Z"/>
    <path class="cls-3" d="M292.7,287.47c-12.45,164.53-21.13,19.59,35.83,136.13-10.05-45.78-23.88-90.72-35.83-136.13Z"/>
    <path class="cls-1" d="M161.05,201.14c15.76-23.71,49.93-18.7,69.51-31.87-6.13-22.43-36.33-17.54-52.38-7.6-8.71,5.89,2.73,11.69,8.2,14.26,8.59,9.49-13.76,6.83-16.83,.74-6.22,1.95-5.22,17.17-8.49,24.48Z"/>
    <path class="cls-1" d="M333.84,207.85c6.12,.87,26.95,14.41,15.49,18.69-8.37-1.6-14.57-12.97-24.5-9.11-1.88,.76-9.74,7.17-5.26,7.31,6.03-6.45,36.91,5.49,22.25,10.86-8.49-1.1-16.78-7.48-23.81,.83-5.93,3.5,25-2.11,24.65,10.01-.78,7.18-24.39-7.5-18.62,.64,13.95-1.17,19.33,18.74,31.5,17.98,3.84-6.01,15.09-10.36,14.66-17.73-8.16-15.03-15.27-40.71-36.38-39.49Z"/>
    <path class="cls-1" d="M167.39,462.71c-4.9-8.21-12.3-20.31-9.63-29.44,2.65,1.86,24.88,40.61,20.8,20.37-11.17-9.72-12.65-25.13-12.52-38.61,1.51-11.47,18.98,4.17,18.71,11.8,7.61,6.19-1.48-23.23-12.38-23.49-8.53-3.79-17.8,4.72-26.97,3.37-1.64,6.75,.26,19.25-.93,28.06-.02,3.54,.06,19.87,3.13,15.77,.27-5.58-3.57-14.08,.49-18.31,9.17,6.65,4.92,28.95,19.31,30.47Z"/>
    <path class="cls-23" d="M264.92,185.7c7.31,8.64,19.94,12.1,30.81,14.75,17.24,24.82-53.25-11.4-53.64-23.77-22.99,2.44,71.24,55.35,76.25,32.18-.7-11.61,11.93-7.76,16.79-12.94,.5-6.59,13.57-11.4,9.24-16.96-3.87,.81-5.88,8.48-9.09,11.65-7.52,8.59-11.65-2.39-5.23-8.22-20.19,12.47-43.22,9.22-65.13,3.31Z"/>
    <path class="cls-3" d="M111.35,489.24c5.56-18.2-10.42-42.95,3.6-59.11,2.79-2.6,3.04-4.32,.65-7.31-12.32-10.8-16.6-27.39-26.63-39.98,7.46,35.48,14.34,71.14,22.38,106.4Z"/>
    <g>
      <path class="cls-7" d="M271.54,633.53c-1.85,10.29,5.21,18.11,9.99,26.21,2.22,4.28-.27,15.3,6.62,14.24,34.79-3.82,18.33-2.5,35.16-24.04,5.48-8.52,1.69-17.84,.98-26.88-4.43-18.49-3.91-37.71-4.71-56.66-4.01-5.41-16.05,.4-22.21-4.89-18.66-6.46-19.21-37.12-2.78-46.84,24.77-9.8,16.19-1.4,11.17-29.06-2.79-6.78-4.43-22.6-11.84-23.51-21.77,7.28-44.47,11.89-66.27,19.15,.74,14.92,21.26,29.08,28.07,44.02,21.22,31.14,15.74,72.23,15.81,108.25Z"/>
      <path class="cls-16" d="M203.59,298.76c9.77-13.6,26.88-30.4,23.75-48.11-12.58-17.91-7.08-53.43-31.9-60.48-31.95,10.07-46.38,44.19-65.38,69.14-.85,12.38,11.31,26.29,1.11,39.38-1.88,7.04-11.44,12.9-10.9,19.21,4.1,11.7,5.68,24.3,10.02,35.93,4.11,7.83,3.87,22.42,10.62,26.75,5.98-2.51,20.05-1.6,21.84-7.3-17.6-62.91,6.97-76.85,48.45-116.98,11.52,.76-4.89,17.35-8.26,21.5-6.52,5.42-.12,13.9,.64,20.96Z"/>
      <path class="cls-20" d="M249.18,201.07c.79,15.72,10.39,34.09-.46,48.11-2.85,11.01-.02,24.33-5.39,36.13,20.62,4.51,57.86-40.16,60.4,7.73,9.16,16.41,15.12,94.9,33.54,90.47,26.01-3.75,6.44-2.9,19.66-17.7-2.52-18.52-5.68-36.75,1.82-55.21-.43-8.31-7.97-15.89-9.52-24.65-3.23-5.09,1.99-13-5.18-14.9-7.17-2.09-9.53-9.29-14.87-13.24-6.38-1.97-14.85-1.38-15.8-9.9-.43-1.78,.37-3.63-1.39-4.93-8.43-5.73,2.03-10.69-.99-17.06-19.87-5.31-43.88-10.05-61.83-24.85Z"/>
      <path class="cls-17" d="M436.03,310.14c4.9-29.45-59.04-162.36-89.33-111.43,6.59,5.9,17.47,13.89,21.66,24.41,14.65,29.58,31.66,58.66,52.4,84.95,15.44,18.75-.53,21.82-9.34,2.94-10.4-10.85-18.4-33.19-29.21-39.05-4.14,8.4-22.85,14.38-17.97,24.94,5.86,13.38,14.8,25.68,23.63,37.39,18.75,21.32,10.07,17.18,29.5,1.28,23.21-4.22,19.72-1.66,18.67-25.42Z"/>
      <path class="cls-18" d="M320.72,506.3c17.4-34.63,39.84-80.81,32.18-118.03-6.33,4.56-16.53,1.99-21.8,4.99,3.05,15.42,7.87,30.32,11.77,45.51,4.66,17.18-24.66,13.67-34.99,19.65-2.38,.34-1.89,1.63-1.35,3.51,7.44,13.99,9.29,29.6,14.2,44.36Z"/>
      <path class="cls-19" d="M240.58,558.08c6-2.17,21.79-5.8,15.09-14.58-6.46-8.4-10.43-22.23-19.71-26.98-3.82,4.34-11.38,4.15-13.57,9.23-8.05,13.72-19.12,17.55-2.23,32.72,11.4-3.41,6.69-5.46,20.42-.39Z"/>
      <path class="cls-21" d="M244.95,231.05c-2.06-20.06-8.13-63.49-33.87-42.75,14.28,5.53,23.26,89.87,33.87,42.75Z"/>
      <path class="cls-15" d="M312.45,555.22c3.23,.43,7.79,.01,6.5-4.43-3.18-10.91-1.38-26.92-7.15-35.35-24.77,2.18-26.76,41.75,.66,39.78Z"/>
      <path class="cls-14" d="M146.27,387.62c-6.62-1.47-4.28,2.96-2.42,6.78,4.61,7.4,15.14-1.54,21.78-1.39,6.96-12.27-12.54-5.72-19.36-5.4Z"/>
      <path class="cls-12" d="M417.37,355.36c8.77,1.16,15.11-5.91,16.7-14.27-3.49-7.66-32.77,14.88-16.7,14.27Z"/>
      <path class="cls-11" d="M124.45,271.24c-5.44,8.41-9.37,21.6-6.89,31.2,7.13-6.65,11.24-21.4,6.89-31.2Z"/>
      <path class="cls-10" d="M215.49,297.66c4.93-.81,14.72-2.57,16.66-9.13,.22-4.25,7.57-12.32,.71-13.91-6.14,5.48-9.86,16.94-17.37,23.04Z"/>
      <path class="cls-9" d="M358.74,281.92c3.89-8.52,25.15-13.1,18.5-22.64-6.02,3.44-22.7,13.18-18.5,22.64Z"/>
      <path class="cls-13" d="M234.54,261.79c-1.76,3.77,2.44,8.73,4.3,3.46,1.81-6.59-5.29-14.95-4.3-3.46Z"/>
    </g>
    <path d="M228.08,756.78c16.8,.68,32.27-6.34,46.79-13.86,3.53-2.91,22.53-.81,13.63-7.01-18.19-7.31-34.25,11.1-52.34,10.44-29.42,1.41-58.91-4.53-88.24-6.21-44.78,9,70.5,16.13,80.16,16.65Z"/>
    <path d="M426.32,698.96c-8.15,14.36,37.81,11.64,47.95,13.7,49.89-4-44.73-16.27-47.95-13.7Z"/>
    <path d="M460.59,721.98c-13.88,.09-27.49,.49-41.2-2.64-19.16,11.31,16.08,11.38,23.97,12.68,6.19,.64,28.94-3.44,17.23-10.04Z"/>
    <path d="M311.27,205.39c3.74-1.2,5.7-7.98,.36-8.05-6.94-.46-7.82,10.07-.36,8.05Z"/>
    <g>
      <path class="cls-6" d="M189.96,394.8c.33,.86,1.27,1.33,2.16,1.07,3.41-1.01,8.3-2.46,10.47-3.11,1.03-.35,2.83-.7,3.7-1.34,1.95-1.25,2.88-3.89,2.19-6.12l-.04-.13-.48-1.62c-.21-.65,.13-1.35,.78-1.57s1.35,.12,1.57,.76c.89,2.51,.91,2.33,1,2.83,.73,3.13-.49,6.54-3.03,8.54-1.17,1.02-3.08,1.6-4.51,2.17l-4.19,1.62-5.73,2.21c-.91,.35-1.36,1.37-1.02,2.28l.44,1.17c.31,.82,1.21,1.24,2.04,.96l8.2-2.79,4.21-1.43,16.77-5.71c.83-.28,1.28-1.17,1.03-2l-9.7-32.13c-.26-.88-1.2-1.36-2.07-1.06l-16.66,5.68-6.66,2.27-8.09,2.76c-.87,.3-1.32,1.25-.99,2.11l8.61,22.64Z"/>
      <rect class="cls-2" x="201.1" y="366.39" width="12.37" height="12.37" rx="2.95" ry="2.95" transform="translate(-109.09 86.76) rotate(-18.82)"/>
      <rect class="cls-2" x="189.02" y="370.6" width="10.31" height="10.31" rx="2.95" ry="2.95" transform="translate(-110.81 82.7) rotate(-18.82)"/>
      <path class="cls-6" d="M205.4,370.78l2.28-.78c.57-.2,1.2,.11,1.39,.69l.78,2.28c.2,.57-.11,1.2-.69,1.39l-2.28,.78c-.57,.2-1.2-.11-1.39-.69l-.17-.48c-.04-.1,.02-.21,.12-.25l1.81-.62c.1-.04,.16-.15,.12-.25l-.19-.56c-.04-.1-.15-.16-.25-.12l-1.81,.62c-.1,.04-.21-.02-.25-.12l-.17-.49c-.2-.57,.11-1.2,.69-1.39Z"/>
      <path class="cls-6" d="M192.29,373.96l2.28-.78c.57-.2,1.2,.11,1.39,.69l.78,2.28c.2,.57-.11,1.2-.69,1.39l-2.28,.78c-.57,.2-1.2-.11-1.39-.69l-.17-.48c-.04-.1,.02-.21,.12-.25l1.81-.62c.1-.04,.16-.15,.12-.25l-.19-.56c-.04-.1-.15-.16-.25-.12l-1.81,.62c-.1,.04-.21-.02-.25-.12l-.17-.49c-.2-.57,.11-1.2,.69-1.39Z"/>
    </g>
  </g>
</svg>