<?xml version="1.0" encoding="UTF-8"?>
<svg id="Layer_2" data-name="Layer 2" xmlns="http://www.w3.org/2000/svg" xmlns:xlink="http://www.w3.org/1999/xlink" viewBox="0 0 1199.85 641.13">
  <defs>
    <style>
      .cls-1 {
        fill: #ffd600;
      }

      .cls-2 {
        fill: #d7ff7a;
      }

      .cls-3 {
        fill: #1a1a1a;
      }

      .cls-4 {
        fill: url(#Degradado_sin_nombre_13);
      }

      .cls-5 {
        fill: url(#Degradado_sin_nombre_12);
      }

      .cls-6 {
        fill: url(#Degradado_sin_nombre_14);
      }

      .cls-7 {
        fill: url(#Degradado_sin_nombre_12-4);
      }

      .cls-8 {
        fill: url(#Degradado_sin_nombre_12-5);
      }

      .cls-9 {
        fill: url(#Degradado_sin_nombre_12-2);
      }

      .cls-10 {
        fill: url(#Degradado_sin_nombre_12-3);
      }

      .cls-11 {
        fill: url(#Degradado_sin_nombre_14-5);
      }

      .cls-12 {
        fill: url(#Degradado_sin_nombre_14-2);
      }

      .cls-13 {
        fill: url(#Degradado_sin_nombre_14-3);
      }

      .cls-14 {
        fill: url(#Degradado_sin_nombre_14-4);
      }
    </style>
    <linearGradient id="Degradado_sin_nombre_14" data-name="Degradado sin nombre 14" x1="1100.22" y1="452.3" x2="998.44" y2="326.91" gradientUnits="userSpaceOnUse">
      <stop offset="0" stop-color="#00b1e2"/>
      <stop offset=".04" stop-color="#14b3cf"/>
      <stop offset=".17" stop-color="#51bc99"/>
      <stop offset=".3" stop-color="#86c46a"/>
      <stop offset=".42" stop-color="#b1ca44"/>
      <stop offset=".54" stop-color="#d3cf26"/>
      <stop offset=".66" stop-color="#ebd311"/>
      <stop offset=".76" stop-color="#fad504"/>
      <stop offset=".85" stop-color="#ffd600"/>
    </linearGradient>
    <linearGradient id="Degradado_sin_nombre_12" data-name="Degradado sin nombre 12" x1="656.64" y1="297.68" x2="677.06" y2="297.68" gradientUnits="userSpaceOnUse">
      <stop offset="0" stop-color="#ff6c37"/>
      <stop offset=".15" stop-color="#ff8927"/>
      <stop offset=".34" stop-color="#ffaa16"/>
      <stop offset=".53" stop-color="#ffc20a"/>
      <stop offset=".71" stop-color="#ffd102"/>
      <stop offset=".85" stop-color="#ffd600"/>
    </linearGradient>
    <linearGradient id="Degradado_sin_nombre_12-2" data-name="Degradado sin nombre 12" x1="577.58" y1="272.54" x2="663.05" y2="272.54" xlink:href="#Degradado_sin_nombre_12"/>
    <linearGradient id="Degradado_sin_nombre_12-3" data-name="Degradado sin nombre 12" x1="540.45" y1="287.04" x2="658.63" y2="287.04" xlink:href="#Degradado_sin_nombre_12"/>
    <linearGradient id="Degradado_sin_nombre_14-2" data-name="Degradado sin nombre 14" x1="602.14" y1="174.64" x2="953.92" y2="174.64" xlink:href="#Degradado_sin_nombre_14"/>
    <linearGradient id="Degradado_sin_nombre_12-4" data-name="Degradado sin nombre 12" x1="220.31" y1="334.46" x2="753.87" y2="23.78" xlink:href="#Degradado_sin_nombre_12"/>
    <linearGradient id="Degradado_sin_nombre_13" data-name="Degradado sin nombre 13" x1="484.8" y1="459.31" x2="1106.01" y2="459.31" gradientUnits="userSpaceOnUse">
      <stop offset="0" stop-color="#d7ff7a"/>
      <stop offset="0" stop-color="#d7fe77"/>
      <stop offset=".2" stop-color="#e5ef4c"/>
      <stop offset=".38" stop-color="#f0e42b"/>
      <stop offset=".56" stop-color="#f8dc13"/>
      <stop offset=".72" stop-color="#fdd704"/>
      <stop offset=".85" stop-color="#ffd600"/>
    </linearGradient>
    <linearGradient id="Degradado_sin_nombre_12-5" data-name="Degradado sin nombre 12" x1="907.57" y1="481.78" x2="1038.15" y2="-13.51" xlink:href="#Degradado_sin_nombre_12"/>
    <linearGradient id="Degradado_sin_nombre_14-3" data-name="Degradado sin nombre 14" x1="1024.17" y1="514.03" x2="922.39" y2="388.65" xlink:href="#Degradado_sin_nombre_14"/>
    <linearGradient id="Degradado_sin_nombre_14-4" data-name="Degradado sin nombre 14" x1="1046.23" y1="496.12" x2="944.45" y2="370.74" xlink:href="#Degradado_sin_nombre_14"/>
    <linearGradient id="Degradado_sin_nombre_14-5" data-name="Degradado sin nombre 14" x1="1061.38" y1="483.82" x2="959.6" y2="358.44" xlink:href="#Degradado_sin_nombre_14"/>
  </defs>
  <g id="Capa_1" data-name="Capa 1">
    <path class="cls-3" d="M1198.58,586.49c-5.59-13.16-15.44-23.98-23.02-35.81-.33-1.41-1.06-2.48-2.34-3.18-5.09-3.83-6.4-10.85-11.39-15.01-10.23-12.18-21.24-23.69-31.18-36.18-18.81-19.6-36.33-40.54-57.63-57.35,.18-.22,.36-.44,.54-.66,18.73,5.11,35.91,15.38,54.54,20.09,5.59,3.26,10.69,6.99,17.13,8.16,6.39,3.07,17.47,1.41,16.81-7.44-1.46-5.6-3.77-10.68-8.77-14.12-7.57-9.53-16.91-17.45-26.51-25.03-3.96-3.65-8.99-6.16-13.42-8.95-9.48-9.98-22.58-14.5-33.74-22.17-18.39-8.17-37.69-14.1-57.99-16.11-1.48,.1-2.25-1.29-.88-2.14,4.51-4.74,7.27-10.86,10.76-16.3,4.19-5.43,8.37-11.06,11.63-16.99,4.1-13.34,16.2-22.5,18.97-36.58,.34-1.31-.22-2.89,.78-3.94,2.93-3.09,3.38-7.11,4.1-10.95,4.08-19.22,1.48-38.63-2.91-57.53,.46-4.15-.37-8.16-1.74-11.96-1.35-6.62-2.05-13.36-5.57-19.36-4.39-12.75-9.67-22.08-24.07-23.11-40.82-1.5-84,32.66-117.02,54.21-8.66,8.26-19.38,13.98-27.7,22.75-9.98,8.42-18.47,16.05-27.77,24.9-20.32,19.57-40.56,39.22-57.78,61.67-17.2,19.46-33.98,40.01-46.26,63.02-1.73,5.09-6.96,8.22-8.4,13.46-1.13,2.71-1.98,5.42-4.27,7.42-.7,.61-1.19,1.42-1.16,2.38,.17,4.9-3.45,8.4-4.54,13.54-2.1-6.51-2.14-12.86-7.29-18.35-7.9-9.39-18.09-16.51-30.48-18.32-13.27-1.43-21.81-13.09-30.6-22-1.91-2.37-2.32-4.57-1.21-7.48,3.17-8.32,4.51-17.13,6.65-25.73,1.18-9.32,4.3-18.2,6.05-27.26-.76-2.8,2.09-4.85,1.27-7.53-1.61-5.3,.86-10.37,1.3-15.48,1.31-14.25,4.86-28.61,4.08-42.92-.6-3.66,1.56-6.89,1.12-10.4-.35-1.61,.29-1.87,1.87-1.98,11.97-.6,23.95-.55,35.91-1.5,29.14-4.49,57.42-14.97,81.08-33.05,29.63-19.02,40.26-58.21,32.88-91.23-2.16-4.43-1.92-9.34-3.69-13.87-1.33-4.09-4.45-7.15-5.65-11.45-2.15-7.67-8.01-13.44-11.92-20.25-26.21-30.71-66.8-47.98-106.73-50.92-38.82,1.61-76.13,17.75-105.05,43.71-2.12,1.3-1.49,5.01-4.83,2.96-11.36-4.18-22.81-8.49-34.31-11.79-5.72-1.55-10.53-5.16-16.3-6.45-2.8-1.16-6.01,.43-8.48-1.95-21.32-7.08-43.21-12.55-65.05-18.13-5.46-1.18-11.08-1.32-16.09-4.21-9.95-.59-20-2.86-29.48-5.98-.6-.29-1.22-.43-1.84-.14-6.05,1.66-11.39-3.39-17.56-2.98-30.42-5.22-61.39-7.8-92.3-10.61C295.48-.45,268.42-.24,242.79,.52c-28.95,.14-56.98,4.64-85.08,10.69-10.87,2.37-21.23,6.64-31.79,10.16-1.7,.57-3.23,1.6-4,3.46-.45,1.11-1.32,2.09-2.5,2.38-3.46,.84-5.87,3.51-8.95,5.01-15.7,8.97-28.7,22.53-40.48,36.36-8.12,7.92-14.08,17.46-20.67,26.6-1.41,1.76-3.22,3.6-3.33,6.12-.22,3.9-4.92,4.9-5.82,8.54-2.74,5.78-4.83,11.33-8.86,16.63-10.59,22.34-19.13,46.05-24.03,70.34-3.12,17.99-5.11,36.02-6.45,54.04,.71,2.55,.9,4.97-.79,7.26-.3,4.74,1.82,9.94,1.47,14.93,.28,6.47,1.53,12.93,1.51,19.37,2.21,5.32,0,11.22,2.2,16.58,3.36,14.19,6.64,28.54,11.59,42.24,4.32,9.86,7.69,20.33,13.78,29.21,2.35,7.04,8.77,11.74,10.82,18.95,3.76,2.39,4.77,6.53,7.11,9.96,10.17,9.09,18.08,20.78,28.97,29.03,4,2.37,5.87,7.06,10.38,8.77,5.85,2.65,9.94,7.84,15.33,11.28,16.57,9.48,35.11,16.06,53.8,18.74,5.42-.88,10.31,4.3,15.44,4.32,9.77,.48,19.11,2.97,28.4,5.15,10.82,.07,21.61,2.94,32.15,4.46,27.66,3.06,55.25,7.21,83.04,9.03,54.3,4.96,108.16,5.47,162.55,6.6,6.25,.14,12.38-.28,18.54-1.18,3.15-.28,6.3,1.43,9.42,.08,5.05-2.39,10.21-1.06,15.44-.84,8.98-1.79,18.18-.76,27.07-2.79,5.1-.68-2.06,5.25-3.57,5.58-1.77,.67-3.19,1.69-4.01,3.45-15.72,10.93-23.89,20.9-14.6,40.47,2.11,4.08,.5,3.37-3.19,4.49-6.55,1.27-11.85,5.52-18.24,7.46-4.66,1.41-9.48,4.23-13.24,7.85-6.97,7.82-20.14,15.12-19.78,26.69,2.13,6.23,4.47,12.59,12.26,14.13,24.84,8.54,52.73,5.09,78.83,3.48,13.29-1.57,27.37-2.07,40.18-3.76,3.84,2.43,7.81-1.1,11.9-.58,11.8-1.14,23.6-2.17,35.45-2.11,7.7,1.34,15.16-2.98,22.72-.62,8.08-1.51,16.22-.04,24.33-.48,22.14-.91,44.39-.55,66.72,.98,21.98-.23,43.76,1.94,65.72,2.26,15.07-.56,73.04,8.66,88.24,8.18,0,0,0,0,0,0,3.59,.48,7.17,.87,10.73,1.21,8.61,3.02,17.7,1.74,26.72,2.82,20.6,1.53,40.78,6.64,61.3,8.89,25.02,5.5,50.83,12.13,76.38,6.68,5.9-.4,9.5-3.97,13.89-7.12,4.31-.65,5.2-5.29,7.63-8.25,6.61-10.15,2.17-23.28-5.78-31.31-5.33-10.8-17.78-15.45-28.47-19.85-8.02-3.21-15.72-7.3-24.18-9.34-10.9-5.29-23.14-6.86-34.74-10.61-22.15-6.21-45.15-5-67.7-8.48-25.94-1.91-51.98-1.32-77.75-5.5-3.62-1-7.39-1.33-10.8-3.44-6.21-3.23-13.99-3.01-20.11-6.77-5.17-4.28,.58-14.02-4.88-23.99-1.36-3.54,12.51-3.84,15.31-5.4,17.67-6.67,35.06-14.89,50.48-25.61,6.39-4.56,14.1-7.23,19.41-13.31,3.31-.1,4.83-3.01,7.1-4.69,5.94-3.15,10.78-7.78,16.01-11.98,3.5-3.05,4.07,4.56,5.78,6.62,19.5,31.7,48.46,56.5,76.21,80.66,1.2,.62,2.55,1.08,3.41,2.2,4.3,5.56,10.41,9.09,16.06,12.76,5.51,3.57,10,8.42,16.15,11.29,7.52,3.73,14.29,9.2,22.22,12.28,2.45,3.73,6.94,4.23,10.43,6.01,26.93,13.03,35.98-1.51,19.02-24.07-11.6-16.16-26.02-30.38-40.3-44.14-6.19-5.09-10.74-12.03-18.01-15.92-2.09-2.29-3.34-5.39-5.1-7.98,42.29,36.62,85.2,72.07,126.11,110.33,4.42,3.2,12.66,10.26,16.92,3.97,1.39-3.54,2.68-7.25,.36-10.95Z"/>
    <path class="cls-6" d="M1095.2,412.09c12.08,6.29,21.63,15.98,32.58,23.91,1.37,1.02,2.18,3.21,3.53,4.04,4.95,1.58,6.99,6.15,10.02,9.65,.84,1.88,4.98,2.98,4.66,4.78-.37,.54-1.08,.36-1.46-.01-2.05-2.02-4.55-2.76-7.35-3.08-1.84-.21-2.61-2.32-4.44-2.97-20.7-6.96-40.49-17.62-61.83-22.05-6-3.22-12.58-4.94-19.05-6.95-9.56-4-16.82-11.51-25.5-16.96-5.99-3.7-12.62-6.61-18.86-9.99-5.03-2.81,3.04-7.65,4.09-11.02,.9-1.59,2.49-1.18,3.98-1.24,28.8,3.39,56.49,14.91,79.63,31.89Z"/>
    <path class="cls-1" d="M753.24,431.98c.03-6.05,6.24-9.26,6.77-15.22,.1-.89,.83-1.93,1.58-2.47,4.79-3.31,4.42-9.8,8.86-13.17,3.89-9.74,11.2-17.19,17.2-25.5,4.93-6.83,9.63-13.94,15.38-20.03,4.51-4.79,6.99-11.17,12.69-15.01,4.79-5.27,8.75-12.47,14.47-17.08,17.29-17.53,34.07-35.61,52.57-52.1,17.06-14.38,34.44-28.57,52.24-42.13,39.91-29.88,146.34-88.85,94.91,14.1-4.31,6.91-6.86,15.17-12.16,21.32-7.32,9.56-11.77,20.9-20.54,29.36-4.68,5.17-8.53,11.18-12.37,17.06-7.58,6.38-13.21,15.56-20.18,22.82-6.16,3.79-8.44,11.46-14.49,15.29-4.67,4.13-7.23,10.16-12.97,13.33-14.28,15.19-29.3,29.49-45.6,42.31-8.26,5.6-14.51,13.62-23.05,19.11-3.77,2.16-7.62,4.77-10.99,7.55-9.31,8.04-19.45,14.67-29.99,20.89-11.31,6.44-22.38,13.75-34.46,18.68-8.97,3.08-18.02,7.31-27.43,8.11-15.05,2.78-24.68-4.36-20.22-19.71-1.12-9.8,4.13-18.82,7.79-27.51Z"/>
    <path class="cls-3" d="M766.13,498.12c.11,1.36-.67,1.72-1.91,.99-1.31-1.3-15.18-6.92-8.52-7.65,2.03-.07,3.47,1.73,5.66,1.55,1.79-.15,4.12-1.73,5.26-.05,.75,1.11-.63,3.33-.49,5.17Z"/>
    <path class="cls-5" d="M675.35,268.01c-2.31,4.46-1.17,9.37-1.68,13.98-2.97,25-6.34,49.83-13.25,74.08-1.13,3.57-4.64-2.49-3.6-4.89,7.88-32.19,12.41-64.87,14.7-97.81,1.3-3.81-2.02-14.65,3.49-15.19,2.48,.15,1.64,1.88,2.04,3.17-1.7,6.72-.16,13.8-2.01,20.55-.66,1.94,1.08,4.29,.31,6.1Z"/>
    <path class="cls-9" d="M578.26,290.13c-.23-.06-.45-.12-.68-.18,.9-8.18,4.08-16,3.17-24.34-.34-2.18,1.7-3.97,2.11-6.18,4.63-19.38,9.21-38.79,15.05-57.92,.35-2.17,1.49-.87,2.19-.13,8.97,11.07,21.01,18.37,33.74,24.42,8.09,4,17.19,5.64,25.41,9.28q4.14,2.3,3.48,7.01c.63,20.88-5.28,41.02-7.19,61.66-.47,7.33-2.15,14.42-3.99,21.53-1.57,3.07-1.57,21.59-6.33,19.28-4.6-1.75-7.82-6.87-12.96-6.9-1.88,.14-2.19-.81-1.59-2.38,14.91-36.4-17.73-76.71-52.41-45.16Z"/>
    <path class="cls-10" d="M573.97,455.6c6.38,8.2,7.13,5.6,5.74,16.6-.53,2.27-.72,7.9-4.46,5.7-3.87-1.82-7.24-4.61-9.06-7.91-2.27-4.13-6.56-6.95-7.36-12.1-5.66-10.75-8.15-22.61-11.86-34.2-3.12-8.06-1.63-16.63-3.77-25.02-.71-16.31-4.07-32.7-2.14-48.97,1.41-4-1.88-8.12,.19-12.2,1.09-2.33,.84-4.99,.33-7.5-1.3-13.31,2.37-26.58,3-39.98,5.48-46.55,15.53-92.8,34.87-135.51,11.52-30.76,52.67-90.32,78.93-38.28,1.79,4.32-6.35,1.15-8.52,3.7-1.04,.7-2.49,.25-3.72-.13-5.96-1.88-11.6-.35-17.16,1.69-12.68,10.38-21.78,24.52-27.63,39.92-5.69,10.57-10.55,21.76-13.6,33.44-.12,.97-.26,2.15-.85,2.83-3.02,3.93-3.24,9.01-4.38,13.49-12.81,48.87-22.78,99.73-22.6,150.57-.08,31.53-1.81,65.45,14.06,93.87Z"/>
    <path class="cls-12" d="M828.46,121.56c4.98,10.89,1.51,24.32-1.27,35.49-1.94,19.08-16.5,33.06-32.13,42.39-6.32,3.45-12,7.89-18.23,11.45-3.53,1.56-7.35,1.67-10.55,4.06-11.61,5.3-24.4,7.43-36.58,10.93-10.39-.26-20.66,1.53-31.03,1.82-23.27-.42-45.93-6.07-66.85-16.32-10.41-5.24-19.55-13.09-28.97-19.89-2-2.11,.76-6.2,1.79-8.41,2.81-2.67,.55-7.51,3.91-9.37,1.41-.43,1.56,1.24,2.39,1.82,9.73,8.75,21.56,13.97,33.1,19.72,21.62,8.47,45.35,13.24,68.45,10.26,49.95-1.82,106.25-31.25,115.97-83.96Z"/>
    <path class="cls-2" d="M626.64,61.67c24.13-18.24,53.42-28.62,83.37-31.83,34.02,3.09,71.06,13.88,92.37,42.52,21.51,24.32,17.01,67.01-8.66,86.61-.8,4.1-5.13,4.99-7.17,7.93-.94,1.36-2.17,2.14-3.77,2.42-5.57,3.62-10.36,8.95-17.46,10.29-28.99,15.69-66.18,18.34-98.33,11.55-14.47-4.17-28.31-10.03-41.24-17.48-3.06-3.11-12.08-6.45-12.63-10.44,4.38-10.31,11.1-19.2,18.51-27.71,8.04-7.11,19.84-6.86,30.3-7.55,8.23-.64,58.87-3.15,60-11.99-.05-1.85-1.87-2.06-3.12-2.62-14.29-8.25-30.59-11.65-46.24-16.39-4.32-.43-8.05-2.78-12.12-3.89-6.65-.29-11.82-3.56-16.65-7.77-23.48-18.27-37.17-9.24-17.16-23.65Z"/>
    <path class="cls-3" d="M689.83,114.02c-4.75,3.18-11.56,.22-17,2.67-3.47,.45-4.32-4.63-6.3-6.71-2.54-5.39,20.36,3.84,23.3,4.04Z"/>
    <path class="cls-7" d="M536.97,490.39c-14.38,.08-28.2,2.51-42.43,2.16-19.33,.5-38.42-.15-57.68,.96-2.83,.43-5.66-1.41-8.75-1.37-4.56,.32-8.87,.74-13.3-.05-5.83,.88-11.51-1.11-17.29-.84-7.94,1.24-15.88-.39-23.86-.16-25.51-1.19-50.79-4.81-76.45-5.39-9.07-1.34-18.5-3.29-27.69-2.64-17.29-3.78-35.08-5.1-52.52-8.31-13.73-.62-27.03-5.61-40.88-6.23-5.99-.2-10.93-4.85-17.12-3.84-21.01-5-43.59-10.88-61.33-23.66-2.29-2.44-4.55-5.17-8.2-5.73-2.02-.31-2.47-2.26-3.73-3.36-13.85-12.63-25.59-27.65-36.12-42.97-7.48-14.96-16.45-29.48-20.96-45.62-3.48-8.34-5.67-17.01-7.68-25.99-1.25-4.76-1.07-9.85-3.59-14.35-.89-1.59-.98-3.67-.52-5.83-.74-8.46-2.99-17.14-2.5-25.82-.02-4.57,1.1-9.16-.47-13.76-.48-1.39,.14-3.24,.49-4.82,1.29-4.74-.94-9.45,.27-14.19,.44-6.38,2.34-12.63,1.52-19.15-.79-3.58,1.73-6.78,2.51-10.08,.65-13.62,6.67-26.14,9.26-39.36,6.69-21.84,16.83-42.62,28.72-62.1,3.96-4.91,6.89-10.57,10.79-15.48,8.35-8.87,13.72-20.23,24.11-27.02,2.99-6.06,8.91-8.94,13.88-12.84,6.1-6.43,14.01-10.72,19.69-17.55,17.95-11.32,39.68-14.42,60.2-17.73,16.76-1.57,33.47-5.21,50.27-4.04,14.9-2.4,30.01,.07,44.94-1.38,8.63,.7,17.37-.09,25.82,1.61,1.57,.35,3.31-1.4,3.97-.7,1.42,1.52,2.74,.87,4.22,.84,7.1,.65,14.18,1.79,21.3,2.15,4.57,.39,9.24,.36,13.6,1.98,3.52-1.05,6.86-.07,10.32,.55,9.21,2.47,19.06,1.51,28.19,3.53,3.1,1,6.45,.86,9.45,2.31,.62,.3,1.59-.09,2.38-.22,2.54-.43,5.02-.69,7.32,.97,4.91,1.38,10.19,2.17,15.22,3.27,11.89,1.7,24.25,3.29,35.61,7.31,6.03,1.3,12.24,.9,17.83,3.85,7.15,1.34,13.97,2.71,20.83,5.24,7.56,1.56,15.45,2.98,22.52,6.21,5.13,.26,9.74,1.56,14.15,4.16,1.54,1,3.23,.99,4.94,.89,3.8,3.47,9.02,3.05,13.48,4.69,3.72,1.37,7.16,4.03,11.72,3.54,11.7,3.52,23.72,9.46,35.4,13.62,6.95,2.57,13.54,5.16,20.31,7.98,.7,.17,1.82,.4,1.8,1.36-.01,.77-1,1.03-1.67,1.19-15.68,6.49-27.05,21.41-35.4,35.59-3.94,4.21-6.86,9.28-8.82,14.59-3.18,2.1-3.29,6.05-5.42,8.78-1.08,4.76-3.01,8.87-5.27,13.19-3.6,10.1-7.67,20.31-11.12,30.28-6.81,23.84-13.9,48.75-17.65,73.54-.25,2.59,.14,5.31-1.78,7.51-.38,.44-.36,1.08-.1,1.56,1.18,2.13,.32,4.02-.58,5.94-1.29,2.73-.91,5.68-.9,8.54,.45,5.18-3.47,6.04-1.35,11.71,1.6,4.26-5.68,6.9-1.32,9.85,1.83,2.25-1.5,5.75-.02,8.67-1.75,15.63-1.77,32.01-.43,47.64-1.16,1.85,.25,3.71,.28,5.52-1.54,3.36,.46,6.36,.8,9.53,1.59,29.91,5.78,60.99,20.36,87.65,4.06,5.67,7.9,11.68,13.69,15.92,2.77,1.78,3.8,3.98,.13,4.32-9.15,1.34-18.14,2.56-27.41,1.88Z"/>
    <g id="MimHoh">
      <g>
        <path class="cls-1" d="M55.34,319.94c-5.75-1.48-3.41-5.15-3.08-8.64,.49-5.15,2.86-9.91,2.67-15.23-.07-1.85,1.31-3.97,2.53-5.6,1.18-1.56,.36-3.09,.7-4.57,1.3-5.69,2.56-11.39,4.79-16.84,1.58-3.85,2.89-7.8,4.33-11.71,.64-1.73,.09-2.87-1.17-4.31-4.21-4.8-8.63-9.45-12.25-14.76-1.78-2.61-3.96-4.95-5.91-7.44-.64-.82-1.11-.47-1.45,.15-.57,1.03-1.13,2.08-1.51,3.18-1.6,4.6-4.08,8.86-5.36,13.59-.18,.68-.44,1.54-1.27,1.63-1.18,.13-1.9,.09-.96,1.62,.45,.73-.43,1.84-1.34,2.01-1,.18-1.37-.8-1.42-1.63-.04-.7,.14-1.44,.33-2.13,1.67-6.09,3.13-12.23,5.17-18.22,.69-2.03,.6-4.26,1.74-6.21,.56-.95,.32-2.15-.3-3.13-1.94-3.06-3.9-6.11-5.87-9.15-.19-.3-.44-.59-.71-.82-1.63-1.41,.5-4.14-2.41-5.55-1.82-.88-2.22-3.98-2.57-6.35-.04-.25,.04-.51,.09-.96,3.63,1.35,5.32,4.57,7.28,7.3,2.22,3.1,4.66,5.94,7.63,8.89,1.3-4.56,3.77-8.32,5.03-12.66,.77-2.65,2.53-4.99,3.62-7.56,2.88-6.75,5.99-13.37,9.73-19.69,3.21-5.41,5.75-11.21,9.31-16.42,.84-1.23,1.3-2.21,.25-3.62-.54-.72-.5-1.86-.73-2.83-.75-.26-.79,1.52-1.7,.63-.72-.71-1.34-1.6-1.18-2.64,.1-.66,.65-1.25,.99-1.87,1.13,.89,2.47,1.62,3.34,2.71,1.47,1.85,1.85,1.76,3.4-.05,4.15-4.85,6.41-10.91,10.38-15.83,4.94-6.11,8.84-12.99,14.17-18.82,1.69-1.84,2.28-4.46,3.87-6.45,.69-.87,.26-1.88-.59-2.65-2.07-1.87-3.3-4.57-5.89-5.97-.71-.39-1.01-1.24-1.16-2.43,2.06,.86,4.46,.69,4.79,3.57,.07,.63,.71,.75,1.25,.87,.53,.11,1.07,.18,1.58,.34,1.47,.44,2.29,2.78,4.22,1.68,1.35-.77,1.95-2.36,2.76-3.66,2.16-3.5,5.59-5.89,7.98-9.17,1.44-1.97,2.73-4.05,4.3-5.9,2.14-2.52,3.48,.12,4.95,1.08,1.61,1.04,.57,1.96-.42,2.72-.91,.69-1.41,1.41-1.41,2.71,0,1.69-1.55,2.65-2.75,3.52-2.32,1.69-4.11,3.76-5.39,6.27-1.04,2.04-2.38,3.78-3.94,5.47-1.19,1.29-2.43,3.03-.15,4.84,6.33,5.03,11.57,11.2,17.35,16.81,2.65,2.57,4.75,2.64,6.45-.57,1.89-3.58,4.65-6.48,7.1-9.58,2.72-3.45,5.83-6.65,8.87-9.87,2.73-2.89,4.89-6.43,7.57-9.5,1.72-1.97,3.71-3.75,5-6.08,.25-.45,.77-.8,.58-1.43-1.81,1.2-.96-2.88-2.88-1.45-.49,.36-.81,.08-1.17-.22-2.46-2.04-5.18-3.84-7.35-6.15-3.51-3.75-7.84-6.52-11.39-10.2-.89-.92-1.81-.48-2.62,.3-2.6,2.53-5.07,5.18-6.99,8.27-1.86,2.98-2.22,3.13-5.38,1.6-.08-.04-.16-.08-.25-.12-3.6-1.54-3.48-1.42-.68-4.22,3.07-3.07,5.94-6.36,8.82-9.62,1.72-1.95,.24-3.31-1.13-4.53-.66-.58-1.86-.89-.97-2.02,.8-1.01,1.64-.17,2.38,.3,3.47,2.21,4.21,2.03,7.16-1.18,6.75-7.31,13.8-14.34,21.47-20.68,2.23-1.84,4.4-3.73,6.59-5.62,1.56-1.35,2.88-1.02,3.3,.7,.08,.32,.14,.9-.02,.99-3.29,1.98-4.62,5.76-7.77,8.04-3.09,2.24-5.34,5.62-8.32,8.17-1.71,1.46-3.18,3.22-4.62,4.97-2.77,3.36-5.54,6.7-8.99,9.42-1.14,.9-2.13,1.42,0,3.09,3.23,2.52,6.59,4.95,9.63,7.79,3.74,3.49,8.05,6.39,12.16,9.47,1.24,.93,2.54,.4,3.42-.61,2.75-3.13,6.39-5.34,8.87-8.74,.53-.73,1.02-.69,1.35,.18,.21,.57,.17,1.27,1.48,1.95-2.15-4.74,1.12-6.48,3.72-8.82,4.08-3.67,7.81-7.73,11.8-11.51,1.79-1.69,3.41-3.91,6.45-3.33,.55,.1,1.13-.33,1.21-.9,.83-5.81,6.37-7.46,9.72-11.04,1.18-1.27,2,.85,3.14,.51-.79-2.5-.8-2.52,1.51-4.02,3.12-2.03,5.13-5.37,8.43-7.19,3.44-1.89,6.42-4.44,9.61-6.68,1.38-.97,3.8-1.76,4.57-.43,.72,1.24-1.54,2.3-2.93,2.88-1.77,.74-2.94,2.16-4.07,3.53-2.78,3.37-5.93,6.32-9.48,8.84-2.25,1.6-3.82,3.9-5.85,5.75-2.29,2.09-5.32,3.26-7.12,6.05-.56,.87-1.74,1.75-2.45,2.73-2.75,3.84-6.77,6.38-9.9,9.84-5.61,6.19-11.85,11.81-17.14,18.3-1.42,1.74-3.24,2.84-4.94,4.16-.82,.63-1.51,.23-2.26-.13-.84-.4-1.78-.73-2.46,.22-.67,.93,.18,1.65,.46,2.48,1.75,5.13,6.64,7.06,10.34,10.16,6.35,5.31,12.9,10.37,19.38,15.51,2.57,2.04,4.75,1.91,6.54-.94,2.94-4.69,7.38-7.95,10.98-11.99,3.83-4.3,7.82-8.48,12.36-12.14,1.61-1.3,2.05-.2,3.52,.61-1.42-3.05,.4-4.28,1.94-5.8,3.7-3.67,6.93-7.86,11.14-10.97,4.02-2.98,7.12-6.85,10.76-10.19,1.19-1.09,2.39-2.15,4.02-2.7,1.53-.51,1.89-2.49,1.01-3.84-1.15-1.77-3.02-2.55-4.66-3.65-.68-.45-1.42-.82-2.05-1.34-.78-.65-1.07-1.59-.47-2.43,.61-.86,1.29-.03,1.9,.25,2.81,1.32,4.89,3.76,7.74,5.04,.97,.44,1.6,.71,2.64-.12,6.49-5.2,12.8-10.64,19.3-15.83,4.07-3.25,8.6-5.96,12.32-9.66,.74-.74,1.83-1.7,2.76-.4,.94,1.33-.18,2.19-1.24,2.79-2.85,1.62-4.6,4.51-7.31,6.3-.69,.46-.95,1.68-2.14,.89-.46-.3-.71-.08-.6,.4,.58,2.44-1.48,3.37-2.78,4.57-1.72,1.59-3.34,3.52-5.27,4.64-3.74,2.18-5.63,5.97-8.72,8.64-1.52,1.31-1.09,2.22-.13,3.39,1.48,1.8,3.71,2.56,5.57,3.8,4.65,3.1,9.59,5.76,14.31,8.77,.75,.48,3.5,.74,1.14,2.92-.68,.63,.45,.98,1.03,.67,1.87-1.02,3.34-.05,4.78,.89,2.1,1.37,4.14,2.84,6.2,4.26,.07,.05,.24,.06,.24,.1,.19,3.84,3.22,2.18,5.17,2.81,3.3,1.07,6.01,3.32,8.78,5.37,6.12,4.52,6.88,4.54,11.93-1.2,2-2.27,4.02-4.42,6.74-5.8,1.51-.77,1.37-2.59,2.55-3.69,3.89-3.64,8.05-7.02,11.73-10.83,3.28-3.39,6.94-6.31,10.37-9.5,1.26-1.18,2.44-2.4,4.59-2.52,1.05-.06,2.34-2.01,2.87-3.36,.46-1.17,.99-2.19,1.96-2.79,3.76-2.33,6.58-6.04,10.98-7.42,.86-.27,.91-1.04,1.17-1.7,.45-1.15,1.29-1.72,2.53-1.68,.75,.03,1.49,.21,1.85,.93,.38,.76,.05,1.44-.56,1.94-2.41,1.97-3.79,5.21-7.27,5.88-.3,.06-.63,.39-.79,.68-3.52,6.52-9.95,10.35-14.67,15.78-2.28,2.63-5.32,4.54-7.41,7.48-2.14,3.01-5.31,5.13-7.93,7.75-1.85,1.85-3.49,3.88-5.35,5.71-3.4,3.36-6.54,7-9.71,10.58-.86,.97-1.95,.72-3.8,.76,4.36,2.94,7.85,5.64,11.9,7.62,3.66,1.8,7.42,3.64,10.54,6.19,2.85,2.34,6.09,3.84,9.23,5.44,5.3,2.71,10.5,5.57,15.59,8.64,2.49,1.5,5.06,2.86,7.81,3.82,.79,.28,1.46,.68,2.1,1.21,3.26,2.7,4.25,2.75,7.08-.23,4.11-4.32,8.04-8.81,12.11-13.17,1.79-1.92,3.63-3.81,5.62-5.51,3.92-3.34,7.02-7.52,10.91-10.85,4.31-3.7,8.11-7.91,12.5-11.57,3.51-2.92,7.06-5.98,10.32-9.32,2.33-2.39,5.1-4.5,7.66-6.76,3.72-3.29,7.63-6.36,11.49-9.5,.91-.74,1.88-1.41,2.88-2.01,.49-.29,1.1-.17,1.39,.42,.24,.5,0,.93-.47,1.1-1.97,.69-2.28,2.8-3.34,4.19-.95,1.25-1.74,2.75-2.84,3.91-1.66,1.74-3.64,3.13-5.38,4.84-4.51,4.42-8.91,8.97-13.4,13.4-5.5,5.44-10.66,11.21-16.4,16.43-2.55,2.32-4.5,5.31-6.7,8.02-.81,1-1.53,2.12-3.12,1.51-.49-.19-.74-.16-.93,.48-.92,3.08-3.15,5.16-5.61,7.02-2.2,1.67-2.64,4.6-4.96,6.33-2.11,1.58-3.53,4.08-5.35,6.09-.96,1.07-.93,1.78,.23,2.65,2.39,1.79,4.77,3.32,7.79,4.2,5.03,1.47,9.55,4.26,14.13,6.86,3.6,2.05,7.45,3.68,11.23,5.41,3.53,1.62,7.06,3.22,10.55,4.95,3.22,1.61,6.57,2.94,9.73,4.74,1.71,.97,3.5,.07,4.34-1.68,1.91-4,5.69-6.29,8.6-9.29,4.21-4.33,8.9-8.23,12.77-12.88,2.18-2.62,4.76-4.73,7.25-6.95,3.78-3.38,6.93-7.45,10.83-10.61,3.42-2.78,5.88-6.94,10.6-8.06,.63-.15,1.54-.85,1.59-1.37,.37-3.51,3.73-4.45,5.59-6.63,.84-.99,2.25-1.51,2.81-2.84,.63-1.49,1.65-.16,2.66-.26-.54-2.01,.24-3.2,2.1-3.77,.9-.27,1.49-1,2.09-1.69,.53-.61,1.06-1.47,1.74-1.65,1.89-.49,3.57-1.1,4.17-3.34-.04,3.18-1.35,5.11-3.61,7.3-1.89,1.83-3.95,3.97-5.61,6.23-.77,1.05-1.89,1.65-2.8,2.47-1.01,.9-1.5,2.36-2.52,3.45-5.19,5.56-10.82,10.71-15.84,16.39-5.47,6.18-11.82,11.45-17.16,17.76-4.31,5.1-9.16,9.73-13.75,14.59-1.74,1.84-3.13,4.01-5.29,5.44-1.33,.88-.46,1.26,.34,1.92,3.47,2.88,8.13,3.01,11.84,5.28,4.19,2.56,8.88,4.11,13.39,5.8,3.95,1.48,7.65,3.44,11.59,4.9,2.34,.87,3.92,3.02,6.57,3.55,2.8,.56,5.47,1.73,8.19,2.66,1.23,.42,2.14,.24,2.55-1.14,.07-.25,.19-.58,.39-.7,.97-.61,1.55-2.75,2.64-1.95,1.31,.96-.21,2.22-.99,3.16-1.27,1.54-.49,2.64,.68,3.73,.45,.42,1.09,1,.65,1.62-.51,.73-1.12-.02-1.66-.23-2-.79-5.45,.68-6.55,3.25-1.1,2.58-2.82,4.51-4.6,6.59-3.98,4.65-7.3,9.89-11.38,14.45-6.61,7.41-11.13,16.44-18.42,23.33-1.74,1.64-2.77,4-4.19,6-3.65,5.14-7.61,10.05-11.45,15.04-1.73,2.24-3.25,4.76-4.77,7.22-.9,1.46-.58,2.32,.98,2.92,6.67,2.56,13.39,5.01,20.04,7.62,5.11,2,10.19,4.2,15.24,6.42,4.02,1.77,8.26,3.14,12.27,5.03,.16,.07,.37,.04,.53,.11,1.29,.51,3.34,1.29,2.96,2.41-.5,1.5-2.27,.41-3.57,.09-1.84-.45-3.69-.59-5.22-2-1.01-.93-2.15,.43-3.36,.31-2.67-.25-5.03-1.5-7.57-2.14-9.21-2.34-18.26-5.29-27.1-8.74-2.84-1.11-5.76-1.97-8.56-3.16-1.94-.83-3.23-.65-4.5,1.32-4.57,7.07-9.12,14.18-14.09,20.96-3.14,4.29-5.28,9.13-8.46,13.39-3.81,5.1-7.09,10.58-10.16,16.17-.77,1.41-2,2.56-2.93,3.9-.89,1.29-.76,2.4,.54,3.54,1.83,1.6,4.04,2.47,6.18,3.37,6.19,2.6,11.65,6.64,17.73,9.28,3.91,1.7,7.56,3.99,11.76,5.26,4.54,1.36,8.76,3.93,12.92,6.3,3.13,1.78,6.63,2.78,9.6,4.92,1.48,1.07,2.27-.75,2.68-1.82,1.47-3.8,3.62-7.26,5.52-10.81,6.4-11.96,13.23-23.7,20.52-35.14,2.25-3.53,5.02-6.73,7.09-10.4,.15-.27,.53-.6,.78-.58,.58,.05,.56,.62,.6,1.06,.15,1.88-.35,3.91-1.28,5.2-3.06,4.26-4.87,9.17-7.66,13.55-1.26,1.97-2.09,4.2-3.13,6.31-.48,.96-.82,2.1-2.27,1.94-.35-.04-.65-.08-.57,.53,.33,2.56-1.04,4.6-2.17,6.71-2.2,4.1-4.52,8.12-6.22,12.51-1.46,3.78-3.59,7.3-5.44,10.93-1.53,3.01-.71,4.91,2.66,5.73,.96,.23,1.56,.52,1.44,1.53-.14,1.17-.99,1.4-2.01,1.27-.18-.02-.35-.09-.53-.1-1.41-.12-2.74-1.78-4.07-.77-1.42,1.08-2.43,2.74-3.02,4.46-2.25,6.58-5.27,12.84-7.76,19.33-3.14,8.2-5.04,16.77-8.18,24.96-.63,1.65,.85,3.95,3.01,3.99,3.79,.06,6.2,2.6,9.03,4.36,.82,.51,1.65,.99,2.6,1.38-1.58,2.68-3.85,1.92-5.67,.9-2.42-1.35-5.13-1.77-7.58-2.96-2.14-1.03-3.61,.45-4.24,3.36-1.25,5.78-2.39,11.59-3.71,17.36-1.07,4.7-2.82,9.27-3.23,14.13-.08,.93-.23,2.01-1.22,2.52-2.19-2.19-2.05-4.86-1.69-7.56,.67-5.08-.4-10.2,.64-15.31,1.09-5.32,2.09-10.66,3.43-15.92,.3-1.16,.28-1.76-.86-2.4-4.49-2.54-9.29-4.72-14.02-6.34-9.91-3.41-19.01-8.58-28.82-12.14-3.56-1.29-6.86-3.48-10.58-4.62-.84-.26-1.49-1-1.91-1.9,.42-.62,1.75,.8,1.73-.73,0-.71,.18-1.53-.6-1.96-.83-.46-1.41,.1-1.78,.76-.76,1.37-1.8,1.19-3.03,.78-2.67-.9-5.34-1.73-7.55-3.62-1.22-1.05-2.17-1.21-2.96,.83-1.19,3.1-3.66,5.55-4.69,8.83-1.49,4.74-4.55,8.81-5.97,13.6-.39,1.33-.81,2.59-2.11,3.35-.35,.21-.79,.63-.82,.98-.29,4.29-2.08,8.2-4.15,11.68-2.4,4.03-3,8.71-5.76,12.65-1.98,2.81-2.87,6.53-4.37,9.79-.28,.6-.3,1.7-1.29,1.42-.88-.25-1.54-1.13-1.44-2.1,.15-1.43,.28-2.88,.88-4.24,.89-2.02,1.14-3.84-1.75-4.51-.74-.17-1.74-.77-1.29-1.73,.53-1.14,1.4-.22,2.08,.06,1.67,.69,5.26-1.79,4.74-3.52-.98-3.28,.52-6.08,1.45-8.91,1.94-5.91,4.35-11.66,6.37-17.55,.81-2.34,2.11-4.4,3.14-6.61,.62-1.32,1.28-2.57,1.55-4.02,.29-1.54,.73-3.03,2.64-3.32-.3-1.41-1.01-2.78-.02-4.25,.91-1.35,1.6-2.84,2.46-4.22,1.46-2.35,.65-3.84-1.67-4.94-6.13-2.9-12.32-5.68-18.3-8.85-3.34-1.77-7.21-2.93-9.39-6.45-.34-.54-.82-.15-1.19-.27-2.88-.99-5.99-1.43-8.12-4.06-1.08-1.33-2.97-1.59-4.43-2.48-1.89-1.15-3.48-2.89-5.9-3.31-1.8-.31-2.81,.09-3.36,1.76-2.04,6.25-5.97,11.57-8.6,17.53-1.94,4.38-3.99,8.72-6.08,13.02-2.13,4.38-4.43,8.67-6.57,13.04-1.03,2.11-1.19,4.52-2.26,6.66-.53,1.06,.51,1.57,1.36,1.97,5.94,2.83,11.4,6.53,17.4,9.31,3.52,1.63,6.68,4.58,10.19,6.02,4.84,2,8.98,5.11,13.71,7.17,1.69,.74,3.64,1.36,4.05,3.64,.17,.97,.55,.28,.86,.04,1-.77,1.7-.06,2.36,.55,.48,.44,.33,.97,.03,1.48-.49,.84-1.25,1.02-2.11,.85-2.34-.45-4.37-1.66-6.49-2.66-.65-.31-1.25-1.05-1.87-1.04-5.61,.04-10.23-3.14-15.04-5.14-9.15-3.8-18.53-7.14-27.33-11.76-1.32-.69-2.15-.5-2.96,.73-.63,.97-1.1,2.09-2.13,2.75-.15-.12-.38-.24-.37-.32,.81-4.68,.04-6.27-4.8-7.81-4.41-1.4-8.14-3.96-11.97-6.33-2.73-1.69-5.53-3.1-8.59-4-2.95-.87-5.18-2.94-7.65-4.58-2.65-1.76-5.17-3.6-8.39-4.33-2.13-.48-4.07-1.6-4.72-3.99-.14-.5-.08-.83-.79-.5-2.25,1.05-3.57-.3-4.57-2.03-1.33-2.32-3.75-2.45-5.12-.06-1.48,2.59-2.83,5.27-4.09,7.98-3.04,6.57-6,13.17-8.96,19.77-.71,1.58-1.36,3.16-2.38,4.58-1.09,1.51-2.38,2.88-2.33,4.99,.02,.98-.73,1.83-1.41,2.58-.36,.39-.72,1.03-1.31,.73-.87-.43-.03-1.04-.02-1.56,.09-6.76,3.08-12.75,5.15-18.94,1.91-5.7,3.16-11.63,5.92-17.06,1.3-2.55,1-5.64,2.65-8.18,.76-1.16-.33-2.47-1.46-2.79-3.29-.9-5.54-3.41-8.36-5.01-1.93-1.09-4.41-1.01-5.92-3.04-.82-1.11-1.53-2.03-.63-3.38,.4-.6,.95-1.26,.28-1.94-.7-.71-1.81-.98-2.49-.33-2.65,2.53-4.26,.58-6.48-.88-3.54-2.33-6.67-5.23-10.44-7.24-2.2-1.17-4.43-2.57-5.13-5.31-.1-.39-.32-.65-.75-.62-4.48,.34-6.91-3.4-10.27-5.26-1.69-.94-2.29-.99-3.28,.78-1.84,3.28-2.27,7.07-4.07,10.34-.79,1.42-1.31,2.98-2.39,4.26-.72,.85-1.1,1.84-.9,3.01,.07,.42,.12,1.09-.12,1.28-2.49,2.01-2.12,5.25-3.4,7.76-.41,.81-.94,1.87-1.96,1.48-1.04-.39-.26-1.43-.16-2.16,1.34-9.16,3.62-18.08,6.89-26.73,1.57-4.18,1.18-5.14-2.17-8.07-5.57-4.87-10.79-10.23-17.1-14.09-3.89-2.39-7.59-5.3-10.48-8.37-3.73-3.96-8.26-6.86-12.05-10.68-3.22-3.25-6.49-6.64-10.52-9.21-3.51-2.24-6.36-5.56-9.34-8.56-1.71-1.73-2.42-1.41-3.01,.77-2.19,8.11-5.13,15.98-8.45,23.66-1.29,2.98-2.7,6.22-3.03,9.08-.58,5.05-2.9,9.27-4.64,13.69-3.24,8.25-4.04,17.24-8.15,25.18-2.91,5.62-3.04,12.1-5.36,17.94-.76,1.91-1.76,2.6-3.38,1.92-1.28-.53-3.64,.12-2.91-3.2,1.56-7.02,2.37-14.23,3.66-21.3,1.08-5.89,2.15-12.09,4.73-17.44,2.21-4.57,1.3-9.55,3.43-13.87,3.13-6.35,3.78-13.53,6.9-19.9,1.39-2.82,1.84-6.04,2.86-9.05,1.83-5.38,4.34-10.5,5.95-15.97,.43-1.47,.53-2.38-.73-3.24-2.72-1.88-4.58-4.54-6.57-7.11-1.34-1.72-3.01-3.13-4.71-4.5-1.02-.82-2.72-1.49-1.86-3.42,.25-.54-.17-.55-.5-.66-2.91-.97-4.72-3.14-6.41-5.57-1.02-1.47-2.49-2.63-3.8-3.88-1.21-1.16-2.15-.81-2.65,.67-.49,1.45-1.12,2.93-1.2,4.42-.23,4.11-2.73,7.44-3.6,11.29-1.02,4.49-2.14,9.1-4,13.16-2.23,4.87-2.61,10.09-4.32,15.03-2.82,8.16-5.36,16.49-7.33,24.96-1.02,4.4-2.57,8.67-3.87,13-.2,.65-.49,1.23-1.28,1.14-.72-.09-1.09-.61-1.21-1.29-.08-.44-.16-.92-.09-1.35,1.43-8.65,1.18-17.5,3.13-26.09,.38-1.69,.45-1.68,4.58-1.46ZM325.42,117.86c-.7,1.64,.09,3.58-1.32,4.36-4.29,2.38-4.95,8.28-9.87,9.97-1.25,3.25-3.73,5.62-5.77,8.33-2.31,3.06-5.29,5.49-7.41,8.75-1.08,1.66-2.83,3.01-3.91,4.8-4.01,6.7-9.29,12.46-13.85,18.75-1.4,1.94-1.41,2.9,.55,4.03,.7,.41,1.36,.89,2.04,1.35,4.42,2.96,9.08,5.63,13.18,8.98,3.28,2.69,6.96,4.75,10.43,7.02,7.16,4.69,14.77,8.74,22,13.37,1.67,1.07,3.29,2.23,4.99,3.26,1.7,1.03,2.98,.96,4.28-1,3.26-4.88,6.38-9.89,10.22-14.36,3.48-4.05,6.93-8.19,10.04-12.44,4.07-5.56,8.9-10.42,13.05-15.87,2.34-3.07,5.49-5.53,7.87-8.57,3.83-4.9,7.99-9.52,12.14-14.13,1.13-1.26,1.04-1.84-.35-2.68-2.55-1.54-5.14-2.98-7.75-4.41-8.15-4.47-16.15-9.24-24.1-14.06-6.88-4.18-13.68-8.51-20.41-12.92-4.69-3.08-6.61-2.66-8.92,2.33-.21,.45-.74,.79-1.19,1.07-1.2,.75-2.08,1.74-2.55,3.08-.31,.89-.95,1.49-1.63,2.12-1.29,1.19-1.49,.14-1.75-1.14Zm-52.94,50.4c1.26,.32,2.09-.17,2.44-1.06,1.38-3.51,4.33-5.73,6.66-8.47,3.46-4.06,6.52-8.43,10.05-12.46,2.21-2.53,5.14-4.53,6.5-7.8,.89-2.15,2.46-3.71,4.45-4.93,.9-.55,1.73-1.37,2.09-2.45,.64-1.92,2.05-3.31,3.61-4.31,1.88-1.2,3.12-2.55,4.27-4.55,1.59-2.76,4.29-4.86,6.43-7.33,2.94-3.39,5.85-6.8,9.2-9.8,.91-.81,1.34-1.8,.06-2.71-3.88-2.77-7.57-5.87-11.7-8.21-8.53-4.82-16.22-10.89-24.53-16.02-2.31-1.42-4.35-3.25-6.48-4.94-1.19-.94-2.81-1.59-4.25-2.32-2.01-1.02-2.89-3.71-5.46-3.75-2.67-.04-3.56,2.58-5.31,3.91-4.75,3.62-8.56,8.25-12.92,12.3-5.92,5.51-10.68,12.24-17.4,16.96-.4,.28-.49,.65-.69,1.04-1.97,3.8-4.67,7.05-7.83,9.9-4.77,4.31-9.6,8.52-13.14,14-1.54,2.39-1.59,3.15,.86,4.68,2.23,1.39,4.28,3.05,6.44,4.47,2.99,1.96,4.89,5.05,8.38,6.59,3.65,1.61,6.74,4.53,9.96,7.02,2.13,1.65,3.85,3.9,6.12,5.27,6.51,3.94,12.54,8.5,18.43,13.29,1.17,.95,2.58,1.28,3.76,1.67Zm186.68,6.09c-.63-1.61-2.29-2.01-3.71-2.68-5.74-2.67-11.86-4.51-17.34-7.78-.85-.51-1.73-1-2.66-1.36-2.69-1.03-5.19-2.07-7.44-4.21-1.92-1.83-5.28-1.63-7.8-3.12-4.65-2.75-9.9-4.34-14.51-7.21-1.39-.86-3.39-1.16-4.25,.24-1.49,2.43-3.77,4.18-5.19,6.57-4.23,7.14-11.07,12.04-15.84,18.78-1.86,2.63-4.16,5.45-6.4,7.98-3.95,4.46-7.47,9.48-11.16,14.26-4.68,6.06-9.6,11.93-13.75,18.39-1.25,1.95-.94,3.3,1.12,4.38,.56,.29,1.15,.54,1.68,.89,11,7.17,22.98,12.59,34.24,19.3,3.28,1.96,7,3.01,10.12,5.25,2.48,1.78,3.58,1.49,5.14-1.23,.72-1.25,.8-3.08,2.17-3.68,2.31-1.01,3.39-3.29,4.54-4.99,2.26-3.33,4.91-6.29,7.36-9.44,7.21-9.25,14.58-18.39,22.83-26.72,3.75-3.78,6.62-8.25,10.51-11.88,3.01-2.81,5.79-5.87,8.68-8.81,.78-.79,1.35-1.7,1.66-2.94Zm.54,99.33c1.71-.08,2.75-.75,3.59-1.99,2.09-3.05,4.19-6.09,6.47-9,4.29-5.45,8.57-10.92,13.13-16.14,2.75-3.15,4.69-6.97,7.75-9.78,2.6-2.39,4.95-5.03,6.87-7.86,3.88-5.74,8.94-10.44,13.16-15.86,3.53-4.54,7.88-8.41,11.38-13.01,.64-.84,1.1-1.99-.1-2.13-3.52-.41-6.35-2.53-9.63-3.46-3.82-1.09-7.88-1.77-11.37-3.54-5.22-2.66-10.8-4.33-16.15-6.59-4.56-1.93-9.45-3-13.77-5.63-2.37-1.45-4.59-.9-5.82,1.49-1.11,2.17-2.61,3.8-4.39,5.38-1.03,.91-2.7,1.37-3.14,2.38-1.44,3.26-3.94,5.44-6.35,7.88-3.46,3.52-6.16,7.69-9.61,11.33-3.87,4.07-7.87,8.21-11.14,12.89-.89,1.27-2.66,1.97-3.22,3.17-2.37,5.1-5.98,9.16-9.74,13.22-2.69,2.91-5.81,5.59-7.17,9.56-.25,.75-.73,1.53-1.33,2.03-1.72,1.45-.94,2.09,.64,2.81,4.18,1.92,8.3,4.01,12.38,6.11,6.41,3.29,13.41,5.48,19.2,9.97,.19,.15,.53,.22,.76,.17,1.87-.36,3.43,.47,4.82,1.46,2.77,1.96,6.17,2.44,9.1,4.04,1.16,.64,2.59,.8,3.68,1.11Zm-255.68,11.15c.39-1.37-.24-2.47-1.37-3.43-3.15-2.68-6.24-5.44-9.43-8.08-3.06-2.53-6.44-4.72-9.25-7.49-3.45-3.39-7.99-5.6-10.58-9.88-.04-.07-.15-.09-.23-.14-3.39-2.21-5.83-5.48-9.2-7.79-3.26-2.23-5.83-5.46-8.71-8.18-2.97-2.82-6.39-5.28-9.04-8.47-1.22-1.47-1.87-1.19-2.44,.2-1.01,2.51-4.26,3.93-3.52,7.31,.08,.39-.45,.98-.81,1.38-1.25,1.39-1.91,3.04-2.36,4.83-.3,1.22-.56,2.54-1.48,3.47-3.14,3.16-4.19,7.5-6.29,11.24-2.58,4.6-3.32,10.14-7.11,14.16-.46,.49-.76,1.31-.78,1.99-.05,1.73-.81,3.18-1.65,4.56-1.48,2.44-1.99,5.24-3.17,7.79-.75,1.61-.39,3.05,1.1,4.35,2.45,2.14,5.18,4.04,7.42,6.31,5.09,5.16,10.85,9.53,16.15,14.43,5.8,5.35,12.14,10.11,18.21,15.17,.46,.38,.9,1.01,.97,1.57,.18,1.34,.63,1.98,2.1,1.59,.77-.2,1.34,.42,1.93,.84,4.48,3.22,8.99,6.39,13.43,9.68,1.54,1.14,2.45,.82,3.1-.83,.26-.67,.44-1.38,.65-2.06,1.34-4.21,2.39-8.53,4.11-12.58,1.19-2.81,2.69-5.48,3.79-8.37,2.27-6,4.6-12.01,7.4-17.78,2.16-4.46,3.23-9.49,6.69-13.29,.63-.69,.41-1.54,.38-2.49Zm62,44.86c.01-1.39-1.17-1.98-2.12-2.51-4.52-2.55-8.14-6.33-12.57-8.99-2.86-1.71-5.07-4.57-7.89-6.06-5.38-2.85-9.95-6.75-14.85-10.21-4.67-3.3-8.97-7.13-13.48-10.66-.92-.72-2.28-1.97-2.95,.17-1.14,3.68-4.32,6.58-4.1,10.78,.02,.4-.28,.86-.53,1.24-4.39,6.84-6.85,14.62-10.63,21.75-.79,1.49-.32,3.25-1.23,4.69-3.33,5.32-5.08,11.37-7.87,16.94-.93,1.86-.34,2.91,1.33,4,6.12,4.01,12.09,8.27,18.25,12.22,2.02,1.29,3.06,3.58,5.31,4.52,3.11,1.31,5.79,3.32,8.48,5.29,4.14,3.03,8.35,5.97,13.01,8.13,1.88,.87,3.89,1.3,5.08,3.31,.64,1.08,1.46,1.01,2.21-.29,3.28-5.63,5.31-11.84,8.21-17.65,2.82-5.65,5.08-11.58,7.76-17.31,1.71-3.66,3.85-7.11,5.54-10.78,1.26-2.75,2.83-5.43,3.03-8.6Zm-7.4-86.63c2.43-2.16,3.93-.58,5.61,.56,6.92,4.65,12.96,10.45,20.01,14.94,4.79,3.05,8.8,7.24,14.02,9.76,1.49,.72,2.12,.75,3-.66,1.78-2.86,3.44-5.85,5.29-8.57,2.94-4.31,5.25-9.06,8.72-13.06,1.34-1.54,3.05-3.18,3.5-5.36,.34-1.66,1.3-2.76,2.52-3.73,.64-.51,1.3-.94,1.73-1.7,2.79-4.96,5.51-9.97,9.25-14.3,1.29-1.49,1.18-2.59-.31-3.58-5.64-3.75-10.51-8.67-17.03-11.06-.42-.15-.8-.43-1.17-.69-8.97-6.39-18.59-11.83-27.35-18.52-2.38-1.82-5.67-2.56-7.31-5.04-1.39-2.11-1.83-1.13-2.72,.03-2.97,3.87-5.31,8.21-8.15,12.12-4.67,6.45-9.31,12.88-13.52,19.64-1.02,1.63-2.03,3.12-2.53,4.98-.18,.67-.69,1.27-1.08,1.88-1.3,2.07-2.61,4.15-3.93,6.21-1.19,1.85-.62,3.45,1.04,4.44,3.21,1.92,5.87,4.52,8.85,6.71,1.6,1.18,2.87,2.32,1.55,4.98Zm-51.92,32.32c1.81-.16,2.38-1.34,2.94-2.48,.48-.97,.75-2.06,1.31-2.97,3.36-5.38,6.48-11.01,8.56-16.88,2.26-6.34,7.84-10.7,9.23-17.35,.07-.32,.41-.59,.64-.87,1.04-1.28,1.69-2.76,2.36-4.26,.76-1.69,.41-2.78-.96-4.03-2.83-2.56-6.13-4.54-8.94-7.02-3.94-3.47-8.12-6.64-12.03-10.14-6.12-5.5-12.31-10.92-18.3-16.53-4.36-4.08-9.31-7.45-13.44-11.76-1.05-1.1-1.73-.78-2.82,.36-2.67,2.78-4.4,6.2-6.68,9.23-3.04,4.04-5.27,8.7-8.27,12.78-1.3,1.77-1.21,4.1-2.64,5.5-4,3.94-5.53,9.33-8.5,13.85-.73,1.11-.54,2.05,.58,2.79,.61,.4,1.34,.68,1.8,1.2,4.81,5.39,10.29,10.06,15.66,14.87,4.96,4.45,10.32,8.39,15.22,12.94,7.63,7.09,16.56,12.73,23.61,20.53,.2,.22,.62,.24,.68,.26Zm248.02,7.3c1.08-2.72-1.38-2.98-3-3.76-5.61-2.68-11.18-5.45-17.04-7.55-3-1.08-5.52-3.45-8.3-4.28-5.04-1.51-8.81-5.49-14.16-6.3-1.82-.28-3.56-1.98-5.43-2.9-2.88-1.41-3.96-1.36-5.82,1.24-1.79,2.49-3.5,5.04-5.26,7.55-.86,1.23-2.82,1.24-2.92,3.27-.17,3.41-3.4,4.97-5.03,7.52-.3,.47-.96,.53-1.51,.4-3.04-.7-3.47,.89-3.04,3.35,.09,.5-.1,1.06-.2,1.58-.98,5.03-4.31,8.8-6.89,12.99-2.92,4.74-6.72,8.98-8.15,14.57-.26,1.03-.31,1.65,.68,2.26,2.62,1.62,5.05,3.59,7.79,4.96,9.02,4.51,17.3,10.33,26.48,14.52,3.97,1.81,7.36,4.63,11.41,6.27,1.79,.72,3.06,.61,3.95-1.35,.78-1.72,1.63-3.48,2.8-4.94,4.23-5.3,6.91-11.59,11.07-16.94,1.81-2.33,3.81-4.66,5.22-7.15,3.22-5.7,7.12-10.9,10.67-16.35,1.68-2.57,3.65-4.97,6.3-6.66,.92-.59,.8-1.31,.38-2.28Zm-186.79-107.23c-.09-1.19-.78-1.66-1.43-2.16-5.46-4.15-10.95-8.27-16.4-12.43-7.54-5.77-15.01-11.62-22.59-17.33-4.17-3.14-8.3-6.31-12.29-9.68-1.75-1.48-3.2-1.35-4.8,.6-4.59,5.59-8.48,11.73-13.78,16.79-2.27,2.17-4.11,4.99-5.91,7.52-2.99,4.19-5.47,8.73-9.1,12.5-1.28,1.34-1,2.71,.48,4.21,4.95,5.05,10.78,9.07,16,13.78,9.13,8.24,18.27,16.48,27.95,24.08,3.13,2.46,6.16,5.06,9.25,7.57,.77,.63,1.58,1.41,2.47,.07,1.54-2.34,3.67-4.47,4.56-7.03,1.99-5.73,6.46-9.76,9.42-14.82,4.28-7.29,9.79-13.85,14.72-20.75,.67-.94,1.04-2.08,1.45-2.93Zm89.1,130.84c2.18,.28,2.87-.96,3.5-2.17,3.31-6.33,6.77-12.56,10.96-18.38,4.46-6.2,8.01-13.02,12.35-19.28,3-4.33,6.01-8.76,9.73-12.59,.54-.56,1.01-1.36,.39-1.91-1.38-1.23-2.79-2.81-4.45-3.25-3.83-1.01-7.24-2.81-10.47-4.87-6.02-3.84-12.25-7.33-18.6-10.51-4.9-2.45-9.21-5.84-14.3-7.95-2.78-1.15-4.9-1.04-6.29,1.54-.34,.63-.55,1.34-.84,2-2.14,5.06-7.14,8.27-8.85,13.61-.03,.08-.11,.15-.18,.2-2.95,1.78-4.2,4.91-5.97,7.62-1.58,2.42-2.79,5.08-4.33,7.48-3.32,5.2-7.39,9.88-10.35,15.37-.99,1.84-.7,2.61,.74,3.45,2.7,1.56,5.57,3.01,8.08,4.65,5.17,3.37,10.36,6.75,15.44,10.26,6.99,4.82,14.14,9.37,21.38,13.8,.76,.47,1.63,.75,2.05,.94Zm63.53,44.1c-.84,.02-1.16,.45-1.43,.94-.74,1.35-1.61,2.64-2.18,4.05-2.96,7.23-8.12,13.21-11.32,20.32-2.52,5.59-6.21,10.59-8.58,16.27-1.39,3.33-.48,5.16,3.09,6.12,1.75,.47,3.57,.75,5.14,1.73,5.36,3.36,11.41,5.33,16.86,8.57,5.98,3.55,12.82,5.45,18.94,8.73,6.3,3.38,13.32,5.28,19.19,9.5,.48,.35,1.23,.31,1.81,.55,1.25,.52,2.03,0,2.22-1.16,.51-3.16,2.01-5.99,2.99-8.99,.87-2.67,1.28-5.55,2.52-8,2.03-4.01,2.77-8.44,5.07-12.42,2.94-5.1,4.7-10.88,7.17-16.27,.93-2.02,.34-3.16-1.39-3.91-1.82-.78-3.78-1.25-5.63-1.97-3.94-1.53-7.96-2.92-11.75-4.78-3.69-1.81-7.62-2.97-11.34-4.75-4.04-1.94-8.25-3.62-12.33-5.51-2.77-1.28-5.26-3.24-8.1-4.29-3.3-1.22-6.75-2-9.66-4.14-.42-.31-.97-.45-1.3-.59Zm-97.72,10.06c-.17-1.61-1.07-1.98-2.15-1.76-.96,.2-2.29,.43-2.7,1.1-1.34,2.22-2.6,.87-3.59,0-3.02-2.65-6.62-4.49-10.05-6.34-4.7-2.53-8.97-5.66-13.26-8.68-4.56-3.21-9.65-5.49-14.14-8.76-1.53-1.11-2.92-1.08-3.31,1.23-.46,2.78-1.32,5.34-3.61,7.23-.45,.37-.58,1.12-.93,1.65-1.6,2.46-2.05,5.47-3.61,7.88-1.74,2.69-2.96,5.56-4.1,8.48-1.09,2.78-3.25,4.81-4.11,7.97-1.41,5.14-3.99,10.04-6.87,14.68-.84,1.36-2.19,3.68-1.01,4.69,1.95,1.66,3.6,3.94,6.04,4.85,5.04,1.89,9.18,5.28,13.79,7.87,1.64,.92,2.93,2.83,4.63,3.22,5.63,1.27,9.63,5.47,14.75,7.67,3.93,1.69,7.38,4.52,11.01,6.9,1.65,1.08,2.47,1.06,3.33-1.1,3.62-9.14,6.44-18.6,10.91-27.4,.49-.98,.68-1.98,2.05-1.05,.4,.27,.94,.37,1.13-.18,.12-.37,.06-.98-.18-1.26-1.22-1.45-.89-3-.08-4.32,3.03-4.94,3.97-10.89,7.6-15.55,.77-.99,1.55-2.54,.13-3.68-1.9-1.54-5.37-2.44-1.67-5.33Zm-80.24-124.04c-.79,0-1.2,.34-1.51,.81-2.63,4.11-5.78,7.98-7.74,12.38-2.66,5.96-6.32,11.42-8.66,17.47-1.74,4.5-4.56,8.37-6.32,12.81-.79,1.98-.68,3.42,1.3,4.6,1.39,.83,2.42,2.15,3.6,3.27,2.59,2.47,5.16,5.15,8.23,6.87,2.66,1.5,5.51,2.98,7.54,5,3.65,3.64,8.28,5.73,12.23,8.85,4.08,3.21,8.73,5.76,12.91,8.94,1.49,1.13,2.86,2.52,4.73,3.15,1.25,.42,2.08,.43,2.99-.83,1.45-2,2.42-4.19,3.52-6.37,2.87-5.66,6.08-11.15,9.11-16.73,.9-1.67,2.51-2.87,3.04-4.79,1.31-4.75,4.1-8.75,6.8-12.75,1.26-1.87,1.2-2.97-.67-4.21-4.56-3.03-8.74-6.57-13.29-9.65-6.7-4.53-12.98-9.69-19.51-14.48-2.38-1.74-5.06-2.96-7.04-5.35-2.9-3.49-6.96-5.7-10.46-8.53-.27-.22-.62-.35-.78-.44Zm110.63,78.88c-.12-1.66-.72-2.58-1.88-3.17-1.92-.99-4.07-1.74-5.67-3.12-3.6-3.11-7.99-4.94-11.94-7.41-5.81-3.63-11.4-7.59-17.21-11.22-3.56-2.22-7.29-4.25-10.51-7.01-1.37-1.18-2.52-.74-3.21,.87-2.25,5.25-5.61,9.87-8.37,14.82-4.56,8.18-9.09,16.39-13.58,24.61-2.04,3.73-1.12,5.8,2.98,7.34,1.17,.44,2.25,1.16,3.37,1.75,5.79,3.06,10.8,7.29,16.31,10.76,4.95,3.11,10.2,5.78,14.93,9.18,2.88,2.08,5.75,3.95,9.02,5.3,1.25,.52,2.22,.45,2.73-.76,2.51-5.96,7.36-10.59,9.43-16.78,.23-.68,.25-1.42,.46-2.1,.59-1.85,1.66-3.32,3.77-3.29,1.74,.03,1.89-.7,1.3-1.99-.96-2.08-.23-4.13,1.32-5.09,2-1.25,2.48-2.93,2.87-4.88,.17-.83,.75-1.42,1.16-2.11,1.13-1.91,1.51-4.16,2.73-5.68Zm58.9,31.68c.02-.75-.29-1.13-.71-1.29-3.14-1.23-5.71-3.5-8.66-4.93-4.4-2.12-8.58-4.62-12.99-6.7-2.85-1.35-5.46-3.43-8.44-4.26-3.14-.88-4.36-4.39-7.78-4.7-1.96-.18-3.61-1.45-5.15-2.82-1.26-1.13-2.9-1.84-4.38-2.71-1.25-.74-2.09-.65-3.17,.67-2.31,2.84-3.12,6.43-5.07,9.39-1.85,2.8-2.4,6.33-4.74,8.76-3.61,3.76-5.11,8.78-8.09,12.91-2.22,3.07-3.03,7.06-5.76,9.77-1.41,1.4-.68,1.74,.34,2.62,2.65,2.29,6.03,3.25,8.89,5.12,5.22,3.41,10.95,5.88,16.26,9.15,4.42,2.72,8.77,5.9,14.1,6.89,.25,.05,.47,.27,.69,.42,2.58,1.71,4.85,3.79,8.04,4.65,2.72,.74,3.88,.64,4.72-2.22,.24-.8,.49-1.54,.93-2.24,4.01-6.3,6.77-13.27,10.68-19.67,3.51-5.74,6.1-12.09,9.78-17.8,.24-.37,.39-.8,.49-1.02ZM80.38,254.71c-.04,.66,.26,1.53,.89,2.21,4.2,4.6,8.26,9.4,12.7,13.71,3.51,3.4,7.86,5.94,10.88,10.02,1.41,1.91,2.6,1.54,3.31-.89,1.01-3.49,2.48-6.77,3.99-10.05,.69-1.49,2.25-2.41,2.41-4.19,.29-3.15,1.83-5.97,3.32-8.55,3.61-6.26,6.98-12.63,10.16-19.1,2.28-4.63,4.99-8.97,7.6-13.39,.65-1.1,1.16-2.43-.13-3.13-3.05-1.65-4.22-5.03-6.96-7-1.87-1.34-3.1-3.55-4.76-5.15-4.49-4.33-9.11-8.52-13.22-13.23-1.14-1.31-2.2-1.39-3.29,.15-1.79,2.53-3.01,5.35-4.46,8.06-4.01,7.48-8.34,14.81-11.55,22.68-2.56,6.26-4.57,12.78-8.2,18.53-1.8,2.85-2.14,5.91-2.7,9.31Zm65.2-110.1c.81-.53,1.91-1.94,2.55-.37,1.21,2.95,3.56,4.35,5.9,6.25,3.47,2.82,7.19,5.48,10.01,9.37,1.77,2.44,5.07,4.41,7.58,6.71,.39,.36,.91,.46,1.2,.07,1.61-2.17,4.5-3.53,5.46-5.79,2.23-5.21,6.01-9.24,9.2-13.69,2.87-4,7.3-6.73,9.73-11.21,.58-1.07,1.6-2.03,2.63-2.72,2.19-1.47,3.15-3.94,4.98-5.69,.84-.8,.53-1.6-.31-2.3-5.04-4.2-10.01-8.5-15.13-12.6-4.55-3.64-8.87-7.51-13.1-11.51-1.35-1.28-2.56-.65-3.49,.45-4.03,4.74-7.71,9.76-11.93,14.35-1.88,2.05-3.26,4.56-4.98,6.76-3.54,4.54-7.17,9.02-10.75,13.53-1.03,1.3-1.19,6.67-.25,7.85,.16,.2,.41,.33,.69,.54Zm22.42,28.42c.29-1.38-.63-2.3-1.56-2.91-4.91-3.24-7.67-8.58-12.36-12.15-4.43-3.37-8.08-7.79-11.93-11.89-1.27-1.35-2.14-1.62-3.59-.34-.84,.74-1.41,1.56-1.97,2.5-1.39,2.34-2.82,4.67-6.15,4.61-1.7-.03-2.33,1.65-1.68,2.7,1.9,3.05-.13,5.16-1.64,7.06-3.04,3.83-4.78,8.45-7.94,12.21-2.37,2.82-3.35,6.56-5.63,9.58-2.41,3.19-1.93,4.37,.85,7.29,2.59,2.71,5.2,5.34,8.13,7.75,4.59,3.78,8.54,8.33,12.79,12.51,1.25,1.23,2.59,2.31,.13,3.64-.45,.24-.91,.74-.63,1.36,.28,.62,.83,.52,1.4,.33,5.16-1.67,7.71-5.92,10.1-10.28,1.73-3.15,2.86-6.74,5.06-9.49,2.74-3.41,4.5-7.42,7.34-10.72,2.72-3.16,4.4-7.11,7.42-10.01,1.15-1.11,1.63-2.29,1.85-3.75Zm-96.36,73.53c1.62-5.23,4.29-9.69,5.95-14.54,2.73-7.98,6.67-15.4,10.28-22.98,1-2.11,2.6-3.74,3.83-5.6,3.02-4.58,3.54-10.51,7.73-14.58,1.63-1.59,1.29-3.46-.41-5.01-3.42-3.1-6.43-6.59-9.51-10.02-2.42-2.7-5.11-5.15-7.45-7.93-.74-.88-2.45-2.78-3.16-1.08-1.63,3.89-6.86,5.68-6.15,10.86,.12,.85-.86,1.52-1.58,2.11-.55,.45-1.39,.99-1.43,1.54-.26,3.16-2.14,5.57-3.71,8.07-2.39,3.81-2.87,8.44-5.45,12.12-2.4,3.43-2.61,8.22-6.56,10.7-.09,.06-.07,.34-.05,.52,.38,3.27-1.68,5.81-2.61,8.68-.31,.94-1.1,1.91-.62,2.84,1.12,2.16,2.12,4.55,3.79,6.24,3.47,3.55,6.97,7.02,10.06,10.94,1.99,2.53,4.55,4.62,7.07,7.12Zm10.98-88.47c-.21,1.26,.19,1.99,.91,2.67,5.93,5.55,10.96,12.02,17.4,17.08,3.07,2.41,3.4,2.53,5.23-.79,4.3-7.78,9.88-14.76,14.35-22.4,3.38-5.78,8.19-10.44,11.48-16.22,.85-1.5,.57-2.29-.64-3.44-3.98-3.79-8.05-7.5-11.6-11.74-2.13-2.55-4.56-4.85-6.84-7.28-.97-1.03-1.76-1.05-2.61,.19-1.89,2.78-3.55,5.7-5.85,8.24-2.1,2.32-4.07,4.79-5.8,7.52-2.01,3.17-3.6,6.87-6.87,9.2-.31,.22-.45,.81-.49,1.24-.17,1.92-1.33,3.24-2.4,4.74-2.23,3.15-3.58,6.87-5.93,9.99-.26,.34-.3,.85-.35,1.02Z"/>
        <path class="cls-1" d="M473.63,322.82c3.11-.51,5.5,2.02,7.76,4.39,1.45,1.52,.17,5.13-1.89,6.18-1.28,.65-1.13,2.01-1.54,3.02-.87,2.17-2.16,2.56-4.26,1.9-5.43-1.7-8.57-3.28-6.59-11.38,.7-2.87,2.43-4.07,6.52-4.11Z"/>
        <path class="cls-1" d="M421.82,440.91c-.02,5.07-3.25,7.19-6.62,7.36-2.31,.12-6.1-2.65-6.13-4.31-.08-5.19,2.21-8.97,5.4-8.92,3.5,.06,7.37,3.15,7.36,5.87Z"/>
        <path class="cls-1" d="M335.84,411.46c-.02-3.48,1.53-4.81,5.21-4.47,.25,.02,.62,.02,.76-.14,2.29-2.44,3.99-.33,5.55,.9,1.65,1.31,2.26,3.42,1.66,5.39-.69,2.26-1.93,4.17-4.79,4.51-3.74,.44-8.36-2.81-8.39-6.19Z"/>
        <path class="cls-1" d="M398.22,94.42c.17,3.36-2.1,5.89-5.47,6.09-3.77,.23-5.96-1.35-6.18-4.44-.22-3.02,3.5-6.86,6.73-6.95,3.82-.11,4.7,.84,4.92,5.3Z"/>
        <path class="cls-1" d="M76.93,326.43c-1.63-.67-3.74-.34-5.07-2.03-.98-1.24-1.98-2.43-.45-4,.73-.75,.7-1.85,.7-2.83-.01-2.29,1.81-2.9,3.36-3.27,1.76-.42,3.65,.14,4.88,1.58,.94,1.09,2.2,2.36,.83,4.05-.36,.44-.44,.91-.21,1.5,1.15,2.94-.59,5.14-4.04,5.01Z"/>
        <path class="cls-1" d="M458.9,136.45c-3.71-.07-6.78-2.88-6.67-6.09,.09-2.67,1.61-4.47,3.75-4.44,3.66,.05,7.87,3.36,7.8,6.14-.06,2.2-2.54,4.43-4.88,4.39Z"/>
        <path class="cls-1" d="M323.54,57.54c2.34-.04,4.97,2.15,5.58,4.55,.62,2.41-.52,4.22-2.35,5.67-2,1.59-4.56,1.68-5.93-.05-1.33-1.69-3.02-3.91-2.24-6.5,.76-2.51,3.1-3.06,4.93-3.68Z"/>
        <path class="cls-1" d="M172.37,61.31c.02-3.74,1.96-5.64,5.86-5.74,1.41-.03,3.91,3.16,3.91,4.98-.01,2.97-2.67,5.39-5.97,5.44-2.68,.04-3.81-1.36-3.79-4.69Z"/>
        <path class="cls-1" d="M127.38,369.98c-2.5,.11-5.29-2.43-5.71-4.88-.45-2.64,1.94-3.24,3.14-4.63,1-1.16,2.52-.71,3.77,.01,1.43,.83,2.75,1.83,3.48,3.35,.32,.66,1.72,1.8-.45,2.06-.2,.02-.42,.53-.5,.84q-.78,3.11-3.74,3.24Z"/>
        <path class="cls-1" d="M146.12,101.33c-.05,2.23-2.73,4.61-5.18,4.6-2.61,0-4.56-2.16-4.54-5,.02-2.55,2.58-4.67,5.42-4.5,2.04,.12,4.35,2.75,4.3,4.89Z"/>
        <path class="cls-1" d="M196.27,414.38c-1.57-.71-3.44-1.12-4.7-2.23-1.21-1.07-.93-2.86,.08-4.23,1.34-1.81,3.95-2.13,6.45-1.21,2.56,.95,2.75,3.16,2.55,5.1-.24,2.26-2.6,2.08-4.39,2.57Z"/>
        <path class="cls-1" d="M71.6,409.58c.12-3.17,1.83-5.85,1.43-8.89-.07-.49,.42-1.11,1-1.12,1.29-.04,2.39-.43,3.54-1.05,1.02-.56,1.59,.28,1.23,1.26-1.47,4.06-3,8.11-4.61,12.12-.34,.85-.53,2.37-1.66,2.17-1.33-.23-.43-1.68-.63-2.56-.16-.7-.23-1.42-.31-1.92Z"/>
        <path class="cls-1" d="M42.74,261.29c3.31,.05,4.95,1.66,4.81,4.96-.08,1.85-1.24,2.96-3.14,3.02-2.14,.08-5.45-2.89-5.47-4.8-.02-1.42,2.12-3.21,3.8-3.19Z"/>
        <path class="cls-1" d="M262.58,439.6c-.24,1.85-1.83,2.63-3.74,2.8-2.27,.2-4.09-1.38-4.17-3.38-.09-1.98,2.21-4.67,4.1-4.81,1.99-.14,3.72,2.13,3.81,5.39Z"/>
        <path class="cls-1" d="M221.85,83.98c-.04,1.6-1.42,2.43-3.1,2.69-1.83,.29-3.75-1.75-3.8-3.78-.05-1.92,1.59-3.95,3.26-4.05,1.55-.09,3.53,2.48,3.64,5.14Z"/>
        <path class="cls-1" d="M332.58,165.11c2.44,.03,4.58,2.81,3.82,4.91-.55,1.53-.1,4.72-3.86,3.11-.67-.29-2.92,.66-4.62,.54-2.34-.16-3.67-1.5-3.89-3.44-.24-2.14,.97-3.84,3.31-4.28,1.87-.35,3.76-.61,5.23-.85Z"/>
        <path class="cls-1" d="M269.7,124.53c-4.46-.14-7.51-2.83-7.42-6.56,.08-3.55,3.88-6.49,8.11-6.27,3.23,.17,7.6,3.52,7.43,5.71-.28,3.75-4.26,7.24-8.11,7.12Z"/>
        <path class="cls-1" d="M390.22,201.59c.17-4.33,2.15-6.36,6.09-6.26,2.8,.07,4.94,2.33,4.85,5.11-.13,4.03-2.58,6.48-6.39,6.39-2.74-.06-4.66-2.28-4.55-5.25Z"/>
        <path class="cls-1" d="M462.77,232.58c.07,2.8-2.72,5.33-5.99,5.43-2.28,.07-5.33-2.63-5.41-4.79-.15-3.89,1.54-5.55,5.44-5.83,4.05-.29,5.38,2.2,5.96,5.18Z"/>
        <path class="cls-1" d="M155.12,291.18c-3.2,.02-5.61-1.62-6.23-4.48-.57-2.62,1.35-3.79,3.3-4.99,2.16-1.33,3.99-3.12,6.91-1.85,3.65,1.6,4.77,6.36,1.7,8.87-1.6,1.31-3.46,2.74-5.67,2.44Z"/>
        <path class="cls-1" d="M226.55,339.21c-.06,2.58-2.21,4.8-4.54,4.67-2.16-.12-3.88-1.84-3.8-3.8,.16-3.72,1.21-5.16,3.7-5.12,3.23,.05,4.7,1.4,4.63,4.25Z"/>
        <path class="cls-1" d="M278.18,231.15c-2.38-.05-3.91-2.07-3.82-5,.08-2.45,2.74-5,5.24-5.03,3.55-.05,5.4,1.46,5.35,4.36-.04,2.3-4.13,5.73-6.77,5.67Z"/>
        <path class="cls-1" d="M184.47,235.6c-2.96-.04-5.32-1.94-5.33-4.31,0-2.17,3.44-4.95,6.05-4.89,2.31,.05,4.84,2.74,4.82,5.1-.02,2.24-2.57,4.13-5.54,4.09Z"/>
        <path class="cls-1" d="M404.48,297.32c-.18-4.53,4.38-5.73,8.18-4.72,.17,.05,.33,.16,.49,.24,3.21,1.65,4.75,4.08,3.79,5.98-1.57,3.1-5.72,4.4-8.81,2.79-1.87-.97-3.9-1.77-3.65-4.29Z"/>
        <path class="cls-1" d="M215.7,175.82c-.11-4.24,3.89-8.3,7.85-8.39,3.33-.07,6.9,3.84,7.07,7.76,.13,2.99-2.9,6.71-5.32,6.98-2.81,.31-5.36,.28-7.37-2.07-1.17-1.37-2.83-2.47-2.23-4.27Z"/>
        <path class="cls-1" d="M344.41,267.94c-3.23,.22-4.97-1.65-5.27-5.67-.25-3.44,2.08-6.19,5.44-6.42,2.88-.2,5.25,3.16,5.64,7.99,.2,2.45-1.74,3.81-5.81,4.1Z"/>
        <path class="cls-1" d="M430.89,389.38c-.07-2.96,3.29-6.45,6.31-6.56,2.7-.1,4.71,2.38,4.74,5.85,.02,2.36-2.6,4.71-5.32,4.77-4.78,.1-5.65-.51-5.73-4.05Z"/>
        <path class="cls-1" d="M280.24,377.79c.03-3.9,2.49-6.54,6.06-6.49,2.6,.03,5.71,3.92,5.58,6.96-.1,2.41-4.22,5.31-7.34,5.17-2.45-.11-4.33-2.58-4.31-5.64Z"/>
        <path class="cls-1" d="M261.22,280.44c-.05,2.16-.16,4.04-1.17,5.57-1.8,2.72-7.13,2.59-9.05-.11-1.96-2.75-2.01-8.3,.1-10.78,1.18-1.38,2.99-1.84,4.71-1.36,2.29,.64,4.47,1.68,5.16,4.3,.23,.87,.2,1.8,.25,2.37Z"/>
        <path class="cls-1" d="M310.46,314.5c4.1,.2,6.5,2.22,6.43,5.44-.03,1.7-3.02,3.7-5.25,3.52-2.04-.17-4.92-2.99-4.9-4.8,.03-2.94,1.22-4.27,3.72-4.15Z"/>
        <path class="cls-1" d="M375.71,357.69c-3.28,.01-4.57-1.04-5.19-3.9-.53-2.46,.58-3.81,2.72-4.58,2.77-1,7.12,1.97,7.17,4.88,.04,2.31-1.64,3.59-4.7,3.61Z"/>
        <path class="cls-1" d="M110.78,236.38c.04,2.9-1.29,4.62-3.62,4.67-3.38,.07-5.82-1.9-5.8-4.68,.02-2.57,2.34-5.46,4.34-5.42,3.17,.07,5.03,2.05,5.08,5.43Z"/>
        <path class="cls-1" d="M172.64,129.06c3.47-.09,4.65,1.37,4.88,5.79,.11,2.24-1.37,2.57-2.98,2.6-4.77,.07-6.41-.92-6.5-3.76-.1-2.94,1.5-4.55,4.61-4.63Z"/>
        <path class="cls-1" d="M137.16,173.07c2.06,.14,3.51,.7,4.62,2.08,3.34,4.18,2.05,8.43-2.86,9.57-2.95,.69-4.61-1.35-6.25-2.98-1.38-1.37-1.76-3.53-.77-5.32,1.15-2.09,3.29-2.99,5.26-3.35Z"/>
        <path class="cls-1" d="M69.26,204.84c2.49-.04,5.9,2.9,5.88,5.05-.04,2.96-3.61,5.6-7.77,5.74-2.22,.08-4.36-3.27-4.38-6.86-.01-2.05,2.92-3.89,6.28-3.94Z"/>
        <path class="cls-1" d="M102.82,145.55c1.53,.04,4.48,2.98,4.46,4.46-.01,1.08-3.39,4.36-4.46,4.33-.84-.02-4.29-4.3-4.28-5.31,.01-1.62,2.35-3.52,4.28-3.48Z"/>
      </g>
    </g>
    <path class="cls-4" d="M893.21,552.56c6.64-.4,12.83,1.24,19.32,1.59,1.51,.81,3.21,.73,4.81,.4,4.67-.94,9.11,1.26,13.65,.72,1.38-.37,2.63-.58,3.97,0,2.24,1.13,4.42-.9,6.67-.17,7.34,1.8,15.03,.65,22.5,1.89,12.95,2.39,26.15,1.73,39.09,3.63,12.2,1.25,23.44,6.08,35.08,9.22,11.39,2.52,22.12,6.59,32.57,11.54,15.53,3.97,39.94,17.91,34.31,36.84-10.4,13.42-28.37,10.4-43.28,10.34-21.8-1.69-43.08-8.42-64.66-11.43-6.19-.56-12.41-.76-18.09-3.7-10.17-2.08-20.81-1.38-31.17-2.51-13.02-.27-25.88-3.56-38.86-4.48,0,0,0,0,0,0-43.77-7.64-109.95-8.59-154.37-10.37-4.68-1.36-9.43,.85-14.24,.38-17.44-.6-35.06-1.67-52.6-.32-13.94,.86-28.16-1.52-41.87,1.36-46.48-.34-92.44,10.39-139.1,7.23-5.04-1.13-21.8-1.71-22.14-7.82,1.62-1.8,1.76-4.3,3.33-6.18,1.51-1.81,3.64-2.66,5.24-4.28,6.73-6.8,14.69-11.63,23.39-15.66,10.91-4.56,22.17-6.99,33.53-9.48,3.15-2.11,20.77-.98,14.69-7.6-1.8-.91-3.83-2.09-5.92-1.58-4.83,1.19-9.8,.35-14.64,1.23-1.14,.21-2.36,.27-3.23-.88-11.33-11.91-7.42-21.52,4.49-30.8,5.62-3.75,10.38-8.63,16.26-12.07,7.71-2.58,12.91-8.82,19.1-13.77,11.4-11.3,12.94-31.97,5.27-45.67-4.09-7.71-6.94-3.53-8.9-14.23-4.42-7.48-3.6-16.09-4.57-24.12-.83-6.85-1.72-13.86-1.83-20.91,.12-17.39-1.24-35.1,1.88-52.25,.43-11.4-.09-23.98,8.22-32.88,3.24-9.29,11.19-13.28,19.53-15.69,23.23-4.16,29.63,29.09,21.67,45.46-.25,.61-.52,1.29-1.26,1.25-7.58,.86-14.08,6.26-18.53,12.12-1.41,1.34-1.73,6.79,.89,6.06,6.22-2.43,12.22-7.65,19.14-6.3,3.88,.87,7.98-.97,11.78,2.92,3.5,3.59,8.18,6.25,12.03,9.75,2.41,2.19,3.56,5.82,7.32,6.48,2.27,6.27,8.33,10.91,10.06,17.48,5.22,11.13,14.99,18.55,25.67,23.82,7.12,2.37,14.8,2.02,21.19,6.46,12.62,8.28,16.02,13.27,18.23,27.71,3.66,8.15,.31,17.3,1.52,25.9,.26,1.58,.76,3.09,.02,4.73-.66,1.88,1.72,3.03,1.82,4.93,1.2,17.4,17.56,29.58,33.38,33.88,1.8,.42,3.08,1.4,3.54,3.32,1.02,4.19,3.55,7.49,6.46,10.54,1.02,1.07,2.28,1.74,3.64,.83,3.77-3.02-1.35-8.08-1.63-11.77-8.52-26.58,16.41-37.87,36.82-24.45,4.51,2.98,9.64,5.47,12.45,10.2,2.54,2.9,11.97,20.37,3.41,19.52-5.46,0-1.53,5.77,.47,7.65,17.95,13.43,39.96,23.05,62.5,23.95Z"/>
    <path class="cls-8" d="M951.93,427.55c-3.77,4.9-9.69,7.06-14.23,11.05-3.44,3.91-9.05,5.47-12.91,9.06-8.91,5.49-17.22,11.95-26.28,17.15-6.62,3.5-13.74,6.64-19.69,11.33-5.24,2.74-11.05,3.7-15.74,7.41-6.27,3.69-13.51,5.09-19.8,8.55-1.57,.65-7.96,3.78-8.73,1.57-5.24-7.81-13.74-12.66-21.28-17.57,1.34-2.59,4.93-3.21,7.43-4.46,14-9.93,29.22-17.66,42.72-28.21,11.79-7.39,21.42-17.3,32.72-25.41,2.86-1.58,5.76-4.02,7.06-7.42,.86-2.26,3.07-2.54,4.69-3.38,13.04-8.31,22.11-21.39,33.73-31.37,3.74-3.89,6.75-8.48,11.95-10.71,2.35-6.11,9.05-8.22,12.44-13.67,7.6-9.55,16.93-18.26,24.27-28.17,3.91-6.51,9.39-11.92,14.17-17.66,1.28-4.84,7.02-6.39,8.35-11.35,1.29-3.96,6.27-5.35,6.58-9.68,3.58-5.66,8.6-11.3,11.41-17.42,1.82-4.86,4.88-8.88,7.46-13.22,5.83-9.02,8.04-18.9,13.95-28,6.15,30.29,9.55,56.43-7.12,83.97-8,11.34-12.86,24.69-21.88,35.14-4.1,7.23-7.84,14.6-13.89,20.48-8.06,7.7-11.56,19.19-20.74,25.59-5.56,4.04-6.82,11.73-12.5,15.94-6.02,7.08-14.15,11.93-20.54,18.68-1.03,.99-2.7,.64-3.59,1.8Z"/>
    <path class="cls-13" d="M983.64,475.99c-10.06-10.77-19.61-22.91-28.41-34.79-.69-.6-.7-1.35,.17-1.76,4-1.03,9.82-14.23,12.82-6.91,14.92,26.88,34.79,50.77,54.44,74.19,6.77,4.25,10.86,11.19,16.6,16.55,.16,.14,.15,.48,.43,1.45-19.6-15.83-37.35-32.08-56.05-48.73Z"/>
    <path class="cls-14" d="M1072.13,513.27c-.39-.86,.79-1.23,1.28-.64,12.75,12.17,25.61,24.62,35.49,39.15,4.72,3.98,5.99,10.31,8.57,15.66,2.02,6.29-12.5,.18-14.72-1.85-7.06-3.58-14.44-6.76-20.96-11.54-4.9-4.34-12.04-5.66-15.81-11.39,17.33,.56,11.37-19.75,6.15-29.38Z"/>
    <path class="cls-11" d="M1170.42,567.67c-4.61-5.39-10.36-9.55-15.48-14.37-8.56-6.35-15.55-14.09-24.43-20.03-8.67-7.2-16.52-15.97-26.28-22.05-2.4-1.5-4.31-3.83-6.27-5.95-23.91-20.79-49.25-40.22-72.68-61.63-5.34-6.6-11.29-12.69-17.17-18.83-.66-.68-1.6-1.65-2.54-.93-1.85,1.54,2.86,4.49-.93,4.73-4.43,.2,7.64,10.25,8.76,12.2,16.74,13.61,96.46,139.21,27.98,70.3-24.79-26.56-49.44-54.63-68.9-84.98-.63-1.5,2.8-4.02,4.34-4.79,4.16-6.46,12.14-9.21,15.75-16.24,2.65-3.62,6.05-10.8,11.32-6.62,6.27,4.86,13.27,8.55,19.7,13.06-.06,.22-.13,.43-.19,.65-28.88-5.3,11.12,9.94,16.95,13.29,28.22,19.27,50.75,46.39,74.15,71,14.75,17.2,30.38,34.06,43.68,52.29,3.16,1.07,3.91,3.68,5.08,6.38,1.55,4.78,6.67,7.99,8.15,12.52-.36,.36-.73,.29-.98,0Z"/>
    <path class="cls-3" d="M764.42,551.82c-14.22-1.4-28.2,1.83-42.43,1.46-13.74,2.12-25.11-5.93-38.64-6.26,9.94-9.01,10.4-29.1-.79-37.47-2.31-1.79-4.62-3.15-7.65-2.28-.67,.19-1.26,.17-1.8-.26-2.45-1.96-5.4-1.5-8.04-1.14-19.23,2.41-37.33,21.45-31.89,41.58,.48,1.58,.99,3.89,3.08,3.59,2.27-.33,1.23-2.64,1.28-4.11,.22-5.86,.87-11.55,4.23-16.63,3.66-5.29,8.87-9.17,13.68-13.18,8.92-4.38,25.06-6.94,27.93,5.85,2.66,11.69-4.56,22.38-15.18,27.17-3.29,.91-6.62,2.48-8.65,5.7-3.04,7.28,7.73,.04,10.46-.56,1.57-.52,2.79,.64,4.22,.04,7.98-2.95,16.36,.51,23.79,3.26,22.21,4.98,47.62,2.07,68.27-5.61-.05-1.11-1.11-1.08-1.87-1.15Z"/>
    <path class="cls-3" d="M183.38,87.12c-14.62,9.11-20.53,26.68-26.03,41.8-4.53,4.88-4.39,11.5-5.7,17.24-1.25,5.44-4.68,10.81-2.96,16.84-4.14,13.26-1.94,27.21-3.83,40.73-.47,13.64,.2,27.98,3.6,41.07,1.57,2.43,1.77,5.13,1.76,7.85,2.42,13.59,6.13,27.17,10.88,40.19,1.34,3.3,.88,3.92-2.86,4.48-.98,.15-2.04,.58-2.94,.38-5.26-.96-8.42,5.47-14.58,6.64-8.08,2.85-23.56,10.72-14.8,20.96,8.21,6.51,18.52,9.72,28.71,11.41,1.54,.16,9.93,1.88,7.07,3.71-4.7,2.64-10.31,4.24-13.7,8.67-5.69,6.43-10.75,12.96-14.6,20.57-3.01,2.44-1.23,6.25-2.03,9.48-1.61,6.18-.78,15.2,7.45,15.48,10.31-.78,4.53-15.21,11.64-22.48,5.76-15.01,23.7-17.1,32.6-29.16,7.74-11.9-9.82-15.41-17.51-19.45-1.15-.51-1.95-1.74-3.37-1.62-4.65,.4-8.36-2.63-13.49-3.35,7.86-5.26,7.36-4.52,15.86-6.61,17.49-4.65,16.47-17.7,9.06-31.37-.95-10.56-7.63-20.28-7.57-31.45-.24-4.81-2.53-9.4-2.3-14.29,.21-4.31-3.17-7.65-2-12.54,1.16-10.78-2.3-22.3-1.37-33.33,.8-18.04,6.26-35.14,10.17-52.67-.84-9.3,36.58-54.35,12.85-49.17Z"/>
    <path class="cls-3" d="M426.02,120.21c-3.82,3.13-8.77,3.99-12.8,6.95-6.14,4.52-13.25,7.65-19.54,12.06-3.89,2.73-5.7,2.2-8.64-1.53-2.31-2.93-4.04-6.48-7.68-8.22-.52-.25-1.01-.86-1.22-1.41-1.17-4.41-5.14-5.9-8.19-8.68-4.89-4.23-8.12-13.02-15.21-13.28-13.05,7.07,11.46,25.87,15.8,33.24,5.22,9.1,12.29,10.08,3.46,12.79-3.88,3.47-7.87,6.88-12.74,8.85-5.21,4.72-13.41,6.7-16.85,12.94-2.74,5.35,2.71,11.81,8.27,9.25,5.94-1.44,9.58-4.15,13.69-8.57,2.36-.95,4.65-2.07,6.44-3.91,2.97-3.04,7.5-3.98,10-7.68,5.94-7.13,13.39,10.8,17.44,14.39,6.54,5.92,10.27,19.14,19.06,21.15,17.76-2.63,2.59-20.53-3.86-27.81-5.11-5.28-8.17-12.12-14.45-16.16-3.22-3,.6-4.66,3.12-5.95,3.81-1.93,6.13-5.61,9.87-7.81,6.92-5.01,14.8-9.85,20.14-16.65,2.67-4.54-3-6.28-6.11-3.96Z"/>
    <path class="cls-3" d="M399.64,375.93c-4.4-1.96-6.33-6.78-11.21-8.12-5.71-4.6,5.95-7.87,7.03-12.34,5.41-7.98,12.38-14.78,17.59-22.95,1.34-1.62,1.84-3.72,1.89-5.31,.25-6.63-8.18-10.35-13.15-6.6-6.11,8.25-12.55,16.82-18.77,24.78-1.21,4.39-4.99,6.47-7.44,9.71-3.95,4.7-9.02-5.1-13.28-6.27-7.89-4.57-14.09-12.07-23.04-14.59-9.45-2.63-11.21,11.25-2.81,14.55,9.21,5.69,17.99,11.78,26.89,17.71,2.33,1.26,2.59,1.65,.57,3.57-1.37,1.3-3.1,2.24-3.98,4.03-5.14,9.65-14.85,15.92-20.06,25.29-5.43,13.27,3.31,15.96,11.07,5.71,3.62-5.18,9.05-8.62,13.01-13.24,1.06-2.56,2.78-4.24,5.11-5.63,2.33-1.4,2.89-4.32,4.73-6.2,3.65-3.72,4.72-5.04,8.93-1.59,7.27,4.86,14.83,8.92,22,13.99,1.91,1.55,5.11,1.96,7.6,3.22,3.35,2.97,11.62,5.07,8.76-2.23-6.13-6.77-14.07-12.29-21.46-17.49Z"/>
    <path class="cls-3" d="M879.69,328.23c.84,5.21,6.21,1.56,8.6,2.95,.54,.75,.08,1.64-.41,2.26-2.37,2.95-2.83,6.76-4.57,10-.8,1.49-1.9,2.94-1.55,4.55,1.27,16.7,26.58-3.57,27.09-11.19-1.94-3.16-6.69,.19-9.1-1.35-.12-2.34,2.84-4.3,3.35-6.65,1.09-3.34,4.31-6.02,2.77-10.21-2.8-7.18-9.64-2.29-13.99,.32-3.24,1.86-5.97,4.54-10.03,5.06-1.71,.22-2.32,2.43-2.16,4.26Z"/>
    <path class="cls-3" d="M765.73,460.63c.69-1.76,1.41-1.82,2.58-1.09,7.74-1.9,38.21-35.09,38.41-42.62-.82-.88-1.75-.04-2.4,.46-15.83,11.23-28.49,26-42.01,39.76-3.01,2.01,1.74,6.36,3.41,3.49Z"/>
    <path class="cls-3" d="M966.01,263.35c10.58-7.85,19.18-17.7,28.06-27.3,.55-.57,1.01-1.35,.1-1.81-2.32-.63-5.71-4.02-7.74-1.67-2.22,4.24-25.48,28.63-20.42,30.78Z"/>
    <path class="cls-3" d="M988.1,290.19c-6.46,1.1-31.95,13.08-32.82,18.99,1.7,3.25,47.03-17.9,32.82-18.99Z"/>
    <path class="cls-3" d="M995.96,229.85c.47,2.01,1.14,1.4,2.31,.39,3-3.42,17.52-17.86,14.03-21.59-4.51-2.03-9.8,9.09-14.32,10.92-2.26,1.44-3.26,4.19-4.68,6.09-.42,3.31,2.23,1.36,2.65,4.19Z"/>
    <path class="cls-3" d="M825.6,446.42c6.58-6,11.49-14.83,14.1-23.5,.44-1.18,2.13-2.46,.45-3.5-1.8-1.08-2.69,1.28-3.68,2.36-1.74,3.22-15.07,23.48-10.87,24.64Z"/>
    <path class="cls-3" d="M929.84,259.39c2.97,.54,6.03-6.21,6.92-8.81,.54-2.38,.5-5.07,2.52-6.99,.32-.3,.22-1.03,.34-1.67-1.12-18.4-13.98,16.43-9.78,17.48Z"/>
    <path class="cls-3" d="M777.86,418.65c1.97-.07,13.2-7.61,7.81-8.02-3.76,.47-18.51,4.97-15.02,10.03,2.2,2.63,4.85-1.76,7.22-2.01Z"/>
    <path class="cls-3" d="M940.22,351.91c-.38-1.68-4.27-1.43-5.62-1.38-2.48,.65-5.55-1.07-7.49,1.82-.12,.18-.83-.04-1.02-.06-1.81-.14-4.69,.65-4.3,2.8-.54,2.98,19.17-1.03,18.43-3.18Z"/>
    <path class="cls-3" d="M881.44,285.63c-2.62,.37-2.11,6.36-2.91,8.58,2.83,16.74,9.98-5.82,2.91-8.58Z"/>
    <path class="cls-3" d="M881.67,387.53c-5.32,5.19,.39,28.84,2.88,8.54-.1-1.33-.58-10.93-2.88-8.54Z"/>
    <path class="cls-3" d="M834.95,347.86c-3.62-2.03-15.82-.57-18.45,2.14-2.31,4.96,16.75,.37,18.45-2.14Z"/>
    <path class="cls-3" d="M739.44,114.55c10.54-4.04,21.58-1.99,32.45-2.85,.73-.17,1.48-.05,1.99,.59,1.19,1.49,2.87,1.73,4.6,2.02,1.47,.25,3.93,.54,3.77,1.86-1.5,2.95-16.85,1.93-20.6,1.47-5.41-.09-24.96-5.12-26.59,.37-.02,1.3,1.08,1.5,1.99,1.91,15.27,3.89,32.07,6.24,47.71,3.4,11.86-4.04,2.75-16.63-5.71-17.59-5.5-.96-11.07-1.55-16.54-1.14-9.24,.12-18.68,1.29-26.37,6.55-3.46,2.5,.37,5.39,3.3,3.42Z"/>
    <path class="cls-3" d="M724.19,98.46c9.69-1.25,36.38-26.64,34.95-37.47-1.12-13.56-17.17-2.97-21.74,2.97-4.49,3.3-26.69,35.13-13.2,34.49Zm28.49-37.07c.03,8.47-17.56,23.52-25.41,26.16,2.23-7.11,17.81-26.81,25.41-26.16Z"/>
    <path class="cls-3" d="M703.63,137.1c-2.21,.36-1.02,2.71-1.26,4.18-6.62,38.05-47.29,58.92-2.82-7.09,1.33-1.41,0-3.77-1.86-2.55-8.81,4.32-13.23,13.42-17.24,21.86-3.61,7.5-14.53,32.66,2.75,28.31,13.29-8.06,24.32-25.84,23.53-41.56-.36-1.64-1.08-3.41-3.1-3.14Z"/>
    <path class="cls-3" d="M727.96,130.35c-2.81-2-8.86,.24-3.72,2.36,7.94,3.53,14.05,9.78,19.85,16.14,1.39,1.34,15.44,18.82,8.06,15.95-5.37-2.79-9.31-7.21-13.5-11.44-2.05-3.59-3.68-7.5-6.64-10.54-1.61-3.12-5.41-1.21-5.53,1.85-.54,11.34,17.9,26.06,28.14,27.96,21.87-4.14-17.22-40.12-26.66-42.28Z"/>
    <path class="cls-3" d="M708.42,99.62c1.5-1.98-1.77-3.95-2.22-5.94-2.64-9.08-30.07-49.9-37.2-29.18-.23,13.97,28.18,30.11,39.42,35.12Zm-10.68-13.27c-5.87-1.04-21.3-15.74-21.85-20.92,9.55,4.81,15.17,13.08,21.85,20.92Z"/>
  </g>
</svg>