<?xml version="1.0" encoding="UTF-8"?>
<svg id="Layer_2" data-name="Layer 2" xmlns="http://www.w3.org/2000/svg" xmlns:xlink="http://www.w3.org/1999/xlink" viewBox="0 0 525.48 494.72">
  <defs>
    <style>
      .cls-1 {
        fill: #1a1a1a;
      }

      .cls-2 {
        fill: url(#Degradado_sin_nombre_9);
      }
    </style>
    <linearGradient id="Degradado_sin_nombre_9" data-name="Degradado sin nombre 9" x1="344.25" y1="164.32" x2="154.2" y2="437.16" gradientUnits="userSpaceOnUse">
      <stop offset="0" stop-color="#fc8ab5"/>
      <stop offset=".03" stop-color="#fc8dac"/>
      <stop offset=".18" stop-color="#fda378"/>
      <stop offset=".33" stop-color="#fdb54d"/>
      <stop offset=".48" stop-color="#fec32b"/>
      <stop offset=".62" stop-color="#fecd13"/>
      <stop offset=".75" stop-color="#fed304"/>
      <stop offset=".85" stop-color="#ffd600"/>
    </linearGradient>
  </defs>
  <g id="Capa_1" data-name="Capa 1">
    <path class="cls-2" d="M184.95,44.36c-7.84,.73-9.67,8.28-12.24,12.98,11.42,36.87-45.17,36.57-66.79,54.14-29.62,21.89-41.45,63.26-48.14,97.86-2.65,34.35-3.11,47.91-25.26,65.13-11.2,8.7-9,26.19,3.92,32.04,10.76,4.87,23.31,9.01,28.26,17.28,10.93,22.38,23.82,41.55,35.73,62.92,25.21,27.63,63.25,37.15,93.92,56.92,30.11,26.25,72.45,29.51,111.79,28.87,40.11-8.13,87.78-6,122.55-26.68-.6-35.37,.9-26.46,23.88-54.09,86.84-112.54,8.95-85.6,6.49-111.27-.53-5.49,2.72-10.68,7.76-12.94,22.87-10.26,46.54-24.76,36.3-53.78-4.7-26.53-13.96-53.04-26.85-77.68-5.24-17.06-36.72-35.26-20.23-53.6,31.35-28.4-48.52-31.46-66.27-39.43-24.65-6.97-48.31-15.63-73.12-18.48-44.44-8.4-93.22-1.56-131.71,19.83Z"/>
    <g>
      <path class="cls-1" d="M362.25,481.54c-59.82,17.79-132.44,20.97-186.79-12.03-2.25-1.47-8.61-3.84-8.94-6.33-.17-1.29-.22-2.6-.58-3.85-8.39-29.28-42.91-36.88-68.63-50.24-28.5-18.54-37.53-54.65-54.25-83.01-9.79-12.91-27.22-17.96-39.08-28.5-5.15-4.58-5.31-12.57-.46-17.47,15.86-16.02,35.31-16.25,28.5-54.41,3.25-30.18,11.94-59.46,24.85-87.95,13.84-44.97,104.28-37.54,81.67-74.18-4.02-6.51-2.61-14.99,3.2-19.96C202.23-8.17,307.47-11.7,380.21,21.73c4.27,1.96,8.35,4.3,12.39,6.69,25.05,14.81,132.14,24.99,93.28,54.41-22.19,18.16,19.45,49.42,22.43,71.73,7.73,19.34,13.42,38.42,15.21,58.6,3.75,18,3.83,36.77-15.81,45.34-70.85,32.3,36.25,29.07,1.94,75.96-2.76,10.44-7.86,20.31-12.83,29.39-3.4,4.95-3.82,11.97-9.9,15.8-8.83,16.91-25.38,28.41-31.7,46.35,26.98,46.79-65.75,40-92.98,55.56ZM184.95,44.36c-7.84,.73-9.67,8.28-12.24,12.98,11.42,36.87-45.17,36.57-66.79,54.14-29.62,21.89-41.45,63.26-48.14,97.86-2.65,34.35-3.11,47.91-25.26,65.13-11.2,8.7-9,26.19,3.92,32.04,10.76,4.87,23.31,9.01,28.26,17.28,10.93,22.38,23.82,41.55,35.73,62.92,25.21,27.63,63.25,37.15,93.92,56.92,30.11,26.25,72.45,29.51,111.79,28.87,40.11-8.13,87.78-6,122.55-26.68-.6-35.37,.9-26.46,23.88-54.09,86.84-112.54,8.95-85.6,6.49-111.27-.53-5.49,2.72-10.68,7.76-12.94,22.87-10.26,46.54-24.76,36.3-53.78-4.7-26.53-13.96-53.04-26.85-77.68-5.24-17.06-36.72-35.26-20.23-53.6,31.35-28.4-48.52-31.46-66.27-39.43-24.65-6.97-48.31-15.63-73.12-18.48-44.44-8.4-93.22-1.56-131.71,19.83Z"/>
      <path class="cls-1" d="M423.59,314.11c8.52,.89,13.36,19.83,2.88,20.69-10.82,.07-14.77,10.24-21.28,17.09-29.29,34.43-75.01,60.49-120.85,59.85-42.45,1.31-85.49-13.98-116.25-42.91-15.14-10.2-19.53-34.61-40.16-32.51-5.95-1.33-6.51-8.88-7.88-14.95-.62-2.76,1.67-5.31,4.48-4.97,3.22,.39,6.55,1.07,9.67,.95,10.8,1.81,21.72-.9,31.79-2.47,10.49,4.14,20.2,18.91,3.76,20.5,51.02,64.36,159.28,70.24,213.7,6,4.29-3,1.41-4.7-2.69-4.61-24.42-32.33,29.62-11.24,42.83-22.67Z"/>
      <path class="cls-1" d="M347.82,255.36c-36.55,.45-40.96-51.93-29.57-77.7,16.68-25.68,87.13-27.4,81.96,13.65-23.84,9.63-57.71-15.49-42.39,32.47,70.66-7.48,38.46,35.6-9.99,31.59Z"/>
      <path class="cls-1" d="M207.15,224.09c91.85-2.31-43.98,74.12-54.46-2.61-10.07-50.58,26.31-69.8,71.22-58.4,12.26,2.63,19.04,20.87,13.61,30.45-13.19,.24-26.56-1.17-39.8,.03-7.73,3.03-2.01,17.01-3.04,23.86-2.08,8.77,6.51,6.43,12.47,6.68Z"/>
    </g>
  </g>
</svg>