<?xml version="1.0" standalone="no"?>
<!DOCTYPE svg PUBLIC "-//W3C//DTD SVG 20010904//EN"
 "http://www.w3.org/TR/2001/REC-SVG-20010904/DTD/svg10.dtd">
<svg version="1.0" xmlns="http://www.w3.org/2000/svg"
 width="840.000000pt" height="840.000000pt" viewBox="0 0 840.000000 840.000000"
 preserveAspectRatio="xMidYMid meet">
<metadata>
Created by potrace 1.14, written by Peter Selinger 2001-2017
</metadata>
<g transform="translate(0.000000,840.000000) scale(0.100000,-0.100000)"
fill="#000000" stroke="none">
<path d="M298 8386 c-152 -54 -249 -181 -256 -336 -4 -69 3 -273 43 -1395 8
-225 24 -669 35 -985 27 -763 56 -1600 75 -2110 8 -228 19 -568 26 -755 12
-373 19 -426 72 -514 41 -68 95 -115 175 -153 79 -38 120 -41 822 -68 294 -11
753 -29 1020 -40 913 -37 1005 -41 1243 -47 277 -7 371 3 525 53 409 133 718
470 829 903 20 81 26 142 39 396 8 165 19 318 25 341 17 64 76 134 142 168
108 55 260 30 332 -56 67 -80 68 -81 81 -458 11 -320 10 -355 -7 -479 -60
-430 -261 -820 -582 -1128 -251 -240 -587 -422 -912 -493 -161 -34 -340 -48
-890 -70 -286 -11 -567 -22 -625 -25 -58 -3 -278 -12 -490 -20 -1398 -52
-1388 -52 -1473 -84 -80 -31 -167 -114 -209 -199 -32 -64 -33 -71 -36 -212 -5
-216 9 -343 46 -416 36 -71 98 -132 172 -170 l55 -29 3620 0 3620 0 56 26 c98
46 170 127 205 230 14 40 30 419 104 2559 5 157 17 476 25 710 8 234 24 684
35 1000 11 316 29 825 40 1130 11 305 24 686 30 845 5 160 17 484 26 720 8
237 16 536 17 665 l2 235 -27 57 c-35 76 -95 138 -170 179 l-63 34 -3880 2
c-3175 2 -3887 0 -3917 -11z m2957 -949 c119 -42 181 -82 272 -172 93 -94 149
-197 177 -322 24 -107 24 -1189 0 -1296 -53 -240 -239 -434 -484 -504 -60 -17
-113 -18 -670 -18 -550 0 -611 2 -670 18 -238 65 -411 233 -481 467 -22 73
-22 91 -27 607 -4 558 2 681 37 793 59 186 216 347 408 417 37 13 92 28 123
33 30 4 321 7 645 7 l590 -2 80 -28z m3265 -33 c118 -27 205 -78 305 -179 70
-69 98 -107 126 -165 77 -158 74 -115 74 -1045 0 -933 4 -881 -77 -1045 -68
-140 -204 -261 -357 -319 -107 -40 -160 -42 -1021 -39 l-825 3 -80 28 c-180
64 -315 183 -393 350 -63 132 -62 123 -62 1030 0 787 1 827 20 901 46 182 176
344 342 426 48 23 110 48 140 55 41 10 245 13 898 14 725 1 854 -1 910 -15z"/>
<path d="M2204 6819 c-61 -18 -127 -71 -156 -128 -24 -45 -28 -65 -28 -132 l0
-79 260 0 260 0 0 -185 0 -185 -260 0 -260 0 0 -75 c0 -46 6 -90 15 -113 20
-47 78 -107 130 -135 39 -21 50 -22 380 -22 337 0 340 0 385 23 58 31 86 57
118 112 l27 45 0 350 0 350 -27 47 c-16 25 -45 60 -65 78 -68 55 -103 60 -442
59 -168 0 -320 -5 -337 -10z"/>
<path d="M5272 6541 c-44 -11 -105 -53 -136 -94 -31 -40 -58 -141 -54 -199 l3
-43 263 -3 262 -2 0 -185 0 -185 -262 -2 -263 -3 1 -66 c1 -89 25 -148 80
-199 77 -70 73 -70 452 -70 l338 0 53 26 c60 30 113 95 131 159 7 27 10 147 8
365 -3 311 -4 327 -25 365 -25 47 -74 95 -123 121 -32 17 -64 19 -365 21 -181
1 -345 -2 -363 -6z"/>
</g>
</svg>
