<?xml version="1.0" encoding="UTF-8"?>
<svg id="Layer_2" data-name="Layer 2" xmlns="http://www.w3.org/2000/svg" viewBox="0 0 103.53 104.55">
  <defs>
    <style>
      .cls-1 {
        fill: #f9f9f9;
      }

      .cls-2 {
        fill: #fd8bb6;
      }

      .cls-3 {
        fill: #1d1934;
      }
    </style>
  </defs>
  <g id="Capa_1" data-name="Capa 1">
    <g>
      <path class="cls-2" d="M2.43,73.57c.09,2.63,2.19,4.74,4.82,4.84,10.11,.4,24.58,.98,31,1.24,3.08,.01,8.26,.71,11.19-.22,6.39-1.59,11.32-7.83,11.51-14.46v-.4s.21-4.8,.21-4.8c.02-1.94,1.6-3.51,3.54-3.51s3.52,1.55,3.54,3.49c.09,7.58,.32,7.11,.09,8.52-.89,9.09-7.31,17.15-15.98,20.19-4.09,1.66-9.76,1.47-14.11,1.7l-12.75,.51-17.44,.69c-2.76,.11-4.92,2.43-4.82,5.2l.12,3.55c.09,2.48,2.12,4.44,4.6,4.44H95.57c2.48,0,4.51-1.96,4.6-4.44l3.36-95.35c.09-2.6-1.99-4.76-4.6-4.76H4.6C2,0-.09,2.16,0,4.76L2.43,73.57Z"/>
      <rect class="cls-1" x="51.81" y="12.08" width="35.16" height="35.16" rx="8.38" ry="8.38"/>
      <rect class="cls-1" x="16.56" y="11.55" width="29.29" height="29.29" rx="8.38" ry="8.38"/>
      <path class="cls-3" d="M27.78,19.65h6.85c1.72,0,3.12,1.4,3.12,3.12v6.85c0,1.72-1.4,3.12-3.12,3.12h-6.85c-1.72,0-3.12-1.4-3.12-3.12v-1.04h6.55s0-4.78,0-4.78h-6.55v-1.04c0-1.72,1.4-3.12,3.12-3.12Z"/>
      <path class="cls-3" d="M65.97,23.11h6.85c1.72,0,3.12,1.4,3.12,3.12v6.85c0,1.72-1.4,3.12-3.12,3.12h-6.85c-1.72,0-3.12-1.4-3.12-3.12v-1.04h6.55s0-4.78,0-4.78h-6.55v-1.04c0-1.72,1.4-3.12,3.12-3.12Z"/>
    </g>
  </g>
</svg>