<?xml version="1.0" encoding="UTF-8"?>
<svg id="Layer_2" data-name="Layer 2" xmlns="http://www.w3.org/2000/svg" viewBox="0 0 197.28 200.3">
  <defs>
    <style>
      .cls-1 {
        fill: #f9f9f9;
      }

      .cls-2 {
        fill: #fd8bb6;
      }

      .cls-3 {
        fill: #1d1934;
      }
    </style>
  </defs>
  <g id="Capa_1" data-name="Capa 1">
    <g>
      <path class="cls-2" d="M11.59,182.15l182.52-2c1.76-.02,3.18-1.45,3.18-3.21v-20.43c0-1.76-1.41-3.19-3.17-3.21L3.25,151.01c-1.79-.02-3.25,1.42-3.25,3.21v28.25H0v14.61c0,1.77,1.44,3.21,3.21,3.21h1.99c1.77,0,3.21-1.44,3.21-3.21v-11.73c0-1.76,1.42-3.19,3.18-3.21Z"/>
      <g>
        <path class="cls-2" d="M114.69,0h-21.08c-1.59,0-2.9,1.26-2.95,2.85l-1.89,53.75c-.04,1.19-1.02,2.14-2.21,2.14h0c-1.19,0-2.17-.94-2.21-2.14l-1.89-53.75c-.06-1.59-1.36-2.85-2.95-2.85h-21.08c-1.59,0-2.9,1.26-2.95,2.85l-2.16,61.23c-.06,1.67,1.28,3.06,2.95,3.06h60.58c1.67,0,3.01-1.39,2.95-3.06l-2.16-61.23c-.06-1.59-1.36-2.85-2.95-2.85Z"/>
        <path class="cls-2" d="M47.16,5.46V2.96c0-1.63-1.32-2.96-2.96-2.96H5.11c-1.59,0-2.9,1.26-2.95,2.85L0,64.09c-.06,1.67,1.28,3.06,2.95,3.06H28.34c1.67,0,3.01-1.39,2.95-3.06l-.96-27.38c-.06-1.67,1.28-3.06,2.95-3.06h3.57c1.63,0,2.96-1.32,2.96-2.96v-2.5c0-1.63-1.32-2.96-2.96-2.96h-4.07c-1.59,0-2.9-1.26-2.95-2.85l-.38-10.91c-.06-1.67,1.28-3.06,2.95-3.06h11.81c1.63,0,2.96-1.32,2.96-2.96Z"/>
        <path class="cls-2" d="M166.02,3.09l.52,11.16c.04,.96-1.25,1.29-1.68,.44l-6.58-13.07c-.5-1-1.52-1.63-2.64-1.63h-22.11c-1.59,0-2.9,1.26-2.95,2.85l-2.16,61.23c-.06,1.67,1.28,3.06,2.95,3.06h25.35c1.69,0,3.03-1.41,2.95-3.09l-.52-11.16c-.04-.96,1.25-1.29,1.68-.44l6.58,13.07c.5,1,1.52,1.63,2.64,1.63h22.11c1.59,0,2.9-1.26,2.95-2.85l2.16-61.23c.06-1.67-1.28-3.06-2.95-3.06h-25.35c-1.69,0-3.03,1.41-2.95,3.09Z"/>
      </g>
      <g>
        <path class="cls-2" d="M72.78,95.24c-.06-1.69-1.41-3.04-3.1-3.11-6.49-.26-15.78-.63-19.91-.79-1.98,0-5.31-.45-7.19,.14-4.1,1.02-7.27,5.03-7.39,9.29v.26s-.14,3.08-.14,3.08c-.01,1.25-1.03,2.25-2.27,2.25s-2.26-1-2.27-2.24c-.06-4.87-.21-4.57-.06-5.47,.57-5.84,4.69-11.01,10.27-12.97,2.63-1.06,6.27-.95,9.06-1.09l8.19-.33,11.2-.45c1.77-.07,3.16-1.56,3.1-3.34l-.08-2.28c-.06-1.59-1.36-2.85-2.95-2.85H12.96c-1.59,0-2.9,1.26-2.95,2.85l-2.16,61.23c-.06,1.67,1.28,3.06,2.95,3.06h60.58c1.67,0,3.01-1.39,2.95-3.06l-1.56-44.19Z"/>
        <path class="cls-2" d="M111.33,142.48h-25.39c-1.67,0-3.01-1.39-2.95-3.06l2.16-61.23c.06-1.59,1.36-2.85,2.95-2.85h21.08c1.59,0,2.9,1.26,2.95,2.85l2.16,61.23c.06,1.67-1.28,3.06-2.95,3.06Z"/>
        <path class="cls-2" d="M188.13,103.42c-.06-1.59-1.36-2.85-2.95-2.85h-29.48c-1.59,0-2.9-1.26-2.95-2.85l-.69-19.53c-.06-1.59-1.36-2.85-2.95-2.85h-21.08c-1.59,0-2.9,1.26-2.95,2.85l-2.16,61.23c-.06,1.67,1.28,3.06,2.95,3.06h60.58c1.67,0,3.01-1.39,2.95-3.06l-1.27-36Zm-21.27,25.88c0,2.64-2.14,4.77-4.77,4.77h-7.13c-2.64,0-4.77-2.14-4.77-4.77v-7.13c0-2.63,2.14-4.77,4.77-4.77h7.13c2.64,0,4.77,2.14,4.77,4.77v7.13Z"/>
        <rect class="cls-1" x="18.51" y="112.14" width="22.58" height="22.58" rx="5.38" ry="5.38"/>
        <rect class="cls-1" x="44.92" y="116.25" width="18.81" height="18.81" rx="5.38" ry="5.38"/>
        <path class="cls-3" d="M56.53,129.86h-4.4c-1.11,0-2-.9-2-2v-4.4c0-1.11,.9-2,2-2h4.4c1.11,0,2,.9,2,2v.67h-4.21s0,3.07,0,3.07h4.21v.67c0,1.11-.9,2-2,2Z"/>
        <path class="cls-3" d="M32,127.64h-4.4c-1.11,0-2-.9-2-2v-4.4c0-1.11,.9-2,2-2h4.4c1.11,0,2,.9,2,2v.67h-4.21s0,3.07,0,3.07h4.21v.67c0,1.11-.9,2-2,2Z"/>
      </g>
    </g>
  </g>
</svg>