<?xml version="1.0" encoding="UTF-8"?>
<svg id="Layer_2" data-name="Layer 2" xmlns="http://www.w3.org/2000/svg" viewBox="0 0 712.95 108.08">
  <defs>
    <style>
      .cls-1 {
        fill: #f9f9f9;
      }

      .cls-2 {
        fill: #fd8bb6;
      }

      .cls-3 {
        fill: #1d1934;
      }
    </style>
  </defs>
  <g id="Capa_1" data-name="Capa 1">
    <g>
      <g>
        <path class="cls-2" d="M494.17,108.08h-40.87c-2.69,0-4.85-2.23-4.75-4.92l3.47-98.57C452.11,2.03,454.21,0,456.77,0h33.92c2.56,0,4.66,2.03,4.75,4.59l3.47,98.57c.09,2.69-2.06,4.92-4.75,4.92Z"/>
        <path class="cls-2" d="M683.63,89.95l-3.01-85.36C680.53,2.03,678.43,0,675.87,0h-33.92c-2.56,0-4.66,2.03-4.75,4.59l-3.47,98.57c-.09,2.69,2.06,4.92,4.75,4.92h69.3c2.85,0,5.17-2.31,5.17-5.17v-3.2c0-2.85-2.31-5.17-5.17-5.17h-19.4c-2.56,0-4.66-2.03-4.75-4.59Z"/>
        <path class="cls-2" d="M184.62,0h-33.93c-2.56,0-4.66,2.03-4.75,4.59l-3.05,86.51c-.07,1.92-1.64,3.44-3.56,3.44h0c-1.92,0-3.49-1.52-3.56-3.44l-3.05-86.51C132.63,2.03,130.53,0,127.97,0h-33.93C91.48,0,89.38,2.03,89.29,4.59l-3.47,98.57c-.09,2.69,2.06,4.92,4.75,4.92h97.51c2.69,0,4.85-2.23,4.75-4.92l-3.47-98.57C189.28,2.03,187.18,0,184.62,0Z"/>
        <path class="cls-2" d="M75.91,8.78V4.76C75.91,2.13,73.78,0,71.15,0H8.23C5.67,0,3.56,2.03,3.47,4.59L0,103.16c-.09,2.69,2.06,4.92,4.75,4.92H45.62c2.69,0,4.85-2.23,4.75-4.92l-1.55-44.07c-.09-2.69,2.06-4.92,4.75-4.92h5.74c2.63,0,4.76-2.13,4.76-4.76v-4.03c0-2.63-2.13-4.76-4.76-4.76h-6.55c-2.56,0-4.66-2.03-4.75-4.59l-.62-17.57c-.09-2.69,2.06-4.92,4.75-4.92h19.01c2.63,0,4.76-2.13,4.76-4.76Z"/>
        <path class="cls-2" d="M267.24,4.98l.84,17.97c.07,1.54-2.01,2.08-2.7,.71l-10.59-21.04C253.98,1.01,252.34,0,250.54,0h-35.59c-2.56,0-4.66,2.03-4.75,4.59l-3.47,98.57c-.09,2.69,2.06,4.92,4.75,4.92h40.81c2.71,0,4.88-2.27,4.75-4.98l-.84-17.97c-.07-1.54,2.01-2.08,2.7-.71l10.59,21.04c.81,1.61,2.45,2.62,4.25,2.62h35.59c2.56,0,4.66-2.03,4.75-4.59l3.47-98.57C317.65,2.23,315.5,0,312.8,0h-40.81c-2.71,0-4.88,2.27-4.75,4.98Z"/>
        <path class="cls-2" d="M617.79,45.21c-.09-2.56-2.19-4.59-4.75-4.59h-47.46c-2.56,0-4.66-2.03-4.75-4.59l-1.11-31.44C559.63,2.03,557.52,0,554.96,0h-33.93c-2.56,0-4.66,2.03-4.75,4.59l-3.47,98.57c-.09,2.69,2.06,4.92,4.75,4.92h97.51c2.69,0,4.85-2.23,4.75-4.92l-2.04-57.95Zm-34.24,41.65c0,4.24-3.44,7.68-7.68,7.68h-11.49c-4.24,0-7.68-3.44-7.68-7.68v-11.48c0-4.24,3.44-7.68,7.68-7.68h11.49c4.24,0,7.68,3.44,7.68,7.68v11.48Z"/>
        <path class="cls-2" d="M432.16,32.03c-.1-2.72-2.27-4.9-4.98-5.01-10.45-.42-25.41-1.01-32.05-1.28-3.18-.01-8.54-.73-11.57,.23-6.61,1.64-11.7,8.09-11.9,14.95v.41s-.22,4.96-.22,4.96c-.02,2.01-1.65,3.62-3.66,3.62s-3.64-1.61-3.66-3.61c-.09-7.84-.33-7.36-.1-8.81,.92-9.4,7.55-17.72,16.52-20.88,4.23-1.71,10.09-1.52,14.58-1.75l13.18-.53,18.03-.72c2.86-.11,5.09-2.52,4.98-5.37l-.13-3.67c-.09-2.56-2.19-4.59-4.75-4.59h-90.57c-2.56,0-4.66,2.03-4.75,4.59l-3.47,98.57c-.09,2.69,2.06,4.92,4.75,4.92h97.51c2.69,0,4.85-2.23,4.75-4.92l-2.5-71.12Z"/>
      </g>
      <rect class="cls-1" x="344.75" y="59.24" width="36.35" height="36.35" rx="8.66" ry="8.66"/>
      <rect class="cls-1" x="387.27" y="65.86" width="30.28" height="30.28" rx="8.66" ry="8.66"/>
      <path class="cls-3" d="M405.95,87.77h-7.09c-1.78,0-3.23-1.44-3.23-3.23v-7.09c0-1.78,1.44-3.23,3.23-3.23h7.09c1.78,0,3.23,1.44,3.23,3.23v1.07h-6.77s0,4.94,0,4.94h6.77v1.07c0,1.78-1.44,3.23-3.23,3.23Z"/>
      <path class="cls-3" d="M366.47,84.19h-7.09c-1.78,0-3.23-1.44-3.23-3.23v-7.09c0-1.78,1.44-3.23,3.23-3.23h7.09c1.78,0,3.23,1.44,3.23,3.23v1.07h-6.77s0,4.94,0,4.94h6.77v1.07c0,1.78-1.44,3.23-3.23,3.23Z"/>
    </g>
  </g>
</svg>