<?xml version="1.0" encoding="UTF-8"?>
<svg id="Layer_2" data-name="Layer 2" xmlns="http://www.w3.org/2000/svg" viewBox="0 0 285.14 401.6">
  <defs>
    <style>
      .cls-1, .cls-2 {
        fill: #f9f9f9;
      }

      .cls-3 {
        fill: #fd8bb6;
      }

      .cls-4 {
        fill: #1d1934;
      }

      .cls-2 {
        font-family: Georama-Black, Georama;
        font-size: 54px;
      }
    </style>
  </defs>
  <g id="Capa_1" data-name="Capa 1">
    <text class="cls-2" transform="translate(45.9 273.73) rotate(-90) scale(1.05 1)"><tspan x="0" y="0">ยก</tspan><tspan x="14.89" y="0">R</tspan></text>
    <text class="cls-2" transform="translate(45.13 217.98) rotate(-86.21) scale(1.05 1)"><tspan x="0" y="0">o</tspan></text>
    <text class="cls-2" transform="translate(47.75 185.17) rotate(-77.34) scale(1.05 1)"><tspan x="0" y="0">l</tspan></text>
    <text class="cls-2" transform="translate(51.68 167.26) rotate(-70.97) scale(1.05 1)"><tspan x="0" y="0">l</tspan></text>
    <text class="cls-2" transform="translate(57.97 149.26) rotate(-65.24) scale(1.05 1)"><tspan x="0" y="0"> </tspan></text>
    <text class="cls-2" transform="translate(63.49 136.54) rotate(-58.85) scale(1.05 1)"><tspan x="0" y="0">f</tspan></text>
    <text class="cls-2" transform="translate(74.27 117.55) rotate(-49.63) scale(1.05 1)"><tspan x="0" y="0">o</tspan></text>
    <text class="cls-2" transform="translate(95.71 92.73) rotate(-39.98) scale(1.05 1)"><tspan x="0" y="0">r</tspan></text>
    <text class="cls-2" transform="translate(114.31 77.44) rotate(-33.47) scale(1.05 1)"><tspan x="0" y="0"> </tspan></text>
    <text class="cls-2" transform="translate(125.68 69.54) rotate(-27.09) scale(1.05 1)"><tspan x="0" y="0">f</tspan></text>
    <text class="cls-2" transform="translate(145.58 58.68) rotate(-17.33) scale(1.05 1)"><tspan x="0" y="0">u</tspan></text>
    <text class="cls-2" transform="translate(177.64 48.55) rotate(-5.91) scale(1.05 1)"><tspan x="0" y="0">n</tspan></text>
    <text class="cls-2" transform="translate(210.85 45.91) rotate(-.11) scale(1.05 1)"><tspan x="0" y="0">!</tspan></text>
    <g>
      <path class="cls-3" d="M174.97,243.47c.09,2.63,2.19,4.74,4.82,4.84,10.11,.4,24.58,.98,31,1.24,3.08,.01,8.26,.71,11.19-.22,6.39-1.59,11.32-7.83,11.51-14.46v-.4s.21-4.8,.21-4.8c.02-1.94,1.6-3.51,3.54-3.51s3.52,1.55,3.54,3.49c.09,7.58,.32,7.11,.09,8.52-.89,9.09-7.31,17.15-15.98,20.19-4.09,1.66-9.76,1.47-14.11,1.7l-12.75,.51-17.44,.69c-2.76,.11-4.92,2.43-4.82,5.2l.12,3.55c.09,2.48,2.12,4.44,4.6,4.44h87.61c2.48,0,4.51-1.96,4.6-4.44l3.36-95.35c.09-2.6-1.99-4.76-4.6-4.76h-94.33c-2.6,0-4.69,2.16-4.6,4.76l2.42,68.8Z"/>
      <rect class="cls-1" x="224.36" y="181.99" width="35.16" height="35.16" rx="8.38" ry="8.38"/>
      <rect class="cls-1" x="189.1" y="181.46" width="29.29" height="29.29" rx="8.38" ry="8.38"/>
      <path class="cls-4" d="M200.32,189.55h6.85c1.72,0,3.12,1.4,3.12,3.12v6.85c0,1.72-1.4,3.12-3.12,3.12h-6.85c-1.72,0-3.12-1.4-3.12-3.12v-1.04h6.55s0-4.78,0-4.78h-6.55v-1.04c0-1.72,1.4-3.12,3.12-3.12Z"/>
      <path class="cls-4" d="M238.51,193.02h6.85c1.72,0,3.12,1.4,3.12,3.12v6.85c0,1.72-1.4,3.12-3.12,3.12h-6.85c-1.72,0-3.12-1.4-3.12-3.12v-1.04h6.55s0-4.78,0-4.78h-6.55v-1.04c0-1.72,1.4-3.12,3.12-3.12Z"/>
    </g>
  </g>
</svg>