<svg xmlns="http://www.w3.org/2000/svg" width="2020.422" height="384.041" viewBox="0 0 2020.422 384.041">
  <g id="Group_640" data-name="Group 640" transform="translate(-3.426 -5440.31)">
    <path id="Path_680" data-name="Path 680" d="M0,0,442.5.23l36.25.019L780,.406l53.437.028L933.75.486,1177.5.613l83.572.044L1920,1" transform="translate(3.432 5583.027)" fill="#10cfc9" stroke="#11cfc9" stroke-width="20"/>
    <g id="Capa_1" data-name="Capa 1" transform="translate(1348.561 5432.31) rotate(1)">
      <path id="Path_548" data-name="Path 548" d="M13.172,4.913A565.182,565.182,0,0,0,0,113.165c24.892.438,50.286.939,73.894,9.827,37.338,14.052,65.969,47.131,94.321,77.77,28.352,30.67,60.248,61.245,99.177,67.88,16.018,2.723,32.343,1.189,48.528.063,47.551-3.255,98.451-1.753,138.133,27.853,25.869,19.309,44.2,48.633,61.895,77.237a448.121,448.121,0,0,0,66.583-75.454c4.493-6.416,9.1-14.083,7.535-22.063-1.06-5.383-4.744-9.576-8.344-13.332C534.646,214.062,472,184.456,407.9,180.826c-34.715-1.972-70.127,3.349-103.837-6.1C251.152,159.889,211.833,111.882,173.1,68.85c-11.19-12.424-22.659-24.692-35.747-34.519C101.828,7.636,57.4.751,14.678,0c-.7,2.6-1.4,5.164-2.065,7.761" transform="translate(85.127 6.515)" fill="#ff6c37"/>
    </g>
    <path id="Path_681" data-name="Path 681" d="M0,0,442.5.23l36.25.019L780,.406l53.437.028L933.75.486,1177.5.613l83.572.044L1920,1" transform="translate(3.432 5624.512)" fill="#10cfc9" stroke="#11cfc9" stroke-width="20"/>
  </g>
</svg>
