<svg xmlns="http://www.w3.org/2000/svg" width="1955.209" height="167.525" viewBox="0 0 1955.209 167.525">
  <g id="Group_639" data-name="Group 639" transform="translate(33.772 -6449.304)">
    <path id="Path_679" data-name="Path 679" d="M0,0,446.242.23,482.8.249,1936.234,1" transform="translate(-14.803 6605.829)" fill="gold" stroke="#d8fe7b" stroke-width="20"/>
    <g id="Capa_1" data-name="Capa 1" transform="translate(-33.772 6488.48)">
      <path id="Path_419" data-name="Path 419" d="M24.805,10.682C12.119,23.64-1.434,38.877.122,56.535.87,64.766,4.909,72.4,9.277,79.547c7.181,11.819,16.426,23.781,30.1,27.882,9.9,2.99,20.734,1.339,30.518-1.965,17.473-5.9,33.69-18.2,38.567-35.2a48.72,48.72,0,0,0,1.017-20.477c-2.513-17.6-12.776-34.575-28.9-43.518C64.449-2.647,42.488-2.305,28.007,8.916" transform="translate(0.001 0.001)" fill="#d8fe7a"/>
    </g>
    <g id="Capa_1-2" data-name="Capa 1" transform="translate(76.327 6465.198)">
      <path id="Path_419-2" data-name="Path 419" d="M31.024,13.782C15.158,30.5-1.794,50.162.152,72.945,1.088,83.564,6.14,93.413,11.6,102.636c8.981,15.25,20.544,30.683,37.645,35.975,12.386,3.858,25.933,1.727,38.169-2.536,21.854-7.607,42.136-23.481,48.235-45.419a64.791,64.791,0,0,0,1.272-26.421c-3.143-22.709-15.979-44.61-36.148-56.149C80.607-3.415,53.14-2.974,35.028,11.5" transform="translate(0.001 0.001)" fill="#d8fe7a"/>
    </g>
    <g id="Capa_1-3" data-name="Capa 1" transform="translate(214.029 6449.304)">
      <path id="Path_419-3" data-name="Path 419" d="M33.269,15.34C16.255,33.95-1.923,55.831.163,81.189c1,11.82,6.421,22.781,12.279,33.047,9.631,16.973,22.03,34.151,40.369,40.041,13.282,4.294,27.809,1.922,40.931-2.822,23.435-8.466,45.185-26.135,51.726-50.552,2.568-9.53,2.689-19.591,1.364-29.407C143.462,46.22,129.7,21.843,108.069,9,86.439-3.8,56.985-3.31,37.563,12.8" transform="translate(0.001 0.001)" fill="#d8fe7a"/>
    </g>
  </g>
</svg>
