<svg xmlns="http://www.w3.org/2000/svg" width="122.131" height="168.508" viewBox="0 0 122.131 168.508">
  <g id="Group_553" data-name="Group 553" transform="translate(-12250.829 -11167.948) rotate(42)">
    <path id="Path_1155" data-name="Path 1155" d="M753.1,397.32a15.672,15.672,0,0,1-1.084-7.981,77.5,77.5,0,0,1,2.326-13.462c.631-2.307.663-4.734,2.553-6.615,1.106-1.1.722-2.424-.632-3.34a8.764,8.764,0,0,0-3.566-1.559c-1.658-.254-2.928.066-3.741,1.865-6.234,13.8-7.4,27.745-2.436,42.323,2.6,7.62,7.462,13.086,13.137,18.247,5.1,4.636,10.63,8.5,17.29,10.242,10.283,2.7,20.174-1.085,25.537-11.223a14.162,14.162,0,0,0,1.324-4.461c1.422-9.444.073-18.154-6.615-25.486a16.14,16.14,0,0,0-4.487-3.487c-6-3.127-12.233-5.273-19.14-3.676a4.551,4.551,0,0,1-1.047.195c-6.438-.077-11.5,3.252-16.476,6.8a6.607,6.607,0,0,1-2.943,1.615m28.179,28.567c-5.045-.058-7-.637-10.326-2.532-4.822-2.747-8.534-6.685-11.838-11.093-2.478-3.306-2.226-4.768,1.341-7.165.592-.4,1.131-.885,1.75-1.229,5.8-3.227,11.8-5.355,18.6-4.023,3.031.593,5.366,2.421,7.9,3.918,4.47,2.642,5.972,6.823,5.965,11.824a6.772,6.772,0,0,1-1.735,4.562,16.219,16.219,0,0,1-11.662,5.738" transform="translate(15897.601 -306.023)" fill="#00b2e3"/>
    <path id="Path_1156" data-name="Path 1156" d="M776.022,461.868c.079-1.78-1.075-2.746-2.666-2.111a7.488,7.488,0,0,0-2.061,1.363q-4.151,3.629-8.236,7.333a16.351,16.351,0,0,0-3.4,5.4,3.677,3.677,0,0,0,.724,4.008c.917,1.2,2.089.428,3.235.2a4.5,4.5,0,0,0,2.966-1.7c2.6-3.539,5.587-6.779,7.961-10.5a9.825,9.825,0,0,0,1.48-4" transform="translate(15895.451 -427.635)" fill="#00b2e3"/>
    <path id="Path_1157" data-name="Path 1157" d="M821.124,358.567c-1.863,3.052-5.244,5.406-5.536,9.457.8.582,1.243.133,1.617-.3,2.132-2.46,5-4,7.4-6.071a45.14,45.14,0,0,1,8.8-5.915c3.271-1.691,6.052-4.188,9.463-5.608a9.023,9.023,0,0,0,1.178-.8,2.36,2.36,0,0,0,1.338-2.664c-.246-1.2-1.159-1.332-2.1-1.571-3.329-.842-6.757-1.084-10.128-1.655a141.306,141.306,0,0,1-18.59-4.808c-5.748-1.8-11.564-3.275-17.71-4.672.1,1.873,1.277,2.483,2.365,3,5.772,2.764,11.232,6.245,17.539,7.8,1.194.293,3.078.469,3.042,1.891-.035,1.368-1.743,2.118-3.026,2.7a25.969,25.969,0,0,1-17.328,1.639,52.217,52.217,0,0,1-20.967-10.8,75.968,75.968,0,0,1-16.448-19.611c-1.828-3.011-5-4.727-7.644-6.925-1.526-1.267-3.035-2.675-5.334-3.1-.419,3.365.93,6.27,1.9,9.088,1.665,4.83,3.37,9.813,6.645,13.768,2.159,2.609,4.228,5.338,6.605,7.828,3.146,3.294,6.938,5.553,10.173,8.49,6.5,5.9,14.347,8.524,22.324,10.156,7.66,1.568,15.76,1.926,23.322-1.643a.825.825,0,0,1,1.11.332" transform="translate(15897.55 -189.049)" fill="#00b2e3"/>
  </g>
</svg>
