<svg xmlns="http://www.w3.org/2000/svg" width="316.735" height="327.76" viewBox="0 0 316.735 327.76">
  <path id="Path_610" data-name="Path 610" d="M142.474,0C159,0,178.454,4.274,185.251,19.782c7.006,16-3.865,33.9-5.445,51.366-.4,4.372-.114,9.1,2.38,12.665,5.616,8.077,18.58,5.117,25.224-2.078s9.8-17.135,15.953-24.781c18.618-23.134,57.968-14.684,75.6,9.293,17.609,23.958,18.942,56.424,17.21,86.42-3.008,52.385-15.439,108.554-54.332,142.471-39.826,34.76-97.7,37.407-149.062,27.839C80.907,317.036,48.049,306.018,26.632,281-1.943,247.614-3.1,198.091,2.969,154.019,10.508,99.1,30.82,0,142.474,0Z" transform="translate(-0.001)" fill="#fd8bb6"/>
</svg>
