<svg xmlns="http://www.w3.org/2000/svg" width="443.56" height="293.196" viewBox="0 0 443.56 293.196">
  <g id="Group_637" data-name="Group 637" transform="translate(9.136 -1359.945)">
    <path id="Path_1155" data-name="Path 1155" d="M769.7,473.041c-3.191,7.259-3.611,14.225-2.945,21.4a205.358,205.358,0,0,0,6.317,36.095c1.714,6.185,1.8,12.693,6.935,17.736,3,2.952,1.961,6.5-1.717,8.955a23.965,23.965,0,0,1-9.686,4.179c-4.5.681-7.954-.176-10.163-5-16.934-37-20.112-74.389-6.618-113.475,7.053-20.431,20.269-35.087,35.685-48.923,13.847-12.429,28.875-22.779,46.964-27.459,27.931-7.227,54.8,2.909,69.365,30.09a37.607,37.607,0,0,1,3.6,11.962c3.862,25.321.2,48.674-17.969,68.332a43.776,43.776,0,0,1-12.187,9.349c-16.3,8.385-33.229,14.136-51.989,9.855a12.511,12.511,0,0,0-2.843-.522c-17.488.208-31.234-8.72-44.753-18.242-2.314-1.628-4.37-3.755-7.993-4.329m76.542-76.592c-13.7.155-19.015,1.708-28.05,6.789-13.1,7.366-23.18,17.923-32.155,29.741-6.73,8.864-6.046,12.785,3.643,19.211,1.607,1.067,3.073,2.373,4.753,3.3,15.753,8.652,32.064,14.358,50.532,10.785,8.234-1.591,14.577-6.49,21.464-10.5,12.142-7.083,16.222-18.295,16.2-31.7a18.023,18.023,0,0,0-4.712-12.231,44.28,44.28,0,0,0-31.677-15.386" transform="translate(399.465 566.056) rotate(75)" fill="#10cfc9"/>
    <path id="Path_1156" data-name="Path 1156" d="M804.675,504.2c.214,4.774-2.92,7.361-7.24,5.661a20.366,20.366,0,0,1-5.6-3.654q-11.274-9.729-22.371-19.66c-4.4-3.946-6.741-9.281-9.244-14.483-1.958-4.076-.422-7.664,1.967-10.747,2.492-3.212,5.674-1.147,8.786-.536,3.34.657,6.064,1.888,8.057,4.562,7.07,9.488,15.176,18.176,21.623,28.145a26.13,26.13,0,0,1,4.021,10.712" transform="translate(287.328 618.305) rotate(75)" fill="#10cfc9"/>
    <path id="Path_1157" data-name="Path 1157" d="M944.969,336.646c-5.061-8.184-14.244-14.494-15.037-25.355,2.17-1.559,3.376-.356,4.393.8,5.791,6.6,13.571,10.724,20.1,16.277a122.738,122.738,0,0,0,23.894,15.86c8.886,4.534,16.439,11.228,25.7,15.037a24.541,24.541,0,0,1,3.2,2.152c2.674,1.651,4.347,3.7,3.634,7.142-.668,3.224-3.148,3.572-5.715,4.213-9.044,2.257-18.354,2.907-27.509,4.439-17.244,2.884-33.893,7.76-50.5,12.892-15.614,4.826-31.412,8.781-48.107,12.527.271-5.022,3.47-6.657,6.424-8.054,15.678-7.411,30.509-16.745,47.642-20.9,3.244-.786,8.362-1.256,8.262-5.07-.1-3.668-4.735-5.679-8.219-7.236a71.389,71.389,0,0,0-47.069-4.4c-21.206,5.159-39.929,15.074-56.952,28.955-18.235,14.866-32.463,32.721-44.678,52.582-4.965,8.072-13.578,12.673-20.764,18.566-4.144,3.4-8.244,7.172-14.49,8.316-1.138-9.023,2.526-16.811,5.164-24.366,4.523-12.949,9.155-26.31,18.049-36.916,5.866-6.994,11.485-14.312,17.941-20.987,8.547-8.832,18.844-14.889,27.633-22.763,17.647-15.81,38.972-22.854,60.638-27.229,20.807-4.2,42.808-5.164,63.349,4.4.853.4,1.87.515,3.016-.891" transform="translate(472.721 556.123) rotate(75)" fill="#10cfc9"/>
  </g>
</svg>
