<svg xmlns="http://www.w3.org/2000/svg" width="236.766" height="684.622" viewBox="0 0 236.766 684.622">
  <g id="Group_638" data-name="Group 638" transform="translate(-1820.617 -1499.185)">
    <g id="Capa_1" data-name="Capa 1" transform="translate(3483.619 2494.052)">
      <path id="Path_543" data-name="Path 543" d="M1.375,84.834C-1.669,107.117.81,129.786,4.2,152.018c2.325,15.271,5.33,31.056,14.41,43.552,14.783,20.344,44.04,31.736,67.788,23.465,28.05-9.761,14.834-18.019,31.98-24.942s28.782,27.665,85.307,6.2c49.088-18.636,32.725-129.745,19.1-180.978C220.626,11.176,202.889-7.46,173.555,3.2c-44.31,16.119-24.878,30.413-43.886,36.912-19.458,6.653-30.76-20.794-66.337-21.757C15,17.046,4.419,62.55,1.375,84.834Z" transform="translate(-1663 -532)" fill="#d8ff7a"/>
    </g>
    <g id="Capa_1-2" data-name="Capa 1" transform="translate(3483.619 2262.623)">
      <path id="Path_543-2" data-name="Path 543" d="M1.375,84.834C-1.669,107.117.81,129.786,4.2,152.018c2.325,15.271,5.33,31.056,14.41,43.552,14.783,20.344,44.04,31.736,67.788,23.465,28.05-9.761,14.834-18.019,31.98-24.942s28.782,27.665,85.307,6.2c49.088-18.636,32.725-129.745,19.1-180.978C220.626,11.176,202.889-7.46,173.555,3.2c-44.31,16.119-24.878,30.413-43.886,36.912-19.458,6.653-30.76-20.794-66.337-21.757C15,17.046,4.419,62.55,1.375,84.834Z" transform="translate(-1663 -532)" fill="gold"/>
    </g>
    <g id="Capa_1-3" data-name="Capa 1" transform="translate(3483.619 2031.193)">
      <path id="Path_543-3" data-name="Path 543" d="M1.375,84.834C-1.669,107.117.81,129.786,4.2,152.018c2.325,15.271,5.33,31.056,14.41,43.552,14.783,20.344,44.04,31.736,67.788,23.465,28.05-9.761,14.834-18.019,31.98-24.942s28.782,27.665,85.307,6.2c49.088-18.636,32.725-129.745,19.1-180.978C220.626,11.176,202.889-7.46,173.555,3.2c-44.31,16.119-24.878,30.413-43.886,36.912-19.458,6.653-30.76-20.794-66.337-21.757C15,17.046,4.419,62.55,1.375,84.834Z" transform="translate(-1663 -532)" fill="#fd8bb6"/>
    </g>
  </g>
</svg>
