<svg xmlns="http://www.w3.org/2000/svg" width="95.728" height="50.036" viewBox="0 0 95.728 50.036">
  <g id="Group_551" data-name="Group 551" transform="translate(95.728 5.269) rotate(94)">
    <path id="Path_1158" data-name="Path 1158" d="M44.877,33.544c-1.789-2.5-3.2-4.642-4.843-6.721-2.955-3.743-6.058-7.443-9.081-11.166A73.989,73.989,0,0,1,22.89,2.869,9.706,9.706,0,0,0,21.7.937,3.254,3.254,0,0,0,17.277.794,6.814,6.814,0,0,0,16,2.43c-2.433,3.942-4.316,8.045-7.424,11.784C6.3,16.945,4.448,19.872,1.255,22.327c-.6.463-1.483.846-1.2,1.753a10.579,10.579,0,0,0,4.689-1.436,33.526,33.526,0,0,0,4.909-3.271,3.35,3.35,0,0,1,2.491-.865c1.356.108,1.184.882,1.336,1.435A5.032,5.032,0,0,1,13.692,22,28.478,28.478,0,0,0,15,36.256c.359.98-.85,1.73-.8,2.723.093,1.72,1.112,3.35.863,5.113a24.255,24.255,0,0,0,.253,5.427c.153,1.8.389,3.6.589,5.393.35,3.151.216,6.331,1.253,9.443.827,2.481.269,4.97.4,7.453.031.593-.356,1.215.353,1.749,1.149.865,2.094,2.061,4.228,1.968a3.508,3.508,0,0,0,3.606-2.537,6.054,6.054,0,0,0,.558-2.556c-.467-5.661-.715-11.333-1.51-16.978a25.306,25.306,0,0,1-.061-5.63c.309-3.8-.541-7.548-.947-11.313-.173-1.607,1.03-3.14-.085-4.841-.876-1.336-.512-2.963-.711-4.46-.346-2.6.221-5.17.581-7.748a1.356,1.356,0,0,1,1.359-1.179A2.141,2.141,0,0,1,26.592,19a4.078,4.078,0,0,1,.852.9c3.05,4.352,8.161,7.9,12.662,11.692a7.073,7.073,0,0,0,4.771,1.957" transform="translate(0)" fill="gold"/>
    <path id="Path_1160" data-name="Path 1160" d="M6.2,7.662a22.715,22.715,0,0,0,.563-5.6C6.752.9,5.965.2,3.938.018,2.17-.136-.143.717.007,1.793c.409,2.944.005,5.964,1.911,8.8a2.506,2.506,0,0,0,2.31.911c1.275-.078,1.354-.686,1.612-1.247A2.973,2.973,0,0,0,6.2,7.662" transform="translate(19.057 82.646)" fill="gold"/>
  </g>
</svg>
