<?xml version="1.0" encoding="UTF-8"?>
<svg id="Layer_2" data-name="Layer 2" xmlns="http://www.w3.org/2000/svg" xmlns:xlink="http://www.w3.org/1999/xlink" viewBox="0 0 600 600.77">
  <defs>
    <style>
      .cls-1 {
        fill: #f9f9fa;
      }

      .cls-2 {
        fill: #00b8b9;
      }

      .cls-3 {
        fill: #00b4e6;
      }

      .cls-4 {
        fill: #f283b2;
      }

      .cls-5 {
        fill: #1e1936;
      }

      .cls-6 {
        fill: url(#Degradado_sin_nombre_23);
      }

      .cls-7 {
        opacity: .9;
      }
    </style>
    <linearGradient id="Degradado_sin_nombre_23" data-name="Degradado sin nombre 23" x1="212.2" y1="529.09" x2="702.98" y2="358.63" gradientUnits="userSpaceOnUse">
      <stop offset="0" stop-color="#00b4e6"/>
      <stop offset=".1" stop-color="#11a6dc"/>
      <stop offset=".31" stop-color="#328bc9"/>
      <stop offset=".51" stop-color="#4a78bb"/>
      <stop offset=".69" stop-color="#596cb3"/>
      <stop offset=".85" stop-color="#5e69b1"/>
    </linearGradient>
  </defs>
  <g id="Layer_1-2" data-name="Layer 1">
    <g>
      <path class="cls-4" d="M413.56,515.9c-3.14,.68-6.27,1.57-9.41,2.04-4.41,.66-8.76,1.54-13.14,2.36-6.97,1.3-13.91,2.81-20.87,4.09-9.17,1.68-18.3,3.52-27.48,5.18-8.19,1.48-16.38,3-24.54,4.63-4.12,.82-8.18,1.92-12.41,2.16-.72,.04-1.44,.34-2.14,.57-3.2,1.06-6.73-.74-7.54-4.02-.58-2.31-1.01-4.68-1.31-7.04-.94-7.27-2.12-14.5-3.31-21.73-1.05-6.42-2.1-12.84-3.08-19.27-1.24-8.14-2.46-16.28-3.75-24.41-.93-5.86-1.92-11.71-2.64-17.6-.52-4.24-1.57-8.43-2.06-12.69-.55-4.75-1.73-9.4-2.13-14.17-.04-.49-.15-.98-.26-1.46-.92-4.02,.71-6.9,4.72-8.1,1.97-.59,3.98-1.08,6-1.45,5.18-.97,10.38-1.88,15.55-2.87,4.19-.8,8.46-1.21,12.57-2.48,1.48-.46,3.05-.69,4.59-.87,5.48-.66,10.79-2.21,16.21-3.19,5.74-1.04,11.51-1.99,17.2-3.23,4.18-.91,8.4-1.69,12.59-2.36,5.12-.82,10.03-2.57,15.26-2.96,2.82-.21,5.68-.9,8.5-1.45,3.49-.67,5.48,.41,6.83,3.69,.25,.61,.53,1.22,.68,1.85,1.61,6.9,3.21,13.8,4.78,20.71,2.3,10.12,4.6,20.25,6.84,30.38,1.27,5.71,2.34,11.47,3.66,17.17,1.77,7.61,3.28,15.29,5.31,22.84,.81,3.02,1.09,6.18,1.93,9.19,1.4,5,1.95,10.2,3.79,15.08,.69,1.83,.59,3.69-.45,5.48-.71,1.22-1.66,1.97-2.99,2.4-2.45,.79-5.01,.98-7.5,1.52Zm-48.91-89.68c-.56-3.42-2.16-7.11-4.51-10.44-1.96-2.78-4.23-5.24-7.53-6.55-3.63-1.45-7.22-1.68-10.72,.24-4.63,2.53-7.21,6.58-8.46,11.61-2.01,8.09-.68,15.68,3.29,22.91,1.75,3.18,4.16,5.72,7.28,7.53,2.41,1.4,5.01,1.97,7.83,1.66,6.2-.7,9.65-4.71,11.75-10.02,2.08-5.24,2.28-10.75,1.06-16.93Z"/>
      <rect class="cls-1" x="309.72" y="471.19" width="44.48" height="44.48" rx="10.6" ry="10.6" transform="translate(-87.68 72.04) rotate(-10.95)"/>
      <rect class="cls-1" x="361.7" y="470.03" width="37.05" height="37.05" rx="10.6" ry="10.6" transform="translate(-85.88 81.11) rotate(-10.95)"/>
      <path class="cls-5" d="M328.21,493.87l-8.51,1.65c-2.14,.41-4.21-.99-4.63-3.13l-1.65-8.51c-.41-2.14,.99-4.21,3.13-4.63l8.51-1.65c2.14-.41,4.21,.99,4.63,3.13l.35,1.81c.07,.38-.18,.76-.56,.83l-6.74,1.3c-.38,.07-.63,.45-.56,.83l.4,2.09c.07,.38,.45,.63,.83,.56l6.74-1.3c.38-.07,.76,.18,.83,.56l.35,1.83c.41,2.14-.99,4.21-3.13,4.63Z"/>
      <path class="cls-5" d="M379.48,490.05l-8.51,1.65c-2.14,.41-4.21-.99-4.63-3.13l-1.65-8.51c-.41-2.14,.99-4.21,3.13-4.63l8.51-1.65c2.14-.41,4.21,.99,4.63,3.13l.35,1.81c.07,.38-.18,.76-.56,.83l-6.74,1.3c-.38,.07-.63,.45-.56,.83l.4,2.09c.07,.38,.45,.63,.83,.56l6.74-1.3c.38-.07,.76,.18,.83,.56l.35,1.83c.41,2.14-.99,4.21-3.13,4.63Z"/>
    </g>
    <path class="cls-6" d="M568.75,599.93c-123.68,2.72-245.99-2.23-369.23,.07-54.08-3.46-110.26,.4-164.06-2.36-43.73,3.1-34.2-19.62-34.6-41.21,.41-49.26-3.95-98.44,3.72-146.76,4.49-20.76,103.24-7.86,128.74-12.3,69.88-6.74,113.2,14.26,175.26,31.61,80.9,19.38,184.66,15.23,254.91-21.89,58.74-27.49,25.06,72.3,32.38,92.85-7.99,27.69,27.66,93.97-27.13,100Z"/>
    <path d="M17.54,466.33c-4.69,.57-7.99-3.13-5.09-5.73,29.48-26.41,124.14-28.05,143.34-17.66,4.31,2.33,4.82,5.27-.06,8.66-6.34,4.42-15.96,5.64-24.46,3.56-36.32-8.88-82.1,7.31-113.73,11.16Z"/>
    <path d="M468.28,435.26c15.34-1.27,78.2-16.68,97.93-27.88,1.85-1.05,7.64-5.24,9.63-5.56,7.03-1.13,16.11,3.96,19.62,11.17-4.68,13.16-80.43,39.77-115.32,38.67-9.94-.31-15.69-16.09-11.86-16.4Z"/>
    <path d="M569.15,547.15c-3.51-7.21-12.59-12.3-19.62-11.17-1.98,.32-7.77,4.52-9.63,5.56-67.89,37.99-185.87,26.36-209.51,22.41-1.71-.29-3.45-.59-5.2-.89,0,0-.02,0-.02,0h0c-17.97-3.04-37.9-6.27-54.19-11.09-72.64-21.48-179.85-56.04-232.8,3.77,7.68,10.96,28.38-6.66,40.83-6.43,86.69-25.53,157.23,27.71,240.33,35.51,.01,0,.02,0,.03,0,34.07,4.67,97.95,5.36,140.56,.93,42.62-4.42,94.51-21.22,109.23-38.61Z"/>
    <path class="cls-2" d="M340.75,206.9c-3.39-.09-6.79,.07-10.15,.5-.31,.04-.63,.08-.9,.25-.63,.39-.69,1.26-.69,2,.03,4.59,.26,9.18,.67,13.75,.05,.59,.13,1.22,.51,1.68,.72,.85,2.07,.62,3.14,.94,1.98,.6,3.24,3.24,5.29,2.95,.5-.07,.97-.33,1.36-.66,1.78-1.49,1.99-4.09,2.33-6.38,.38-2.54,1.07-5.04,1.25-7.6,.18-2.56-.23-5.29-1.81-7.31"/>
    <path d="M346.63,228.66c-2.7-1.33-5.25-2.71-7.58-4.16,0,0,.4-6.45-.07-10.11,1.04-7.56-.35-3.93-6.05-4.58-2.89,0,.41,11.61,.41,11.61l-5.93-3.1s-.52-3.92-.48-4.41c.25-3.46-.62-6.88-2.61-9.72-2.17-3.1-2.56-5.21-2.25-7.29,.53-3.53,3.09-6.95,2.35-14.92,.22-14.57,2.61-10.26-7.99-18.73-11.92-.97-33.31,19.24-46.06,23.62-.8,.36-1.59,1.67-.79,3.22,9.11,17.71,31.15,58.69,33.24,63.34,2.09,4.65-18.4,16.6-20.39,12.34-13.21-23.18-23.9-47.92-34.65-72.29-7.1-4.78-3.99-16.73,2.53-20.74,2.79-1.59,7.41-.07,9.75-2.19,11.51-9.29,26.45-16.31,39.05-24.53,3.46-2.05,9.63-1.72,11.01-5.59,6.64-18.58,4.34-36.74,4.34-36.74,0,0-36.81-14.42-36.19-31.85-.24-2.7,.36-5.28,1.09-7.78,1.17-3.97,6.02-5.45,9.22-2.84,2.13,1.73,4.06,3.76,5.49,5.49,23.3,25.36,67.45,19.35,81.81-12.89,5.35-11.66,10.33,7.21,8.94,11.92-7.65,25.83-33.74,32.17-36.2,33.77-1.5,.98-.66,21.02,3.7,31.74,1.79,4.41,13.79,7.98,23.07,12.78,9.56,4.02,51.96,23.93,53.56,27.52,3.51,7.91-7.11,19.01-9.51,30.82-5.54,13.7-20.53,54.49-21.19,57.93-2.39,5.33-16.32-1.58-19.13-2.41-9.99-5.01,20.44-67.05,21.89-77-11.49-5.69-21.39-11.63-32.88-16.56-3.71-.67-13.06-11.08-14.74-7.54-1.65,4.62-6.66,6.75-9.26,10.75,.71,7.19-.83,15.38,.6,22.01,4.56,5.7,.5,12.31,.01,18.4,.27,6.96,1.88,20.66,1.88,20.66Z"/>
    <path d="M327.42,218.66c.38,2.66,1.09,5.25,2.12,7.72,.48,1.15,.95,2.56,1.93,3.4s2.37,1.21,3.57,1.56c2.57,.75,5.36,1.06,8.01,.55s4.74-2.92,3.39-5.56c-.88-1.72-3.47-.2-2.59,1.51,.23,.44-.58,.85-.86,.96-.85,.32-1.84,.34-2.74,.33-2-.01-3.95-.47-5.82-1.15-.79-.29-1.1-.52-1.47-1.28-.45-.91-.83-1.84-1.17-2.79-.7-1.97-1.18-4-1.48-6.06-.11-.8-1.14-1.24-1.85-1.05-.86,.24-1.16,1.04-1.05,1.85h0Z"/>
    <path d="M330.09,219.57c.46,2.18,1.03,4.33,1.71,6.45,.34,1.05,.61,2.28,1.47,3.04,.92,.82,2.23,.81,3.39,.89,1.09,.07,2.19,.1,3.29,.08,.59-.01,1.17-.03,1.75-.07,.62-.04,1.29-.03,1.83-.37,1.26-.78,.81-2.22,.46-3.37s-.77-2.18-1.27-3.22c-.29-.59-1.09-.85-1.69-.69-.66,.18-1.07,.78-1.1,1.45-.06,1.11-.33,2.23-.8,3.24-.34,.73-.2,1.62,.54,2.05,.65,.38,1.71,.2,2.05-.54,.71-1.51,1.12-3.08,1.21-4.75l-2.8,.76c.29,.59,.54,1.19,.75,1.82,.11,.32,.21,.65,.31,.98,.05,.16,.09,.33,.13,.49l.05,.2c.06,.33,.08,.26,.04-.21l.39-.66c.61-.17,.76-.24,.45-.21-.07,0-.15,.01-.22,.02-.18,.01-.36,.02-.55,.03-.37,.02-.73,.04-1.1,.05-.73,.02-1.46,.02-2.19,0s-1.39-.05-2.08-.11c-.26-.02-.62-.03-.8-.09-.13-.04,0,.14-.1-.07-.5-1.09-.85-2.55-1.2-3.79-.39-1.38-.73-2.78-1.03-4.18-.17-.79-1.1-1.25-1.85-1.05-.82,.23-1.22,1.05-1.05,1.85h0Z"/>
    <path d="M330,225.53c-.06,1.39,.13,2.78,.45,4.13,.28,1.17,.57,2.43,1.07,3.52,.55,1.18,1.61,1.67,2.87,1.69,1.34,.02,2.69-.04,4.03-.07s2.6-.06,3.91-.1,2.84,.08,3.56-1.27c.53-1.01,.41-2.41,.33-3.51-.11-1.33-.37-2.63-.79-3.9l-2.51,1.46c.49,.55,.9,1.19,1.16,1.88,.14,.36,.25,.74,.32,1.13,.06,.33,0,.46,.24,.06,.28-.46,.12-.24-.18-.19-1.98,.34-4.1,.31-6.1,.18-.94-.06-1.87-.15-2.8-.31-.72-.12-1.24-.15-1.47-.84-.29-.87-.47-1.77-.81-2.63-.38-.96-.82-1.89-1.34-2.78-.63-1.08-2.45-.92-2.74,.36-.36,1.56-.48,3.15-.31,4.74h3c-.31-2.73-.63-5.47-.94-8.2-.09-.8-.62-1.5-1.5-1.5-.78,0-1.55,.69-1.5,1.5,.14,2.47,.41,4.94,.83,7.38,.21,1.26,.47,2.51,.76,3.75,.27,1.15,.64,2.28,1.9,2.65,1.09,.32,2.4,.23,3.52,.23,1.24,0,2.48-.06,3.72-.16,2.56-.2,5.11-.56,7.66-.92,.8-.11,1.24-1.14,1.05-1.85-.24-.86-1.04-1.16-1.85-1.05-4.2,.59-8.43,1.16-12.68,.92-.05,0-.5-.06-.52-.03l.3,.26-.06-.24c0-.48-.26-1.08-.36-1.55-.23-1.04-.43-2.09-.6-3.14-.34-2.07-.55-4.17-.67-6.26h-3c.31,2.73,.63,5.47,.94,8.2,.09,.8,.62,1.5,1.5,1.5,.74,0,1.59-.69,1.5-1.5-.15-1.33-.1-2.64,.2-3.95l-2.74,.36c.64,1.1,1.16,2.25,1.52,3.48s.55,2.38,1.55,3.2c.93,.77,2.13,.93,3.29,1.09,1.41,.19,2.82,.32,4.25,.34,1.34,.02,2.68-.04,4.02-.19,1.2-.13,2.57-.23,3.21-1.43,.56-1.05,.13-2.5-.27-3.55-.44-1.15-1.07-2.16-1.89-3.08-.98-1.11-2.98,.06-2.51,1.46,.27,.81,.5,1.65,.62,2.5,.07,.49,.1,.99,.1,1.49,0,.18-.12,1.13-.04,1.22-.24-.24,1.03-.2,.08-.36-.2-.03-.45,.01-.65,.02-.49,.01-.98,.03-1.46,.04-1.03,.03-2.06,.05-3.09,.07-.98,.02-1.95,.04-2.93,.05-.18,0-.95,.06-.97,.05,.02,.01-.14-.5-.17-.61-.58-1.89-1.11-3.77-1.02-5.77s-2.92-1.93-3,0h0Z"/>
    <path d="M342.76,223.29c.59,1.71,1.11,3.45,1.57,5.2,.24,.91,.46,1.83,.65,2.76,.03,.15,.11,.51,.1,.55,0,.03,.21-.16-.02,.02-.08,.06-.21,.07-.34,.1-3.41,.82-7.15,.2-10.56-.25-.8-.1-1.5,.76-1.5,1.5,0,.9,.69,1.39,1.5,1.5,2.09,.27,4.18,.54,6.29,.58,1.01,.02,2.02-.01,3.02-.13s2.17-.21,3.11-.72c2.2-1.21,1.35-3.87,.88-5.8-.5-2.07-1.11-4.11-1.8-6.12-.26-.77-1.03-1.27-1.85-1.05-.75,.2-1.31,1.08-1.05,1.85h0Z"/>
    <path class="cls-2" d="M338.91,90.7c2.45,.27,4.82,.82,7.06,2.33,12.41-5.8,29.85-15.23,32.8-29.35,1-1.39-.58-1.04-.98-1.46-.78-.81-.89,.12-1.11,.51-8.85,15.66-25.85,26.83-44.11,26.45-11.58,.56-22.89-3.68-32.99-8.94-1.24-.73-10.74-6.48-11.59-9.12-3.39-5.1-3.72,1.65-2.34,4.37,7.49,9.17,16.51,17.77,28.51,20.63,.59-.27,1.18-.57,1.79-.89,7.06-3.7,15.04-5.42,22.96-4.55Z"/>
    <path class="cls-2" d="M320.83,124.01c4.53-3.49,14.22-4.04,21.18-2.46,0,0,.67-21.7-1.32-23.8-1.25-1.31-18.39-.3-19.36,2.9,1.14,2.73-.5,23.35-.5,23.35Z"/>
    <path class="cls-3" d="M347.51,144.88c-3.43-20.65-36.79-16.97-29.04,4.99,4.27,15.62,29.97,12.71,29.04-4.99Z"/>
    <path class="cls-2" d="M416.06,191.92c-19.12-5.97-8.83-8.75-16.78,14.62-4.53,15.06-8.55,30.35-14.34,44.93-1.71,3.57,6.19,4.61,6.98,3.98,2.35-1.91,4.38-9.04,4.47-11.17,6.49-17.63,11.37-35.51,19.67-52.35Z"/>
    <path class="cls-2" d="M256.62,196.87c11.42,19.19,21.33,39.76,29.72,61.17,.05,3.22,9.22-3.27,9.14-4.43-8.52-21.33-22.81-39.67-30.43-61.26-1.77,3.72-4.83,4.73-8.43,4.52Z"/>
    <path class="cls-2" d="M355.97,150.48c17,2.88,28.75,15.87,43.93,22.86,1.2,1.85,8.31-8.77,5.76-8.59-12.3-5.6-24.33-10.27-36.03-15.95-7.24-1.79-14.25-11.88-13.65,1.69Z"/>
    <path class="cls-2" d="M267.33,172.77c1.71,7.57,6.06,2.61,10.84,.09,9.81-5.45,20.18-10.37,30.56-15.04,2.96-.41,1.23-2.87,.96-4.82,.27-7.78-40.05,14.54-42.37,19.78Z"/>
    <path class="cls-3" d="M262.36,183.79c-.24-7.06-11.64-5.83-11.18,.96,1.45,8.57,11.18,6.82,11.18-.96Z"/>
    <path class="cls-2" d="M330.86,171.34c-.92,4.08-.16,14.57-.16,14.57,0,0,7.1,.49,7.65-.6,1.65-3.27-1.81-11.72-.39-15.18-.03-1.99-6.8-.15-7.1,1.21Z"/>
    <path class="cls-3" d="M422.7,177.78c.27-6.14-7-6.36-10.22-2.7-5.06,6.96,10.32,10.38,10.22,2.7Z"/>
    <path class="cls-3" d="M339.42,196.81c-1.14-5.25-10.68-7.02-9.81,0,.7,5.42,9.43,5.85,9.81,0Z"/>
    <g>
      <path d="M425.92,2.47c-13.69-1.71-106.19-2.71-136.18-1.31-1.08,.05-1.96,.22-2.66,.48-1.84-.02-3.67-.04-5.5-.07-.56,.22-1.2,.36-1.92,.35-15.34-.03-30.66-.68-45.98-1.37C222.9,.28,213.97,.05,207.8,0c-16.88-.35-20.85,28.3-7.89,36.17,3.41,2.62,80.4,1.29,105.52,1.69,.79-.71,1.85-1.16,3.21-1.16,34.28-.11,69.51-6.56,103.36,1.43,.9-.01,1.8-.02,2.7-.04,38.02-.76,24.91-33.91,11.22-35.61Z"/>
      <path d="M417.33,33.51c-7.05,2.34-14.5,1.3-21.7,.4-7.71-.96-15.43-1.25-23.2-1.33s-15.38-.2-23.05-.92-15.68-1.57-23.6-1.34c-8.51,.25-17.36,.4-25.63,2.58-1.34,.35-1.52,2.66,0,2.89,7.03,1.08,14.22-.6,21.24-1.11s14.51-.66,21.77-.79,14.36-.23,21.53-.71c3.55-.24,7.08-.61,10.61-1s6.77-.57,10.16-.09c7.36,1.04,14.29,4.03,21.73,4.67v-3c-3.54,.44-6.92-.46-10.36-1.17s-6.61-.97-9.98-.87c-6.99,.2-13.94,1.41-20.93,1.87-13.98,.91-28.01,.52-42-.14-7.97-.38-15.95-.81-23.92-1.23-1.93-.1-1.92,2.9,0,3,14.11,.74,28.22,1.63,42.35,1.86,7.04,.11,14.08,.04,21.11-.34,6.93-.38,13.79-1.39,20.71-1.88,3.9-.27,7.77-.2,11.62,.58s7.53,1.8,11.39,1.32c1.89-.23,1.96-2.83,0-3-6.56-.56-12.74-3.06-19.18-4.27-3.28-.61-6.56-.83-9.89-.58-3.51,.27-6.99,.77-10.5,1.06-14.24,1.16-28.55,.67-42.81,1.49-3.98,.23-7.95,.57-11.9,1.04s-7.99,1-11.96,.39v2.89c7.41-1.95,15.23-2.09,22.85-2.4,7.93-.32,15.73,.31,23.62,1.08s15.34,1.01,23.05,1.09c7.8,.08,15.58,.19,23.33,1.12,8.08,.97,16.41,2.34,24.33-.29,1.82-.61,1.04-3.5-.8-2.89h0Z"/>
      <path d="M282.89,33.42c23.7-.62,47.42-1.24,71.11-.22,6.68,.29,13.36,.71,20.02,1.29l-1.5-1.5c1.17,9.19-.42,18.5-5.64,26.26-2.51,3.73-5.51,7.71-9.14,10.42-3.87,2.89-8.87,4.05-13.55,4.89-9.94,1.8-19.8,.72-29.49-1.87-4.6-1.23-9.37-2.43-13.38-5.11-3.65-2.44-6.76-5.89-9.39-9.37-5.92-7.85-9.77-17.25-10.92-27.02l-1.5,1.5c3.58,.04,7.13-.31,10.64-1,1.89-.38,1.09-3.27-.8-2.89-3.25,.65-6.53,.93-9.85,.9-.74,0-1.59,.7-1.5,1.5,1.09,9.28,4.32,18.25,9.54,26.02,2.61,3.89,5.68,7.59,9.23,10.65,3.84,3.3,8.27,5.2,13.09,6.61,10.3,3.01,20.72,4.9,31.47,3.54,5.05-.64,10.3-1.67,14.9-3.92s7.76-6.08,10.78-9.96c3.44-4.43,6.15-9.24,7.56-14.7s1.63-10.96,.93-16.43c-.11-.86-.6-1.42-1.5-1.5-23.63-2.06-47.36-2.05-71.06-1.56-6.69,.14-13.38,.31-20.07,.49-1.93,.05-1.93,3.05,0,3h0Z"/>
      <path d="M279.62,39.36c4.05,10.4,7.82,22.3,17.08,29.24,8.72,6.54,20.4,9.38,31.09,10.38,10.71,1,22.91-.93,31.46-7.9,9.33-7.61,9.5-20.18,14.2-30.42-4.57-1.93-9.14-3.85-13.71-5.78-1.87,7.27-3.74,14.55-5.62,21.82l14.46,3.99c.43-2.7,2.02-4.53,3.3-6.91,1.62-3,2.47-5.72,2.69-9.13,.24-3.7-3.65-7.98-7.5-7.5-13.43,1.66-26.04-.16-39.18-2.91s-25.91-4.65-38.96-6.48l-1.99,14.73c12.71,1.12,25.47,.68,38.2,1.4,6.07,.34,12.17,1.53,18.25,1.39s11.95-2.72,18.04-2.53v-15c-8.95,.7-17.87,.69-26.82-.04-3.27-.26-6.38,2.52-7.23,5.51-.99,3.45,.79,6.45,3.45,8.47,2.9,2.21,5.8,4.41,8.7,6.62,2.5,1.9,3.83,2.44,3.66,5.8-.1,2.03-.25,2.66-2.35,2.69-.9,.01-2.23-.82-2.86-.7,.15-.03-1.82,1.6-1.17,1.65l-6.48-11.29c-1.71,3.61-3.85,6.52-7.21,8.75,3.67,2.82,7.34,5.65,11.02,8.47-.09,.34-1.98,.52-1.06,.84v-14.46c-2.23,.72-4.35,1-6.6,1.45-.49-.04-.96-.16-1.41-.36,.23,.52,.21,1.05-.06,1.58l-12.8-5.3c.02,1.33,.04,2.65,.06,3.98,.02,1.56-1.14,5.01,1.24,3.12,3.28-2.62,.28,.09,.37-1.36,.05-.8-.29-1.46-.18-2.5l-1.02,3.79-1.17,1.01-3.79,1.02-3.99-2.83v-3.99c.24-.98,4.62-2.23,4.73-1.89-.22-.65-.37,1.46-2,1.91h-3.99l-.43-7h3.99l2.74,3.14-.76,5.78c-1.51,2.25-.4,1.03,1.55,.29,1.18-.44,2.37-.88,3.56-1.3,2.98-1.05,5.98-2.03,9.01-2.92,5.76-1.71,11.59-3.1,17.47-4.28,9.46-1.88,5.46-16.34-3.99-14.46-8.68,1.73-17.23,3.98-25.59,6.89-6.78,2.36-18.63,5.31-15.45,15.06,3.03,9.29,15.81,7.69,19.23-.32,3.15-7.36-1.88-16.3-10.34-15.47-17.21,1.69-10.02,31.98,7.07,26.79,7.73-2.35,10.66-12.48,4.27-17.89-6.86-5.8-16.32-.55-16.28,8.14s7.21,16.47,16.11,16.43c4.51-.02,8.99-2.22,11.19-6.23,2.38-4.36,1.44-10.18,1.37-14.92-.09-6.49-8.14-9.9-12.8-5.3-5.46,5.39-5.43,14.22,.06,19.63,6.16,6.07,15.07,5.19,22.6,2.76,7.21-2.33,7.02-12.05,0-14.46-7.48-2.58-15.46,2.12-17.39,9.64-1.54,6.01,5.37,12.22,11.02,8.47s9.78-8.21,12.59-14.13c2.55-5.38-.57-10.76-6.48-11.29-10-.89-16.39,9.66-12.96,18.5,3.39,8.74,13.87,12.18,22.46,9.8,9.45-2.62,12.66-11.76,11.64-20.74-1.19-10.52-11.87-15.73-19.55-21.57-1.26,4.66-2.52,9.32-3.79,13.98,8.95,.73,17.87,.74,26.82,.04,9.53-.75,9.77-14.7,0-15-5.9-.18-11.28,2.09-17.08,2.51-6.34,.46-12.88-1.02-19.21-1.38-12.73-.71-25.49-.27-38.2-1.4-8.32-.74-10.38,13.56-1.99,14.73,13.69,1.91,27.3,4.04,40.84,6.87s27.27,4.79,41.29,3.05l-7.5-7.5c-.11,1.69-1.88,3.51-2.68,4.92-1.26,2.24-2.37,4.57-2.78,7.13-1.47,9.3,12,13.55,14.46,3.99,1.87-7.27,3.74-14.55,5.62-21.82,2.04-7.91-10.04-13.76-13.71-5.78-1.98,4.32-3.57,8.72-4.89,13.28-1.1,3.81-1.82,8.32-4.28,11.56-4.62,6.09-14.95,6.62-21.82,6.18-7.55-.48-16.31-2.52-22.73-6.7-7.06-4.6-9.76-14.53-12.68-22.03-1.46-3.76-5.04-6.41-9.23-5.24-3.59,1.01-6.72,5.42-5.24,9.23h0Z"/>
    </g>
    <path class="cls-3" d="M365.95,51.84c-2.46,2.47-4.7,5.47-7.36,7.96-14.48,14.08-39.89,16.56-55.15,1.42-4.99-4.17-22.91-27.81-8.11-25.19,21.83-2.27,5.25,7.19,15.1,13.37,6.15-2.5-5.2-15.73,4.07-13.31,2.69-.15,6.84,1.05,8.52-.87,.69,35.42,9.19,11.13,14.23,21.63-.7,2.73-.16,11.57,4.01,7.2,4.01-20.45-7.8-11.37-11.28-17.85-.13-2.55-2.66-9.92-.02-10.34,6.95,.76,33,.11,37.79-.02,6.31,2.08-1.88,11.27-1.82,16.01Z"/>
    <path class="cls-2" d="M423.38,28.91c-13.64,4.64-27.98,.77-42.2,2.27-35.9-.69-4.26-1.07-40-.04-21.52-.29-110.26-.73-131.69-.45-11.8-.07-13.03-17.38-4.93-23.34,33.83-1.53,68.2,.92,102.52,.51,24.29,.46,60.65-1.15,63.99-.61,17.55,.19,35.47-.1,52.9,.04,11.72,3.84,11.38,18.73-.59,21.63Z"/>
    <path class="cls-2" d="M332.5,218.4c.18,2.15,.49,4.3,.95,6.41,.39,1.77,.71,3.94,1.93,5.36s4.01,1.44,5.17-.15c.64-.87,.51-1.93,.24-2.91s-.55-2.03-.78-3.06c-.52-2.28-.91-4.59-1.15-6.91-.09-.81-.63-1.5-1.5-1.5-.74,0-1.59,.69-1.5,1.5,.24,2.23,.57,4.45,1.03,6.64,.23,1.11,.49,2.21,.79,3.31,.04,.16,.27,1.41,.38,1.45-.13-.05,.29-.47,.16-.36,.28-.14,.3-.16,.06-.07-.09,.03-.18,.05-.27,.07-.06,.01-.41,.11-.29,.07,.09,.06,.09,.06,0,0-.09-.05-.09-.05,0,.01-.09-.08-.34-.46-.39-.57-.39-.89-.58-1.92-.8-2.86-.5-2.12-.85-4.27-1.03-6.44-.07-.81-.64-1.5-1.5-1.5-.76,0-1.57,.69-1.5,1.5h0Z"/>
    <path class="cls-2" d="M338.9,227.99c-.25-1.96-.42-3.93-.51-5.9-.04-.78-.66-1.54-1.5-1.5-.78,.04-1.54,.66-1.5,1.5,.09,1.97,.26,3.94,.51,5.9,.05,.41,.13,.75,.44,1.06,.26,.26,.69,.46,1.06,.44s.79-.14,1.06-.44c.25-.27,.49-.68,.44-1.06h0Z"/>
    <g>
      <path class="cls-3" d="M428.52,420.05c10.38-13.82,19.78-27.76,33.6-39.38,3.53-2.96,7.31-5.71,11.1-7.32,3.79-1.62,7.61-1.99,9.72-.29,3.18,2.56,1.63,9.2-2.22,14.77-3.84,5.57-9.44,10.22-14.95,14.3s-11.22,7.86-16.28,12.68c-3.11,2.96-5.9,6.25-9.04,9.19-3.13,2.94-6.82,5.6-10.19,6.37-3.37,.77-6.1-.99-5.22-4.37,.51-1.95,2.02-4,3.48-5.94Z"/>
      <path class="cls-3" d="M450.77,383.63c-9.61,7.36,.97-20.73,4.91-25.68,3.95-4.96,9.52-9.17,14.15-9.62,2.32-.22,4.36,.62,4.79,2.77,.67,3.3-2.54,8.18-5.95,11.65s-7.34,6.42-10.19,10.35c-2.59,3.57-4.31,7.93-7.7,10.52Z"/>
      <path class="cls-3" d="M426.67,413.04c-4.9,9.11-3.43-15.78-1.79-20.94,1.64-5.18,4.48-10.41,7.45-12.5,1.49-1.04,3-1.18,3.71,.25,1.09,2.2-.08,7.04-1.65,10.91-1.57,3.87-3.58,7.55-4.7,11.55-1.01,3.63-1.29,7.52-3.02,10.73Z"/>
    </g>
    <path d="M460.77,490.45c72.36-12.82,82.27-29.69,93.3-31.41,18.7-2.92,33.47,.81,11.74,18.91-119.15,63.6-284.81,51.45-393.46-17.8,6.17-46.69,86,66.17,288.42,30.3Z"/>
    <path d="M369.38,455.78c-64.1-7.34-125.45-34.35-186.67-46.19-10.86-2.1-55.19-10.94-70.85-11.21-52.52-.9-125.53,14.98-96.85,.13,31.05-13.92,63.84-18.81,96.89-18.28,54.49,.87,173.89,32.52,252.65,53.97,24.49,6.67,21.03,14.68,4.83,21.58Z"/>
    <g class="cls-7">
      <path class="cls-5" d="M312.16,420.28c-9.53-.57-19.08-.64-28.62-.19-2.3,.11-4.67,.26-6.75,1.34s-3.83,3.3-3.78,5.81c.08,3.94,4.06,6.16,7.39,7.66,5.58,2.52,11.02,5.43,16.25,8.71,2.11,1.32,4.51,3.55,3.77,6.08-.59,2-2.79,2.72-4.67,3.18-12.9,3.09-26.69,7.98-33.97,20-.77,1.26-1.47,2.7-1.35,4.21,.21,2.73,2.86,4.34,5.22,5.3,6.68,2.7,13.85,4.17,19.97,8.15,1.4,.91,2.82,2.06,3.34,3.75,.75,2.4-.63,5.08-2.55,6.51s-4.27,1.96-6.51,2.63c-4.86,1.46-9.5,3.78-13.68,6.84-2.99,2.19-6.05,5.57-5.39,9.43,.78,4.54,5.89,6.15,10.07,6.85,4.78,.8,9.56,1.59,14.34,2.39,2.98,.5,6.06,1.03,8.63,2.76,2.57,1.73,4.53,4.97,3.98,8.21-.27,1.61-1.13,3.21-.69,4.77,.63,2.25,3.34,2.69,5.5,2.66,14.08-.23,28.02-2.95,41.88-5.66,10.32-2.02,20.77-4.08,30.32-8.78,1.89-.93,3.81-2.02,5.09-3.8,1.28-1.78,1.77-4.43,.64-6.33-1.19-1.98-3.58-2.49-5.59-3.36s-4.09-3.04-3.32-5.26c.56-1.6,2.28-2.23,3.8-2.68,14.98-4.45,29.48-10.8,43.12-18.88,2.46-1.46,5.29-3.9,4.56-6.85-.49-2-2.43-3.09-4.17-3.93-3.19-1.54-6.38-3.08-9.57-4.63-1.5-.72-3.09-1.54-3.93-3.08-3.31-6.08,4.31-8.64,8.23-10.09,5.01-1.85,10.92-4.32,14.99-8.06,.96-.88,1.86-1.88,2.34-3.14,.68-1.78,.43-3.8,.16-5.7-.31-2.26-.63-4.53-.94-6.79-.07-.51-.17-1.07-.55-1.38-.28-.23-.65-.26-.99-.29-12.26-.8-24.34,3.8-36.62,3.73-6.58-.04-13.08-1.41-19.54-2.77-4.73-1-9.46-2-14.19-3.01-9.13-1.93-18.26-3.87-27.35-6.02-3.72-.88-7.16-1.12-9.9-3.76-2.79-2.7-4.32-6.09-8.49-6.58"/>
    </g>
    <g>
      <path class="cls-3" d="M272.4,380.99c-6.3-15.95-13.57-30.28-14.54-52.02-.25-5.55-.03-11.53,1.42-17.61,1.45-6.08,4.3-12.29,7.96-15.87,5.51-5.39,11.46-3.34,14.29,2.53,2.83,5.87,3.17,14.67,2.94,23.38-.23,8.71-.94,17.77,.03,25.69,.6,4.87,1.82,9.19,2.37,14.09,.55,4.91,.34,10.73-1.69,16.18-2.03,5.45-6.27,10.05-9.23,8.86-1.7-.68-2.66-3.01-3.55-5.25Z"/>
      <path class="cls-3" d="M251.43,347.32c-.11,15.17-21.89-.04-23.94-6.13-2.06-6.1-1.94-14.88,1.5-22.42,1.73-3.78,4.39-7.18,7.11-8.04,4.18-1.33,6.79,3.55,7.69,8.87s.79,11.52,2.67,15.9c1.7,3.97,5.01,6.47,4.97,11.82Z"/>
      <path class="cls-3" d="M263.15,384.53c5.81,7.33-20.2,6.77-24.46,4.48-4.28-2.29-7.59-6.56-7.35-11.25,.12-2.35,1.26-4.82,3.43-6.08,3.33-1.94,7.65-.4,10.55,1.88,2.9,2.28,5.22,5.3,8.65,6.82,3.12,1.38,7.14,1.56,9.19,4.14Z"/>
    </g>
  </g>
</svg>