<?xml version="1.0" encoding="UTF-8"?>
<svg id="Layer_2" data-name="Layer 2" xmlns="http://www.w3.org/2000/svg" xmlns:xlink="http://www.w3.org/1999/xlink" viewBox="0 0 600 598.58">
  <defs>
    <style>
      .cls-1 {
        fill: #f9f9fa;
      }

      .cls-2 {
        fill: #00b8b9;
      }

      .cls-3 {
        fill: #00b4e6;
      }

      .cls-4 {
        fill: #f283b2;
      }

      .cls-5 {
        fill: #1e1936;
      }

      .cls-6 {
        fill: url(#Degradado_sin_nombre_23);
      }
    </style>
    <linearGradient id="Degradado_sin_nombre_23" data-name="Degradado sin nombre 23" x1="-358.75" y1="565.12" x2="63.41" y2="418.49" gradientTransform="translate(77.43) rotate(-180) scale(1.48 -1)" gradientUnits="userSpaceOnUse">
      <stop offset="0" stop-color="#00b4e6"/>
      <stop offset=".1" stop-color="#11a6dc"/>
      <stop offset=".31" stop-color="#328bc9"/>
      <stop offset=".51" stop-color="#4a78bb"/>
      <stop offset=".69" stop-color="#596cb3"/>
      <stop offset=".85" stop-color="#5e69b1"/>
    </linearGradient>
  </defs>
  <g id="Layer_1-2" data-name="Layer 1">
    <g>
      <path class="cls-4" d="M305.51,243.77c9.5-5.86,18.96-11.79,28.51-17.55,3.64-2.2,7.22-4.5,10.95-6.59,3.11-1.74,6.1-3.83,9.09-5.83,2.39-1.6,5-2.79,7.41-4.35,1.89-1.22,4.06-1.19,6.01,.25,.87,.64,1.63,1.39,2.22,2.29,4.74,7.27,9.81,14.32,14.37,21.73,4.25,6.9,9.02,13.49,13.47,20.28,2.88,4.39,5.43,9.01,8.47,13.28,3.09,4.34,5.74,8.97,8.91,13.26,1.44,1.96,2.66,4.12,4.05,6.14,2.36,3.44,4.45,7.06,6.85,10.48,1.73,2.46,3.42,5,4.95,7.62,1.11,1.9,2.44,3.63,3.93,5.31,2.32,2.61,2.77,6.66-.5,9.04-4.4,3.19-9.05,5.95-13.67,8.75-4.84,2.93-9.52,6.11-14.44,8.89-4.57,2.59-8.85,5.64-13.38,8.28-6.36,3.72-12.52,7.75-18.81,11.58-2.3,1.4-4.72,2.62-7.07,3.93-1.51,.84-3.01,1.69-4.28,2.88-1.64,1.54-3.77,2.31-5.67,3.39-3.13,1.79-6.19,3.7-9.24,5.61-4.78,3-9.77,5.69-14.42,8.88-2.96,2.03-7.53,1.53-9.4-2.36-1.83-3.79-4.24-7.21-6.18-10.91-2.36-4.5-5.16-8.76-7.53-13.24-4.87-9.21-10.24-18.12-15.34-27.19-3.93-7-7.99-13.94-11.99-20.91-2.61-4.54-5.5-8.94-7.66-13.74-.13-.3-.28-.6-.46-.87-3.36-5.16-5.8-10.85-9.21-15.98-1.74-2.63-1.48-5,.58-7.39,.92-1.07,2.05-1.87,3.25-2.61,8.6-5.29,17.18-10.6,25.77-15.9,3.49-2.15,6.98-4.31,10.47-6.46h0Zm14.98,31.85s-.06-.09-.09-.14c-.62,.39-1.32,.69-1.86,1.17-1.42,1.26-2.65,2.73-2.5,4.76,.32,4.46,4.75,6.93,8.72,4.87,1.75-.91,3.51-1.72,5.37-2.36,2.24-.76,4.4-1.7,5.91-3.67,.37-.49,.95-.61,1.48-.82,.69-.26,1.43-.44,1.94-1.01,2.24-2.49,5.41-3.62,8.09-5.46,2.15-1.48,4.34-2.93,6.34-4.57,1.26-1.03,2.32-2.26,3.92-2.83,.63-.22,1.12-.72,1.43-1.31,1.45-2.69,1.22-5.3-1.15-8.13-1.21-1.44-4.01-1.33-6.39,.11-.14,.08-.25,.22-.4,.28-2.64,1.17-4.76,3.16-7.29,4.52-2.22,1.2-4.38,2.5-6.52,3.85-3.04,1.92-5.88,4.18-9.21,5.64-1.96,.86-3.77,1.98-5.43,3.34-.76,.62-1.58,1.16-2.37,1.74Z"/>
      <rect class="cls-1" x="326.44" y="308.08" width="44.24" height="44.24" rx="10.54" ry="10.54" transform="translate(-121.47 232.23) rotate(-31.68)"/>
      <rect class="cls-1" x="373.31" y="290.26" width="36.85" height="36.85" rx="10.54" ry="10.54" transform="translate(-103.74 251.7) rotate(-31.68)"/>
      <path class="cls-5" d="M354.43,348.42l-7.34,4.53c-1.85,1.14-4.26,.57-5.4-1.28l-4.53-7.34c-1.14-1.85-.57-4.26,1.28-5.4l7.34-4.53c1.85-1.14,4.26-.57,5.4,1.28l.96,1.56c.2,.33,.1,.76-.23,.97l-5.81,3.59c-.33,.2-.43,.64-.23,.97l1.11,1.8c.2,.33,.64,.43,.97,.23l5.81-3.59c.33-.2,.76-.1,.97,.23l.97,1.58c1.14,1.85,.57,4.26-1.28,5.4Z"/>
      <path class="cls-5" d="M399.24,321.74l-7.34,4.53c-1.85,1.14-4.26,.57-5.4-1.28l-4.53-7.34c-1.14-1.85-.57-4.26,1.28-5.4l7.34-4.53c1.85-1.14,4.26-.57,5.4,1.28l.96,1.56c.2,.33,.1,.76-.23,.97l-5.81,3.59c-.33,.2-.43,.64-.23,.97l1.11,1.8c.2,.33,.64,.43,.97,.23l5.81-3.59c.33-.2,.76-.1,.97,.23l.97,1.58c1.14,1.85,.57,4.26-1.28,5.4Z"/>
    </g>
    <path class="cls-2" d="M338.57,223.59c4.22-2.52,8.51-4.93,12.88-7.18,.15-1.17,.28-2.34,.3-3.52,.03-2.57-.52-5.27-2.21-7.2l-1-.05c-3.39,.1-6.77,.45-10.11,1.05-.31,.06-.63,.12-.89,.3-.6,.43-.62,1.3-.58,2.04,.29,4.58,.76,9.15,1.43,13.69,.04,.29,.09,.59,.18,.87Z"/>
    <path d="M434.66,165.53c-1.79-3.5-45.22-21.05-54.99-24.53-9.53-4.28-21.7-7.19-23.74-11.49-4.94-10.46-6.88-30.43-5.44-31.49,2.36-1.73,28.07-9.51,34.28-35.71,1.13-4.78-4.88-23.34-9.58-11.41-12.57,32.98-56.32,41.41-80.98,17.37-1.52-1.65-3.56-3.56-5.78-5.18-3.34-2.43-8.1-.69-9.05,3.34-.6,2.53-1.06,5.14-.66,7.82,.34,17.44,37.88,29.81,37.88,29.81,0,0,3.29,18.01-2.31,36.93-1.17,3.94-7.34,3.95-10.69,6.18-12.13,8.9-26.66,16.73-37.64,26.64-2.22,2.25-6.92,.99-9.62,2.72-6.29,4.36-8.73,16.46-1.38,20.85,12.08,23.74,24.11,47.85,38.57,70.27,2.23,4.14,22.03-8.91,19.68-13.44-2.35-4.53-26.61-44.23-36.68-61.41-.88-1.51-.17-2.86,.61-3.26,12.49-5.08,32.73-26.44,44.69-26.12,11.05,7.87,8.43,3.7,9.01,18.26,1.18,7.92-1.18,11.48-1.52,15.03-.2,2.09,.3,4.18,2.64,7.15,2.14,2.72,3.2,6.09,3.14,9.56,0,.49,.72,4.38,.72,4.38l6.09,2.76s-3.93-11.41-1.04-11.57c5.73,.34,6.92-3.36,6.3,4.24,.27,1.47,.43,3.4,.51,5.18,1.99-1.08,3.99-2.12,6.02-3.12-.47-3.16-.9-6.36-1.12-8.76,.16-6.11,3.85-12.94-1.02-18.38-1.8-6.54-.71-14.8-1.81-21.94,2.37-4.14,7.25-6.54,8.65-11.24,1.48-3.62,11.39,6.25,15.13,6.72,11.75,4.29,21.96,9.67,33.74,14.72-.89,10.01-27.86,73.63-17.62,78.08,2.85,.68,17.13,6.81,19.23,1.36,.47-3.48,13.19-45.02,17.97-59.01,1.74-11.92,11.74-23.59,7.8-31.3Z"/>
    <path class="cls-2" d="M340.3,89.72c2.46,.13,4.86,.55,7.18,1.94,12.07-6.48,28.97-16.85,31.13-31.11,.92-1.44-.64-1.01-1.06-1.4-.82-.77-.88,.17-1.08,.57-7.97,16.12-24.33,28.21-42.59,28.84-11.53,1.19-23.06-2.41-33.43-7.11-1.28-.66-11.08-5.88-12.08-8.47-3.66-4.91-3.63,1.85-2.09,4.5,7.99,8.74,17.47,16.84,29.6,19.03,.57-.3,1.15-.63,1.73-.98,6.85-4.09,14.72-6.24,22.68-5.8Z"/>
    <path class="cls-2" d="M324.08,123.97c4.33-3.73,13.98-4.82,21.01-3.62,0,0-.52-21.7-2.63-23.69-1.32-1.24-18.38,.71-19.17,3.96,1.29,2.66,.79,23.35,.79,23.35Z"/>
    <path class="cls-3" d="M351.88,143.34c-4.57-20.43-37.67-14.92-28.72,6.58,5.12,15.36,30.63,11.04,28.72-6.58Z"/>
    <path class="cls-2" d="M422.91,186.54c-19.42-4.91-9.3-8.25-15.95,15.52-3.69,15.28-6.87,30.78-11.85,45.65-1.51,3.66,6.44,4.27,7.18,3.59,2.24-2.03,3.87-9.26,3.85-11.4,5.51-17.96,9.4-36.08,16.76-53.36Z"/>
    <path class="cls-2" d="M263.99,200.26c12.46,18.53,23.49,38.52,33.05,59.44,.23,3.21,9.02-3.77,8.88-4.93-9.68-20.83-24.96-38.35-33.76-59.49-1.56,3.81-4.56,4.99-8.17,4.98Z"/>
    <path class="cls-2" d="M360.63,148.47c17.13,1.94,29.58,14.27,45.12,20.4,1.3,1.78,7.82-9.21,5.27-8.9-12.59-4.91-24.86-8.91-36.85-13.95-7.33-1.39-14.89-11.08-13.54,2.44Z"/>
    <path class="cls-2" d="M273.35,175.6c2.12,7.46,6.19,2.27,10.83-.51,9.49-5.98,19.58-11.46,29.69-16.7,2.93-.57,1.07-2.93,.7-4.87-.16-7.79-39.19,16.72-41.22,22.08Z"/>
    <path class="cls-3" d="M269,186.88c-.62-7.03-11.94-5.18-11.11,1.57,1.92,8.47,11.54,6.19,11.11-1.57Z"/>
    <path class="cls-2" d="M336.71,170.67c-.69,4.13,.64,14.55,.64,14.55,0,0,7.11,.1,7.6-1.02,1.47-3.36-2.46-11.6-1.22-15.14-.14-1.99-6.79,.23-7.03,1.6Z"/>
    <path class="cls-3" d="M428.76,172.05c-.07-6.15-7.34-5.96-10.35-2.14-4.67,7.23,10.87,9.79,10.35,2.14Z"/>
    <path class="cls-3" d="M346.65,195.64c-1.42-5.18-11.05-6.42-9.79,.54,1,5.38,9.74,5.32,9.79-.54Z"/>
    <g>
      <path d="M424.29,2.47c-13.69-1.71-106.19-2.71-136.18-1.31-1.08,.05-1.96,.22-2.66,.48C251.51,1.27,220.93,.11,206.17,0c-16.88-.35-20.85,28.3-7.89,36.17,3.41,2.62,80.4,1.29,105.52,1.69,.79-.71,1.85-1.16,3.21-1.16,34.28-.11,69.51-6.56,103.36,1.43,.9-.01,1.8-.02,2.7-.04,38.02-.76,24.91-33.91,11.22-35.61Z"/>
      <path d="M415.7,33.51c-7.05,2.34-14.5,1.3-21.7,.4-7.71-.96-15.43-1.25-23.2-1.33s-15.38-.2-23.05-.92-15.68-1.57-23.6-1.34c-8.51,.25-17.36,.4-25.63,2.58-1.34,.35-1.52,2.66,0,2.89,7.03,1.08,14.22-.6,21.24-1.11s14.51-.66,21.77-.79,14.36-.23,21.53-.71c3.55-.24,7.08-.61,10.61-1s6.77-.57,10.16-.09c7.36,1.04,14.29,4.03,21.73,4.67v-3c-3.54,.44-6.92-.46-10.36-1.17s-6.61-.97-9.98-.87c-6.99,.2-13.94,1.41-20.93,1.87-13.98,.91-28.01,.52-42-.14-7.97-.38-15.95-.81-23.92-1.23-1.93-.1-1.92,2.9,0,3,14.11,.74,28.22,1.63,42.35,1.86,7.04,.11,14.08,.04,21.11-.34s13.79-1.39,20.71-1.88c3.9-.27,7.77-.2,11.62,.58s7.53,1.8,11.39,1.32c1.89-.23,1.96-2.83,0-3-6.56-.56-12.74-3.06-19.18-4.27-3.28-.61-6.56-.83-9.89-.58-3.51,.27-6.99,.77-10.5,1.06-14.24,1.16-28.55,.67-42.81,1.49-3.98,.23-7.95,.57-11.9,1.04s-7.99,1-11.96,.39v2.89c7.41-1.95,15.23-2.09,22.85-2.4s15.73,.31,23.62,1.08,15.34,1.01,23.05,1.09,15.58,.19,23.33,1.12,16.41,2.34,24.33-.29c1.82-.61,1.04-3.5-.8-2.89h0Z"/>
      <path d="M281.26,33.42c23.7-.62,47.42-1.24,71.11-.22,6.68,.29,13.36,.71,20.02,1.29l-1.5-1.5c1.17,9.19-.42,18.5-5.64,26.26-2.51,3.73-5.51,7.71-9.14,10.42-3.87,2.89-8.87,4.05-13.55,4.89-9.94,1.8-19.8,.72-29.49-1.87-4.6-1.23-9.37-2.43-13.38-5.11-3.65-2.44-6.76-5.89-9.39-9.37-5.92-7.85-9.77-17.25-10.92-27.02l-1.5,1.5c3.58,.04,7.13-.31,10.64-1,1.89-.38,1.09-3.27-.8-2.89-3.25,.65-6.53,.93-9.85,.9-.74,0-1.59,.7-1.5,1.5,1.09,9.28,4.32,18.25,9.54,26.02,2.61,3.89,5.68,7.59,9.23,10.65,3.84,3.3,8.27,5.2,13.09,6.61,10.3,3.01,20.72,4.9,31.47,3.54,5.05-.64,10.3-1.67,14.9-3.92s7.76-6.08,10.78-9.96c3.44-4.43,6.15-9.24,7.56-14.7s1.63-10.96,.93-16.43c-.11-.86-.6-1.42-1.5-1.5-23.63-2.06-47.36-2.05-71.06-1.56-6.69,.14-13.38,.31-20.07,.49-1.93,.05-1.93,3.05,0,3h0Z"/>
      <path d="M277.99,39.36c4.05,10.4,7.82,22.3,17.08,29.24,8.72,6.54,20.4,9.38,31.09,10.38s22.91-.93,31.46-7.9c9.33-7.61,9.5-20.18,14.2-30.42l-13.71-5.78c-1.87,7.27-3.74,14.55-5.62,21.82l14.46,3.99c.43-2.7,2.02-4.53,3.3-6.91,1.62-3,2.47-5.72,2.69-9.13,.24-3.7-3.65-7.98-7.5-7.5-13.43,1.66-26.04-.16-39.18-2.91s-25.91-4.65-38.96-6.48l-1.99,14.73c12.71,1.12,25.47,.68,38.2,1.4,6.07,.34,12.17,1.53,18.25,1.39s11.95-2.72,18.04-2.53v-15c-8.95,.7-17.87,.69-26.82-.04-3.27-.26-6.38,2.52-7.23,5.51-.99,3.45,.79,6.45,3.45,8.47,2.9,2.21,5.8,4.41,8.7,6.62,2.5,1.9,3.83,2.44,3.66,5.8-.1,2.03-.25,2.66-2.35,2.69-.9,.01-2.23-.82-2.86-.7,.15-.03-1.82,1.6-1.17,1.65l-6.48-11.29c-1.71,3.61-3.85,6.52-7.21,8.75l11.02,8.47c-.09,.34-1.98,.52-1.06,.84v-14.46c-2.23,.72-4.35,1-6.6,1.45-.49-.04-.96-.16-1.41-.36,.23,.52,.21,1.05-.06,1.58l-12.8-5.3c.02,1.33,.04,2.65,.06,3.98,.02,1.56-1.14,5.01,1.24,3.12,3.28-2.62,.28,.09,.37-1.36,.05-.8-.29-1.46-.18-2.5l-1.02,3.79-1.17,1.01-3.79,1.02-3.99-2.83v-3.99c.24-.98,4.62-2.23,4.73-1.89-.22-.65-.37,1.46-2,1.91h-3.99l-.43-7h3.99l2.74,3.14-.76,5.78c-1.51,2.25-.4,1.03,1.55,.29,1.18-.44,2.37-.88,3.56-1.3,2.98-1.05,5.98-2.03,9.01-2.92,5.76-1.71,11.59-3.1,17.47-4.28,9.46-1.88,5.46-16.34-3.99-14.46-8.68,1.73-17.23,3.98-25.59,6.89-6.78,2.36-18.63,5.31-15.45,15.06s15.81,7.69,19.23-.32c3.15-7.36-1.88-16.3-10.34-15.47-17.21,1.69-10.02,31.98,7.07,26.79,7.73-2.35,10.66-12.48,4.27-17.89-6.86-5.8-16.32-.55-16.28,8.14s7.21,16.47,16.11,16.43c4.51-.02,8.99-2.22,11.19-6.23,2.38-4.36,1.44-10.18,1.37-14.92-.09-6.49-8.14-9.9-12.8-5.3-5.46,5.39-5.43,14.22,.06,19.63,6.16,6.07,15.07,5.19,22.6,2.76s7.02-12.05,0-14.46c-7.48-2.58-15.46,2.12-17.39,9.64-1.54,6.01,5.37,12.22,11.02,8.47s9.78-8.21,12.59-14.13c2.55-5.38-.57-10.76-6.48-11.29-10-.89-16.39,9.66-12.96,18.5,3.39,8.74,13.87,12.18,22.46,9.8,9.45-2.62,12.66-11.76,11.64-20.74-1.19-10.52-11.87-15.73-19.55-21.57l-3.79,13.98c8.95,.73,17.87,.74,26.82,.04,9.53-.75,9.77-14.7,0-15-5.9-.18-11.28,2.09-17.08,2.51-6.34,.46-12.88-1.02-19.21-1.38-12.73-.71-25.49-.27-38.2-1.4-8.32-.74-10.38,13.56-1.99,14.73,13.69,1.91,27.3,4.04,40.84,6.87s27.27,4.79,41.29,3.05l-7.5-7.5c-.11,1.69-1.88,3.51-2.68,4.92-1.26,2.24-2.37,4.57-2.78,7.13-1.47,9.3,12,13.55,14.46,3.99,1.87-7.27,3.74-14.55,5.62-21.82,2.04-7.91-10.04-13.76-13.71-5.78-1.98,4.32-3.57,8.72-4.89,13.28-1.1,3.81-1.82,8.32-4.28,11.56-4.62,6.09-14.95,6.62-21.82,6.18-7.55-.48-16.31-2.52-22.73-6.7-7.06-4.6-9.76-14.53-12.68-22.03-1.46-3.76-5.04-6.41-9.23-5.24-3.59,1.01-6.72,5.42-5.24,9.23h0Z"/>
    </g>
    <path class="cls-3" d="M364.32,51.84c-2.46,2.47-4.7,5.47-7.36,7.96-14.48,14.08-39.89,16.56-55.15,1.42-4.99-4.17-22.91-27.81-8.11-25.19,21.83-2.27,5.25,7.19,15.1,13.37,6.15-2.5-5.2-15.73,4.07-13.31,2.69-.15,6.84,1.05,8.52-.87,.69,35.42,9.19,11.13,14.23,21.63-.7,2.73-.16,11.57,4.01,7.2,4.01-20.45-7.8-11.37-11.28-17.85-.13-2.55-2.66-9.92-.02-10.34,6.95,.76,33,.11,37.79-.02,6.31,2.08-1.88,11.27-1.82,16.01Z"/>
    <path class="cls-2" d="M421.75,28.91c-13.64,4.64-27.98,.77-42.2,2.27-35.9-.69-4.26-1.07-40-.04-21.52-.29-110.26-.73-131.69-.45-11.8-.07-13.03-17.38-4.93-23.34,33.83-1.53,68.2,.92,102.52,.51,24.29,.46,60.65-1.15,63.99-.61,17.55,.19,35.47-.1,52.9,.04,11.72,3.84,11.38,18.73-.59,21.63Z"/>
    <g>
      <path class="cls-6" d="M2.83,381.43c20.28-9.53,47.08-7.12,70.9-3.5,19.82,3.01,39.58,6.62,58.09,12.45,22.9,7.21,43.39,17.66,65.11,26.51,29.03,11.83,62.49,22.75,95.66,27.13,33.19,4.38,70.69-.67,103.54-4.65,15.36-1.86,30.79-3.97,45.21-8.15,14.11-4.09,26.93-10.07,40.45-15.05,27.54-10.13,68.79-21.15,102.81-25.22,8.1-.97,15.45,3.5,15.4,9.3-.32,33.38-1.38,135.83-1.83,178.92-.11,10.75-12.5,19.42-27.74,19.42H31.09c-15.2,0-27.57-8.63-27.73-19.35-.8-52.57-2.75-194.36-.52-197.8Z"/>
      <path d="M151.03,466.69c10.3,18.85,81,40.54,111.51,44.15,74.67,17.44,154.51,12.38,223.21-16.11,18.79-15.64,86.61-19.14,74.17-44.21-25.55-10.64-70.86,22.61-98.69,28.02-59.03,24.93-130.74,26.07-194.39,9.81-29.39,3.4-112.67-55.01-115.8-21.65Z"/>
      <path d="M288.12,452.11c19.93,5.06,23.38-13.02,7.75-19.69-17.46-7.39-39.61-7.61-57.81-15.67-63.44-27.13-172.15-75.3-238.06-37.56,6.18,17.72,43.58,3.56,62.5,7.15,88.82-1.49,140.87,57.67,225.62,65.77Z"/>
      <path d="M75.22,505.22c-17.89-2.71-77.38,4.02-45.48,20.99,21.55,1.79,43.95-3.88,66.21,.87,57.62,15.24,99.78,49.75,163.03,55.48,89.3-1.9-18.71-23.77-44.41-31.27-46.95-14.44-85-45.21-139.34-46.06Z"/>
      <path d="M561.34,382.61c-45.16,7.64-85.35,27.07-131.07,33.66-15.64,7.9-61.17,7.93-65.13,17.68-13.88,37.02,109.8-5.31,131.78-10.92,24.45-10.76,57-15.33,80.71-24.56,1.18-7.2-3.14-17.13-16.28-15.87Z"/>
      <path d="M407.6,580.8c40.28,3.82,73.69-13.99,109.34-23.22,19.17-11.04,80.83-8.27,71.45-31.81-12.36-17.1-114.36,23.87-137.25,30.72-23.83,5.15-123.84,14.64-43.54,24.32Z"/>
      <path d="M22.05,448.65c29.57-11.89,91.68,23.44,102.07-.81-2.54-14.07-57.62-17.3-75.02-19.69-21.89-6.94-67.93,14.56-27.05,20.5Z"/>
      <path d="M23.85,584.28c26.2-10.5,101.77,22.84,94.05,1.13-22.53-37.78-166.47-17.28-94.05-1.13Z"/>
    </g>
  </g>
</svg>