<?xml version="1.0" encoding="UTF-8"?>
<svg id="Layer_2" data-name="Layer 2" xmlns="http://www.w3.org/2000/svg" xmlns:xlink="http://www.w3.org/1999/xlink" viewBox="0 0 600 600.03">
  <defs>
    <style>
      .cls-1 {
        fill: #f9f9fa;
      }

      .cls-2 {
        fill: #00b8b9;
      }

      .cls-3 {
        fill: #00b4e6;
      }

      .cls-4 {
        fill: #f283b2;
      }

      .cls-5 {
        fill: #1e1936;
      }

      .cls-6 {
        fill: url(#Degradado_sin_nombre_23);
      }

      .cls-7 {
        opacity: .9;
      }
    </style>
    <linearGradient id="Degradado_sin_nombre_23" data-name="Degradado sin nombre 23" x1="212.2" y1="528.35" x2="702.98" y2="357.89" gradientUnits="userSpaceOnUse">
      <stop offset="0" stop-color="#00b4e6"/>
      <stop offset=".1" stop-color="#11a6dc"/>
      <stop offset=".31" stop-color="#328bc9"/>
      <stop offset=".51" stop-color="#4a78bb"/>
      <stop offset=".69" stop-color="#596cb3"/>
      <stop offset=".85" stop-color="#5e69b1"/>
    </linearGradient>
  </defs>
  <g id="Layer_1-2" data-name="Layer 1">
    <g>
      <path class="cls-4" d="M359.22,377.87c4.51-4.18,8.24-9.11,12.78-13.26,4.05-3.7,7.47-8,11.33-11.88,3.33-3.34,6.53-6.83,9.82-10.22,4.96-5.12,9.92-10.24,14.88-15.36,1.31-1.36,2.1-3.13,3.77-4.24,2.55-1.69,4.67-1.7,7.05,.23,2.59,2.1,4.68,4.71,7.02,7.06,1.82,1.83,3.9,3.41,5.54,5.36,1.66,1.98,3.41,3.86,5.22,5.68,6.34,6.35,12.6,12.77,18.85,19.21,8.22,8.47,16.44,16.94,24.66,25.41,5.72,5.9,11.46,11.77,17.2,17.65,1.16,1.19,2.32,2.37,3.26,3.77,.46,.68,1.08,1.26,1.72,1.78,3.51,2.85,3.55,7.18,.12,10.18-6.99,6.12-13.83,12.42-20.71,18.67-3.18,2.89-6.16,6.05-9.7,8.56-1.41,1-2.58,2.32-3.83,3.54-5.04,4.95-10.36,9.6-15.6,14.32-6.66,6-13.2,12.13-19.92,18.07-3.22,2.85-6.42,5.77-9.6,8.68-3.06,2.8-6.16,5.56-9.18,8.41-2.72,2.58-5.75,2.79-8.67,.42-3.36-2.73-6.37-5.83-9.36-8.95-3.27-3.41-6.71-6.66-9.79-10.23-4.12-4.77-9.09-8.71-13.06-13.63-1.7-2.11-4.04-3.69-5.94-5.65-3.52-3.63-6.77-7.54-10.44-11.03-4.45-4.23-8.61-8.73-12.84-13.16-3.49-3.65-7.46-6.81-10.6-10.83-1.86-2.38-4.21-4.43-6.29-6.68-2.46-2.66-2.51-4.92-.06-7.61,1.01-1.1,1.99-2.23,3.01-3.33,2.62-2.83,6.78-2.93,9.55-.28,2.16,2.06,4.48,3.96,6.52,6.14,3.53,3.76,7.85,6.64,11.33,10.43,4.82,5.27,10.33,9.83,15.41,14.84,3.06,3.02,6.67,5.55,10.67,7.26,7,2.99,14.1,3.16,21.36,.68,5.37-1.84,9.47-5.31,13.35-9.24,1.29-1.3,2.41-2.7,3.48-4.17,1.46-2,1.48-4.25-.02-5.66-1.47-1.39-4.52-1.32-6.15,.18-1.22,1.13-2.4,2.31-3.55,3.51-4.77,4.98-10.75,6.27-17.33,5.7-4.72-.41-8.4-2.7-11.52-6.19-6.09-6.81-12.31-13.5-18.43-20.28-3.49-3.87-6.89-7.84-10.35-11.74-.82-.93-1.69-1.84-2.64-2.63-3.17-2.66-3.66-7.37-.89-10.45,1.39-1.55,2.73-3.13,4.12-4.67,1.39-1.54,2.95-2.92,4.44-4.37Z"/>
      <rect class="cls-1" x="427.73" y="387.6" width="44.82" height="44.82" rx="10.68" ry="10.68" transform="translate(-158.38 431.03) rotate(-44.31)"/>
      <rect class="cls-1" x="400.63" y="353.42" width="37.34" height="37.34" rx="10.68" ry="10.68" transform="translate(-140.66 398.7) rotate(-44.31)"/>
      <path class="cls-5" d="M453.08,401.04l6.1,6.25c1.53,1.57,1.5,4.09-.07,5.63l-6.25,6.1c-1.57,1.53-4.09,1.5-5.63-.07l-6.1-6.25c-1.53-1.57-1.5-4.09,.07-5.63l1.33-1.3c.28-.28,.73-.27,1.01,.01l4.83,4.95c.28,.28,.73,.29,1.01,.01l1.54-1.5c.28-.28,.29-.73,.01-1.01l-4.83-4.95c-.28-.28-.27-.73,.01-1.01l1.35-1.31c1.57-1.53,4.09-1.5,5.63,.07Z"/>
      <path class="cls-5" d="M420.97,362.2l6.1,6.25c1.53,1.57,1.5,4.09-.07,5.63l-6.25,6.1c-1.57,1.53-4.09,1.5-5.63-.07l-6.1-6.25c-1.53-1.57-1.5-4.09,.07-5.63l1.33-1.3c.28-.28,.73-.27,1.01,.01l4.83,4.95c.28,.28,.73,.29,1.01,.01l1.54-1.5c.28-.28,.29-.73,.01-1.01l-4.83-4.95c-.28-.28-.27-.73,.01-1.01l1.35-1.31c1.57-1.53,4.09-1.5,5.63,.07Z"/>
    </g>
    <path class="cls-2" d="M329.99,209.34c-3.38-.25-6.78-.24-10.16,.03-.31,.02-.64,.05-.91,.21-.64,.36-.75,1.23-.78,1.97-.18,4.59-.16,9.18,.04,13.76,.03,.59,.07,1.23,.43,1.7,.68,.88,2.04,.71,3.1,1.08,1.95,.69,3.09,3.38,5.15,3.19,.51-.05,.98-.29,1.39-.59,1.85-1.41,2.18-3.99,2.62-6.27,.49-2.52,1.3-4.99,1.59-7.54,.29-2.55,.01-5.3-1.48-7.39"/>
    <path d="M334.87,231.35c-2.64-1.45-5.12-2.95-7.38-4.5,0,0,.7-6.43,.39-10.1,1.38-7.5-.17-3.94-5.84-4.85-2.89-.13-.13,11.62-.13,11.62l-5.78-3.36s-.34-3.94-.28-4.43c.41-3.44-.3-6.9-2.16-9.83-2.03-3.19-2.32-5.32-1.91-7.38,.7-3.5,3.41-6.8,3.03-14.8,.89-14.54,3.08-10.13-7.12-19.07-11.86-1.52-34.15,17.69-47.09,21.49-.81,.32-1.66,1.59-.94,3.18,8.29,18.1,28.43,60.05,30.31,64.79,1.88,4.74-19.14,15.74-20.94,11.39-12.14-23.76-21.68-48.96-31.31-73.8-6.87-5.1-3.22-16.89,3.47-20.6,2.86-1.46,7.4,.27,9.84-1.74,11.92-8.75,27.17-15.09,40.13-22.72,3.55-1.89,9.7-1.28,11.26-5.08,7.48-18.26,6.02-36.51,6.02-36.51,0,0-36.11-16.08-34.69-33.47-.12-2.71,.6-5.26,1.45-7.72,1.35-3.91,6.26-5.17,9.34-2.41,2.04,1.83,3.88,3.94,5.23,5.73,22.11,26.4,66.49,22.41,82.32-9.13,5.88-11.4,9.99,7.68,8.38,12.32-8.82,25.45-35.18,30.6-37.7,32.08-1.55,.91-1.62,20.97,2.24,31.88,1.59,4.49,13.41,8.6,22.46,13.82,9.37,4.45,50.81,26.28,52.24,29.94,3.15,8.06-7.98,18.67-10.91,30.35-6.16,13.44-23,53.49-23.82,56.91-2.64,5.21-16.23-2.33-19-3.29-9.75-5.46,23.49-66.04,25.38-75.91-11.22-6.21-20.83-12.59-32.09-18.04-3.68-.84-12.54-11.66-14.38-8.2-1.86,4.54-6.96,6.44-9.74,10.32,.38,7.21-1.53,15.33-.4,22.01,4.3,5.9-.06,12.32-.83,18.39-.05,6.96,.93,20.73,.93,20.73Z"/>
    <path d="M316.1,220.14c.26,2.73,.81,5.41,1.74,7.99,.42,1.16,.84,2.62,1.71,3.53,.93,.96,2.4,1.42,3.63,1.84,2.55,.88,5.36,1.32,8.04,.9s4.78-2.75,3.54-5.44c-.34-.74-1.4-.92-2.05-.54-.75,.44-.88,1.31-.54,2.05,.17,.37-.67,.77-.88,.84-.79,.28-1.7,.26-2.53,.24-2.01-.06-4-.58-5.85-1.34-.8-.33-1.21-.56-1.57-1.35-.4-.89-.72-1.82-1.01-2.75-.61-1.94-1.02-3.94-1.22-5.96-.08-.81-.63-1.5-1.5-1.5-.75,0-1.58,.69-1.5,1.5h0Z"/>
    <path d="M318.78,221.57c.36,2.21,.83,4.39,1.42,6.55,.29,1.06,.51,2.27,1.35,3.05s2.12,.85,3.22,.98,2.19,.2,3.29,.24c.57,.02,1.13,.02,1.7,.02,.63,0,1.32,.04,1.9-.26,1.37-.72,.97-2.23,.67-3.44-.28-1.12-.69-2.2-1.14-3.26-.26-.6-1.11-.85-1.69-.69-.68,.19-1.04,.78-1.1,1.45-.11,1.09-.46,2.2-.98,3.19-.38,.72-.18,1.63,.54,2.05,.68,.4,1.67,.18,2.05-.54,.78-1.48,1.23-3.04,1.39-4.7l-2.8,.76c.26,.6,.47,1.23,.65,1.86,.1,.33,.18,.66,.26,.99,.04,.17,.08,.33,.11,.5l.04,.2c.05,.34,.06,.27,.02-.21l.39-.66c.6-.18,.75-.26,.44-.24-.07,0-.14,0-.21,0-.18,0-.35,0-.53,0-.35,0-.71,0-1.06,0-.74-.01-1.49-.04-2.23-.1s-1.41-.12-2.12-.21c-.26-.03-.53-.06-.77-.14,.14,.05-.06,0-.08-.04,.09,.18,.02-.09,.02-.1-.66-2.48-1.4-5.35-1.84-8.05-.13-.8-1.12-1.25-1.85-1.05-.85,.23-1.18,1.04-1.05,1.85h0Z"/>
    <path d="M318.4,227.52c-.22,2.41,.26,5.18,1.09,7.45,.48,1.29,1.47,1.9,2.81,2.01s2.68,.08,4.02,.12,2.62,.06,3.93,.08,2.77,.24,3.57-.98c.67-1.01,.61-2.52,.57-3.68-.05-1.33-.26-2.65-.63-3.93l-2.51,1.46c.49,.61,.86,1.32,1.09,2.07,.11,.35,.1,.81,.24,1.13-.03,.32,.05,.3,.24-.09,.31-.28,.33-.37,.04-.25,.03,.02-.28,.02-.29,.02-2.04,.22-4.15,.12-6.18-.1-.95-.11-1.9-.27-2.84-.48-.68-.15-1.09-.22-1.27-.93-.49-1.92-.98-3.72-1.91-5.49-.61-1.16-2.41-.85-2.74,.36-.43,1.54-.61,3.14-.5,4.73h3c-.19-2.74-.38-5.49-.56-8.23-.13-1.91-3.02-1.95-3,0,.02,2.49,.19,4.97,.51,7.43,.16,1.21,.34,2.42,.56,3.62s.54,2.4,1.86,2.83c1.04,.34,2.3,.32,3.39,.37,1.24,.06,2.47,.06,3.71,.02,2.48-.08,4.95-.31,7.42-.54,.81-.08,1.5-.64,1.5-1.5,0-.75-.69-1.58-1.5-1.5-4.26,.4-8.55,.8-12.83,.4-.19-.02-.4-.07-.59-.06l-.21-.05c.29,.31,.39,.35,.31,.11,.05-.16-.11-.54-.14-.73-.05-.25-.09-.51-.14-.76-.18-1.04-.34-2.09-.46-3.14-.25-2.16-.38-4.33-.4-6.51h-3c.19,2.74,.38,5.49,.56,8.23,.06,.81,.65,1.5,1.5,1.5,.77,0,1.55-.69,1.5-1.5-.09-1.35,.03-2.63,.4-3.93l-2.74,.36c.6,1.14,1.05,2.33,1.35,3.58,.28,1.18,.45,2.38,1.43,3.22,.89,.77,2.07,.99,3.2,1.2,1.37,.25,2.75,.43,4.14,.52s2.72,.09,4.07,.01c1.16-.07,2.53-.1,3.24-1.19,.65-1,.34-2.4,.02-3.47-.38-1.27-1.03-2.37-1.86-3.39-.97-1.2-2.9,.1-2.51,1.46,.27,.93,.45,1.86,.51,2.83,.03,.45,.03,.9,.01,1.34,0,.25-.01,.5-.05,.74v.12c-.07,.27-.08,.3-.04,.09l.66-.39c-.53,.21-1.43,.05-2.03,.04-.79-.01-1.57-.03-2.36-.05-1.47-.03-2.93-.07-4.4-.12-.16,0-.8-.12-.93-.04,.13-.09,.08,.43,.02-.12-.07-.65-.35-1.33-.49-1.97-.33-1.45-.52-2.87-.38-4.36,.07-.81-.74-1.5-1.5-1.5-.87,0-1.43,.69-1.5,1.5h0Z"/>
    <path d="M331.27,225.87c.51,1.74,.95,3.5,1.33,5.27,.18,.85,.33,1.7,.49,2.55,.03,.19,.14,.67,.07,.79,.1-.15-.1-.02-.21,.01-1.6,.38-3.42,.26-5.04,.12-1.78-.15-3.53-.46-5.28-.77-.8-.14-1.62,.22-1.85,1.05-.2,.72,.25,1.7,1.05,1.85,2.17,.38,4.35,.77,6.56,.92,1.03,.07,2.06,.09,3.09,.02s2.21-.12,3.16-.61c2.22-1.16,1.45-3.84,1.06-5.79-.41-2.09-.92-4.15-1.51-6.19-.54-1.85-3.44-1.06-2.89,.8h0Z"/>
    <path class="cls-2" d="M333.46,93.18c2.43,.38,4.78,1.04,6.95,2.66,12.66-5.23,30.51-13.85,34.11-27.82,1.06-1.34-.53-1.07-.91-1.5-.74-.85-.89,.08-1.13,.46-9.56,15.24-27.05,25.62-45.27,24.41-11.59,.03-22.7-4.72-32.54-10.44-1.2-.78-10.43-6.96-11.17-9.64-3.15-5.25-3.8,1.48-2.54,4.26,7.07,9.5,15.68,18.51,27.53,21.91,.6-.24,1.21-.52,1.82-.81,7.22-3.38,15.27-4.73,23.15-3.49Z"/>
    <path class="cls-2" d="M313.88,125.62c4.68-3.28,14.39-3.39,21.27-1.48,0,0,1.66-21.65-.24-23.83-1.18-1.36-18.36-1.14-19.47,2.01,1.01,2.78-1.57,23.31-1.57,23.31Z"/>
    <path class="cls-3" d="M339.58,147.69c-2.49-20.79-35.98-18.64-29.24,3.65,3.55,15.8,29.36,14.07,29.24-3.65Z"/>
    <path class="cls-2" d="M405.91,197.82c-18.82-6.84-8.42-9.15-17.43,13.83-5.21,14.83-9.93,29.93-16.38,44.23-1.87,3.49,5.97,4.89,6.79,4.29,2.44-1.8,4.79-8.83,4.98-10.95,7.29-17.31,12.98-34.95,22.05-51.4Z"/>
    <path class="cls-2" d="M246.41,195.47c10.53,19.69,19.49,40.69,26.9,62.47-.1,3.22,9.36-2.84,9.33-4.01-7.53-21.7-20.98-40.67-27.6-62.59-1.94,3.64-5.04,4.5-8.63,4.13Z"/>
    <path class="cls-2" d="M347.77,153.67c16.85,3.65,27.99,17.17,42.84,24.84,1.12,1.9,8.7-8.38,6.14-8.32-12.03-6.15-23.83-11.37-35.26-17.58-7.15-2.12-13.7-12.52-13.72,1.06Z"/>
    <path class="cls-2" d="M258.21,171.89c1.36,7.64,5.93,2.88,10.83,.59,10.05-5,20.63-9.43,31.22-13.63,2.97-.28,1.36-2.81,1.18-4.78,.62-7.76-40.68,12.69-43.23,17.82Z"/>
    <path class="cls-3" d="M252.74,182.67c.09-7.06-11.36-6.36-11.21,.45,1.06,8.62,10.85,7.32,11.21-.45Z"/>
    <path class="cls-2" d="M321.74,173.36c-1.1,4.04-.83,14.54-.83,14.54,0,0,7.07,.82,7.67-.25,1.8-3.19-1.28-11.79,.31-15.18,.06-1.99-6.78-.46-7.15,.89Z"/>
    <path class="cls-3" d="M413.18,183.99c.55-6.12-6.7-6.67-10.09-3.17-5.37,6.72,9.83,10.84,10.09,3.17Z"/>
    <path class="cls-3" d="M329.12,199.2c-.9-5.3-10.35-7.5-9.8-.44,.45,5.45,9.16,6.27,9.8,.44Z"/>
    <g>
      <path d="M423.2,2.47c-13.69-1.71-106.19-2.71-136.18-1.31-1.08,.05-1.96,.22-2.66,.48-1.84-.02-3.67-.04-5.5-.07-.56,.22-1.2,.36-1.92,.35-15.34-.03-30.66-.68-45.98-1.37C220.18,.28,211.25,.05,205.08,0c-16.88-.35-20.85,28.3-7.89,36.17,3.41,2.62,80.4,1.29,105.52,1.69,.79-.71,1.85-1.16,3.21-1.16,34.28-.11,69.51-6.56,103.36,1.43,.9-.01,1.8-.02,2.7-.04,38.02-.76,24.91-33.91,11.22-35.61Z"/>
      <path d="M414.61,33.51c-7.05,2.34-14.5,1.3-21.7,.4-7.71-.96-15.43-1.25-23.2-1.33s-15.38-.2-23.05-.92-15.68-1.57-23.6-1.34c-8.51,.25-17.36,.4-25.63,2.58-1.34,.35-1.52,2.66,0,2.89,7.03,1.08,14.22-.6,21.24-1.11s14.51-.66,21.77-.79,14.36-.23,21.53-.71c3.55-.24,7.08-.61,10.61-1s6.77-.57,10.16-.09c7.36,1.04,14.29,4.03,21.73,4.67v-3c-3.54,.44-6.92-.46-10.36-1.17s-6.61-.97-9.98-.87c-6.99,.2-13.94,1.41-20.93,1.87-13.98,.91-28.01,.52-42-.14-7.97-.38-15.95-.81-23.92-1.23-1.93-.1-1.92,2.9,0,3,14.11,.74,28.22,1.63,42.35,1.86,7.04,.11,14.08,.04,21.11-.34s13.79-1.39,20.71-1.88c3.9-.27,7.77-.2,11.62,.58s7.53,1.8,11.39,1.32c1.89-.23,1.96-2.83,0-3-6.56-.56-12.74-3.06-19.18-4.27-3.28-.61-6.56-.83-9.89-.58-3.51,.27-6.99,.77-10.5,1.06-14.24,1.16-28.55,.67-42.81,1.49-3.98,.23-7.95,.57-11.9,1.04s-7.99,1-11.96,.39v2.89c7.41-1.95,15.23-2.09,22.85-2.4s15.73,.31,23.62,1.08,15.34,1.01,23.05,1.09,15.58,.19,23.33,1.12,16.41,2.34,24.33-.29c1.82-.61,1.04-3.5-.8-2.89h0Z"/>
      <path d="M280.17,33.42c23.7-.62,47.42-1.24,71.11-.22,6.68,.29,13.36,.71,20.02,1.29l-1.5-1.5c1.17,9.19-.42,18.5-5.64,26.26-2.51,3.73-5.51,7.71-9.14,10.42-3.87,2.89-8.87,4.05-13.55,4.89-9.94,1.8-19.8,.72-29.49-1.87-4.6-1.23-9.37-2.43-13.38-5.11-3.65-2.44-6.76-5.89-9.39-9.37-5.92-7.85-9.77-17.25-10.92-27.02l-1.5,1.5c3.58,.04,7.13-.31,10.64-1,1.89-.38,1.09-3.27-.8-2.89-3.25,.65-6.53,.93-9.85,.9-.74,0-1.59,.7-1.5,1.5,1.09,9.28,4.32,18.25,9.54,26.02,2.61,3.89,5.68,7.59,9.23,10.65,3.84,3.3,8.27,5.2,13.09,6.61,10.3,3.01,20.72,4.9,31.47,3.54,5.05-.64,10.3-1.67,14.9-3.92s7.76-6.08,10.78-9.96c3.44-4.43,6.15-9.24,7.56-14.7s1.63-10.96,.93-16.43c-.11-.86-.6-1.42-1.5-1.5-23.63-2.06-47.36-2.05-71.06-1.56-6.69,.14-13.38,.31-20.07,.49-1.93,.05-1.93,3.05,0,3h0Z"/>
      <path d="M276.9,39.36c4.05,10.4,7.82,22.3,17.08,29.24,8.72,6.54,20.4,9.38,31.09,10.38s22.91-.93,31.46-7.9c9.33-7.61,9.5-20.18,14.2-30.42l-13.71-5.78c-1.87,7.27-3.74,14.55-5.62,21.82l14.46,3.99c.43-2.7,2.02-4.53,3.3-6.91,1.62-3,2.47-5.72,2.69-9.13,.24-3.7-3.65-7.98-7.5-7.5-13.43,1.66-26.04-.16-39.18-2.91s-25.91-4.65-38.96-6.48l-1.99,14.73c12.71,1.12,25.47,.68,38.2,1.4,6.07,.34,12.17,1.53,18.25,1.39s11.95-2.72,18.04-2.53v-15c-8.95,.7-17.87,.69-26.82-.04-3.27-.26-6.38,2.52-7.23,5.51-.99,3.45,.79,6.45,3.45,8.47,2.9,2.21,5.8,4.41,8.7,6.62,2.5,1.9,3.83,2.44,3.66,5.8-.1,2.03-.25,2.66-2.35,2.69-.9,.01-2.23-.82-2.86-.7,.15-.03-1.82,1.6-1.17,1.65l-6.48-11.29c-1.71,3.61-3.85,6.52-7.21,8.75l11.02,8.47c-.09,.34-1.98,.52-1.06,.84v-14.46c-2.23,.72-4.35,1-6.6,1.45-.49-.04-.96-.16-1.41-.36,.23,.52,.21,1.05-.06,1.58l-12.8-5.3c.02,1.33,.04,2.65,.06,3.98,.02,1.56-1.14,5.01,1.24,3.12,3.28-2.62,.28,.09,.37-1.36,.05-.8-.29-1.46-.18-2.5l-1.02,3.79-1.17,1.01-3.79,1.02-3.99-2.83v-3.99c.24-.98,4.62-2.23,4.73-1.89-.22-.65-.37,1.46-2,1.91h-3.99l-.43-7h3.99l2.74,3.14-.76,5.78c-1.51,2.25-.4,1.03,1.55,.29,1.18-.44,2.37-.88,3.56-1.3,2.98-1.05,5.98-2.03,9.01-2.92,5.76-1.71,11.59-3.1,17.47-4.28,9.46-1.88,5.46-16.34-3.99-14.46-8.68,1.73-17.23,3.98-25.59,6.89-6.78,2.36-18.63,5.31-15.45,15.06s15.81,7.69,19.23-.32c3.15-7.36-1.88-16.3-10.34-15.47-17.21,1.69-10.02,31.98,7.07,26.79,7.73-2.35,10.66-12.48,4.27-17.89-6.86-5.8-16.32-.55-16.28,8.14s7.21,16.47,16.11,16.43c4.51-.02,8.99-2.22,11.19-6.23,2.38-4.36,1.44-10.18,1.37-14.92-.09-6.49-8.14-9.9-12.8-5.3-5.46,5.39-5.43,14.22,.06,19.63,6.16,6.07,15.07,5.19,22.6,2.76,7.21-2.33,7.02-12.05,0-14.46-7.48-2.58-15.46,2.12-17.39,9.64-1.54,6.01,5.37,12.22,11.02,8.47s9.78-8.21,12.59-14.13c2.55-5.38-.57-10.76-6.48-11.29-10-.89-16.39,9.66-12.96,18.5s13.87,12.18,22.46,9.8c9.45-2.62,12.66-11.76,11.64-20.74-1.19-10.52-11.87-15.73-19.55-21.57l-3.79,13.98c8.95,.73,17.87,.74,26.82,.04,9.53-.75,9.77-14.7,0-15-5.9-.18-11.28,2.09-17.08,2.51-6.34,.46-12.88-1.02-19.21-1.38-12.73-.71-25.49-.27-38.2-1.4-8.32-.74-10.38,13.56-1.99,14.73,13.69,1.91,27.3,4.04,40.84,6.87,13.73,2.87,27.27,4.79,41.29,3.05l-7.5-7.5c-.11,1.69-1.88,3.51-2.68,4.92-1.26,2.24-2.37,4.57-2.78,7.13-1.47,9.3,12,13.55,14.46,3.99,1.87-7.27,3.74-14.55,5.62-21.82,2.04-7.91-10.04-13.76-13.71-5.78-1.98,4.32-3.57,8.72-4.89,13.28-1.1,3.81-1.82,8.32-4.28,11.56-4.62,6.09-14.95,6.62-21.82,6.18-7.55-.48-16.31-2.52-22.73-6.7-7.06-4.6-9.76-14.53-12.68-22.03-1.46-3.76-5.04-6.41-9.23-5.24-3.59,1.01-6.72,5.42-5.24,9.23h0Z"/>
    </g>
    <path class="cls-3" d="M363.23,51.84c-2.46,2.47-4.7,5.47-7.36,7.96-14.48,14.08-39.89,16.56-55.15,1.42-4.99-4.17-22.91-27.81-8.11-25.19,21.83-2.27,5.25,7.19,15.1,13.37,6.15-2.5-5.2-15.73,4.07-13.31,2.69-.15,6.84,1.05,8.52-.87,.69,35.42,9.19,11.13,14.23,21.63-.7,2.73-.16,11.57,4.01,7.2,4.01-20.45-7.8-11.37-11.28-17.85-.13-2.55-2.66-9.92-.02-10.34,6.95,.76,33,.11,37.79-.02,6.31,2.08-1.88,11.27-1.82,16.01Z"/>
    <path class="cls-2" d="M420.66,28.91c-13.64,4.64-27.98,.77-42.2,2.27-35.9-.69-4.26-1.07-40-.04-21.52-.29-110.26-.73-131.69-.45-11.8-.07-13.03-17.38-4.93-23.34,33.83-1.53,68.2,.92,102.52,.51,24.29,.46,60.65-1.15,63.99-.61,17.55,.19,35.47-.1,52.9,.04,11.72,3.84,11.38,18.73-.59,21.63Z"/>
    <path class="cls-2" d="M321.22,220.51c.08,2.16,.31,4.31,.67,6.44,.3,1.79,.52,3.98,1.72,5.43s3.98,1.56,5.17-.01c.65-.87,.54-1.92,.31-2.91s-.45-2.06-.64-3.09c-.41-2.3-.68-4.62-.82-6.96-.05-.81-.65-1.5-1.5-1.5-.77,0-1.55,.69-1.5,1.5,.13,2.24,.38,4.47,.74,6.68,.18,1.12,.39,2.23,.64,3.34,.07,.33,.19,1.09,.27,1.24v.17c0-.19,.11-.34,.32-.45,0,0-.26,.07-.4,.09-.04,0-.44,.01-.29,.02,.11,0-.03-.1,.02,0-.08-.14-.26-.4-.33-.61-.32-.93-.49-1.93-.67-2.9-.4-2.14-.63-4.3-.72-6.48-.03-.81-.67-1.5-1.5-1.5-.79,0-1.53,.69-1.5,1.5h0Z"/>
    <path class="cls-2" d="M327.18,230.25c-.16-1.97-.24-3.94-.24-5.92,0-.78-.69-1.54-1.5-1.5s-1.5,.66-1.5,1.5c0,1.97,.08,3.95,.24,5.92,.06,.78,.64,1.54,1.5,1.5,.76-.03,1.57-.66,1.5-1.5h0Z"/>
    <g>
      <path class="cls-6" d="M568.75,599.19c-123.68,2.72-245.99-2.23-369.23,.07-54.08-3.46-110.26,.4-164.06-2.36-43.73,3.1-34.2-19.62-34.6-41.21,.41-49.26-3.95-98.44,3.72-146.76,4.49-20.76,103.24-7.86,128.74-12.3,69.88-6.74,113.2,14.26,175.26,31.61,80.9,19.38,184.66,15.23,254.91-21.89,58.74-27.49,25.06,72.3,32.38,92.85-7.99,27.69,27.66,93.97-27.13,100Z"/>
      <path d="M17.54,465.59c-4.69,.57-7.99-3.13-5.09-5.73,29.48-26.41,124.14-28.05,143.34-17.66,4.31,2.33,4.82,5.27-.06,8.66-6.34,4.42-15.96,5.64-24.46,3.56-36.32-8.88-82.1,7.31-113.73,11.16Z"/>
      <path d="M369.38,455.04c-64.1-7.34-125.45-34.35-186.67-46.19-10.86-2.1-55.19-10.94-70.85-11.21-52.52-.9-125.53,14.98-96.85,.13,31.05-13.92,63.84-18.81,96.89-18.28,54.49,.87,173.89,32.52,252.65,53.97,24.49,6.67,21.03,14.68,4.83,21.58Z"/>
      <path d="M468.28,434.52c15.34-1.27,78.2-16.68,97.93-27.88,1.85-1.05,7.64-5.24,9.63-5.56,7.03-1.13,16.11,3.96,19.62,11.17-4.68,13.16-80.43,39.77-115.32,38.67-9.94-.31-15.69-16.09-11.86-16.4Z"/>
      <path d="M569.15,546.41c-3.51-7.21-12.59-12.3-19.62-11.17-1.98,.32-7.77,4.52-9.63,5.56-67.89,37.99-185.87,26.36-209.51,22.41-1.71-.29-3.45-.59-5.2-.89,0,0-.02,0-.02,0h0c-17.97-3.04-37.9-6.27-54.19-11.09-72.64-21.48-179.85-56.04-232.8,3.77,7.68,10.96,28.38-6.66,40.83-6.43,86.69-25.53,157.23,27.71,240.33,35.51,.01,0,.02,0,.03,0,34.07,4.67,97.95,5.36,140.56,.93s94.51-21.22,109.23-38.61Z"/>
      <path d="M460.5,489.19c72.36-12.82,82.27-29.69,93.3-31.41,18.7-2.92,33.47,.81,11.74,18.91-119.15,63.6-284.81,51.45-393.46-17.8,6.17-46.69,86,66.17,288.42,30.3Z"/>
    </g>
    <g class="cls-7">
      <path class="cls-5" d="M509.9,468.44c4.13-1.94,7.76-5.41,4.21-8.8-2.4-2.3-6.96-3.33-11-4.13-7.66-1.5-15.32-3.01-22.98-4.51-2.7-.53-5.88-1.32-7.03-2.95-1.58-2.24,2.09-3.77,2.51-5.9,.49-2.49-3.82-5.32-8.15-6.23s-8.52-.46-12.48,0c-9.19,1.08-18.38,2.16-27.57,3.25-4.53,.53-9.17,1.07-14.12,.57-2.92-.29-5.85-.93-8.78-1.33-12.34-1.7-23.35,.91-33.3,3.76,6.98,3.76,9.96,10.05,6.68,14.1-2.8,3.46-9.09,5-13.84,7.42-4.75,2.42-7.94,6.91-3.56,10.9,5.13,4.67,18.11,6.25,19.47,11.34,.27,1.02-.02,2.07,.93,3.03,1.35,1.37,4.25,1.67,6.59,1.77,29.43,1.21,60.42,2.22,82.86-6.15,6.63-2.47,12.33-5.71,19.31-7.88,6.73-2.08,14.47-3.11,21.71-4.68,1.69-.37,2.86-2.12,.88-2.41"/>
    </g>
  </g>
</svg>