<?xml version="1.0" encoding="UTF-8"?>
<svg id="Layer_2" data-name="Layer 2" xmlns="http://www.w3.org/2000/svg" xmlns:xlink="http://www.w3.org/1999/xlink" viewBox="0 0 600 599.94">
  <defs>
    <style>
      .cls-1 {
        fill: #00b8b9;
      }

      .cls-2 {
        fill: #00b4e6;
      }

      .cls-3 {
        fill: #1e1936;
      }

      .cls-4 {
        fill: url(#Degradado_sin_nombre_23);
      }

      .cls-5 {
        opacity: .9;
      }
    </style>
    <linearGradient id="Degradado_sin_nombre_23" data-name="Degradado sin nombre 23" x1="680.89" y1="566.48" x2="1103.04" y2="419.85" gradientTransform="translate(1612.28) rotate(-180) scale(1.48 -1)" gradientUnits="userSpaceOnUse">
      <stop offset="0" stop-color="#00b4e6"/>
      <stop offset=".1" stop-color="#11a6dc"/>
      <stop offset=".31" stop-color="#328bc9"/>
      <stop offset=".51" stop-color="#4a78bb"/>
      <stop offset=".69" stop-color="#596cb3"/>
      <stop offset=".85" stop-color="#5e69b1"/>
    </linearGradient>
  </defs>
  <g id="Layer_1-2" data-name="Layer 1">
    <path class="cls-4" d="M2.83,382.79c20.28-9.53,47.08-7.12,70.9-3.5,19.82,3.01,39.58,6.62,58.09,12.45,22.9,7.21,43.39,17.66,65.11,26.51,29.03,11.83,62.49,22.75,95.66,27.13,33.19,4.38,70.69-.67,103.54-4.65,15.36-1.86,30.79-3.97,45.21-8.15,14.11-4.09,26.93-10.07,40.45-15.05,27.54-10.13,68.79-21.15,102.81-25.22,8.1-.97,15.45,3.5,15.4,9.3-.32,33.38-1.38,135.83-1.83,178.92-.11,10.75-12.5,19.42-27.74,19.42H31.09c-15.2,0-27.57-8.63-27.73-19.35-.8-52.57-2.75-194.36-.52-197.8Z"/>
    <path d="M75.22,506.58c-17.89-2.71-77.38,4.02-45.48,20.99,21.55,1.79,43.95-3.88,66.21,.87,57.62,15.24,99.78,49.75,163.03,55.48,89.3-1.9-18.71-23.77-44.41-31.27-46.95-14.44-85-45.21-139.34-46.06Z"/>
    <path d="M407.6,582.17c40.28,3.82,73.69-13.99,109.34-23.22,19.17-11.04,80.83-8.27,71.45-31.81-12.36-17.1-114.36,23.87-137.25,30.72-23.83,5.15-123.84,14.64-43.54,24.32Z"/>
    <path d="M22.05,450.01c29.57-11.89,91.68,23.44,102.07-.81-2.54-14.07-57.62-17.3-75.02-19.69-21.89-6.94-67.93,14.56-27.05,20.5Z"/>
    <path d="M23.85,585.64c26.2-10.5,101.77,22.84,94.05,1.13-22.53-37.78-166.47-17.28-94.05-1.13Z"/>
    <g class="cls-5">
      <path class="cls-3" d="M296.8,443.57c-9.18,2.63-18.19,5.82-26.98,9.55-2.12,.9-4.29,1.88-5.83,3.74s-2.32,4.85-1.29,7.53c1.61,4.2,6.21,5.23,9.93,5.71,6.23,.8,12.47,2.07,18.67,3.81,2.5,.7,5.62,2.27,5.91,5.24,.23,2.35-1.56,3.87-3.15,5-10.92,7.72-21.98,17.67-24.14,33.05-.23,1.62-.33,3.4,.37,4.98,1.26,2.86,4.38,3.69,6.97,3.91,7.33,.62,14.65-.25,21.95,1.94,1.67,.5,3.45,1.25,4.6,2.88,1.64,2.32,1.38,5.67,.14,7.86s-3.25,3.55-5.09,5.04c-4,3.22-7.46,7.3-10.2,12.01-1.96,3.37-3.52,8.04-1.39,11.97,2.5,4.61,7.93,4.6,12.14,3.92,4.8-.77,9.61-1.55,14.41-2.32,3-.48,6.1-.96,9.19,.02s6.2,3.8,6.94,7.46c.37,1.82,.19,3.83,1.21,5.36,1.47,2.2,4.19,1.75,6.21,.98,13.15-5.05,25.19-12.72,37.17-20.36,8.92-5.69,17.93-11.46,25.09-19.77,1.42-1.65,2.79-3.47,3.31-5.82s-.06-5.36-1.86-7.01c-1.89-1.72-4.33-1.45-6.57-1.7-2.24-.25-5.03-1.87-5.17-4.51-.1-1.91,1.28-3.17,2.53-4.17,12.34-9.89,23.5-21.65,33.18-34.98,1.75-2.41,3.45-5.99,1.62-8.91-1.24-1.99-3.49-2.49-5.45-2.8-3.6-.57-7.2-1.14-10.8-1.7-1.69-.27-3.51-.6-4.9-1.96-5.48-5.4,.69-10.75,3.8-13.64,3.98-3.7,8.58-8.36,10.96-13.76,.56-1.27,1.01-2.66,.98-4.17-.05-2.14-1.08-4.22-2.07-6.18-1.18-2.32-2.35-4.65-3.53-6.97-.26-.52-.58-1.09-1.05-1.3-.35-.15-.71-.06-1.05,.03-11.83,3.32-21.4,12.38-32.97,16.49-6.2,2.2-12.84,2.95-19.45,3.68-4.84,.54-9.68,1.07-14.51,1.61-9.34,1.04-18.67,2.08-28.05,2.87-3.84,.32-7.17,1.24-10.77-.67s-6.43-5.07-10.54-4.17"/>
    </g>
    <path d="M151.03,468.05c10.3,18.85,81,40.54,111.51,44.15,74.67,17.44,154.51,12.38,223.21-16.11,18.79-15.64,86.61-19.14,74.17-44.21-25.55-10.64-70.86,22.61-98.69,28.02-59.03,24.93-130.74,26.07-194.39,9.81-29.39,3.4-112.67-55.01-115.8-21.65Z"/>
    <path d="M561.34,383.97c-45.16,7.64-85.35,27.07-131.07,33.66-15.64,7.9-61.17,7.93-65.13,17.68-13.88,37.02,109.8-5.31,131.78-10.92,24.45-10.76,57-15.33,80.71-24.56,1.18-7.2-3.14-17.13-16.28-15.87Z"/>
    <path d="M288.12,453.47c19.93,5.06,23.38-13.02,7.75-19.69-17.46-7.39-39.61-7.61-57.81-15.67-63.44-27.13-172.15-75.3-238.06-37.56,6.18,17.72,43.58,3.56,62.5,7.15,88.82-1.49,140.87,57.67,225.62,65.77Z"/>
    <path class="cls-1" d="M328.86,209.34c-3.38-.25-6.78-.24-10.16,.03-.31,.02-.64,.05-.91,.21-.64,.36-.75,1.23-.78,1.97-.18,4.59-.16,9.18,.04,13.76,.03,.59,.07,1.23,.43,1.7,.68,.88,2.04,.71,3.1,1.08,1.95,.69,3.09,3.38,5.15,3.19,.51-.05,.98-.29,1.39-.59,1.85-1.41,2.18-3.99,2.62-6.27,.49-2.52,1.3-4.99,1.59-7.54,.29-2.55,.01-5.3-1.48-7.39"/>
    <path d="M333.74,231.35c-2.64-1.45-5.12-2.95-7.38-4.5,0,0,.7-6.43,.39-10.1,1.38-7.5-.17-3.94-5.84-4.85-2.89-.13-.13,11.62-.13,11.62l-5.78-3.36s-.34-3.94-.28-4.43c.41-3.44-.3-6.9-2.16-9.83-2.03-3.19-2.32-5.32-1.91-7.38,.7-3.5,3.41-6.8,3.03-14.8,.89-14.54,3.08-10.13-7.12-19.07-11.86-1.52-34.15,17.69-47.09,21.49-.81,.32-1.66,1.59-.94,3.18,8.29,18.1,28.43,60.05,30.31,64.79,1.88,4.74-19.14,15.74-20.94,11.39-12.14-23.76-21.68-48.96-31.31-73.8-6.87-5.1-3.22-16.89,3.47-20.6,2.86-1.46,7.4,.27,9.84-1.74,11.92-8.75,27.17-15.09,40.13-22.72,3.55-1.89,9.7-1.28,11.26-5.08,7.48-18.26,6.02-36.51,6.02-36.51,0,0-36.11-16.08-34.69-33.47-.12-2.71,.6-5.26,1.45-7.72,1.35-3.91,6.26-5.17,9.34-2.41,2.04,1.83,3.88,3.94,5.23,5.73,22.11,26.4,66.49,22.41,82.32-9.13,5.88-11.4,9.99,7.68,8.38,12.32-8.82,25.45-35.18,30.6-37.7,32.08-1.55,.91-1.62,20.97,2.24,31.88,1.59,4.49,13.41,8.6,22.46,13.82,9.37,4.45,50.81,26.28,52.24,29.94,3.15,8.06-7.98,18.67-10.91,30.35-6.16,13.44-23,53.49-23.82,56.91-2.64,5.21-16.23-2.33-19-3.29-9.75-5.46,23.49-66.04,25.38-75.91-11.22-6.21-20.83-12.59-32.09-18.04-3.68-.84-12.54-11.66-14.38-8.2-1.86,4.54-6.96,6.44-9.74,10.32,.38,7.21-1.53,15.33-.4,22.01,4.3,5.9-.06,12.32-.83,18.39-.05,6.96,.93,20.73,.93,20.73Z"/>
    <path d="M314.97,220.14c.26,2.73,.81,5.41,1.74,7.99,.42,1.16,.84,2.62,1.71,3.53,.93,.96,2.4,1.42,3.63,1.84,2.55,.88,5.36,1.32,8.04,.9s4.78-2.75,3.54-5.44c-.34-.74-1.4-.92-2.05-.54-.75,.44-.88,1.31-.54,2.05,.17,.37-.67,.77-.88,.84-.79,.28-1.7,.26-2.53,.24-2.01-.06-4-.58-5.85-1.34-.8-.33-1.21-.56-1.57-1.35-.4-.89-.72-1.82-1.01-2.75-.61-1.94-1.02-3.94-1.22-5.96-.08-.81-.63-1.5-1.5-1.5-.75,0-1.58,.69-1.5,1.5h0Z"/>
    <path d="M317.66,221.57c.36,2.21,.83,4.39,1.42,6.55,.29,1.06,.51,2.27,1.35,3.05s2.12,.85,3.22,.98,2.19,.2,3.29,.24c.57,.02,1.13,.02,1.7,.02,.63,0,1.32,.04,1.9-.26,1.37-.72,.97-2.23,.67-3.44-.28-1.12-.69-2.2-1.14-3.26-.26-.6-1.11-.85-1.69-.69-.68,.19-1.04,.78-1.1,1.45-.11,1.09-.46,2.2-.98,3.19-.38,.72-.18,1.63,.54,2.05,.68,.4,1.67,.18,2.05-.54,.78-1.48,1.23-3.04,1.39-4.7l-2.8,.76c.26,.6,.47,1.23,.65,1.86,.1,.33,.18,.66,.26,.99,.04,.17,.08,.33,.11,.5l.04,.2c.05,.34,.06,.27,.02-.21l.39-.66c.6-.18,.75-.26,.44-.24-.07,0-.14,0-.21,0-.18,0-.35,0-.53,0-.35,0-.71,0-1.06,0-.74-.01-1.49-.04-2.23-.1s-1.41-.12-2.12-.21c-.26-.03-.53-.06-.77-.14,.14,.05-.06,0-.08-.04,.09,.18,.02-.09,.02-.1-.66-2.48-1.4-5.35-1.84-8.05-.13-.8-1.12-1.25-1.85-1.05-.85,.23-1.18,1.04-1.05,1.85h0Z"/>
    <path d="M317.27,227.52c-.22,2.41,.26,5.18,1.09,7.45,.48,1.29,1.47,1.9,2.81,2.01s2.68,.08,4.02,.12,2.62,.06,3.93,.08,2.77,.24,3.57-.98c.67-1.01,.61-2.52,.57-3.68-.05-1.33-.26-2.65-.63-3.93l-2.51,1.46c.49,.61,.86,1.32,1.09,2.07,.11,.35,.1,.81,.24,1.13-.03,.32,.05,.3,.24-.09,.31-.28,.33-.37,.04-.25,.03,.02-.28,.02-.29,.02-2.04,.22-4.15,.12-6.18-.1-.95-.11-1.9-.27-2.84-.48-.68-.15-1.09-.22-1.27-.93-.49-1.92-.98-3.72-1.91-5.49-.61-1.16-2.41-.85-2.74,.36-.43,1.54-.61,3.14-.5,4.73h3c-.19-2.74-.38-5.49-.56-8.23-.13-1.91-3.02-1.95-3,0,.02,2.49,.19,4.97,.51,7.43,.16,1.21,.34,2.42,.56,3.62s.54,2.4,1.86,2.83c1.04,.34,2.3,.32,3.39,.37,1.24,.06,2.47,.06,3.71,.02,2.48-.08,4.95-.31,7.42-.54,.81-.08,1.5-.64,1.5-1.5,0-.75-.69-1.58-1.5-1.5-4.26,.4-8.55,.8-12.83,.4-.19-.02-.4-.07-.59-.06l-.21-.05c.29,.31,.39,.35,.31,.11,.05-.16-.11-.54-.14-.73-.05-.25-.09-.51-.14-.76-.18-1.04-.34-2.09-.46-3.14-.25-2.16-.38-4.33-.4-6.51h-3c.19,2.74,.38,5.49,.56,8.23,.06,.81,.65,1.5,1.5,1.5,.77,0,1.55-.69,1.5-1.5-.09-1.35,.03-2.63,.4-3.93l-2.74,.36c.6,1.14,1.05,2.33,1.35,3.58,.28,1.18,.45,2.38,1.43,3.22,.89,.77,2.07,.99,3.2,1.2,1.37,.25,2.75,.43,4.14,.52s2.72,.09,4.07,.01c1.16-.07,2.53-.1,3.24-1.19,.65-1,.34-2.4,.02-3.47-.38-1.27-1.03-2.37-1.86-3.39-.97-1.2-2.9,.1-2.51,1.46,.27,.93,.45,1.86,.51,2.83,.03,.45,.03,.9,.01,1.34,0,.25-.01,.5-.05,.74v.12c-.07,.27-.08,.3-.04,.09l.66-.39c-.53,.21-1.43,.05-2.03,.04-.79-.01-1.57-.03-2.36-.05-1.47-.03-2.93-.07-4.4-.12-.16,0-.8-.12-.93-.04,.13-.09,.08,.43,.02-.12-.07-.65-.35-1.33-.49-1.97-.33-1.45-.52-2.87-.38-4.36,.07-.81-.74-1.5-1.5-1.5-.87,0-1.43,.69-1.5,1.5h0Z"/>
    <path d="M330.14,225.87c.51,1.74,.95,3.5,1.33,5.27,.18,.85,.33,1.7,.49,2.55,.03,.19,.14,.67,.07,.79,.1-.15-.1-.02-.21,.01-1.6,.38-3.42,.26-5.04,.12-1.78-.15-3.53-.46-5.28-.77-.8-.14-1.62,.22-1.85,1.05-.2,.72,.25,1.7,1.05,1.85,2.17,.38,4.35,.77,6.56,.92,1.03,.07,2.06,.09,3.09,.02s2.21-.12,3.16-.61c2.22-1.16,1.45-3.84,1.06-5.79-.41-2.09-.92-4.15-1.51-6.19-.54-1.85-3.44-1.06-2.89,.8h0Z"/>
    <path class="cls-1" d="M332.34,93.18c2.43,.38,4.78,1.04,6.95,2.66,12.66-5.23,30.51-13.85,34.11-27.82,1.06-1.34-.53-1.07-.91-1.5-.74-.85-.89,.08-1.13,.46-9.56,15.24-27.05,25.62-45.27,24.41-11.59,.03-22.7-4.72-32.54-10.44-1.2-.78-10.43-6.96-11.17-9.64-3.15-5.25-3.8,1.48-2.54,4.26,7.07,9.5,15.68,18.51,27.53,21.91,.6-.24,1.21-.52,1.82-.81,7.22-3.38,15.27-4.73,23.15-3.49Z"/>
    <path class="cls-1" d="M312.75,125.62c4.68-3.28,14.39-3.39,21.27-1.48,0,0,1.66-21.65-.24-23.83-1.18-1.36-18.36-1.14-19.47,2.01,1.01,2.78-1.57,23.31-1.57,23.31Z"/>
    <path class="cls-2" d="M338.46,147.69c-2.49-20.79-35.98-18.64-29.24,3.65,3.55,15.8,29.36,14.07,29.24-3.65Z"/>
    <path class="cls-1" d="M404.78,197.82c-18.82-6.84-8.42-9.15-17.43,13.83-5.21,14.83-9.93,29.93-16.38,44.23-1.87,3.49,5.97,4.89,6.79,4.29,2.44-1.8,4.79-8.83,4.98-10.95,7.29-17.31,12.98-34.95,22.05-51.4Z"/>
    <path class="cls-1" d="M245.28,195.47c10.53,19.69,19.49,40.69,26.9,62.47-.1,3.22,9.36-2.84,9.33-4.01-7.53-21.7-20.98-40.67-27.6-62.59-1.94,3.64-5.04,4.5-8.63,4.13Z"/>
    <path class="cls-1" d="M346.65,153.67c16.85,3.65,27.99,17.17,42.84,24.84,1.12,1.9,8.7-8.38,6.14-8.32-12.03-6.15-23.83-11.37-35.26-17.58-7.15-2.12-13.7-12.52-13.72,1.06Z"/>
    <path class="cls-1" d="M257.08,171.89c1.36,7.64,5.93,2.88,10.83,.59,10.05-5,20.63-9.43,31.22-13.63,2.97-.28,1.36-2.81,1.18-4.78,.62-7.76-40.68,12.69-43.23,17.82Z"/>
    <path class="cls-2" d="M251.62,182.67c.09-7.06-11.36-6.36-11.21,.45,1.06,8.62,10.85,7.32,11.21-.45Z"/>
    <path class="cls-1" d="M320.61,173.36c-1.1,4.04-.83,14.54-.83,14.54,0,0,7.07,.82,7.67-.25,1.8-3.19-1.28-11.79,.31-15.18,.06-1.99-6.78-.46-7.15,.89Z"/>
    <path class="cls-2" d="M412.06,183.99c.55-6.12-6.7-6.67-10.09-3.17-5.37,6.72,9.83,10.84,10.09,3.17Z"/>
    <path class="cls-2" d="M328,199.2c-.9-5.3-10.35-7.5-9.8-.44,.45,5.45,9.16,6.27,9.8,.44Z"/>
    <g>
      <path d="M422.08,2.47c-13.69-1.71-106.19-2.71-136.18-1.31-1.08,.05-1.96,.22-2.66,.48-1.84-.02-3.67-.04-5.5-.07-.56,.22-1.2,.36-1.92,.35-15.34-.03-30.66-.68-45.98-1.37C219.06,.28,210.12,.05,203.95,0c-16.88-.35-20.85,28.3-7.89,36.17,3.41,2.62,80.4,1.29,105.52,1.69,.79-.71,1.85-1.16,3.21-1.16,34.28-.11,69.51-6.56,103.36,1.43,.9-.01,1.8-.02,2.7-.04,38.02-.76,24.91-33.91,11.22-35.61Z"/>
      <path d="M413.48,33.51c-7.05,2.34-14.5,1.3-21.7,.4-7.71-.96-15.43-1.25-23.2-1.33s-15.38-.2-23.05-.92-15.68-1.57-23.6-1.34c-8.51,.25-17.36,.4-25.63,2.58-1.34,.35-1.52,2.66,0,2.89,7.03,1.08,14.22-.6,21.24-1.11,7.24-.53,14.51-.66,21.77-.79,7.18-.12,14.36-.23,21.53-.71,3.55-.24,7.08-.61,10.61-1s6.77-.57,10.16-.09c7.36,1.04,14.29,4.03,21.73,4.67v-3c-3.54,.44-6.92-.46-10.36-1.17s-6.61-.97-9.98-.87c-6.99,.2-13.94,1.41-20.93,1.87-13.98,.91-28.01,.52-42-.14-7.97-.38-15.95-.81-23.92-1.23-1.93-.1-1.92,2.9,0,3,14.11,.74,28.22,1.63,42.35,1.86,7.04,.11,14.08,.04,21.11-.34s13.79-1.39,20.71-1.88c3.9-.27,7.77-.2,11.62,.58s7.53,1.8,11.39,1.32c1.89-.23,1.96-2.83,0-3-6.56-.56-12.74-3.06-19.18-4.27-3.28-.61-6.56-.83-9.89-.58-3.51,.27-6.99,.77-10.5,1.06-14.24,1.16-28.55,.67-42.81,1.49-3.98,.23-7.95,.57-11.9,1.04s-7.99,1-11.96,.39v2.89c7.41-1.95,15.23-2.09,22.85-2.4s15.73,.31,23.62,1.08,15.34,1.01,23.05,1.09c7.8,.08,15.58,.19,23.33,1.12s16.41,2.34,24.33-.29c1.82-.61,1.04-3.5-.8-2.89h0Z"/>
      <path d="M279.05,33.42c23.7-.62,47.42-1.24,71.11-.22,6.68,.29,13.36,.71,20.02,1.29l-1.5-1.5c1.17,9.19-.42,18.5-5.64,26.26-2.51,3.73-5.51,7.71-9.14,10.42-3.87,2.89-8.87,4.05-13.55,4.89-9.94,1.8-19.8,.72-29.49-1.87-4.6-1.23-9.37-2.43-13.38-5.11-3.65-2.44-6.76-5.89-9.39-9.37-5.92-7.85-9.77-17.25-10.92-27.02l-1.5,1.5c3.58,.04,7.13-.31,10.64-1,1.89-.38,1.09-3.27-.8-2.89-3.25,.65-6.53,.93-9.85,.9-.74,0-1.59,.7-1.5,1.5,1.09,9.28,4.32,18.25,9.54,26.02,2.61,3.89,5.68,7.59,9.23,10.65,3.84,3.3,8.27,5.2,13.09,6.61,10.3,3.01,20.72,4.9,31.47,3.54,5.05-.64,10.3-1.67,14.9-3.92s7.76-6.08,10.78-9.96c3.44-4.43,6.15-9.24,7.56-14.7s1.63-10.96,.93-16.43c-.11-.86-.6-1.42-1.5-1.5-23.63-2.06-47.36-2.05-71.06-1.56-6.69,.14-13.38,.31-20.07,.49-1.93,.05-1.93,3.05,0,3h0Z"/>
      <path d="M275.77,39.36c4.05,10.4,7.82,22.3,17.08,29.24,8.72,6.54,20.4,9.38,31.09,10.38,10.71,1,22.91-.93,31.46-7.9,9.33-7.61,9.5-20.18,14.2-30.42-4.57-1.93-9.14-3.85-13.71-5.78-1.87,7.27-3.74,14.55-5.62,21.82l14.46,3.99c.43-2.7,2.02-4.53,3.3-6.91,1.62-3,2.47-5.72,2.69-9.13,.24-3.7-3.65-7.98-7.5-7.5-13.43,1.66-26.04-.16-39.18-2.91-12.9-2.71-25.91-4.65-38.96-6.48l-1.99,14.73c12.71,1.12,25.47,.68,38.2,1.4,6.07,.34,12.17,1.53,18.25,1.39s11.95-2.72,18.04-2.53v-15c-8.95,.7-17.87,.69-26.82-.04-3.27-.26-6.38,2.52-7.23,5.51-.99,3.45,.79,6.45,3.45,8.47,2.9,2.21,5.8,4.41,8.7,6.62,2.5,1.9,3.83,2.44,3.66,5.8-.1,2.03-.25,2.66-2.35,2.69-.9,.01-2.23-.82-2.86-.7,.15-.03-1.82,1.6-1.17,1.65l-6.48-11.29c-1.71,3.61-3.85,6.52-7.21,8.75,3.67,2.82,7.34,5.65,11.02,8.47-.09,.34-1.98,.52-1.06,.84v-14.46c-2.23,.72-4.35,1-6.6,1.45-.49-.04-.96-.16-1.41-.36,.23,.52,.21,1.05-.06,1.58l-12.8-5.3c.02,1.33,.04,2.65,.06,3.98,.02,1.56-1.14,5.01,1.24,3.12,3.28-2.62,.28,.09,.37-1.36,.05-.8-.29-1.46-.18-2.5l-1.02,3.79-1.17,1.01-3.79,1.02-3.99-2.83v-3.99c.24-.98,4.62-2.23,4.73-1.89-.22-.65-.37,1.46-2,1.91h-3.99l-.43-7h3.99l2.74,3.14-.76,5.78c-1.51,2.25-.4,1.03,1.55,.29,1.18-.44,2.37-.88,3.56-1.3,2.98-1.05,5.98-2.03,9.01-2.92,5.76-1.71,11.59-3.1,17.47-4.28,9.46-1.88,5.46-16.34-3.99-14.46-8.68,1.73-17.23,3.98-25.59,6.89-6.78,2.36-18.63,5.31-15.45,15.06s15.81,7.69,19.23-.32c3.15-7.36-1.88-16.3-10.34-15.47-17.21,1.69-10.02,31.98,7.07,26.79,7.73-2.35,10.66-12.48,4.27-17.89-6.86-5.8-16.32-.55-16.28,8.14s7.21,16.47,16.11,16.43c4.51-.02,8.99-2.22,11.19-6.23,2.38-4.36,1.44-10.18,1.37-14.92-.09-6.49-8.14-9.9-12.8-5.3-5.46,5.39-5.43,14.22,.06,19.63,6.16,6.07,15.07,5.19,22.6,2.76,7.21-2.33,7.02-12.05,0-14.46-7.48-2.58-15.46,2.12-17.39,9.64-1.54,6.01,5.37,12.22,11.02,8.47s9.78-8.21,12.59-14.13c2.55-5.38-.57-10.76-6.48-11.29-10-.89-16.39,9.66-12.96,18.5s13.87,12.18,22.46,9.8c9.45-2.62,12.66-11.76,11.64-20.74-1.19-10.52-11.87-15.73-19.55-21.57-1.26,4.66-2.52,9.32-3.79,13.98,8.95,.73,17.87,.74,26.82,.04,9.53-.75,9.77-14.7,0-15-5.9-.18-11.28,2.09-17.08,2.51-6.34,.46-12.88-1.02-19.21-1.38-12.73-.71-25.49-.27-38.2-1.4-8.32-.74-10.38,13.56-1.99,14.73,13.69,1.91,27.3,4.04,40.84,6.87s27.27,4.79,41.29,3.05l-7.5-7.5c-.11,1.69-1.88,3.51-2.68,4.92-1.26,2.24-2.37,4.57-2.78,7.13-1.47,9.3,12,13.55,14.46,3.99,1.87-7.27,3.74-14.55,5.62-21.82,2.04-7.91-10.04-13.76-13.71-5.78-1.98,4.32-3.57,8.72-4.89,13.28-1.1,3.81-1.82,8.32-4.28,11.56-4.62,6.09-14.95,6.62-21.82,6.18-7.55-.48-16.31-2.52-22.73-6.7-7.06-4.6-9.76-14.53-12.68-22.03-1.46-3.76-5.04-6.41-9.23-5.24-3.59,1.01-6.72,5.42-5.24,9.23h0Z"/>
    </g>
    <path class="cls-2" d="M362.1,51.84c-2.46,2.47-4.7,5.47-7.36,7.96-14.48,14.08-39.89,16.56-55.15,1.42-4.99-4.17-22.91-27.81-8.11-25.19,21.83-2.27,5.25,7.19,15.1,13.37,6.15-2.5-5.2-15.73,4.07-13.31,2.69-.15,6.84,1.05,8.52-.87,.69,35.42,9.19,11.13,14.23,21.63-.7,2.73-.16,11.57,4.01,7.2,4.01-20.45-7.8-11.37-11.28-17.85-.13-2.55-2.66-9.92-.02-10.34,6.95,.76,33,.11,37.79-.02,6.31,2.08-1.88,11.27-1.82,16.01Z"/>
    <path class="cls-1" d="M419.53,28.91c-13.64,4.64-27.98,.77-42.2,2.27-35.9-.69-4.26-1.07-40-.04-21.52-.29-110.26-.73-131.69-.45-11.8-.07-13.03-17.38-4.93-23.34,33.83-1.53,68.2,.92,102.52,.51,24.29,.46,60.65-1.15,63.99-.61,17.55,.19,35.47-.1,52.9,.04,11.72,3.84,11.38,18.73-.59,21.63Z"/>
    <path class="cls-1" d="M320.1,220.51c.08,2.16,.31,4.31,.67,6.44,.3,1.79,.52,3.98,1.72,5.43s3.98,1.56,5.17-.01c.65-.87,.54-1.92,.31-2.91s-.45-2.06-.64-3.09c-.41-2.3-.68-4.62-.82-6.96-.05-.81-.65-1.5-1.5-1.5-.77,0-1.55,.69-1.5,1.5,.13,2.24,.38,4.47,.74,6.68,.18,1.12,.39,2.23,.64,3.34,.07,.33,.19,1.09,.27,1.24v.17c0-.19,.11-.34,.32-.45,0,0-.26,.07-.4,.09-.04,0-.44,.01-.29,.02,.11,0-.03-.1,.02,0-.08-.14-.26-.4-.33-.61-.32-.93-.49-1.93-.67-2.9-.4-2.14-.63-4.3-.72-6.48-.03-.81-.67-1.5-1.5-1.5-.79,0-1.53,.69-1.5,1.5h0Z"/>
    <path class="cls-1" d="M326.05,230.25c-.16-1.97-.24-3.94-.24-5.92,0-.78-.69-1.54-1.5-1.5s-1.5,.66-1.5,1.5c0,1.97,.08,3.95,.24,5.92,.06,.78,.64,1.54,1.5,1.5,.76-.03,1.57-.66,1.5-1.5h0Z"/>
  </g>
</svg>