<?xml version="1.0" encoding="UTF-8"?>
<svg id="Layer_2" data-name="Layer 2" xmlns="http://www.w3.org/2000/svg" xmlns:xlink="http://www.w3.org/1999/xlink" viewBox="0 0 600 600.03">
  <defs>
    <style>
      .cls-1 {
        fill: #f9f9fa;
      }

      .cls-2 {
        fill: #00b8b9;
      }

      .cls-3 {
        fill: #00b4e6;
      }

      .cls-4 {
        fill: #f283b2;
      }

      .cls-5 {
        fill: #1e1936;
      }

      .cls-6 {
        fill: url(#Degradado_sin_nombre_23);
      }
    </style>
    <linearGradient id="Degradado_sin_nombre_23" data-name="Degradado sin nombre 23" x1="212.2" y1="528.35" x2="702.98" y2="357.89" gradientUnits="userSpaceOnUse">
      <stop offset="0" stop-color="#00b4e6"/>
      <stop offset=".1" stop-color="#11a6dc"/>
      <stop offset=".31" stop-color="#328bc9"/>
      <stop offset=".51" stop-color="#4a78bb"/>
      <stop offset=".69" stop-color="#596cb3"/>
      <stop offset=".85" stop-color="#5e69b1"/>
    </linearGradient>
  </defs>
  <g id="Layer_1-2" data-name="Layer 1">
    <g>
      <path class="cls-4" d="M409.37,390.51c-3.08-.91-6.26-1.63-9.24-2.72-4.18-1.53-8.43-2.85-12.66-4.23-6.74-2.2-13.55-4.2-20.28-6.42-8.85-2.92-17.75-5.69-26.59-8.63-7.9-2.63-15.81-5.22-23.75-7.71-4.01-1.26-8.1-2.24-11.92-4.06-.65-.31-1.42-.39-2.15-.52-3.31-.6-5.55-3.88-4.69-7.15,.61-2.31,1.36-4.59,2.22-6.81,2.67-6.83,5.09-13.74,7.52-20.65,2.16-6.14,4.31-12.27,6.54-18.38,2.82-7.73,5.65-15.46,8.42-23.22,1.99-5.58,3.93-11.19,6.12-16.71,1.58-3.97,2.67-8.14,4.28-12.12,1.8-4.43,2.99-9.08,4.93-13.45,.2-.45,.33-.93,.47-1.41,1.12-3.97,3.94-5.71,8.03-4.84,2.01,.43,4.01,.96,5.96,1.6,5.01,1.64,10.01,3.33,15.02,4.94,4.06,1.3,8.01,3,12.22,3.85,1.52,.31,3,.86,4.45,1.44,5.13,2.05,10.53,3.23,15.76,4.98,5.54,1.85,11.05,3.78,16.64,5.42,4.1,1.21,8.18,2.55,12.18,3.97,4.89,1.73,10.04,2.55,14.81,4.72,2.58,1.17,5.41,1.93,8.16,2.81,3.39,1.08,4.61,2.99,4.22,6.51-.07,.65-.12,1.32-.29,1.95-1.9,6.83-3.8,13.65-5.74,20.47-2.84,9.99-5.68,19.97-8.57,29.94-1.63,5.62-3.45,11.18-5.02,16.82-2.1,7.53-4.46,14.99-6.3,22.59-.74,3.04-2.01,5.95-2.71,8.99-1.17,5.05-3.18,9.88-3.91,15.05-.27,1.94-1.25,3.52-3.03,4.59-1.21,.73-2.4,.93-3.77,.67-2.53-.49-4.86-1.55-7.31-2.27Zm.11-102.15c1.15-3.27,1.52-7.27,1.05-11.32-.39-3.38-1.2-6.63-3.46-9.36-2.49-3.01-5.53-4.93-9.52-4.93-5.27,0-9.49,2.32-13,6.13-5.64,6.13-8.12,13.43-8.1,21.68,0,3.63,.91,7.01,2.78,10.1,1.44,2.38,3.45,4.13,6.08,5.21,5.78,2.36,10.73,.5,15.12-3.16,4.34-3.61,7.16-8.34,9.05-14.35Z"/>
      <rect class="cls-1" x="326.31" y="309.41" width="44.48" height="44.48" rx="10.6" ry="10.6" transform="translate(-73.44 562.74) rotate(-72.28)"/>
      <rect class="cls-1" x="374.7" y="332" width="37.05" height="37.05" rx="10.6" ry="10.6" transform="translate(-60.34 618.44) rotate(-72.28)"/>
      <path class="cls-5" d="M345.05,330.24l-8.26-2.64c-2.08-.66-3.22-2.88-2.56-4.96l2.64-8.26c.66-2.08,2.88-3.22,4.96-2.56l8.26,2.64c2.08,.66,3.22,2.89,2.56,4.96l-.56,1.75c-.12,.37-.52,.58-.89,.46l-6.54-2.09c-.37-.12-.77,.09-.89,.46l-.65,2.03c-.12,.37,.09,.77,.46,.89l6.54,2.09c.37,.12,.58,.52,.46,.89l-.57,1.78c-.66,2.08-2.89,3.22-4.96,2.56Z"/>
      <path class="cls-5" d="M391.86,351.48l-8.26-2.64c-2.08-.66-3.22-2.88-2.56-4.96l2.64-8.26c.66-2.08,2.88-3.22,4.96-2.56l8.26,2.64c2.08,.66,3.22,2.89,2.56,4.96l-.56,1.75c-.12,.37-.52,.58-.89,.46l-6.54-2.09c-.37-.12-.77,.09-.89,.46l-.65,2.03c-.12,.37,.09,.77,.46,.89l6.54,2.09c.37,.12,.58,.52,.46,.89l-.57,1.78c-.66,2.08-2.89,3.22-4.96,2.56Z"/>
    </g>
    <path class="cls-2" d="M363.55,205.14c-3.37,.36-6.72,.98-10,1.84-.3,.08-.62,.17-.86,.37-.57,.47-.52,1.35-.42,2.08,.64,4.54,1.48,9.06,2.5,13.54,.13,.58,.29,1.2,.73,1.59,.83,.75,2.14,.33,3.24,.51,2.05,.33,3.64,2.78,5.64,2.22,.49-.14,.91-.46,1.26-.83,1.57-1.71,1.43-4.32,1.46-6.64,.03-2.57,.39-5.14,.22-7.7-.17-2.56-.93-5.21-2.77-7.01"/>
    <path d="M372.28,225.93c-2.86-.96-5.57-1.99-8.07-3.11,0,0-.46-6.45-1.42-10.01,.02-7.63-.87-3.84-6.61-3.73-2.87,.39,1.95,11.45,1.95,11.45l-6.29-2.28s-1.03-3.82-1.06-4.31c-.21-3.46-1.53-6.74-3.88-9.28-2.57-2.78-3.23-4.82-3.2-6.92,.06-3.57,2.14-7.3,.34-15.1-1.72-14.47,1.22-10.52-10.41-17.5-11.94,.62-30.45,23.5-42.5,29.54-.74,.46-1.35,1.87-.35,3.3,11.39,16.34,38.68,54.02,41.38,58.35s-16.02,18.9-18.57,14.94c-16.18-21.22-30.06-44.31-43.96-67.03-7.67-3.79-6.18-16.05-.26-20.89,2.55-1.94,7.33-1.05,9.37-3.47,10.17-10.74,24.04-19.69,35.44-29.51,3.16-2.49,9.31-2.98,10.17-7,4.1-19.3-.59-37-.59-37,0,0-38.4-9.39-40.1-26.75-.6-2.65-.35-5.28,.05-7.85,.63-4.09,5.24-6.2,8.76-4.04,2.34,1.44,4.52,3.18,6.17,4.71,26.47,22.03,69.42,10.2,79.37-23.67,3.76-12.26,11.2,5.77,10.45,10.63-4.14,26.61-29.16,36.38-31.38,38.29-1.36,1.17,2.15,20.92,7.89,30.97,2.36,4.13,14.73,6.08,24.56,9.6,10.01,2.71,54.68,16.8,56.75,20.15,4.53,7.37-4.52,19.79-5.32,31.81-3.66,14.32-13.1,56.74-13.29,60.24-1.66,5.6-16.38,.6-19.28,.15-10.56-3.63,11.34-69.17,11.44-79.22-12.14-4.11-22.75-8.67-34.79-12.03-3.77-.17-14.42-9.24-15.61-5.51-1.02,4.8-5.7,7.57-7.74,11.89,1.66,7.03,1.22,15.35,3.53,21.73,5.28,5.04,2.14,12.14,2.46,18.24,1.19,6.86,4.62,20.23,4.62,20.23Z"/>
    <path d="M351.84,218.38c.73,2.58,1.76,5.09,3.1,7.42,.64,1.11,1.33,2.48,2.41,3.23s2.5,.91,3.74,1.09c2.64,.39,5.53,.43,8.07-.51,1.19-.44,2.32-1.14,2.89-2.32,.53-1.1,.56-2.44-.16-3.47-1.09-1.58-3.69-.08-2.59,1.51,.87,1.25-2.34,1.79-2.98,1.89-1.98,.31-4.05,.14-5.99-.29-.38-.08-.88-.13-1.21-.34s-.57-.67-.78-1c-.53-.82-1.01-1.66-1.46-2.52-.9-1.75-1.6-3.59-2.14-5.49s-3.42-1.07-2.89,.8h0Z"/>
    <path d="M354.61,218.92c.78,2.18,1.66,4.33,2.65,6.42,.46,.97,.88,2.12,1.82,2.74s2.08,.53,3.15,.46c1.18-.08,2.36-.21,3.54-.39,.56-.08,1.12-.18,1.68-.28s1.11-.17,1.59-.43c1.44-.8,.85-2.31,.34-3.47-.45-1.04-1-2.03-1.62-2.98-.37-.56-1.03-.87-1.69-.69-.6,.16-1.15,.8-1.1,1.45,.1,1.27-.03,2.48-.41,3.69-.58,1.85,2.31,2.64,2.89,.8,.46-1.45,.64-2.98,.52-4.49l-2.8,.76c.4,.6,.76,1.21,1.09,1.85,.16,.3,.3,.61,.44,.92,.08,.18,.28,.54,.27,.67l.2-.76-.07,.12,.54-.54c.16-.11-.03,.02-.15,.05-.16,.04-.32,.07-.48,.1-.36,.07-.72,.14-1.08,.2-.67,.11-1.33,.21-2.01,.28-.72,.08-1.45,.14-2.18,.18-.28,.02-.68,.1-.95,.03-.22-.06-.04,0-.04,0-.17-.13-.29-.53-.39-.72-.16-.31-.31-.63-.46-.95-.3-.63-.59-1.27-.88-1.92-.56-1.28-1.06-2.58-1.53-3.89-.27-.76-1.02-1.27-1.85-1.05-.74,.2-1.32,1.08-1.05,1.85h0Z"/>
    <path d="M355.36,224.83c.23,2.52,1.16,5.02,2.34,7.26,.67,1.26,1.8,1.78,3.19,1.61s2.81-.42,4.21-.64,2.77-.44,4.15-.66c1.28-.21,2.54-.41,2.97-1.83,.33-1.06-.01-2.45-.24-3.5-.28-1.31-.76-2.56-1.35-3.77l-2.36,1.82c.89,.77,2.18,2.16,2.11,3.45l.2-.76c.16-.07,.18-.08,.08-.02-.18,.06-.36,.11-.54,.15-.38,.1-.75,.19-1.13,.28-.81,.18-1.63,.34-2.46,.45-1.51,.21-3.05,.3-4.58,.28-.48,0-1.36,.1-1.78-.22-.35-.27-.54-1.11-.7-1.49-.65-1.51-1.51-2.85-2.51-4.14-.89-1.14-2.46-.07-2.56,1.06-.14,1.6,0,3.18,.38,4.74l2.89-.8c-.67-2.67-1.35-5.33-2.02-8-.48-1.89-3.25-1.08-2.89,.8,.47,2.44,1.07,4.84,1.82,7.21,.36,1.13,.75,2.24,1.18,3.35s.9,2.17,2.23,2.43c1.1,.21,2.39-.08,3.48-.23,1.26-.17,2.51-.38,3.75-.65,2.45-.52,4.86-1.19,7.27-1.87,1.86-.52,1.07-3.42-.8-2.89-2.24,.63-4.49,1.26-6.77,1.76-1.11,.24-2.22,.46-3.34,.63-.54,.08-1.08,.15-1.63,.2-.49,.05-1.17,.2-1.63,.03l.66,.39c-.5-.41-.76-1.72-.97-2.34-.34-.96-.65-1.92-.93-2.9-.57-1.95-1.04-3.92-1.43-5.91l-2.89,.8c.67,2.67,1.35,5.33,2.02,8,.47,1.87,3.35,1.08,2.89-.8-.32-1.31-.4-2.6-.28-3.94l-2.56,1.06c.77,.98,1.42,2.09,1.91,3.24s.84,2.2,1.91,2.86,2.42,.63,3.63,.63c1.33,0,2.66-.09,3.99-.25s2.68-.39,4-.71c1.13-.27,2.33-.55,2.89-1.67s-.07-2.53-.59-3.55-1.3-2-2.19-2.77c-1.3-1.12-3.12,.26-2.36,1.82,.39,.78,.69,1.59,.91,2.44,.11,.41,.2,.82,.26,1.23,.03,.21,0,1.14,.12,1.24l.4-.43-.24,.05c-.2-.03-.49,.08-.69,.11-.52,.09-1.04,.17-1.56,.25-.98,.16-1.96,.31-2.94,.47-.92,.14-1.85,.29-2.77,.43-.27,.04-.55,.09-.82,.12-.11,.01-.51-.02-.37,.06,.17,.09-.08-.27-.11-.33-.09-.18-.17-.37-.26-.55-.73-1.61-1.46-3.29-1.62-5.07-.17-1.91-3.17-1.93-3,0h0Z"/>
    <path d="M367.82,221.29c.77,1.55,1.5,3.12,2.15,4.73,.33,.83,.66,1.66,.96,2.51,.03,.09,.33,.89,.21,.93-.01-.12,.02-.2,.1-.26l-.12,.11c.08,0-.11,.04-.13,.05-1.53,.65-3.32,.88-4.97,1.03-1.83,.16-3.66,.17-5.5,.18-1.93,0-1.93,3.01,0,3,2.09,0,4.19-.02,6.27-.25,1.09-.12,2.18-.29,3.25-.54,.99-.24,2.09-.5,2.92-1.12,2.05-1.53,.85-4.01,.1-5.9-.8-2.03-1.69-4.02-2.66-5.97-.36-.72-1.39-.93-2.05-.54-.74,.43-.9,1.33-.54,2.05h0Z"/>
    <path class="cls-2" d="M346.26,90.22c2.46-.06,4.89,.17,7.31,1.37,11.53-7.4,27.56-19.06,28.6-33.46,.81-1.51-.71-.95-1.16-1.31-.88-.7-.87,.24-1.03,.65-6.69,16.69-22.05,30.03-40.2,32.09-11.4,2.09-23.18-.6-33.88-4.47-1.32-.56-11.51-4.99-12.71-7.49-4.04-4.6-3.47,2.13-1.73,4.65,8.65,8.09,18.73,15.42,31,16.65,.54-.35,1.09-.72,1.65-1.12,6.51-4.61,14.18-7.38,22.15-7.56Z"/>
    <path class="cls-2" d="M332.77,125.64c4.02-4.06,13.56-5.9,20.67-5.25,0,0-2.22-21.6-4.48-23.41-1.41-1.13-18.27,2.15-18.8,5.45,1.49,2.55,2.61,23.21,2.61,23.21Z"/>
    <path class="cls-3" d="M362,142.77c-6.15-20.01-38.72-11.92-28.12,8.81,6.31,14.91,31.4,8.61,28.12-8.81Z"/>
    <path class="cls-2" d="M436.2,180.27c-19.74-3.38-9.91-7.5-14.68,16.72-2.48,15.53-4.44,31.22-8.23,46.44-1.22,3.77,6.75,3.75,7.44,3.01,2.08-2.2,3.14-9.54,2.94-11.67,4.09-18.33,6.54-36.71,12.53-54.51Z"/>
    <path class="cls-2" d="M278.84,206.4c13.87,17.5,26.44,36.56,37.6,56.67,.48,3.18,8.7-4.46,8.47-5.61-11.28-20.01-27.89-36.28-38.32-56.66-1.26,3.92-4.16,5.33-7.75,5.6Z"/>
    <path class="cls-2" d="M371.13,147.19c17.23,.59,30.6,11.91,46.58,16.81,1.44,1.67,7.07-9.79,4.56-9.28-12.94-3.91-25.48-6.94-37.83-11.01-7.41-.81-15.71-9.88-13.31,3.49Z"/>
    <path class="cls-2" d="M286.24,181.09c2.7,7.27,6.35,1.78,10.76-1.35,9-6.71,18.62-12.96,28.29-18.98,2.88-.8,.84-3.01,.31-4.91-.77-7.75-37.76,19.74-39.36,25.24Z"/>
    <path class="cls-3" d="M282.79,192.67c-1.17-6.96-12.31-4.23-10.95,2.44,2.58,8.3,11.99,5.27,10.95-2.44Z"/>
    <path class="cls-2" d="M349.02,171.21c-.37,4.17,1.78,14.46,1.78,14.46,0,0,7.1-.46,7.5-1.61,1.2-3.46-3.36-11.37-2.4-15-.3-1.97-6.76,.76-6.88,2.15Z"/>
    <path class="cls-3" d="M440.89,165.37c-.55-6.12-7.79-5.37-10.49-1.32-4.09,7.57,11.61,8.91,10.49,1.32Z"/>
    <path class="cls-3" d="M360.89,195.32c-1.83-5.05-11.52-5.53-9.72,1.31,1.42,5.28,10.13,4.54,9.72-1.31Z"/>
    <g>
      <path d="M425.79,2.47c-13.69-1.71-106.19-2.71-136.18-1.31-1.08,.05-1.96,.22-2.66,.48-1.84-.02-3.67-.04-5.5-.07-.56,.22-1.2,.36-1.92,.35-15.34-.03-30.66-.68-45.98-1.37C222.77,.28,213.84,.05,207.67,0c-16.88-.35-20.85,28.3-7.89,36.17,3.41,2.62,80.4,1.29,105.52,1.69,.79-.71,1.85-1.16,3.21-1.16,34.28-.11,69.51-6.56,103.36,1.43,.9-.01,1.8-.02,2.7-.04,38.02-.76,24.91-33.91,11.22-35.61Z"/>
      <path d="M417.2,33.51c-7.05,2.34-14.5,1.3-21.7,.4-7.71-.96-15.43-1.25-23.2-1.33s-15.38-.2-23.05-.92-15.68-1.57-23.6-1.34c-8.51,.25-17.36,.4-25.63,2.58-1.34,.35-1.52,2.66,0,2.89,7.03,1.08,14.22-.6,21.24-1.11s14.51-.66,21.77-.79,14.36-.23,21.53-.71c3.55-.24,7.08-.61,10.61-1s6.77-.57,10.16-.09c7.36,1.04,14.29,4.03,21.73,4.67v-3c-3.54,.44-6.92-.46-10.36-1.17s-6.61-.97-9.98-.87c-6.99,.2-13.94,1.41-20.93,1.87-13.98,.91-28.01,.52-42-.14-7.97-.38-15.95-.81-23.92-1.23-1.93-.1-1.92,2.9,0,3,14.11,.74,28.22,1.63,42.35,1.86,7.04,.11,14.08,.04,21.11-.34s13.79-1.39,20.71-1.88c3.9-.27,7.77-.2,11.62,.58s7.53,1.8,11.39,1.32c1.89-.23,1.96-2.83,0-3-6.56-.56-12.74-3.06-19.18-4.27-3.28-.61-6.56-.83-9.89-.58-3.51,.27-6.99,.77-10.5,1.06-14.24,1.16-28.55,.67-42.81,1.49-3.98,.23-7.95,.57-11.9,1.04s-7.99,1-11.96,.39v2.89c7.41-1.95,15.23-2.09,22.85-2.4s15.73,.31,23.62,1.08,15.34,1.01,23.05,1.09,15.58,.19,23.33,1.12,16.41,2.34,24.33-.29c1.82-.61,1.04-3.5-.8-2.89h0Z"/>
      <path d="M282.76,33.42c23.7-.62,47.42-1.24,71.11-.22,6.68,.29,13.36,.71,20.02,1.29l-1.5-1.5c1.17,9.19-.42,18.5-5.64,26.26-2.51,3.73-5.51,7.71-9.14,10.42-3.87,2.89-8.87,4.05-13.55,4.89-9.94,1.8-19.8,.72-29.49-1.87-4.6-1.23-9.37-2.43-13.38-5.11-3.65-2.44-6.76-5.89-9.39-9.37-5.92-7.85-9.77-17.25-10.92-27.02l-1.5,1.5c3.58,.04,7.13-.31,10.64-1,1.89-.38,1.09-3.27-.8-2.89-3.25,.65-6.53,.93-9.85,.9-.74,0-1.59,.7-1.5,1.5,1.09,9.28,4.32,18.25,9.54,26.02,2.61,3.89,5.68,7.59,9.23,10.65,3.84,3.3,8.27,5.2,13.09,6.61,10.3,3.01,20.72,4.9,31.47,3.54,5.05-.64,10.3-1.67,14.9-3.92s7.76-6.08,10.78-9.96c3.44-4.43,6.15-9.24,7.56-14.7,1.39-5.35,1.63-10.96,.93-16.43-.11-.86-.6-1.42-1.5-1.5-23.63-2.06-47.36-2.05-71.06-1.56-6.69,.14-13.38,.31-20.07,.49-1.93,.05-1.93,3.05,0,3h0Z"/>
      <path d="M279.49,39.36c4.05,10.4,7.82,22.3,17.08,29.24,8.72,6.54,20.4,9.38,31.09,10.38s22.91-.93,31.46-7.9c9.33-7.61,9.5-20.18,14.2-30.42-4.57-1.93-9.14-3.85-13.71-5.78-1.87,7.27-3.74,14.55-5.62,21.82l14.46,3.99c.43-2.7,2.02-4.53,3.3-6.91,1.62-3,2.47-5.72,2.69-9.13,.24-3.7-3.65-7.98-7.5-7.5-13.43,1.66-26.04-.16-39.18-2.91-12.9-2.71-25.91-4.65-38.96-6.48-.66,4.91-1.33,9.82-1.99,14.73,12.71,1.12,25.47,.68,38.2,1.4,6.07,.34,12.17,1.53,18.25,1.39s11.95-2.72,18.04-2.53v-15c-8.95,.7-17.87,.69-26.82-.04-3.27-.26-6.38,2.52-7.23,5.51-.99,3.45,.79,6.45,3.45,8.47,2.9,2.21,5.8,4.41,8.7,6.62,2.5,1.9,3.83,2.44,3.66,5.8-.1,2.03-.25,2.66-2.35,2.69-.9,.01-2.23-.82-2.86-.7,.15-.03-1.82,1.6-1.17,1.65-2.16-3.76-4.32-7.52-6.48-11.29-1.71,3.61-3.85,6.52-7.21,8.75l11.02,8.47c-.09,.34-1.98,.52-1.06,.84v-14.46c-2.23,.72-4.35,1-6.6,1.45-.49-.04-.96-.16-1.41-.36,.23,.52,.21,1.05-.06,1.58l-12.8-5.3c.02,1.33,.04,2.65,.06,3.98,.02,1.56-1.14,5.01,1.24,3.12,3.28-2.62,.28,.09,.37-1.36,.05-.8-.29-1.46-.18-2.5l-1.02,3.79-1.17,1.01-3.79,1.02-3.99-2.83v-3.99c.24-.98,4.62-2.23,4.73-1.89-.22-.65-.37,1.46-2,1.91h-3.99l-.43-7h3.99l2.74,3.14-.76,5.78c-1.51,2.25-.4,1.03,1.55,.29,1.18-.44,2.37-.88,3.56-1.3,2.98-1.05,5.98-2.03,9.01-2.92,5.76-1.71,11.59-3.1,17.47-4.28,9.46-1.88,5.46-16.34-3.99-14.46-8.68,1.73-17.23,3.98-25.59,6.89-6.78,2.36-18.63,5.31-15.45,15.06,3.03,9.29,15.81,7.69,19.23-.32,3.15-7.36-1.88-16.3-10.34-15.47-17.21,1.69-10.02,31.98,7.07,26.79,7.73-2.35,10.66-12.48,4.27-17.89-6.86-5.8-16.32-.55-16.28,8.14s7.21,16.47,16.11,16.43c4.51-.02,8.99-2.22,11.19-6.23,2.38-4.36,1.44-10.18,1.37-14.92-.09-6.49-8.14-9.9-12.8-5.3-5.46,5.39-5.43,14.22,.06,19.63,6.16,6.07,15.07,5.19,22.6,2.76s7.02-12.05,0-14.46c-7.48-2.58-15.46,2.12-17.39,9.64-1.54,6.01,5.37,12.22,11.02,8.47s9.78-8.21,12.59-14.13c2.55-5.38-.57-10.76-6.48-11.29-10-.89-16.39,9.66-12.96,18.5,3.39,8.74,13.87,12.18,22.46,9.8,9.45-2.62,12.66-11.76,11.64-20.74-1.19-10.52-11.87-15.73-19.55-21.57l-3.79,13.98c8.95,.73,17.87,.74,26.82,.04,9.53-.75,9.77-14.7,0-15-5.9-.18-11.28,2.09-17.08,2.51-6.34,.46-12.88-1.02-19.21-1.38-12.73-.71-25.49-.27-38.2-1.4-8.32-.74-10.38,13.56-1.99,14.73,13.69,1.91,27.3,4.04,40.84,6.87s27.27,4.79,41.29,3.05l-7.5-7.5c-.11,1.69-1.88,3.51-2.68,4.92-1.26,2.24-2.37,4.57-2.78,7.13-1.47,9.3,12,13.55,14.46,3.99,1.87-7.27,3.74-14.55,5.62-21.82,2.04-7.91-10.04-13.76-13.71-5.78-1.98,4.32-3.57,8.72-4.89,13.28-1.1,3.81-1.82,8.32-4.28,11.56-4.62,6.09-14.95,6.62-21.82,6.18-7.55-.48-16.31-2.52-22.73-6.7-7.06-4.6-9.76-14.53-12.68-22.03-1.46-3.76-5.04-6.41-9.23-5.24-3.59,1.01-6.72,5.42-5.24,9.23h0Z"/>
    </g>
    <path class="cls-3" d="M365.82,51.84c-2.46,2.47-4.7,5.47-7.36,7.96-14.48,14.08-39.89,16.56-55.15,1.42-4.99-4.17-22.91-27.81-8.11-25.19,21.83-2.27,5.25,7.19,15.1,13.37,6.15-2.5-5.2-15.73,4.07-13.31,2.69-.15,6.84,1.05,8.52-.87,.69,35.42,9.19,11.13,14.23,21.63-.7,2.73-.16,11.57,4.01,7.2,4.01-20.45-7.8-11.37-11.28-17.85-.13-2.55-2.66-9.92-.02-10.34,6.95,.76,33,.11,37.79-.02,6.31,2.08-1.88,11.27-1.82,16.01Z"/>
    <path class="cls-2" d="M423.25,28.91c-13.64,4.64-27.98,.77-42.2,2.27-35.9-.69-4.26-1.07-40-.04-21.52-.29-110.26-.73-131.69-.45-11.8-.07-13.03-17.38-4.93-23.34,33.83-1.53,68.2,.92,102.52,.51,24.29,.46,60.65-1.15,63.99-.61,17.55,.19,35.47-.1,52.9,.04,11.72,3.84,11.38,18.73-.59,21.63Z"/>
    <path class="cls-2" d="M356.95,217.83c.44,1.99,1,3.96,1.7,5.87,.36,.99,.76,1.97,1.18,2.93,.34,.78,.74,1.56,1.37,2.15,.8,.74,1.8,1.04,2.86,.82s2.21-.82,2.55-1.89-.12-2.06-.54-3.04c-.37-.88-.72-1.77-1.05-2.67-.8-2.18-1.47-4.41-2.02-6.67-.46-1.87-3.35-1.08-2.89,.8,.51,2.11,1.13,4.19,1.86,6.24,.36,1.02,.76,2.03,1.17,3.04,.18,.43,.4,.86,.54,1.31,.03,.09,.06,.19,.08,.28-.11-.13-.07-.28,.13-.45,0-.04,.02-.05,.06-.05-.1,.04-.19,.08-.29,.11-.06,.02-.44,.17-.24,.11-.16,.05-.19-.1-.04,0-.27-.2-.41-.47-.59-.81-.45-.85-.78-1.78-1.12-2.68-.75-2.02-1.35-4.09-1.82-6.2-.18-.79-1.09-1.25-1.85-1.05-.82,.22-1.22,1.05-1.05,1.85h0Z"/>
    <path class="cls-2" d="M364.48,226.09c-.51-1.91-.94-3.84-1.29-5.78-.14-.77-1.12-1.28-1.85-1.05-.83,.27-1.2,1.02-1.05,1.85,.35,1.94,.78,3.87,1.29,5.78,.2,.76,1.08,1.3,1.85,1.05s1.26-1.03,1.05-1.85h0Z"/>
    <g>
      <path class="cls-6" d="M568.75,599.19c-123.68,2.72-245.99-2.23-369.23,.07-54.08-3.46-110.26,.4-164.06-2.36-43.73,3.1-34.2-19.62-34.6-41.21,.41-49.26-3.95-98.44,3.72-146.76,4.49-20.76,103.24-7.86,128.74-12.3,69.88-6.74,113.2,14.26,175.26,31.61,80.9,19.38,184.66,15.23,254.91-21.89,58.74-27.49,25.06,72.3,32.38,92.85-7.99,27.69,27.66,93.97-27.13,100Z"/>
      <path d="M17.54,465.59c-4.69,.57-7.99-3.13-5.09-5.73,29.48-26.41,124.14-28.05,143.34-17.66,4.31,2.33,4.82,5.27-.06,8.66-6.34,4.42-15.96,5.64-24.46,3.56-36.32-8.88-82.1,7.31-113.73,11.16Z"/>
      <path d="M369.38,455.04c-64.1-7.34-125.45-34.35-186.67-46.19-10.86-2.1-55.19-10.94-70.85-11.21-52.52-.9-125.53,14.98-96.85,.13,31.05-13.92,63.84-18.81,96.89-18.28,54.49,.87,173.89,32.52,252.65,53.97,24.49,6.67,21.03,14.68,4.83,21.58Z"/>
      <path d="M468.28,434.52c15.34-1.27,78.2-16.68,97.93-27.88,1.85-1.05,7.64-5.24,9.63-5.56,7.03-1.13,16.11,3.96,19.62,11.17-4.68,13.16-80.43,39.77-115.32,38.67-9.94-.31-15.69-16.09-11.86-16.4Z"/>
      <path d="M569.15,546.41c-3.51-7.21-12.59-12.3-19.62-11.17-1.98,.32-7.77,4.52-9.63,5.56-67.89,37.99-185.87,26.36-209.51,22.41-1.71-.29-3.45-.59-5.2-.89,0,0-.02,0-.02,0h0c-17.97-3.04-37.9-6.27-54.19-11.09-72.64-21.48-179.85-56.04-232.8,3.77,7.68,10.96,28.38-6.66,40.83-6.43,86.69-25.53,157.23,27.71,240.33,35.51,.01,0,.02,0,.03,0,34.07,4.67,97.95,5.36,140.56,.93,42.62-4.42,94.51-21.22,109.23-38.61Z"/>
      <path d="M460.5,489.19c72.36-12.82,82.27-29.69,93.3-31.41,18.7-2.92,33.47,.81,11.74,18.91-119.15,63.6-284.81,51.45-393.46-17.8,6.17-46.69,86,66.17,288.42,30.3Z"/>
    </g>
  </g>
</svg>