<?xml version="1.0" encoding="UTF-8"?>
<svg id="Layer_2" data-name="Layer 2" xmlns="http://www.w3.org/2000/svg" xmlns:xlink="http://www.w3.org/1999/xlink" viewBox="0 0 600 460.77">
  <defs>
    <style>
      .cls-1 {
        fill: #f7f8f8;
      }

      .cls-2 {
        fill: #f38ab4;
      }

      .cls-3 {
        fill: #1c1934;
      }

      .cls-4 {
        fill: url(#Degradado_sin_nombre_23);
      }

      .cls-5 {
        fill: url(#Degradado_sin_nombre_12);
      }

      .cls-6 {
        fill: url(#Degradado_sin_nombre_12-2);
      }

      .cls-7 {
        fill: url(#Degradado_sin_nombre_12-3);
      }

      .cls-8 {
        fill: url(#Degradado_sin_nombre_23-2);
      }
    </style>
    <linearGradient id="Degradado_sin_nombre_23" data-name="Degradado sin nombre 23" x1="134.34" y1="382.2" x2="461.4" y2="268.6" gradientUnits="userSpaceOnUse">
      <stop offset="0" stop-color="#00b4e6"/>
      <stop offset=".1" stop-color="#11a6dc"/>
      <stop offset=".31" stop-color="#328bc9"/>
      <stop offset=".51" stop-color="#4a78bb"/>
      <stop offset=".69" stop-color="#596cb3"/>
      <stop offset=".85" stop-color="#5e69b1"/>
    </linearGradient>
    <linearGradient id="Degradado_sin_nombre_23-2" data-name="Degradado sin nombre 23" x1="-3171.9" y1="377.99" x2="-2965.79" y2="306.4" gradientTransform="translate(-2650.19) rotate(-180) scale(1 -1)" xlink:href="#Degradado_sin_nombre_23"/>
    <linearGradient id="Degradado_sin_nombre_12" data-name="Degradado sin nombre 12" x1="397.87" y1="318.84" x2="373.11" y2="25.25" gradientUnits="userSpaceOnUse">
      <stop offset="0" stop-color="#f26130"/>
      <stop offset=".18" stop-color="#f68720"/>
      <stop offset=".37" stop-color="#faa812"/>
      <stop offset=".55" stop-color="#fcc008"/>
      <stop offset=".71" stop-color="#fecf02"/>
      <stop offset=".85" stop-color="#ffd400"/>
    </linearGradient>
    <linearGradient id="Degradado_sin_nombre_12-2" data-name="Degradado sin nombre 12" x1="562.94" y1="305.12" x2="538.18" y2="11.55" xlink:href="#Degradado_sin_nombre_12"/>
    <linearGradient id="Degradado_sin_nombre_12-3" data-name="Degradado sin nombre 12" x1="574.94" y1="304.18" x2="550.15" y2="10.31" xlink:href="#Degradado_sin_nombre_12"/>
  </defs>
  <g id="Layer_1-2" data-name="Layer 1">
    <g>
      <path class="cls-2" d="M483.38,223.13l-3.87-108.54c-.12-3.26-2.83-5.84-6.13-5.84h-43.73c-3.3,0-6.01,2.58-6.13,5.84l-4.47,125.33c-.12,3.42,2.66,6.26,6.13,6.26h89.34c3.68,0,6.66-2.94,6.66-6.57v-4.07c0-3.63-2.98-6.57-6.66-6.57h-25c-3.3,0-6.01-2.58-6.13-5.84Z"/>
      <g>
        <path class="cls-1" d="M439.68,155.02c0,3.72-3.05,6.73-6.82,6.73h-14.98c-3.77,0-6.82-3.01-6.82-6.73v-14.78c0-3.72,3.05-6.73,6.82-6.73h14.98c3.77,0,6.82,3.01,6.82,6.73v14.78Z"/>
        <path class="cls-1" d="M468.39,155.45c0,3.72-3.05,6.73-6.82,6.73h-10.2c-3.77,0-6.82-3.01-6.82-6.73v-10.06c0-3.72,3.05-6.73,6.82-6.73h10.2c3.77,0,6.82,3.01,6.82,6.73v10.06Z"/>
        <path class="cls-3" d="M428.16,152.89h-5.58c-1.4,0-2.54-1.12-2.54-2.51v-5.51c0-1.38,1.14-2.51,2.54-2.51h5.58c1.4,0,2.54,1.12,2.54,2.51v1.17c0,.25-.2,.45-.46,.45h-4.42c-.25,0-.46,.2-.46,.45v1.35c0,.25,.2,.45,.46,.45h4.42c.25,0,.46,.2,.46,.45v1.19c0,1.38-1.14,2.51-2.54,2.51Z"/>
        <path class="cls-3" d="M459.25,155.68h-5.58c-1.4,0-2.54-1.12-2.54-2.51v-5.51c0-1.38,1.14-2.51,2.54-2.51h5.58c1.4,0,2.54,1.12,2.54,2.51v1.17c0,.25-.2,.45-.46,.45h-4.42c-.25,0-.46,.2-.46,.45v1.35c0,.25,.2,.45,.46,.45h4.42c.25,0,.46,.2,.46,.45v1.19c0,1.38-1.14,2.51-2.54,2.51Z"/>
      </g>
    </g>
    <path class="cls-4" d="M378.75,450.55c-78.37,2.47-174.23,.18-252.32,2.27-34.27-3.14-69.86,.36-103.95-2.14-27.71,2.81-21.67-17.83-21.92-37.45,.26-44.77-2.5-89.45,2.36-133.36,2.85-18.87,65.42-7.14,81.57-11.18,44.28-6.12,71.72,12.96,111.05,28.73,51.26,17.61,117,13.84,161.52-19.89,2.33-1.56,19.2,2.19,21.04,1.37,12.27-5.49-4.87,65.5-.52,83.01-5.06,25.16,1.18,88.67,1.18,88.67Z"/>
    <path class="cls-8" d="M378.32,450.55s185.81,2.63,205.61,.12c6.03,1.06,9.31-1.19,11.06-5.44,2.91-7.08,1.58-19.75,1.67-32.01-.12-36.65-.96-102.67-1.26-125.41-.06-4.45-2.17-8.02-4.79-8.1l-212.8-.09s2.6,63.6-.09,82.27c2.94,25.16,.6,88.67,.6,88.67Z"/>
    <g>
      <path d="M599.31,267.13c.54-6.06,1.13-12.27,.21-18.32-.13-.88-.1-1.71,.05-2.48-.07,0-.15,0-.22,0-2.79-36.69,2.23-45.52-38.21-41.88-26.17-2.67-20.44,16.08-23.8,33.66-.04,3.9,3.71,8.37-3.09,7.59-25.89-.74-64.52,1.39-90.84-1.03-49.02-1.09-65.43-6.07-70.79,9.87-1.76,5.24-3.1,31.51-3.54,59.83-9.91,9.5-27.83,27.7-73.39,38.84-133.35,32.6-185.94-69.96-190.01-27.53,71.58,62.92,180.71,73.97,259.2,16.17,.8-.91,2.4-1.83,4.05-2.76,.07,14.96,.43,28.92,1.16,38.97-.35,15.65-.21,45.82,.66,61.97-4.19,17.8,11.46,13.99,22.95,14.35,12.56-.67,37.92,3.76,34.2-15.69,.15-47,4-109.29,.82-158.72-3.85-22.61,2.84-16.8,20.87-15.96,28.36-.36,56.72,1.78,85.53,1.09,3.82-1.09,3.42,13.64,1.3,13.87,2.26,11.29,.9,21.75,.61,33.63,1.44,33.09,.81,86.28,.64,122.31-3.89,38.72,20.83,21.84,47.42,24.1,19.07-2.97,7.83-63.95,11.35-79.85,1.16-37.37,2.52-73.35,1.31-110.61,.42-.52,.95-.99,1.54-1.41Zm-185.99-1.36c-4.02,53.91-.66,120.83-1.2,173.88-36.05,6.64-24.22-15.82-26.09-42.66,3.29-8.37-.24-16.34,.71-24.92,1.71-8.41-.28-17.2,.08-25.35-.24-22.12,3.31-59.19-1.81-87.6,2.75-5.89,15-.78,20.7-2.36,8.94-3.11,9.4,1.25,7.62,9.01Zm138.31,129.4c3.4-42.51-1.13-90.32,3.75-130.08,12.62-.12,30.69-6.94,26.95,11.68-1.01,13.46-.84,33.83,.13,44.91-.72,34.92-.2,85.89,.37,122.04-41.39,7.07-31.16-13.47-31.2-48.55Zm31.57-168c-2.62,7.85,4.3,22.16-8.28,18.37-6.9-3.02-21.58,5.75-20.9-4.99,1.95-6.07-3.83-15.53,.46-19.83,9.45,3.53,33.41-8.16,28.72,6.44Z"/>
      <path d="M79.84,321.62c5.39,1.89,11.48,.78,15.5-3.24,3.09-3.09,2.76-5.75,.04-7.87-12.17-9.44-72.15-7.95-90.82,16.05-1.84,2.36,.26,5.72,3.23,5.2,20.04-3.5,49.05-18.21,72.06-10.14Z"/>
      <path d="M67.54,270.01c9.92,.24,38.02,8.28,44.89,10.18,38.79,10.76,77.66,35.3,118.28,41.97,10.26-6.27,12.46-13.55-3.06-19.61-49.9-19.49-125.56-48.26-160.09-49.04-20.94-.48-41.72,3.97-61.39,16.61-18.17,13.5,28.09-.93,61.37-.12Z"/>
      <path d="M349.63,273.13c-1.26,.29-4.93,4.1-6.1,5.06-12.5,10.18-52.33,24.18-62.05,25.33-2.42,.29,1.22,14.62,7.52,14.91,22.1,.99,70.1-23.18,73.07-35.14-2.22-6.55-7.98-11.17-12.43-10.15Z"/>
      <path d="M345.88,394.35c-1.26,.29-4.92,4.11-6.1,5.06-43.01,34.52-117.77,23.95-132.75,20.36-1.08-.27-2.18-.54-3.3-.8,0,0-.01,0-.02,0h0c-11.39-2.76-24.01-5.7-34.34-10.08-46.03-19.52-113.96-50.93-147.51,3.42,4.86,9.96,17.98-6.06,25.87-5.85,54.93-23.2,99.62,25.18,152.28,32.27,0,0,.01,0,.02,0,21.59,4.24,62.06,4.87,89.07,.85,27-4.02,59.88-19.28,69.21-35.08-2.22-6.55-7.98-11.17-12.43-10.15Z"/>
    </g>
    <path class="cls-1" d="M472.89,179.75c2.52,5.78-.19,12.48-6.05,14.96-5.86,2.48-12.65-.19-15.17-5.97-2.52-5.78,4.27-3.11,10.13-5.59,5.86-2.48,8.57-9.18,11.09-3.4Z"/>
    <path class="cls-5" d="M413.32,265.77c-4.02,53.91-.66,120.83-1.2,173.88-36.05,6.64-24.22-15.82-26.09-42.66,3.29-8.37-.24-16.34,.71-24.92,1.71-8.41-.28-17.2,.08-25.35-.24-22.12,3.31-59.19-1.81-87.6,2.75-5.89,15-.78,20.7-2.36,8.94-3.11,9.4,1.25,7.62,9.01Z"/>
    <path class="cls-6" d="M551.63,395.18c3.4-42.51-1.13-90.32,3.75-130.08,12.62-.12,30.69-6.94,26.95,11.68-1.01,13.46-.84,33.83,.13,44.91-.72,34.92-.2,85.89,.37,122.04-41.39,7.07-31.16-13.47-31.2-48.55Z"/>
    <path class="cls-7" d="M583.2,227.18c-2.62,7.85,4.3,22.16-8.28,18.37-6.9-3.02-21.58,5.75-20.9-4.99,1.95-6.07-3.83-15.53,.46-19.83,9.45,3.53,33.41-8.16,28.72,6.44Z"/>
    <path d="M410.75,162.16c-37.22-42.17-70.76-83.48-108.86-126.05-8.46-9.38-25.41-35.19-37.53-36.11-1.01,2.03-2.8,7.43-5.17,15.4,1.36,7.5,3.66,14.95,5.47,22.31,.83,2.07,1.91,4.13,3.7,5.95,12.67,18.23,31.52,29.61,52.77,35.52,.23,34.75,30.81,67.9,66.05,77.82,12,4.14,32,47.61,42.63,32.6-1.71-11.58-12.9-18.26-19.06-27.43Zm-96.93-86.79c-17.59-12.63-55.55-33.57-49.09-64.92,15.54,16.33,33.3,45.13,52.33,60.24-2.24,3.76,3.41,1.21-3.24,4.68Zm13.9,10.8c20.83,20.19,36.64,44.02,56.73,64.99-29.71-10.46-56.03-35.91-56.73-64.99Z"/>
    <path d="M259.2,15.63c-2.86,19.53-5.75,39.05-8.59,58.59s-5.43,38.49-7.13,57.85c-1.71,19.43-2.46,38.98-1.42,58.47,1.02,19.03,4.24,37.8,6.83,56.65s4.42,37.81,1.96,56.64c-.31,2.39-.7,4.76-1.16,7.12-.36,1.89,2.53,2.69,2.89,.8,3.55-18.58,2.64-37.54,.39-56.21s-5.81-37.61-7.35-56.57-1.24-39.02,.17-58.47,3.91-38.9,6.67-58.25c2.78-19.52,5.7-39.01,8.56-58.52l1.07-7.3c.28-1.89-2.61-2.7-2.89-.8h0Z"/>
  </g>
</svg>