<?xml version="1.0" encoding="UTF-8"?>
<svg id="Layer_2" data-name="Layer 2" xmlns="http://www.w3.org/2000/svg" xmlns:xlink="http://www.w3.org/1999/xlink" viewBox="0 0 614.74 472.2">
  <defs>
    <style>
      .cls-1 {
        fill: #f7f8f8;
      }

      .cls-2 {
        fill: #00b4e6;
      }

      .cls-3 {
        fill: #f38ab4;
      }

      .cls-4 {
        fill: #d7e379;
      }

      .cls-5 {
        fill: #1c1934;
      }

      .cls-6 {
        fill: url(#Degradado_sin_nombre_23);
      }

      .cls-7 {
        fill: url(#Degradado_sin_nombre_12);
      }

      .cls-8 {
        fill: url(#Degradado_sin_nombre_12-2);
      }

      .cls-9 {
        fill: url(#Degradado_sin_nombre_12-3);
      }

      .cls-10 {
        fill: url(#Degradado_sin_nombre_23-2);
      }
    </style>
    <linearGradient id="Degradado_sin_nombre_23" data-name="Degradado sin nombre 23" x1="1144.49" y1="373.88" x2="1530.61" y2="239.77" gradientTransform="translate(1618.55) rotate(-180) scale(1.25 -1)" gradientUnits="userSpaceOnUse">
      <stop offset="0" stop-color="#00b4e6"/>
      <stop offset=".1" stop-color="#11a6dc"/>
      <stop offset=".31" stop-color="#328bc9"/>
      <stop offset=".51" stop-color="#4a78bb"/>
      <stop offset=".69" stop-color="#596cb3"/>
      <stop offset=".85" stop-color="#5e69b1"/>
    </linearGradient>
    <linearGradient id="Degradado_sin_nombre_23-2" data-name="Degradado sin nombre 23" x1="-4425.62" y1="389.42" x2="-4219.51" y2="317.83" gradientTransform="translate(-3886.05) rotate(-180) scale(1 -1)" xlink:href="#Degradado_sin_nombre_23"/>
    <linearGradient id="Degradado_sin_nombre_12" data-name="Degradado sin nombre 12" x1="399.94" y1="330.27" x2="375.18" y2="36.68" gradientUnits="userSpaceOnUse">
      <stop offset="0" stop-color="#f26130"/>
      <stop offset=".18" stop-color="#f68720"/>
      <stop offset=".37" stop-color="#faa812"/>
      <stop offset=".55" stop-color="#fcc008"/>
      <stop offset=".71" stop-color="#fecf02"/>
      <stop offset=".85" stop-color="#ffd400"/>
    </linearGradient>
    <linearGradient id="Degradado_sin_nombre_12-2" data-name="Degradado sin nombre 12" x1="565.01" y1="316.55" x2="540.25" y2="22.98" xlink:href="#Degradado_sin_nombre_12"/>
    <linearGradient id="Degradado_sin_nombre_12-3" data-name="Degradado sin nombre 12" x1="577.01" y1="315.61" x2="552.22" y2="21.74" xlink:href="#Degradado_sin_nombre_12"/>
  </defs>
  <g id="Layer_1-2" data-name="Layer 1">
    <path class="cls-6" d="M377.18,424.64c-.39-44.77,3.81-89.45-3.6-133.36-4.34-18.87-99.67-7.14-124.28-11.18-67.46-6.12-109.28,12.96-169.19,28.73-24.88,5.61-52,9.04-79.6,10.03,1.07,29.64,3.07,59.26,2.98,88.92-.06,18.56-1.21,37.02-3.49,55.47,64.08,0,127.9-.02,185.4,.99,52.21-3.14,106.44,.36,158.38-2.14,42.21,2.81,33.01-17.83,33.4-37.45Z"/>
    <path class="cls-4" d="M206.16,206.95c2.36,8.28,4.75,16.67,9.07,24.09,4.32,7.42,10.84,13.89,18.99,16.24,8.15,2.35,17.93-.25,22.58-7.45,2.41-3.74,3.28-8.3,3.71-12.76,.34-3.57,.42-7.25-.67-10.65-1.84-5.72-7.18-10.11-13.07-10.72-4.95-.52-9.79,1.41-14.62,2.65s-10.39,1.66-14.37-1.4c-1.74-1.34-2.99-3.22-4.6-4.71s-3.88-2.64-5.94-1.91c-3.02,1.07-1.08,6.64-1.08,6.64Z"/>
    <path class="cls-1" d="M254.39,224.48c1.97,4.54,1.04,9.28-2.07,10.59-3.11,1.31-7.23-1.31-9.2-5.85-1.97-4.54,.19-6.18,3.3-7.49,3.11-1.31,6-1.79,7.97,2.75Z"/>
    <g>
      <path class="cls-3" d="M485.45,234.55l-3.87-108.54c-.12-3.26-2.83-5.84-6.13-5.84h-43.73c-3.3,0-6.01,2.58-6.13,5.84l-4.47,125.33c-.12,3.42,2.66,6.26,6.13,6.26h89.34c3.68,0,6.66-2.94,6.66-6.57v-4.07c0-3.63-2.98-6.57-6.66-6.57h-25c-3.3,0-6.01-2.58-6.13-5.84Z"/>
      <g>
        <path class="cls-1" d="M441.75,166.45c0,3.72-3.05,6.73-6.82,6.73h-14.98c-3.77,0-6.82-3.01-6.82-6.73v-14.78c0-3.72,3.05-6.73,6.82-6.73h14.98c3.77,0,6.82,3.01,6.82,6.73v14.78Z"/>
        <path class="cls-1" d="M470.46,166.88c0,3.72-3.05,6.73-6.82,6.73h-10.2c-3.77,0-6.82-3.01-6.82-6.73v-10.06c0-3.72,3.05-6.73,6.82-6.73h10.2c3.77,0,6.82,3.01,6.82,6.73v10.06Z"/>
        <path class="cls-5" d="M430.23,164.32h-5.58c-1.4,0-2.54-1.12-2.54-2.51v-5.51c0-1.38,1.14-2.51,2.54-2.51h5.58c1.4,0,2.54,1.12,2.54,2.51v1.17c0,.25-.2,.45-.46,.45h-4.42c-.25,0-.46,.2-.46,.45v1.35c0,.25,.2,.45,.46,.45h4.42c.25,0,.46,.2,.46,.45v1.19c0,1.38-1.14,2.51-2.54,2.51Z"/>
        <path class="cls-5" d="M461.32,167.11h-5.58c-1.4,0-2.54-1.12-2.54-2.51v-5.51c0-1.38,1.14-2.51,2.54-2.51h5.58c1.4,0,2.54,1.12,2.54,2.51v1.17c0,.25-.2,.45-.46,.45h-4.42c-.25,0-.46,.2-.46,.45v1.35c0,.25,.2,.45,.46,.45h4.42c.25,0,.46,.2,.46,.45v1.19c0,1.38-1.14,2.51-2.54,2.51Z"/>
      </g>
    </g>
    <path class="cls-10" d="M396.18,461.97s185.81,2.63,205.61,.12c6.03,1.06,9.31-1.19,11.06-5.44,2.91-7.08,1.58-19.75,1.67-32.01-.12-36.65-.96-102.67-1.26-125.41-.06-4.45-2.17-8.02-4.79-8.1l-212.8-.09s2.6,63.6-.09,82.27c2.94,25.16,.6,88.67,.6,88.67Z"/>
    <path class="cls-7" d="M415.39,277.2c-4.02,53.91-.66,120.83-1.2,173.88-36.05,6.64-24.22-15.82-26.09-42.66,3.29-8.37-.24-16.34,.71-24.92,1.71-8.41-.28-17.2,.08-25.35-.24-22.12,3.31-59.19-1.81-87.6,2.75-5.89,15-.78,20.7-2.36,8.94-3.11,9.4,1.25,7.62,9.01Z"/>
    <path class="cls-8" d="M553.7,406.6c3.4-42.51-1.13-90.32,3.75-130.08,12.62-.12,30.69-6.94,26.95,11.68-1.01,13.46-.84,33.83,.13,44.91-.72,34.92-.2,85.89,.37,122.04-41.39,7.07-31.16-13.47-31.2-48.55Z"/>
    <path class="cls-9" d="M585.27,238.61c-2.62,7.85,4.3,22.16-8.28,18.37-6.9-3.02-21.58,5.75-20.9-4.99,1.95-6.07-3.83-15.53,.46-19.83,9.45,3.53,33.41-8.16,28.72,6.44Z"/>
    <path d="M272.08,11.61c-5.82-7.51,7.83,1.53,10.61,3.21,2.79,1.68,4.48,4.45,7.67,11.02,1.35,2.78,2.75,5.91,2.5,8.06-.38,3.3-2.45-.39-5.36-4.91-1.86-2.9-6.49-9.53-9.62-11.39-2.66-1.58-3.74-3.35-5.8-5.99Z"/>
    <path d="M296.97,3.02c-3.65-8.32,4.32,2.97,5.94,5.11,1.62,2.15,2.72,5.13,4.88,12.06,.92,2.93,1.88,6.2,1.89,8.22,.02,3.1-1.35-.84-3.22-5.75-1.2-3.14-4.15-10.4-5.96-12.78-1.54-2.03-2.24-3.93-3.53-6.87Z"/>
    <path d="M601.59,260.24c-.13-.88-.1-1.71,.05-2.48-.07,0-.15,0-.22,0-2.79-36.69,2.23-45.52-38.21-41.88-26.17-2.67-20.44,16.08-23.8,33.66-.04,3.9,3.71,8.37-3.09,7.59-25.89-.74-64.52,1.39-90.84-1.03-49.02-1.09-65.43-6.07-70.79,9.87-1.75,5.21-3.08,31.19-3.53,59.32,.94,3.25,.6,7.31,.53,10.11-.14,5.09-.71,10.17-.9,15.25,.08-.04,.15-.08,.23-.13,.07,14.96,.43,28.92,1.16,38.97-.35,15.65-.21,45.82,.66,61.97-4.19,17.8,11.46,13.99,22.95,14.35,12.56-.67,37.92,3.76,34.2-15.69,.15-47,4-109.29,.82-158.72-3.85-22.61,2.84-16.8,20.87-15.96,28.36-.36,56.72,1.78,85.53,1.09,3.82-1.09,3.42,13.64,1.3,13.87,2.26,11.29,.9,21.75,.61,33.63,1.44,33.09,.81,86.28,.64,122.31-3.89,38.72,20.83,21.84,47.42,24.1,19.07-2.97,7.83-63.95,11.35-79.85,1.16-37.37,2.52-73.35,1.31-110.61,.42-.52,.95-.99,1.54-1.41,.54-6.06,1.13-12.27,.21-18.32Zm-186.2,16.96c-4.02,53.91-.66,120.83-1.2,173.88-36.05,6.64-24.22-15.82-26.09-42.66,3.29-8.37-.24-16.34,.71-24.92,1.71-8.41-.28-17.2,.08-25.35-.24-22.12,3.31-59.19-1.81-87.6,2.75-5.89,15-.78,20.7-2.36,8.94-3.11,9.4,1.25,7.62,9.01Zm138.31,129.4c3.4-42.51-1.13-90.32,3.75-130.08,12.62-.12,30.69-6.94,26.95,11.68-1.01,13.46-.84,33.83,.13,44.91-.72,34.92-.2,85.89,.37,122.04-41.39,7.07-31.16-13.47-31.2-48.55Zm31.57-168c-2.62,7.85,4.3,22.16-8.28,18.37-6.9-3.02-21.58,5.75-20.9-4.99,1.95-6.07-3.83-15.53,.46-19.83,9.45,3.53,33.41-8.16,28.72,6.44Z"/>
    <path d="M412.39,186.38c-39.8-42.76-75.66-84.66-116.39-127.84-9.04-9.51-27.16-35.68-40.12-36.62-1.08,2.06-2.99,7.53-5.53,15.61,1.46,7.6,3.92,15.16,5.85,22.63,.89,2.1,2.04,4.19,3.95,6.04,13.55,18.49,33.7,30.03,56.42,36.02,.24,35.24,32.94,68.87,70.62,78.92,12.83,4.2,34.22,48.28,45.58,33.06-1.83-11.74-13.8-18.52-20.38-27.82Zm-103.63-88.02c-18.8-12.81-59.39-34.04-52.49-65.84,16.62,16.56,35.61,45.77,55.95,61.09-2.4,3.81,3.65,1.23-3.46,4.75Zm14.86,10.95c22.27,20.48,39.17,44.65,60.66,65.91-31.77-10.61-59.9-36.42-60.66-65.91Z"/>
    <path d="M250.46,37.78c-2.94,21.89-6.67,43.67-10.03,65.5s-6.38,43.97-7.85,66.14c-.83,12.6-1.15,25.23-.79,37.85,.06,1.93,3.06,1.93,3,0-.64-22.22,.88-44.44,3.46-66.51,2.56-21.91,6.16-43.69,9.62-65.47,1.94-12.22,3.83-24.45,5.48-36.71,.11-.81-.19-1.6-1.05-1.85-.7-.2-1.74,.25-1.85,1.05h0Z"/>
    <path class="cls-2" d="M207.88,243.21c-4.32,5.87-8.84,11.05-11.63,19.52-.71,2.16-1.28,4.52-1.36,7s.39,5.09,1.49,6.72c1.65,2.46,4.29,2.02,6.08-.11s2.9-5.56,3.77-9,.96-7.56,1.71-10.77c.47-2.02,.58-6.8,2.53-8.41,1.57-1.3,1.68-.56,1.46-2.82s-.7-4.26-2.03-3.98c-.77,.16-1.41,1.02-2.02,1.84Z"/>
    <path class="cls-2" d="M220.36,259.21c-.5-7.14-8.14,6.48-8.73,9.96-.58,3.49-.27,7.61,1.24,10.16,.76,1.28,1.85,2.1,2.89,1.71,1.59-.6,2.42-3.68,2.59-6.46s-.06-5.68,.51-8.31c.51-2.38,1.67-4.54,1.49-7.05Z"/>
    <path class="cls-2" d="M202.23,234.1c4.18-.65-2,14.98-3.87,16.68-1.87,1.7-4.29,2.04-6.06,.04-.89-1-1.59-2.67-1.58-4.49,.01-2.8,1.6-4.82,3.15-5.69s3.26-1.09,4.64-2.58c1.25-1.35,2.24-3.74,3.72-3.97Z"/>
    <path class="cls-2" d="M272.09,224.38c2.53,1.25,5.05,2.2,7.37,4.73,.59,.65,1.16,1.39,1.55,2.29s.59,1.95,.41,2.78c-.28,1.25-1.37,1.64-2.38,1.24s-1.94-1.43-2.78-2.51-1.64-2.25-2.58-3.11c-.58-.52-1.19-.92-1.76-1.45s-1.12-1.26-1.37-2.14-.07-1.89,.48-2.07c.32-.1,.7,.08,1.05,.25Z"/>
    <path class="cls-2" d="M273.54,238.01c-.5-4.05,5.16,4.5,5.86,6.55,.7,2.06,.97,4.4,.42,5.71-.28,.66-.79,1.03-1.4,.7-.94-.5-1.72-2.35-2.12-3.96s-.59-3.26-1.18-4.82c-.54-1.42-1.41-2.76-1.58-4.19Z"/>
    <g>
      <path d="M1.59,375.31c60.61,8.49,123.32,.97,175.86-22.45,2.07-35.8-57.39,20.88-172.76,2.97-.99,6.5-2.01,12.99-3.11,19.47Z"/>
      <path d="M161.12,404.55c-13.28,4.38-29.52,7.31-44.16,10.08h0s-.01,0-.02,0c-1.43,.27-2.84,.54-4.24,.8-6.3,1.17-20.83,3.09-39.47,3.94-.35,6.17-.8,12.33-1.35,18.49,19.05-.32,37.01-1.5,49.81-3.46,0,0,.02,0,.02,0,67.72-7.09,125.2-55.47,195.85-32.27,10.15-.21,27.02,15.8,33.27,5.85-43.16-54.35-130.52-22.94-189.72-3.42Z"/>
      <path d="M385.16,298.36c-23.92-18.86-50.63-27.9-78.34-30.97-45.69-5.06-150.17,16.82-219.17,31.88-9.84,2.15-14.8,5.26-16.08,8.91-.1,.94-.19,1.89-.29,2.83,.45,3.62,3.82,7.61,9.17,11.64,54.68-1.05,109.93-24.2,162.86-30.55,9.39-1.13,47.75-6.02,60.89-4.59,44.05,4.81,102.77,30.48,80.96,10.85Z"/>
      <path d="M2.93,313.11c.69-.27,4.78,1.07,5.9,1.31,11.96,2.55,37.2-2.5,41.79-5.36,1.14-.71,9.73,10.93,7.49,13.52-7.89,9.08-43.41,9.95-52.91,2.5-3.71-5.53-4.7-11.02-2.26-11.97Z"/>
      <path d="M266.36,328.63c-6.93,1.89-14.77,.78-19.93-3.24-3.97-3.09-3.56-5.75-.05-7.87,15.65-9.44,92.79-7.95,116.81,16.05,2.36,2.36-.33,5.72-4.15,5.2-25.78-3.5-63.09-18.21-92.68-10.14Z"/>
      <path d="M2.93,427.64c.69-.27,4.78,1.07,5.9,1.31,11.96,2.55,37.2-2.5,41.79-5.36,1.14-.71,9.73,10.93,7.49,13.52-7.89,9.08-43.41,9.95-52.91,2.5-3.71-5.53-4.7-11.02-2.26-11.97Z"/>
    </g>
    <path class="cls-1" d="M472.36,193.75c3.71,8.55,1.96,17.48-3.91,19.95-5.87,2.47-13.63-2.46-17.33-11.01-3.71-8.55,.35-11.64,6.22-14.11,5.87-2.47,11.32-3.38,15.02,5.17Z"/>
  </g>
</svg>