<?xml version="1.0" encoding="UTF-8"?>
<svg id="Layer_2" data-name="Layer 2" xmlns="http://www.w3.org/2000/svg" xmlns:xlink="http://www.w3.org/1999/xlink" viewBox="0 0 600 494.78">
  <defs>
    <style>
      .cls-1 {
        fill: #f7f8f8;
      }

      .cls-2 {
        fill: #f38ab4;
      }

      .cls-3 {
        fill: #1e1936;
      }

      .cls-4 {
        fill: #1c1934;
      }

      .cls-5 {
        fill: url(#Degradado_sin_nombre_23);
      }

      .cls-6 {
        fill: url(#Degradado_sin_nombre_12);
      }

      .cls-7 {
        fill: url(#Degradado_sin_nombre_12-2);
      }

      .cls-8 {
        fill: url(#Degradado_sin_nombre_12-3);
      }

      .cls-9 {
        fill: url(#Degradado_sin_nombre_23-2);
      }
    </style>
    <linearGradient id="Degradado_sin_nombre_23" data-name="Degradado sin nombre 23" x1="134.34" y1="416.21" x2="461.4" y2="302.61" gradientUnits="userSpaceOnUse">
      <stop offset="0" stop-color="#00b4e6"/>
      <stop offset=".1" stop-color="#11a6dc"/>
      <stop offset=".31" stop-color="#328bc9"/>
      <stop offset=".51" stop-color="#4a78bb"/>
      <stop offset=".69" stop-color="#596cb3"/>
      <stop offset=".85" stop-color="#5e69b1"/>
    </linearGradient>
    <linearGradient id="Degradado_sin_nombre_23-2" data-name="Degradado sin nombre 23" x1="-5651.9" y1="412" x2="-5445.79" y2="340.41" gradientTransform="translate(-5130.19) rotate(-180) scale(1 -1)" xlink:href="#Degradado_sin_nombre_23"/>
    <linearGradient id="Degradado_sin_nombre_12" data-name="Degradado sin nombre 12" x1="397.87" y1="352.85" x2="373.11" y2="59.26" gradientUnits="userSpaceOnUse">
      <stop offset="0" stop-color="#f26130"/>
      <stop offset=".18" stop-color="#f68720"/>
      <stop offset=".37" stop-color="#faa812"/>
      <stop offset=".55" stop-color="#fcc008"/>
      <stop offset=".71" stop-color="#fecf02"/>
      <stop offset=".85" stop-color="#ffd400"/>
    </linearGradient>
    <linearGradient id="Degradado_sin_nombre_12-2" data-name="Degradado sin nombre 12" x1="562.94" y1="339.13" x2="538.18" y2="45.56" xlink:href="#Degradado_sin_nombre_12"/>
    <linearGradient id="Degradado_sin_nombre_12-3" data-name="Degradado sin nombre 12" x1="574.94" y1="338.19" x2="550.15" y2="44.33" xlink:href="#Degradado_sin_nombre_12"/>
  </defs>
  <g id="Layer_1-2" data-name="Layer 1">
    <g>
      <path class="cls-2" d="M483.38,257.14l-3.87-108.54c-.12-3.26-2.83-5.84-6.13-5.84h-43.73c-3.3,0-6.01,2.58-6.13,5.84l-4.47,125.33c-.12,3.42,2.66,6.26,6.13,6.26h89.34c3.68,0,6.66-2.94,6.66-6.57v-4.07c0-3.63-2.98-6.57-6.66-6.57h-25c-3.3,0-6.01-2.58-6.13-5.84Z"/>
      <g>
        <path class="cls-1" d="M439.68,189.04c0,3.72-3.05,6.73-6.82,6.73h-14.98c-3.77,0-6.82-3.01-6.82-6.73v-14.78c0-3.72,3.05-6.73,6.82-6.73h14.98c3.77,0,6.82,3.01,6.82,6.73v14.78Z"/>
        <path class="cls-1" d="M468.39,189.46c0,3.72-3.05,6.73-6.82,6.73h-10.2c-3.77,0-6.82-3.01-6.82-6.73v-10.06c0-3.72,3.05-6.73,6.82-6.73h10.2c3.77,0,6.82,3.01,6.82,6.73v10.06Z"/>
        <path class="cls-4" d="M428.16,186.9h-5.58c-1.4,0-2.54-1.12-2.54-2.51v-5.51c0-1.38,1.14-2.51,2.54-2.51h5.58c1.4,0,2.54,1.12,2.54,2.51v1.17c0,.25-.2,.45-.46,.45h-4.42c-.25,0-.46,.2-.46,.45v1.35c0,.25,.2,.45,.46,.45h4.42c.25,0,.46,.2,.46,.45v1.19c0,1.38-1.14,2.51-2.54,2.51Z"/>
        <path class="cls-4" d="M459.25,189.69h-5.58c-1.4,0-2.54-1.12-2.54-2.51v-5.51c0-1.38,1.14-2.51,2.54-2.51h5.58c1.4,0,2.54,1.12,2.54,2.51v1.17c0,.25-.2,.45-.46,.45h-4.42c-.25,0-.46,.2-.46,.45v1.35c0,.25,.2,.45,.46,.45h4.42c.25,0,.46,.2,.46,.45v1.19c0,1.38-1.14,2.51-2.54,2.51Z"/>
      </g>
    </g>
    <path class="cls-5" d="M378.75,484.56c-78.37,2.47-174.23,.18-252.32,2.27-34.27-3.14-69.86,.36-103.95-2.14-27.71,2.81-21.67-17.83-21.92-37.45,.26-44.77-2.5-89.45,2.36-133.36,2.85-18.87,65.42-7.14,81.57-11.18,44.28-6.12,71.72,12.96,111.05,28.73,51.26,17.61,117,13.84,161.52-19.89,2.33-1.56,19.2,2.19,21.04,1.37,12.27-5.49-4.87,65.5-.52,83.01-5.06,25.16,1.18,88.67,1.18,88.67Z"/>
    <g id="_7ZCZ62" data-name="7ZCZ62">
      <path class="cls-3" d="M145,326.03c2.21-.77,4.91,.26,7.26-1.12,.22-.13,.55-.23,.77-.16,4.45,1.38,8.88-.32,13.31-.04,2.32,.15,4.66,.13,6.93,.84,1.99,.62,4.38,.64,5.93,1.79,1.11,.82,2.31,1.7,3.38,2.65,.69,.62,1.51,1.18,2.07,1.86,3.61,4.42,8.94,5.39,13.98,6.95,3.86,1.19,7.72,2.37,11.34,4.17,1.41,.7,1.99,1.78,1.37,3.28-.73,1.8-1.54,3.6-3.24,4.71-1.84,1.21-3.91,2.42-5.26,3.88-2.25,2.44-5.24,3.12-7.8,4.72-.28,.18-.57,.36-.83,.57-1.98,1.61-1.91,3.1,.37,4.26,3.78,1.92,7.69,3.51,11.76,4.77,3.84,1.2,7.88,1.93,11.35,4.13,2.08,1.31,2.13,2.63,.27,4.25-2.65,2.31-6.08,3.37-8.89,5.46-4.18,3.11-8.8,5.34-13.97,6.5-2.23,.5-3.76,2.35-5.21,3.98-.94,1.07,.08,2.25,.84,3.1,1.56,1.74,3.25,3.37,4.91,5.03,2.03,2.02,1.8,4.79-.52,6.51-2.69,2-5.68,3.12-9,3.78-4.15,.83-8.2,2.13-12.31,3.17-3,.76-6,1.62-9.06,.06-1.34-.68-2.86-.79-4.36-.54-1.79,.3-3.15-.57-4.72-1.24-3.07-1.32-3.86-3.27-3.36-6.43,.4-2.5-1.9-3.63-3.76-4.69-7.24-4.13-15.22-6.75-22.62-10.56-3.71-1.91-7.28-4.04-10.6-6.55-.58-.44-1.12-.99-1.53-1.59-.75-1.1-.69-2.07,.62-2.84,2.42-1.43,5.08-2.21,7.82-2.48,4.11-.4,8.09-1.34,12.12-2.12,2.57-.5,5.06-1.42,7.7-1.59,.68-.04,1.32-.22,1.93-.55,3.03-1.64,3.14-3.69,.2-5.51-4.64-2.86-9.58-5.15-14.51-7.46-2.62-1.23-5.26-2.42-7.82-3.74-1.39-.72-2.23-2.1-3.18-3.27-.57-.7-.14-1.55,.55-2.11,2.22-1.79,4.66-3.17,7.5-3.73,3.97-.78,7.95-1.49,11.91-2.33,1.71-.36,3.38-.91,5.03-1.47,1.19-.4,2.72-.7,2.9-2.16,.17-1.39-.95-2.57-1.93-3.29-2.34-1.72-3.74-4.31-6.23-5.92-1.05-.67-1.7-2.47-1.27-3.97,.4-1.41,1.65-1.93,3.12-2.09,1.52-.16,2.84-1.33,4.73-.87Z"/>
    </g>
    <path class="cls-9" d="M378.32,484.56s185.81,2.63,205.61,.12c6.03,1.06,9.31-1.19,11.06-5.44,2.91-7.08,1.58-19.75,1.67-32.01-.12-36.65-.96-102.67-1.26-125.41-.06-4.45-2.17-8.02-4.79-8.1l-212.8-.09s2.6,63.6-.09,82.27c2.94,25.16,.6,88.67,.6,88.67Z"/>
    <g>
      <path d="M599.31,301.14c.54-6.06,1.13-12.27,.21-18.32-.13-.88-.1-1.71,.05-2.48-.07,0-.15,0-.22,0-2.79-36.69,2.23-45.52-38.21-41.88-26.17-2.67-20.44,16.08-23.8,33.66-.04,3.9,3.71,8.37-3.09,7.59-25.89-.74-64.52,1.39-90.84-1.03-49.02-1.09-65.43-6.07-70.79,9.87-1.76,5.24-3.1,31.51-3.54,59.83-9.91,9.5-27.83,27.7-73.39,38.84-133.35,32.6-185.94-69.96-190.01-27.53,71.58,62.92,180.71,73.97,259.2,16.17,.8-.91,2.4-1.83,4.05-2.76,.07,14.96,.43,28.92,1.16,38.97-.35,15.65-.21,45.82,.66,61.97-4.19,17.8,11.46,13.99,22.95,14.35,12.56-.67,37.92,3.76,34.2-15.69,.15-47,4-109.29,.82-158.72-3.85-22.61,2.84-16.8,20.87-15.96,28.36-.36,56.72,1.78,85.53,1.09,3.82-1.09,3.42,13.64,1.3,13.87,2.26,11.29,.9,21.75,.61,33.63,1.44,33.09,.81,86.28,.64,122.31-3.89,38.72,20.83,21.84,47.42,24.1,19.07-2.97,7.83-63.95,11.35-79.85,1.16-37.37,2.52-73.35,1.31-110.61,.42-.52,.95-.99,1.54-1.41Zm-185.99-1.36c-4.02,53.91-.66,120.83-1.2,173.88-36.05,6.64-24.22-15.82-26.09-42.66,3.29-8.37-.24-16.34,.71-24.92,1.71-8.41-.28-17.2,.08-25.35-.24-22.12,3.31-59.19-1.81-87.6,2.75-5.89,15-.78,20.7-2.36,8.94-3.11,9.4,1.25,7.62,9.01Zm138.31,129.4c3.4-42.51-1.13-90.32,3.75-130.08,12.62-.12,30.69-6.94,26.95,11.68-1.01,13.46-.84,33.83,.13,44.91-.72,34.92-.2,85.89,.37,122.04-41.39,7.07-31.16-13.47-31.2-48.55Zm31.57-168c-2.62,7.85,4.3,22.16-8.28,18.37-6.9-3.02-21.58,5.75-20.9-4.99,1.95-6.07-3.83-15.53,.46-19.83,9.45,3.53,33.41-8.16,28.72,6.44Z"/>
      <path d="M79.84,355.63c5.39,1.89,11.48,.78,15.5-3.24,3.09-3.09,2.76-5.75,.04-7.87-12.17-9.44-72.15-7.95-90.82,16.05-1.84,2.36,.26,5.72,3.23,5.2,20.04-3.5,49.05-18.21,72.06-10.14Z"/>
      <path d="M67.54,304.02c9.92,.24,38.02,8.28,44.89,10.18,38.79,10.76,77.66,35.3,118.28,41.97,10.26-6.27,12.46-13.55-3.06-19.61-49.9-19.49-125.56-48.26-160.09-49.04-20.94-.48-41.72,3.97-61.39,16.61-18.17,13.5,28.09-.93,61.37-.12Z"/>
      <path d="M349.63,307.14c-1.26,.29-4.93,4.1-6.1,5.06-12.5,10.18-52.33,24.18-62.05,25.33-2.42,.29,1.22,14.62,7.52,14.91,22.1,.99,70.1-23.18,73.07-35.14-2.22-6.55-7.98-11.17-12.43-10.15Z"/>
      <path d="M345.88,428.37c-1.26,.29-4.92,4.11-6.1,5.06-43.01,34.52-117.77,23.95-132.75,20.36-1.08-.27-2.18-.54-3.3-.8,0,0-.01,0-.02,0h0c-11.39-2.76-24.01-5.7-34.34-10.08-46.03-19.52-113.96-50.93-147.51,3.42,4.86,9.96,17.98-6.06,25.87-5.85,54.93-23.2,99.62,25.18,152.28,32.27,0,0,.01,0,.02,0,21.59,4.24,62.06,4.87,89.07,.85,27-4.02,59.88-19.28,69.21-35.08-2.22-6.55-7.98-11.17-12.43-10.15Z"/>
    </g>
    <path class="cls-1" d="M473.12,216.65c3.71,8.55,1.96,17.48-3.91,19.95-5.87,2.47-13.63-2.46-17.33-11.01-3.71-8.55,.35-11.64,6.22-14.11,5.87-2.47,11.32-3.38,15.02,5.17Z"/>
    <path class="cls-6" d="M413.32,299.78c-4.02,53.91-.66,120.83-1.2,173.88-36.05,6.64-24.22-15.82-26.09-42.66,3.29-8.37-.24-16.34,.71-24.92,1.71-8.41-.28-17.2,.08-25.35-.24-22.12,3.31-59.19-1.81-87.6,2.75-5.89,15-.78,20.7-2.36,8.94-3.11,9.4,1.25,7.62,9.01Z"/>
    <path class="cls-7" d="M551.63,429.19c3.4-42.51-1.13-90.32,3.75-130.08,12.62-.12,30.69-6.94,26.95,11.68-1.01,13.46-.84,33.83,.13,44.91-.72,34.92-.2,85.89,.37,122.04-41.39,7.07-31.16-13.47-31.2-48.55Z"/>
    <path class="cls-8" d="M583.2,261.19c-2.62,7.85,4.3,22.16-8.28,18.37-6.9-3.02-21.58,5.75-20.9-4.99,1.95-6.07-3.83-15.53,.46-19.83,9.45,3.53,33.41-8.16,28.72,6.44Z"/>
    <path d="M301.54,6.03c-6.93-6.49,4.69-6.66,7.71-5.45,3.02,1.22,5.13,3.69,9.31,9.67,1.77,2.54,3.65,5.4,3.74,7.57,.14,3.32-2.48,0-6.07-4-2.3-2.57-5.38-8.84-7.85-6.16-1.23,1.34-4.39,.67-6.84-1.62Z"/>
    <path d="M294.86,56.64c1.69,4.74,1.01,10.9,4.39,16.18,9.05,20.8,24.79,35.18,43.55,44.1-4.84,36.59,18.57,75.38,49.66,90.31,10.47,5.89,22.62,54.18,34.61,39.74,.1-12.4-9.26-20.86-13.61-31.3-19.89-103.05-100.5-186.79-111.55-189.31-10.66,17.42-112.03,294.03-119.08,308.02,0,0,8.38-6.1,10.03-5.59,5.74-30.34,86.66-235.14,102-272.15Zm107.53,141.92c-3.72,.08-8.97,6.27-11.99,4.26-34.89-23.3-48.9-61.17-44.53-84.65,0,0,4.98-4.11,11.5-8.98,26.36,28.27,35.32,60.5,45.02,89.36ZM300.73,37.4c11.98,19.16,32.95,32.74,55.27,66.96-2.62,3.67-5.86,7.09-12.51,9.9-26.05-9.09-53.28-44.69-42.76-76.86Z"/>
    <path d="M298.59,21.24c-9.42-8.59,5.41-8.89,9.36-7.3,3.97,1.6,6.87,4.87,12.74,12.81,2.49,3.36,5.13,7.16,5.44,10.04,.47,4.42-3.17,.03-8.1-5.29-3.16-3.4-7.65-11.72-10.56-8.15-1.46,1.79-5.55,.92-8.87-2.12Z"/>
    <path d="M251.91,134.12c-3.4,8.87-2.75-7.48-2.77-10.73-.01-3.26,1.48-6.14,5.44-12.28,1.68-2.6,3.63-5.41,5.6-6.32,3.02-1.39,.94,2.29-1.42,7.13-1.51,3.1-4.78,10.49-4.74,14.13,.03,3.1-.92,4.94-2.12,8.06Z"/>
    <path d="M238.69,120.81c-4.6,7.84-.14-5.24,.65-7.8,.79-2.57,2.56-5.21,6.89-11.03,1.84-2.46,3.92-5.17,5.54-6.36,2.5-1.84,.11,1.58-2.76,5.98-1.84,2.82-5.98,9.46-6.85,12.32-.74,2.44-1.86,4.12-3.49,6.89Z"/>
    <path d="M212.67,299.46c-3.79,8.49,6.03-3.06,8.05-5.25,2.03-2.2,3.06-5.24,4.87-12.29,.77-2.99,1.53-6.32,1.1-8.37-.66-3.15-1.9,.87-3.71,5.87-1.16,3.2-4.1,10.6-6.37,13.03-1.94,2.08-2.6,4.01-3.94,7.01Z"/>
    <path d="M224.77,294.74c-3.62,8.74,5.61-3.22,7.51-5.49,1.91-2.28,2.9-5.4,4.68-12.64,.75-3.07,1.51-6.48,1.14-8.57-.57-3.21-1.77,.91-3.51,6.05-1.12,3.29-3.94,10.9-6.08,13.42-1.82,2.15-2.46,4.14-3.74,7.22Z"/>
  </g>
</svg>