<?xml version="1.0" encoding="UTF-8"?>
<svg id="Layer_2" data-name="Layer 2" xmlns="http://www.w3.org/2000/svg" xmlns:xlink="http://www.w3.org/1999/xlink" viewBox="0 0 607.75 475.76">
  <defs>
    <style>
      .cls-1 {
        fill: #f7f8f8;
      }

      .cls-2 {
        fill: #f38ab4;
      }

      .cls-3 {
        fill: #1e1936;
      }

      .cls-4 {
        fill: #1c1934;
      }

      .cls-5 {
        fill: url(#Degradado_sin_nombre_23);
      }

      .cls-6 {
        fill: url(#Degradado_sin_nombre_12);
      }

      .cls-7 {
        fill: url(#Degradado_sin_nombre_12-2);
      }

      .cls-8 {
        fill: url(#Degradado_sin_nombre_12-3);
      }

      .cls-9 {
        fill: url(#Degradado_sin_nombre_23-2);
      }
    </style>
    <linearGradient id="Degradado_sin_nombre_23" data-name="Degradado sin nombre 23" x1="-3307.83" y1="396.02" x2="-2934.02" y2="266.19" gradientTransform="translate(-2635.27) rotate(-180) scale(.87 -1)" gradientUnits="userSpaceOnUse">
      <stop offset="0" stop-color="#00b4e6"/>
      <stop offset=".1" stop-color="#11a6dc"/>
      <stop offset=".31" stop-color="#328bc9"/>
      <stop offset=".51" stop-color="#4a78bb"/>
      <stop offset=".69" stop-color="#596cb3"/>
      <stop offset=".85" stop-color="#5e69b1"/>
    </linearGradient>
    <linearGradient id="Degradado_sin_nombre_23-2" data-name="Degradado sin nombre 23" x1="-4404.16" y1="392.98" x2="-4198.05" y2="321.39" gradientTransform="translate(-3874.7) rotate(-180) scale(1 -1)" xlink:href="#Degradado_sin_nombre_23"/>
    <linearGradient id="Degradado_sin_nombre_12" data-name="Degradado sin nombre 12" x1="405.62" y1="333.83" x2="380.86" y2="40.24" gradientUnits="userSpaceOnUse">
      <stop offset="0" stop-color="#f26130"/>
      <stop offset=".18" stop-color="#f68720"/>
      <stop offset=".37" stop-color="#faa812"/>
      <stop offset=".55" stop-color="#fcc008"/>
      <stop offset=".71" stop-color="#fecf02"/>
      <stop offset=".85" stop-color="#ffd400"/>
    </linearGradient>
    <linearGradient id="Degradado_sin_nombre_12-2" data-name="Degradado sin nombre 12" x1="570.69" y1="320.11" x2="545.93" y2="26.54" xlink:href="#Degradado_sin_nombre_12"/>
    <linearGradient id="Degradado_sin_nombre_12-3" data-name="Degradado sin nombre 12" x1="582.68" y1="319.17" x2="557.9" y2="25.3" xlink:href="#Degradado_sin_nombre_12"/>
  </defs>
  <g id="Layer_1-2" data-name="Layer 1">
    <path d="M287.39,28.97c-5,19.28-10.04,38.55-15.01,57.84s-9.62,38.01-13.39,57.24c-3.72,19-6.51,38.23-7.54,57.58-1.01,19.09,.22,38.14,.73,57.22s.22,37.61-4.27,55.86c-.56,2.29-1.2,4.57-1.89,6.82-.57,1.85,2.33,2.64,2.89,.8,5.47-17.87,6.61-36.65,6.42-55.24s-1.69-37.97-1.21-56.97c.49-19.48,2.9-38.87,6.39-58.03s8.09-38.35,12.93-57.33,9.95-38.44,14.93-57.66l1.9-7.34c.49-1.87-2.41-2.67-2.89-.8h0Z"/>
    <path class="cls-5" d="M5.15,433.59c.02-1.85,.01-3.7,0-5.55-.13-14.86-.4-29.71-.36-44.57,.04-13.46,0-26.92-.39-40.37,.12-6.77,.21-13.55,.35-20.33,.21-10.4,3.07-21.19,1.46-31.57,5.81-.7,15.04-2.3,16.72-1.18,45.2,33.73,111.95,37.5,164,19.89,39.93-15.77,67.8-34.85,112.76-28.73,16.4,4.04,79.94-7.69,82.83,11.18,4.94,43.91,2.13,88.6,2.4,133.36-.26,19.62,5.87,40.27-22.26,37.45-34.61,2.51-70.75-1-105.55,2.14-75.77-1.99-168,0-245.48-1.97-1.47-10.02-4.27-19.86-6.46-29.77Z"/>
    <g>
      <path class="cls-2" d="M491.13,238.11l-3.87-108.54c-.12-3.26-2.83-5.84-6.13-5.84h-43.73c-3.3,0-6.01,2.58-6.13,5.84l-4.47,125.33c-.12,3.42,2.66,6.26,6.13,6.26h89.34c3.68,0,6.66-2.94,6.66-6.57v-4.07c0-3.63-2.98-6.57-6.66-6.57h-25c-3.3,0-6.01-2.58-6.13-5.84Z"/>
      <g>
        <path class="cls-1" d="M447.43,170.01c0,3.72-3.05,6.73-6.82,6.73h-14.98c-3.77,0-6.82-3.01-6.82-6.73v-14.78c0-3.72,3.05-6.73,6.82-6.73h14.98c3.77,0,6.82,3.01,6.82,6.73v14.78Z"/>
        <path class="cls-1" d="M476.13,170.44c0,3.72-3.05,6.73-6.82,6.73h-10.2c-3.77,0-6.82-3.01-6.82-6.73v-10.06c0-3.72,3.05-6.73,6.82-6.73h10.2c3.77,0,6.82,3.01,6.82,6.73v10.06Z"/>
        <path class="cls-4" d="M435.9,167.88h-5.58c-1.4,0-2.54-1.12-2.54-2.51v-5.51c0-1.38,1.14-2.51,2.54-2.51h5.58c1.4,0,2.54,1.12,2.54,2.51v1.17c0,.25-.2,.45-.46,.45h-4.42c-.25,0-.46,.2-.46,.45v1.35c0,.25,.2,.45,.46,.45h4.42c.25,0,.46,.2,.46,.45v1.19c0,1.38-1.14,2.51-2.54,2.51Z"/>
        <path class="cls-4" d="M467,170.67h-5.58c-1.4,0-2.54-1.12-2.54-2.51v-5.51c0-1.38,1.14-2.51,2.54-2.51h5.58c1.4,0,2.54,1.12,2.54,2.51v1.17c0,.25-.2,.45-.46,.45h-4.42c-.25,0-.46,.2-.46,.45v1.35c0,.25,.2,.45,.46,.45h4.42c.25,0,.46,.2,.46,.45v1.19c0,1.38-1.14,2.51-2.54,2.51Z"/>
      </g>
    </g>
    <g id="_7ZCZ62" data-name="7ZCZ62">
      <path class="cls-3" d="M226.88,289.8c2.21-.77,4.91,.26,7.26-1.12,.22-.13,.55-.23,.77-.16,4.45,1.38,8.88-.32,13.31-.04,2.32,.15,4.66,.13,6.93,.84,1.99,.62,4.38,.64,5.93,1.79,1.11,.82,2.31,1.7,3.38,2.65,.69,.62,1.51,1.18,2.07,1.86,3.61,4.42,8.94,5.39,13.98,6.95,3.86,1.19,7.72,2.37,11.34,4.17,1.41,.7,1.99,1.78,1.37,3.28-.73,1.8-1.54,3.6-3.24,4.71-1.84,1.21-3.91,2.42-5.26,3.88-2.25,2.44-5.24,3.12-7.8,4.72-.28,.18-.57,.36-.83,.57-1.98,1.61-1.91,3.1,.37,4.26,3.78,1.92,7.69,3.51,11.76,4.77,3.84,1.2,7.88,1.93,11.35,4.13,2.08,1.31,2.13,2.63,.27,4.25-2.65,2.31-6.08,3.37-8.89,5.46-4.18,3.11-8.8,5.34-13.97,6.5-2.23,.5-3.76,2.35-5.21,3.98-.94,1.07,.08,2.25,.84,3.1,1.56,1.74,3.25,3.37,4.91,5.03,2.03,2.02,1.8,4.79-.52,6.51-2.69,2-5.68,3.12-9,3.78-4.15,.83-8.2,2.13-12.31,3.17-3,.76-6,1.62-9.06,.06-1.34-.68-2.86-.79-4.36-.54-1.79,.3-3.15-.57-4.72-1.24-3.07-1.32-3.86-3.27-3.36-6.43,.4-2.5-1.9-3.63-3.76-4.69-7.24-4.13-15.22-6.75-22.62-10.56-3.71-1.91-7.28-4.04-10.6-6.55-.58-.44-1.12-.99-1.53-1.59-.75-1.1-.69-2.07,.62-2.84,2.42-1.43,5.08-2.21,7.82-2.48,4.11-.4,8.09-1.34,12.12-2.12,2.57-.5,5.06-1.42,7.7-1.59,.68-.04,1.32-.22,1.93-.55,3.03-1.64,3.14-3.69,.2-5.51-4.64-2.86-9.58-5.15-14.51-7.46-2.62-1.23-5.26-2.42-7.82-3.74-1.39-.72-2.23-2.1-3.18-3.27-.57-.7-.14-1.55,.55-2.11,2.22-1.79,4.66-3.17,7.5-3.73,3.97-.78,7.95-1.49,11.91-2.33,1.71-.36,3.38-.91,5.03-1.47,1.19-.4,2.72-.7,2.9-2.16,.17-1.39-.95-2.57-1.93-3.29-2.34-1.72-3.74-4.31-6.23-5.92-1.05-.67-1.7-2.47-1.27-3.97,.4-1.41,1.65-1.93,3.12-2.09,1.52-.16,2.84-1.33,4.73-.87Z"/>
    </g>
    <path class="cls-9" d="M386.06,465.53s185.81,2.63,205.61,.12c6.03,1.06,9.31-1.19,11.06-5.44,2.91-7.08,1.58-19.75,1.67-32.01-.12-36.65-.96-102.67-1.26-125.41-.06-4.45-2.17-8.02-4.79-8.1l-212.8-.09s2.6,63.6-.09,82.27c2.94,25.16,.6,88.67,.6,88.67Z"/>
    <path d="M607.26,263.8c-.13-.88-.1-1.71,.05-2.48-.07,0-.15,0-.22,0-2.79-36.69,2.23-45.52-38.21-41.88-26.17-2.67-20.44,16.08-23.8,33.66-.04,3.9,3.71,8.37-3.09,7.59-25.89-.74-64.52,1.39-90.84-1.03-49.02-1.09-65.43-6.07-70.79,9.87-1.61,4.8-2.87,27.25-3.41,52.76,.86,.8,1.42,1.96,1.42,3.49v35.44c0,1.63-.64,2.84-1.59,3.65,.16,10.79,.51,20.61,1.06,28.19-.35,15.65-.21,45.82,.66,61.97-4.19,17.8,11.46,13.99,22.95,14.35,12.56-.67,37.92,3.76,34.2-15.69,.15-47,4-109.29,.82-158.72-3.85-22.61,2.84-16.8,20.87-15.96,28.36-.36,56.72,1.78,85.53,1.09,3.82-1.09,3.42,13.64,1.3,13.87,2.26,11.29,.9,21.75,.61,33.63,1.44,33.09,.81,86.28,.64,122.31-3.89,38.72,20.83,21.84,47.42,24.1,19.07-2.97,7.83-63.95,11.35-79.85,1.16-37.37,2.52-73.35,1.31-110.61,.42-.52,.95-.99,1.54-1.41,.54-6.06,1.13-12.27,.21-18.32Zm-186.2,16.96c-4.02,53.91-.66,120.83-1.2,173.88-36.05,6.64-24.22-15.82-26.09-42.66,3.29-8.37-.24-16.34,.71-24.92,1.71-8.41-.28-17.2,.08-25.35-.24-22.12,3.31-59.19-1.81-87.6,2.75-5.89,15-.78,20.7-2.36,8.94-3.11,9.4,1.25,7.62,9.01Zm138.31,129.4c3.4-42.51-1.13-90.32,3.75-130.08,12.62-.12,30.69-6.94,26.95,11.68-1.01,13.46-.84,33.83,.13,44.91-.72,34.92-.2,85.89,.37,122.04-41.39,7.07-31.16-13.47-31.2-48.55Zm31.57-168c-2.62,7.85,4.3,22.16-8.28,18.37-6.9-3.02-21.58,5.75-20.9-4.99,1.95-6.07-3.83-15.53,.46-19.83,9.45,3.53,33.41-8.16,28.72,6.44Z"/>
    <path class="cls-1" d="M477.81,192.87c3.71,8.55,1.96,17.48-3.91,19.95-5.87,2.47-13.63-2.46-17.33-11.01-3.71-8.55,4.05-3.62,9.92-6.09,5.87-2.47,7.62-11.4,11.32-2.85Z"/>
    <path class="cls-6" d="M421.07,280.76c-4.02,53.91-.66,120.83-1.2,173.88-36.05,6.64-24.22-15.82-26.09-42.66,3.29-8.37-.24-16.34,.71-24.92,1.71-8.41-.28-17.2,.08-25.35-.24-22.12,3.31-59.19-1.81-87.6,2.75-5.89,15-.78,20.7-2.36,8.94-3.11,9.4,1.25,7.62,9.01Z"/>
    <path class="cls-7" d="M559.38,410.16c3.4-42.51-1.13-90.32,3.75-130.08,12.62-.12,30.69-6.94,26.95,11.68-1.01,13.46-.84,33.83,.13,44.91-.72,34.92-.2,85.89,.37,122.04-41.39,7.07-31.16-13.47-31.2-48.55Z"/>
    <path class="cls-8" d="M590.94,242.17c-2.62,7.85,4.3,22.16-8.28,18.37-6.9-3.02-21.58,5.75-20.9-4.99,1.95-6.07-3.83-15.53,.46-19.83,9.45,3.53,33.41-8.16,28.72,6.44Z"/>
    <path d="M422.26,190.86c-32.45-45.94-61.32-90.64-94.6-137.08-7.39-10.24-21.45-37.73-33.4-39.95-1.22,1.91-3.58,7.08-6.81,14.75,.55,7.6,2.03,15.26,3.03,22.77,.6,2.15,1.46,4.31,3.03,6.32,10.63,19.49,28.13,32.85,48.62,41.01-3.53,34.57,23.29,70.84,57.25,84.5,11.48,5.42,26.67,50.79,38.85,37.02-.45-11.69-10.85-19.55-15.98-29.33Zm-86.98-96.76c-16.12-14.46-51.59-39.38-41.79-69.85,13.69,17.91,28.23,48.47,45.51,65.54-2.63,3.49,3.26,1.57-3.73,4.31Zm12.65,12.24c18.52,22.32,31.67,47.72,49.37,70.74-28.41-13.61-51.82-41.76-49.37-70.74Z"/>
    <path d="M297.04,5.33c-3.75-5.4,7.46-2.89,9.81-1.5,2.35,1.4,3.27,3.33,4.62,7.82,.57,1.9,1.09,4.02,.22,5.32-1.34,2-2.38-.55-4.04-3.73-1.06-2.03-1.23-6.44-4.78-5.41-1.78,.51-4.51-.59-5.83-2.5Z"/>
    <path d="M316.04,4.63c-1.01-9.44,7.9-1.98,9.39,.91,1.49,2.9,1.47,6.14,.74,13.41-.31,3.08-.77,6.47-2.11,8.17-2.06,2.61-1.88-1.61-1.98-7-.07-3.44,1.69-10.21-1.92-9.79-1.81,.21-3.76-2.36-4.12-5.7Z"/>
    <g>
      <path d="M.93,350.44c-.08-6.26-.61-12.59-.93-18.9,10.65,9.82,29.74,26.75,74.77,37.33,138.83,32.6,193.59-69.96,197.82-27.53-74.52,62.92-188.13,73.97-269.86,16.17-.42-.46-1.04-.92-1.78-1.38,0-1.89,0-3.79-.02-5.68Z"/>
      <path d="M299.5,337.27c-5.61,1.89-11.95,.78-16.13-3.24-3.21-3.09-2.88-5.75-.04-7.87,12.67-9.44,75.11-7.95,94.56,16.05,1.91,2.36-.27,5.72-3.36,5.2-20.87-3.5-51.07-18.21-75.03-10.14Z"/>
      <path d="M312.31,285.66c-10.33,.24-39.58,8.28-46.74,10.18-40.39,10.76-80.85,35.3-123.14,41.97-10.69-6.27-12.97-13.55,3.19-19.61,51.95-19.49,130.72-48.26,166.67-49.04,21.8-.48,43.43,3.97,63.91,16.61,18.92,13.5-29.24-.93-63.89-.12Z"/>
      <path d="M18.62,288.78c1.31,.29,5.13,4.1,6.35,5.06,13.02,10.18,54.48,24.18,64.6,25.33,2.52,.29-1.27,14.62-7.83,14.91-23.01,.99-72.98-23.18-76.07-35.14,2.31-6.55,8.31-11.17,12.94-10.15Z"/>
      <path d="M22.53,410.01c1.31,.29,5.12,4.11,6.35,5.06,44.78,34.52,122.61,23.95,138.21,20.36,1.13-.27,2.27-.54,3.43-.8,0,0,.01,0,.02,0h0c11.86-2.76,25-5.7,35.75-10.08,47.92-19.52,118.64-50.93,153.57,3.42-5.06,9.96-18.72-6.06-26.93-5.85-57.19-23.2-103.72,25.18-158.54,32.27,0,0-.01,0-.02,0-22.47,4.24-64.61,4.87-92.73,.85-28.11-4.02-62.34-19.28-72.05-35.08,2.31-6.55,8.31-11.17,12.94-10.15Z"/>
    </g>
  </g>
</svg>