<?xml version="1.0" encoding="UTF-8"?>
<svg id="Layer_2" data-name="Layer 2" xmlns="http://www.w3.org/2000/svg" xmlns:xlink="http://www.w3.org/1999/xlink" viewBox="0 0 621.82 478.01">
  <defs>
    <style>
      .cls-1 {
        fill: #f7f8f8;
      }

      .cls-2 {
        fill: #f38ab4;
      }

      .cls-3 {
        fill: #d7e379;
      }

      .cls-4 {
        fill: #1c1934;
      }

      .cls-5 {
        fill: url(#Degradado_sin_nombre_23);
      }

      .cls-6 {
        fill: url(#Degradado_sin_nombre_12);
      }

      .cls-7 {
        fill: url(#Degradado_sin_nombre_12-2);
      }

      .cls-8 {
        fill: url(#Degradado_sin_nombre_12-3);
      }

      .cls-9 {
        fill: url(#Degradado_sin_nombre_23-2);
      }
    </style>
    <linearGradient id="Degradado_sin_nombre_23" data-name="Degradado sin nombre 23" x1="-6898.44" y1="395.23" x2="-6692.33" y2="323.64" gradientTransform="translate(-6351.8) rotate(-180) scale(1 -1)" gradientUnits="userSpaceOnUse">
      <stop offset="0" stop-color="#00b4e6"/>
      <stop offset=".1" stop-color="#11a6dc"/>
      <stop offset=".31" stop-color="#328bc9"/>
      <stop offset=".51" stop-color="#4a78bb"/>
      <stop offset=".69" stop-color="#596cb3"/>
      <stop offset=".85" stop-color="#5e69b1"/>
    </linearGradient>
    <linearGradient id="Degradado_sin_nombre_23-2" data-name="Degradado sin nombre 23" x1="-1450.46" y1="372.33" x2="-733.75" y2="123.39" gradientTransform="translate(1143.91) scale(.64 1)" xlink:href="#Degradado_sin_nombre_23"/>
    <linearGradient id="Degradado_sin_nombre_12" data-name="Degradado sin nombre 12" x1="407.01" y1="336.08" x2="382.25" y2="42.49" gradientUnits="userSpaceOnUse">
      <stop offset="0" stop-color="#f26130"/>
      <stop offset=".18" stop-color="#f68720"/>
      <stop offset=".37" stop-color="#faa812"/>
      <stop offset=".55" stop-color="#fcc008"/>
      <stop offset=".71" stop-color="#fecf02"/>
      <stop offset=".85" stop-color="#ffd400"/>
    </linearGradient>
    <linearGradient id="Degradado_sin_nombre_12-2" data-name="Degradado sin nombre 12" x1="572.3" y1="322.36" x2="547.55" y2="28.79" xlink:href="#Degradado_sin_nombre_12"/>
    <linearGradient id="Degradado_sin_nombre_12-3" data-name="Degradado sin nombre 12" x1="584.08" y1="321.42" x2="559.29" y2="27.56" xlink:href="#Degradado_sin_nombre_12"/>
  </defs>
  <g id="Layer_1-2" data-name="Layer 1">
    <path class="cls-5" d="M403.25,467.79s185.81,2.63,205.61,.12c6.03,1.06,9.31-1.19,11.06-5.44,2.91-7.08,1.58-19.75,1.67-32.01-.12-36.65-.96-102.67-1.26-125.41-.06-4.45-2.17-8.02-4.79-8.1l-212.8-.09s2.6,63.6-.09,82.27c2.94,25.16,.6,88.67,.6,88.67Z"/>
    <path class="cls-9" d="M10.05,424.74c.39-45.71-3.69-91.33,3.17-136.2,.3-1.99,1.62-3.69,3.49-4.45,26.36-10.71,99.36-6.23,123.41-10.28,68.61-6.39,111.15,13.53,172.09,30,25.31,5.86,52.89,9.44,80.96,10.47-1.09,30.95-3.12,61.88-3.03,92.84,.06,19.38,1.23,38.66,3.55,57.92-65.18,0-130.09-.02-188.57,1.04-53.11-3.28-108.27,.38-161.09-2.24-42.94,2.94-33.58-18.61-33.98-39.11Z"/>
    <g>
      <path d="M392.08,373.23c-61.21,8.87-124.53,1.01-177.59-23.44-2.09-37.39,57.95,21.8,174.45,3.11,1,6.79,2.03,13.56,3.14,20.33Z"/>
      <path d="M230.99,403.76c13.41,4.57,29.81,7.64,44.6,10.52h0s.01,0,.02,0c1.44,.28,2.87,.56,4.28,.84,6.36,1.22,21.04,3.23,39.85,4.11,.35,6.44,.81,12.87,1.36,19.3-19.23-.33-37.37-1.57-50.3-3.61,0,0-.02,0-.02,0-68.39-7.4-126.43-57.92-197.78-33.69-10.25-.22-27.28,16.5-33.6,6.1,43.58-56.75,131.81-23.96,191.58-3.58Z"/>
      <path d="M4.74,292.88c24.16-19.69,51.12-29.14,79.11-32.34,46.14-5.28,151.64,17.56,221.32,33.29,9.94,2.24,14.94,5.49,16.24,9.31,.1,.98,.2,1.97,.29,2.96-.45,3.78-3.86,7.95-9.26,12.15-55.21-1.09-111.01-25.27-164.46-31.9-9.48-1.18-48.22-6.29-61.49-4.79-44.48,5.03-103.78,31.83-81.76,11.33Z"/>
      <path d="M390.73,308.28c-.7-.28-4.82,1.12-5.96,1.37-12.08,2.67-37.57-2.61-42.2-5.6-1.15-.74-9.83,11.41-7.56,14.12,7.97,9.48,43.84,10.38,53.43,2.61,3.75-5.78,4.75-11.51,2.28-12.5Z"/>
      <path d="M124.71,324.49c7,1.97,14.91,.81,20.13-3.38,4.01-3.22,3.59-6.01,.05-8.22-15.8-9.86-93.7-8.3-117.96,16.76-2.38,2.46,.34,5.97,4.19,5.43,26.03-3.66,63.71-19.01,93.59-10.59Z"/>
      <path d="M390.73,427.87c-.7-.28-4.82,1.12-5.96,1.37-12.08,2.67-37.57-2.61-42.2-5.6-1.15-.74-9.83,11.41-7.56,14.12,7.97,9.48,43.84,10.38,53.43,2.61,3.75-5.78,4.75-11.51,2.28-12.5Z"/>
    </g>
    <path class="cls-3" d="M266.31,187.79c3.21,7.99,6.47,16.08,11.55,23s12.23,12.67,20.58,14.16c8.35,1.48,17.81-2.12,21.67-9.78,2.01-3.98,2.4-8.6,2.35-13.07-.03-3.58-.34-7.25-1.79-10.52-2.43-5.5-8.2-9.3-14.12-9.29-4.98,0-9.59,2.43-14.26,4.17-4.67,1.74-10.16,2.74-14.43,.11-1.87-1.15-3.31-2.89-5.07-4.21s-4.14-2.22-6.11-1.28c-2.89,1.38-.38,6.71-.38,6.71Z"/>
    <path class="cls-1" d="M316.12,200.17c2.43,4.31,2.01,9.12-.95,10.75-2.96,1.63-7.33-.54-9.76-4.85-2.43-4.31-.46-6.16,2.49-7.79,2.96-1.63,5.78-2.41,8.21,1.9Z"/>
    <g>
      <path class="cls-2" d="M492.52,240.37l-3.87-108.54c-.12-3.26-2.83-5.84-6.13-5.84h-43.73c-3.3,0-6.01,2.58-6.13,5.84l-4.47,125.33c-.12,3.42,2.66,6.26,6.13,6.26h89.34c3.68,0,6.66-2.94,6.66-6.57v-4.07c0-3.63-2.98-6.57-6.66-6.57h-25c-3.3,0-6.01-2.58-6.13-5.84Z"/>
      <g>
        <path class="cls-1" d="M448.83,172.27c0,3.72-3.05,6.73-6.82,6.73h-14.98c-3.77,0-6.82-3.01-6.82-6.73v-14.78c0-3.72,3.05-6.73,6.82-6.73h14.98c3.77,0,6.82,3.01,6.82,6.73v14.78Z"/>
        <path class="cls-1" d="M477.53,172.69c0,3.72-3.05,6.73-6.82,6.73h-10.2c-3.77,0-6.82-3.01-6.82-6.73v-10.06c0-3.72,3.05-6.73,6.82-6.73h10.2c3.77,0,6.82,3.01,6.82,6.73v10.06Z"/>
        <path class="cls-4" d="M437.3,170.13h-5.58c-1.4,0-2.54-1.12-2.54-2.51v-5.51c0-1.38,1.14-2.51,2.54-2.51h5.58c1.4,0,2.54,1.12,2.54,2.51v1.17c0,.25-.2,.45-.46,.45h-4.42c-.25,0-.46,.2-.46,.45v1.35c0,.25,.2,.45,.46,.45h4.42c.25,0,.46,.2,.46,.45v1.19c0,1.38-1.14,2.51-2.54,2.51Z"/>
        <path class="cls-4" d="M468.4,172.92h-5.58c-1.4,0-2.54-1.12-2.54-2.51v-5.51c0-1.38,1.14-2.51,2.54-2.51h5.58c1.4,0,2.54,1.12,2.54,2.51v1.17c0,.25-.2,.45-.46,.45h-4.42c-.25,0-.46,.2-.46,.45v1.35c0,.25,.2,.45,.46,.45h4.42c.25,0,.46,.2,.46,.45v1.19c0,1.38-1.14,2.51-2.54,2.51Z"/>
      </g>
    </g>
    <path class="cls-1" d="M466,212.25c2.46,8.89,1.36,23.04,6.77,22.78,5.41-.25,7.39-14.4,8.2-23.68,.85-9.73,6.15-19.41-12.15-8.63-4.67,2.75-5.57-.38-2.83,9.53Z"/>
    <path class="cls-6" d="M422.46,283.01c-4.02,53.91-.66,120.83-1.2,173.88-36.05,6.64-24.22-15.82-26.09-42.66,3.29-8.37-.24-16.34,.71-24.92,1.71-8.41-.28-17.2,.08-25.35-.24-22.12,3.31-59.19-1.81-87.6,2.75-5.89,15-.78,20.7-2.36,8.94-3.11,9.4,1.25,7.62,9.01Z"/>
    <path class="cls-7" d="M561,412.42c3.4-42.51-1.13-90.32,3.75-130.08,12.62-.12,30.69-6.94,26.95,11.68-1.01,13.46-.84,33.83,.13,44.91-.72,34.92-.2,85.89,.37,122.04-41.39,7.07-31.16-13.47-31.2-48.55Z"/>
    <path class="cls-8" d="M592.34,244.42c-2.62,7.85,4.3,22.16-8.28,18.37-6.9-3.02-21.58,5.75-20.9-4.99,1.95-6.07-3.83-15.53,.46-19.83,9.45,3.53,33.41-8.16,28.72,6.44Z"/>
    <path d="M608.66,266.05c-.13-.88-.1-1.71,.05-2.48-.07,0-.15,0-.22,0-2.79-36.69,2.23-45.52-38.21-41.88-26.17-2.67-20.44,16.08-23.8,33.66-.04,3.9,3.71,8.37-3.09,7.59-25.89-.74-64.52,1.39-90.84-1.03-49.02-1.09-65.43-6.07-70.79,9.87-1.75,5.21-3.08,31.19-3.53,59.32,.94,3.25,.6,7.31,.53,10.11-.14,5.09-.71,10.17-.9,15.25,.08-.04,.15-.08,.23-.13,.07,14.96,.43,28.92,1.16,38.97-.35,15.65-.21,45.82,.66,61.97-4.19,17.8,11.46,13.99,22.95,14.35,12.56-.67,37.92,3.76,34.2-15.69,.15-47,4-109.29,.82-158.72-3.85-22.61,2.84-16.8,20.87-15.96,28.36-.36,56.72,1.78,85.53,1.09,3.82-1.09,3.42,13.64,1.3,13.87,2.26,11.29,.9,21.75,.61,33.63,1.44,33.09,.81,86.28,.64,122.31-3.89,38.72,20.83,21.84,47.42,24.1,19.07-2.97,7.83-63.95,11.35-79.85,1.16-37.37,2.52-73.35,1.31-110.61,.42-.52,.95-.99,1.54-1.41,.54-6.06,1.13-12.27,.21-18.32Zm-186.2,16.96c-4.02,53.91-.66,120.83-1.2,173.88-36.05,6.64-24.22-15.82-26.09-42.66,3.29-8.37-.24-16.34,.71-24.92,1.71-8.41-.28-17.2,.08-25.35-.24-22.12,3.31-59.19-1.81-87.6,2.75-5.89,15-.78,20.7-2.36,8.94-3.11,9.4,1.25,7.62,9.01Zm138.31,129.4c3.4-42.51-1.13-90.32,3.75-130.08,12.62-.12,30.69-6.94,26.95,11.68-1.01,13.46-.84,33.83,.13,44.91-.72,34.92-.2,85.89,.37,122.04-41.39,7.07-31.16-13.47-31.2-48.55Zm31.57-168c-2.62,7.85,4.3,22.16-8.28,18.37-6.9-3.02-21.58,5.75-20.9-4.99,1.95-6.07-3.83-15.53,.46-19.83,9.45,3.53,33.41-8.16,28.72,6.44Z"/>
    <path d="M421.04,192.02c-30.61-49.75-57.53-97.89-88.98-148.23-7-11.1-19.62-40.33-32.14-43.79-1.46,1.8-4.41,6.8-8.49,14.22-.07,7.74,.86,15.64,1.29,23.33,.46,2.24,1.18,4.51,2.69,6.7,9.65,20.79,27.13,36.07,48.24,46.41-6.69,34.6,18.75,74,53.72,91.26,11.75,6.64,24.06,54.07,38.19,41.38,.51-11.87-9.89-20.87-14.51-31.29Zm-84.3-106.68c-15.92-16.26-51.54-45.06-38.52-74.88,13.04,19.5,25.91,51.88,42.85,70.9-3.1,3.27,3.33,1.92-4.33,3.98Zm12.42,13.66c17.81,24.46,29.63,51.48,46.51,76.55-29.06-16.65-51.57-47.49-46.51-76.55Z"/>
    <path d="M292.62,15.16c-.63,22.12-2.07,44.21-3.12,66.31-1.06,22.24-1.73,44.53-.83,66.8,.51,12.51,1.53,24.99,3.21,37.41,.11,.81,1.14,1.23,1.85,1.05,.87-.23,1.16-1.05,1.05-1.85-2.98-22.1-3.74-44.43-3.47-66.71,.27-21.99,1.56-43.95,2.71-65.9,.65-12.36,1.25-24.73,1.61-37.1,.06-1.93-2.94-1.93-3,0h0Z"/>
  </g>
</svg>